<svg version="1.2" baseProfile="tiny" viewBox="0 0 56.0 29.0" xmlns:xlink="http://www.w3.org/1999/xlink" xmlns="http://www.w3.org/2000/svg">
<path style="fill:#ffffff;" d="M54.9998,29.0C54.847,29.0,54.6941,28.9649,54.553,28.895L28.0,15.6191L1.447,28.895C1.1362,29.0481,0.7678,29.0339,0.4738,28.8509C0.1798,28.6691,0.0,28.3469,0.0,28.0001L0.0,0.9999C0.0,0.6539,0.1798,0.332,0.4749,0.1499C0.7689,-0.0319,1.1379,-0.0481,1.4482,0.1061L28.0,13.3821L54.553,0.1061C54.8632,-0.049,55.2311,-0.0339,55.5262,0.1499C55.8202,0.332,56.0,0.6539,56.0,0.9999L56.0,28.0001C56.0,28.3469,55.8202,28.6691,55.5251,28.8509C55.365,28.951,55.183,29.0,54.9998,29.0M30.2361,14.5L54.0002,26.3819L54.0002,2.619L30.2361,14.5M1.9998,2.619L1.9998,26.383L25.7639,14.5L1.9998,2.619"/>
</svg>