<svg version="1.2" baseProfile="tiny" viewBox="0 0 49.25 49.25" xmlns:xlink="http://www.w3.org/1999/xlink" xmlns="http://www.w3.org/2000/svg">
<path style="fill:#ffffff;" d="M40.1501,49.25L2.3502,49.25C2.0178,49.25,1.708,49.085,1.5218,48.8112C1.3362,48.5369,1.2982,48.1872,1.4209,47.8789L6.107,36.1662C2.2438,32.2499,0.0,26.9309,0.0,21.2499C0.0,9.5328,9.5318,0.0,21.2499,0.0L48.2502,0.0C48.8028,0.0,49.25,0.4482,49.25,0.9998L49.25,14.5002C49.25,15.0518,48.8028,15.5,48.2502,15.5L41.7108,15.5C42.2348,17.366,42.4998,19.2942,42.4998,21.2499C42.4998,26.8939,40.3362,32.1622,36.3908,36.1598L41.0789,47.8779C41.2021,48.1862,41.1651,48.5349,40.978,48.8102C40.7928,49.084,40.482,49.25,40.1501,49.25M3.8272,47.25L38.6731,47.25L34.8158,37.6068C28.4099,42.9199,20.8451,42.4959,20.8441,42.4959C20.8362,42.4959,20.8268,42.4959,20.8268,42.4959C13.5639,42.2959,8.8039,38.5391,7.682,37.6098L3.8272,47.25M34.5252,35.1901C38.3781,31.52,40.5002,26.5699,40.5002,21.2509C40.5002,19.0529,40.1309,16.8942,39.402,14.8341C39.2951,14.5278,39.3409,14.1879,39.529,13.923C39.7172,13.658,40.021,13.5009,40.3451,13.5009L47.249,13.5009L47.249,2.0L21.2489,2.0C10.636,2.0,2.0,10.636,2.0,21.2499C2.0,26.5738,4.1759,31.5471,7.8972,35.1231C12.841,39.8162,18.7711,40.4948,20.8579,40.4948C26.5699,40.4958,31.0339,38.515,34.5252,35.1901Z"/>
</svg>