<svg width="800" height="855" viewBox="0 0 800 855" fill="none" xmlns="http://www.w3.org/2000/svg">
<g id="BoxPicker">
<rect id="Background" width="800" height="853.994" rx="8" fill="#273849"/>
<g id="Machine">
<path id="Structure" d="M0 796.659V281.647H176.552V796.659H0Z" fill="#556080"/>
<g id="MachineElements">
<path id="Element12" d="M141.241 770.02C146.114 770.02 150.069 766.042 150.069 761.14V627.948C150.069 623.047 146.114 619.068 141.241 619.068C136.368 619.068 132.413 623.047 132.413 627.948V761.141C132.413 766.042 136.368 770.02 141.241 770.02Z" fill="#8697CB"/>
<path id="Element11" d="M105.931 770.02C110.804 770.02 114.759 766.042 114.759 761.14V627.948C114.759 623.047 110.804 619.068 105.931 619.068C101.049 619.068 97.103 623.047 97.103 627.948V761.141C97.103 766.042 101.049 770.02 105.931 770.02Z" fill="#8697CB"/>
<path id="Element10" d="M70.62 770.02C75.502 770.02 79.448 766.042 79.448 761.14V627.948C79.448 623.047 75.502 619.068 70.62 619.068C65.738 619.068 61.792 623.047 61.792 627.948V761.141C61.793 766.042 65.739 770.02 70.62 770.02Z" fill="#8697CB"/>
<path id="Element9" d="M35.31 770.02C40.192 770.02 44.138 766.042 44.138 761.14V627.948C44.138 623.047 40.192 619.068 35.31 619.068C30.428 619.068 26.482 623.047 26.482 627.948V761.141C26.482 766.042 30.428 770.02 35.31 770.02Z" fill="#8697CB"/>
<path id="Element8" d="M35.311 592.431V556.912H141.242V592.431H35.311Z" fill="#8697CB"/>
<path id="Element7" d="M105.931 521.394V485.875H141.242V521.394H105.931Z" fill="#8697CB"/>
<path id="Element6" d="M35.311 521.394V485.875H70.621V521.394H35.311Z" fill="#8697CB"/>
<path id="Element5" d="M141.241 459.238C146.114 459.238 150.069 455.259 150.069 450.358V423.719C150.069 418.817 146.114 414.839 141.241 414.839C136.368 414.839 132.413 418.817 132.413 423.719V450.358C132.413 455.259 136.368 459.238 141.241 459.238Z" fill="#8697CB"/>
<path id="Element4" d="M105.931 459.238C110.804 459.238 114.759 455.259 114.759 450.358V423.719C114.759 418.817 110.804 414.839 105.931 414.839C101.049 414.839 97.103 418.817 97.103 423.719V450.358C97.103 455.259 101.049 459.238 105.931 459.238Z" fill="#8697CB"/>
<path id="Element3" d="M70.62 459.238C75.502 459.238 79.448 455.259 79.448 450.358V423.719C79.448 418.817 75.502 414.839 70.62 414.839C65.738 414.839 61.792 418.817 61.792 423.719V450.358C61.793 455.259 65.739 459.238 70.62 459.238Z" fill="#8697CB"/>
<path id="Element2" d="M35.31 459.238C40.192 459.238 44.138 455.259 44.138 450.358V423.719C44.138 418.817 40.192 414.839 35.31 414.839C30.428 414.839 26.482 418.817 26.482 423.719V450.358C26.482 455.259 30.428 459.238 35.31 459.238Z" fill="#8697CB"/>
<path id="Element1" d="M35.311 388.201V317.165H141.242V388.201H35.311Z" fill="#8697CB"/>
</g>
<g id="MachineConveyor">
<path id="ConveyorLeg" d="M397.242 796.659V672.346H450.207V796.659H397.242Z" fill="#556080"/>
<path id="ConveyorBody" d="M176.551 565.792H459.034C488.289 565.792 512 589.642 512 619.068C512 648.494 488.289 672.346 459.034 672.346H176.551V565.792Z" fill="#8697CB"/>
<g id="ConveyorDots">
<path id="ConveyorDot4" d="M432.551 619.068C432.551 628.88 440.452 636.827 450.206 636.827C459.96 636.827 467.861 628.88 467.861 619.068C467.861 609.257 459.96 601.309 450.206 601.309C440.452 601.309 432.551 609.257 432.551 619.068Z" fill="#556080"/>
<path id="ConveyorDot3" d="M361.931 619.068C361.931 628.88 369.832 636.827 379.586 636.827C389.34 636.827 397.241 628.88 397.241 619.068C397.241 609.257 389.34 601.309 379.586 601.309C369.832 601.309 361.931 609.257 361.931 619.068Z" fill="#556080"/>
<path id="ConveyorDot2" d="M291.31 619.068C291.31 628.88 299.211 636.827 308.965 636.827C318.719 636.827 326.62 628.88 326.62 619.068C326.62 609.257 318.719 601.309 308.965 601.309C299.211 601.309 291.31 609.257 291.31 619.068Z" fill="#556080"/>
<path id="ConveyorDot1" d="M220.689 619.068C220.689 628.88 228.59 636.827 238.344 636.827C248.098 636.827 256 628.881 256 619.068C256 609.256 248.099 601.309 238.345 601.309C228.591 601.309 220.689 609.257 220.689 619.068Z" fill="#556080"/>
</g>
</g>
</g>
<path id="Base" d="M0 794.647H800V847C800 851.418 796.418 855 792 855H7.99999C3.58171 855 0 851.418 0 847V794.647Z" fill="#5A6C7A"/>
<g id="BoxObject">
<path id="Box" d="M371.931 566.242H266V468.434C266 463.604 269.893 459.688 274.695 459.688H363.236C368.038 459.688 371.931 463.604 371.931 468.434V566.242Z" fill="#CB8252"/>
<path id="Tape" d="M301.309 495.206H336.62V459.688H301.309V495.206Z" fill="#F9EBB0"/>
</g>
<g id="Picker">
<g id="PickerHook">
<path id="Tool" d="M649.606 397.459C644.724 397.459 640.778 393.481 640.778 388.579V335.301C640.778 330.4 644.724 326.422 649.606 326.422C654.488 326.422 658.434 330.4 658.434 335.301V388.579C658.434 393.482 654.488 397.459 649.606 397.459Z" fill="#BDC3C7"/>
<path id="Clamp" d="M587.865 477.384C586.77 477.384 585.667 477.189 584.59 476.763C573.238 472.288 567.429 454.209 571.093 434.718C573.512 421.807 586.338 379.7 649.606 379.7C712.864 379.7 725.691 421.806 728.127 434.709C731.79 454.2 725.982 472.278 714.621 476.762C710.11 478.538 704.964 476.3 703.18 471.736C701.397 467.173 703.639 462.023 708.176 460.228C710.383 458.594 713.887 446.643 709.359 432.408C705.201 419.355 691.916 397.459 649.605 397.459C607.286 397.459 593.991 419.365 589.851 432.417C585.322 446.652 588.827 458.594 591.272 460.344C595.801 462.137 597.928 467.225 596.145 471.799C594.786 475.279 591.405 477.384 587.865 477.384Z" fill="#BDC3C7"/>
</g>
<path id="PickerBody" d="M605 72V292H605.899C649.5 272.135 649.5 272.135 649.5 272.135C649.5 272.135 649.5 272.135 693.101 292H694V72H605Z" fill="#C03A2B"/>
<path id="PickerDetail" d="M693.744 290.905C693.744 315.421 673.979 335.302 649.606 335.302C625.233 335.302 605.468 315.421 605.468 290.905C605.468 266.388 625.233 246.508 649.606 246.508C673.979 246.508 693.744 266.388 693.744 290.905Z" fill="#962B23"/>
</g>
<g id="PickerConveyor">
<path id="PickerConveyor_2" d="M714.69 72.0413H273.31C253.81 72.0413 238 56.1383 238 36.5236C238 16.9089 253.81 1.00588 273.31 1.00588H714.69C734.19 1.00588 750 16.9089 750 36.5236C750 56.1383 734.19 72.0413 714.69 72.0413Z" fill="#2C3E50"/>
<g id="PickerConveyorDots">
<path id="PCDot13" d="M714.69 36.5236C714.69 31.6219 710.735 27.6436 705.862 27.6436C700.989 27.6436 697.034 31.6219 697.034 36.5236C697.034 41.4252 700.989 45.4035 705.862 45.4035C710.735 45.4025 714.69 41.4242 714.69 36.5236Z" fill="#5A6C7A"/>
<path id="PCDot12" d="M679.379 36.5236C679.379 31.6219 675.424 27.6436 670.551 27.6436C665.678 27.6436 661.723 31.6219 661.723 36.5236C661.723 41.4252 665.678 45.4035 670.551 45.4035C675.424 45.4035 679.379 41.4242 679.379 36.5236Z" fill="#5A6C7A"/>
<path id="PCDot11" d="M644.069 36.5236C644.069 31.6219 640.114 27.6436 635.241 27.6436C630.368 27.6436 626.413 31.6219 626.413 36.5236C626.413 41.4252 630.368 45.4035 635.241 45.4035C640.114 45.4025 644.069 41.4242 644.069 36.5236Z" fill="#5A6C7A"/>
<path id="PCDot10" d="M608.759 36.5236C608.759 31.6219 604.804 27.6436 599.931 27.6436C595.058 27.6436 591.103 31.6219 591.103 36.5236C591.103 41.4252 595.058 45.4035 599.931 45.4035C604.804 45.4025 608.759 41.4242 608.759 36.5236Z" fill="#5A6C7A"/>
<path id="PCDot9" d="M573.448 36.5236C573.448 31.6219 569.493 27.6436 564.62 27.6436C559.747 27.6436 555.792 31.6219 555.792 36.5236C555.792 41.4252 559.747 45.4035 564.62 45.4035C569.493 45.4035 573.448 41.4242 573.448 36.5236Z" fill="#5A6C7A"/>
<path id="PCDot8" d="M538.138 36.5236C538.138 31.6219 534.183 27.6436 529.31 27.6436C524.437 27.6436 520.482 31.6219 520.482 36.5236C520.482 41.4252 524.437 45.4035 529.31 45.4035C534.183 45.4025 538.138 41.4242 538.138 36.5236Z" fill="#5A6C7A"/>
<path id="PCDot7" d="M502.828 36.5236C502.828 31.6219 498.873 27.6436 494 27.6436C489.127 27.6436 485.172 31.6219 485.172 36.5236C485.172 41.4252 489.127 45.4035 494 45.4035C498.873 45.4035 502.828 41.4242 502.828 36.5236Z" fill="#5A6C7A"/>
<path id="PCDot6" d="M467.517 36.5236C467.517 31.6219 463.562 27.6436 458.689 27.6436C453.816 27.6436 449.861 31.6219 449.861 36.5236C449.861 41.4252 453.816 45.4035 458.689 45.4035C463.562 45.4035 467.517 41.4242 467.517 36.5236Z" fill="#5A6C7A"/>
<path id="PCDot5" d="M432.207 36.5236C432.207 31.6219 428.252 27.6436 423.379 27.6436C418.506 27.6436 414.551 31.6219 414.551 36.5236C414.551 41.4252 418.506 45.4035 423.379 45.4035C428.252 45.4025 432.207 41.4242 432.207 36.5236Z" fill="#5A6C7A"/>
<path id="PCDot4" d="M396.897 36.5236C396.897 31.6219 392.942 27.6436 388.069 27.6436C383.196 27.6436 379.241 31.6219 379.241 36.5236C379.241 41.4252 383.196 45.4035 388.069 45.4035C392.942 45.4025 396.897 41.4242 396.897 36.5236Z" fill="#5A6C7A"/>
<path id="PCDot3" d="M361.586 36.5236C361.586 31.6219 357.631 27.6436 352.758 27.6436C347.885 27.6436 343.93 31.6219 343.93 36.5236C343.93 41.4252 347.885 45.4035 352.758 45.4035C357.631 45.4025 361.586 41.4242 361.586 36.5236Z" fill="#5A6C7A"/>
<path id="PCDot2" d="M326.276 36.5236C326.276 31.6219 322.321 27.6436 317.448 27.6436C312.575 27.6436 308.62 31.6219 308.62 36.5236C308.62 41.4252 312.575 45.4035 317.448 45.4035C322.321 45.4035 326.276 41.4242 326.276 36.5236Z" fill="#5A6C7A"/>
<path id="PCDot1" d="M290.966 36.5236C290.966 31.6219 287.011 27.6436 282.138 27.6436C277.265 27.6436 273.31 31.6219 273.31 36.5236C273.31 41.4252 277.265 45.4035 282.138 45.4035C287.011 45.4035 290.966 41.4242 290.966 36.5236Z" fill="#5A6C7A"/>
</g>
</g>
</g>
</svg>
