<?xml version="1.0" encoding="iso-8859-1"?>
<svg version="1.1" id="Overall" xmlns="http://www.w3.org/2000/svg" xmlns:xlink="http://www.w3.org/1999/xlink" x="0px" y="0px"
	 viewBox="0 0 512 512" style="enable-background:new 0 0 512 512;" xml:space="preserve">
	<g id="ConveyorFrame1">
		<polygon style="fill:#78839E;" points="162.133,4.267 162.133,226.133 187.733,226.133 187.733,277.333 332.8,277.333 332.8,4.267 		"/>
	</g>
	<g id="Legs">
		<polygon style="fill:#556080;" points="34.132,499.2 85.332,499.2 85.332,379.733 34.132,379.733 		"/>
		<polygon style="fill:#556080;" points="426.666,499.2 477.866,499.2 477.866,379.733 426.666,379.733 		"/>
	</g>
	<g id="ConveyorChassis">
		<polygon style="fill:#3C4660;" points="8.532,379.733 503.466,379.733 503.466,277.333 8.532,277.333 		"/>
	</g>
	<g id="Base">	
		<path style="fill:#3C4660;" d="M503.467,507.733H8.533C3.814,507.733,0,503.91,0,499.2s3.814-8.533,8.533-8.533h494.933
			c4.719,0,8.533,3.823,8.533,8.533S508.186,507.733,503.467,507.733"/>
	</g>
	<g id="ConveyorFrame2">
		<polygon style="fill:#556080;" points="332.799,277.333 503.466,277.333 503.466,4.267 332.799,4.267 	"/>
	</g>
	<g id="Controls1">
		<polygon style="fill:#556080;" points="204.799,166.4 290.133,166.4 290.133,98.133 204.799,98.133 	"/>
	</g>
	<g id="Controls2">
		<polygon style="fill:#3C4660;" points="366.932,106.667 469.333,106.667 469.333,38.4 366.932,38.4 	"/>
		<path style="fill:#3C4660;" d="M366.933,174.933c-4.719,0-8.533-3.823-8.533-8.533v-25.6c0-4.71,3.814-8.533,8.533-8.533
			c4.719,0,8.533,3.823,8.533,8.533v25.6C375.467,171.11,371.652,174.933,366.933,174.933"/>
		<path style="fill:#3C4660;" d="M469.333,174.933c-4.719,0-8.533-3.823-8.533-8.533v-25.6c0-4.71,3.814-8.533,8.533-8.533
			c4.719,0,8.533,3.823,8.533,8.533v25.6C477.867,171.11,474.052,174.933,469.333,174.933"/>
		<path style="fill:#3C4660;" d="M435.2,174.933c-4.719,0-8.533-3.823-8.533-8.533v-25.6c0-4.71,3.814-8.533,8.533-8.533
			c4.719,0,8.533,3.823,8.533,8.533v25.6C443.733,171.11,439.919,174.933,435.2,174.933"/>
		<path style="fill:#3C4660;" d="M401.067,174.933c-4.719,0-8.533-3.823-8.533-8.533v-25.6c0-4.71,3.814-8.533,8.533-8.533
			c4.719,0,8.533,3.823,8.533,8.533v25.6C409.6,171.11,405.786,174.933,401.067,174.933"/>
		<polygon style="fill:#3C4660;" points="366.932,234.667 401.066,234.667 401.066,200.533 366.932,200.533 		"/>
		<polygon style="fill:#3C4660;" points="435.199,234.667 469.333,234.667 469.333,200.533 435.199,200.533 		"/>
	</g>
	<g id="ConveyorRollers">
		<path style="fill:#556080;" d="M102.4,328.533c0,9.429-7.637,17.067-17.067,17.067s-17.067-7.637-17.067-17.067
			c0-9.429,7.637-17.067,17.067-17.067S102.4,319.104,102.4,328.533"/>
		<path style="fill:#556080;" d="M170.667,328.533c0,9.429-7.637,17.067-17.067,17.067s-17.067-7.637-17.067-17.067
			c0-9.429,7.637-17.067,17.067-17.067S170.667,319.104,170.667,328.533"/>
		<path style="fill:#556080;" d="M238.933,328.533c0,9.429-7.637,17.067-17.067,17.067c-9.429,0-17.067-7.637-17.067-17.067
			c0-9.429,7.637-17.067,17.067-17.067C231.296,311.467,238.933,319.104,238.933,328.533"/>
		<path style="fill:#556080;" d="M307.2,328.533c0,9.429-7.637,17.067-17.067,17.067c-9.429,0-17.067-7.637-17.067-17.067
			c0-9.429,7.637-17.067,17.067-17.067C299.563,311.467,307.2,319.104,307.2,328.533"/>
		<path style="fill:#556080;" d="M375.467,328.533c0,9.429-7.637,17.067-17.067,17.067c-9.429,0-17.067-7.637-17.067-17.067
			c0-9.429,7.637-17.067,17.067-17.067C367.829,311.467,375.467,319.104,375.467,328.533"/>
		<path style="fill:#556080;" d="M443.733,328.533c0,9.429-7.637,17.067-17.067,17.067s-17.067-7.637-17.067-17.067
			c0-9.429,7.637-17.067,17.067-17.067S443.733,319.104,443.733,328.533"/>
	</g>
	<g id="Box1">
		<polygon style="fill:#CB8252;" points="25.599,277.333 76.799,277.333 76.799,226.133 25.599,226.133 		"/>
	</g>
	<g id="Box2">
		<polygon style="fill:#CB8252;" points="136.532,277.333 187.732,277.333 187.732,226.133 136.532,226.133 		"/>
	</g>
	<g id="Box3">
		<polygon style="fill:#CB8252;" points="247.466,277.333 298.666,277.333 298.666,226.133 247.466,226.133 		"/>
	</g>
</svg>
