<?xml version="1.0" encoding="UTF-8"?><svg id="icona" xmlns="http://www.w3.org/2000/svg" width="370" height="370" viewBox="0 0 370 370"><defs><style>.cls-1{fill:#323e48;}</style></defs><path class="cls-1" d="m174.3,264.3h21c.6,0,1.1-.2,1.5-.6s.6-.9.6-1.5v-88.2c0-.6-.2-1.1-.6-1.5-.4-.4-.9-.6-1.5-.6h-21c-.6,0-1.1.2-1.5.6-.4.4-.6.9-.6,1.5v88.2c0,.6.2,1.1.6,1.5.4.4.9.6,1.5.6Zm5.8-84.5h9.3v76.5h-9.3v-76.5Z"/><path class="cls-1" d="m185.1,161.6c4.1,0,7.5-1.3,10.1-4,2.7-2.7,4-6.1,4-10.1s-1.3-7.6-4-10.2c-2.6-2.6-6-3.9-10.2-3.9s-7.6,1.3-10.2,3.9c-2.6,2.6-4,6-4,10.2s1.3,7.5,4,10.1c2.7,2.7,6.1,4,10.1,4Zm-4.6-18.8c.7-.7,1.9-1.6,4.6-1.6s3.8.9,4.6,1.6c.8.8,1.6,2,1.6,4.6s-.5,3.3-1.7,4.5-2.5,1.7-4.5,1.7-3.3-.5-4.5-1.7-1.7-2.5-1.7-4.5.9-3.8,1.6-4.6Z"/><path class="cls-1" d="m266.4,279.2l14.2-14.2c1.6-1.6,1.6-4.1,0-5.7-1.6-1.6-4.1-1.6-5.7,0l-14.2,14.2c-.8.8-1.8,1.2-2.8,1.2h-72.8c-2.2,0-4,1.8-4,4s1.8,4,4,4h72.8c3.2,0,6.2-1.2,8.5-3.5Z"/><path class="cls-1" d="m195.3,101.3c-2.2-3.8-6-6-10.4-6,0,0,0,0,0,0-4.3,0-8.2,2.2-10.4,6l-95.4,163.5c-2.2,3.8-2.2,8.3,0,12,2.2,3.8,6.1,6,10.4,6h79.8c2.2,0,4-1.8,4-4s-1.8-4-4-4h-79.8c-2.1,0-3.1-1.4-3.5-2-.3-.6-1-2.2,0-4l95.4-163.5c1-1.8,2.8-2,3.5-2s0,0,0,0c.7,0,2.4.2,3.5,2l82.7,144.2c1.1,1.9,3.5,2.6,5.5,1.5,1.9-1.1,2.6-3.5,1.5-5.5l-82.7-144.2Z"/></svg>