<?xml version="1.0" encoding="UTF-8"?><svg id="icona" xmlns="http://www.w3.org/2000/svg" width="370" height="370" viewBox="0 0 370 370"><defs><style>.cls-1{fill:#323e48;}</style></defs><path class="cls-1" d="m222.6,288.5v-64.7c5.2-2.1,10-5.2,14-9l2.9,2.9c.3.3.5.4.8.6l-3.7,3.7c-1.6,1.6-1.6,4.1,0,5.7,1.6,1.6,4.1,1.6,5.7,0l10-10,41.4,40.6c.8.8,1.8,1.1,2.8,1.1s2.1-.4,2.9-1.2c1.5-1.6,1.5-4.1,0-5.7l-44.2-43.4c-1.6-1.5-4.1-1.5-5.6,0l-3.7,3.7c-.2-.3-.4-.6-.6-.8l-3.2-3.2c5.5-7.4,8.7-16.6,8.7-26.6,0-18.8-11.6-34.9-28.1-41.6v-18.9c0-2.2-1.8-4-4-4s-4,1.8-4,4v16.5c-2.9-.6-5.8-.9-8.8-.9-24.8,0-44.9,20.1-44.9,44.9s20.1,44.9,44.9,44.9,6-.3,8.8-.9v60.7H75.4V92.1h57.7c2.2,0,4-1.8,4-4s-1.8-4-4-4h-59.4c-3.5,0-6.3,2.8-6.3,6.3v198.1c0,3.5,2.8,6.3,6.3,6.3h142.5c3.5,0,6.3-2.8,6.3-6.3Zm-53.7-106.3c0-20.3,16.6-36.9,36.9-36.9s36.9,16.6,36.9,36.9-16.6,36.9-36.9,36.9-36.9-16.6-36.9-36.9Z"/><path class="cls-1" d="m213.9,110.3c1.6-1.6,1.6-4.1,0-5.7l-17.4-17.4c-2.1-2.1-4.8-3.2-7.7-3.2h-31.3c-2.2,0-4,1.8-4,4s1.8,4,4,4h31.3c.8,0,1.5.3,2,.8l17.4,17.4c.8.8,1.8,1.2,2.8,1.2s2-.4,2.8-1.2Z"/><path class="cls-1" d="m179.9,97.7c-2.2,0-4,1.8-4,4v26.6c0,2.2,1.8,4,4,4h26.4c2.2,0,4-1.8,4-4s-1.8-4-4-4h-22.4v-22.6c0-2.2-1.8-4-4-4Z"/><path class="cls-1" d="m195.1,166.2c1.8-1.2,2.3-3.7,1.1-5.6-1.2-1.8-3.7-2.3-5.6-1.1-7.5,5.1-12,13.5-12,22.6s4.3,17.1,11.5,22.2c.7.5,1.5.7,2.3.7,1.3,0,2.5-.6,3.3-1.7,1.3-1.8.9-4.3-.9-5.6-5.1-3.6-8.1-9.5-8.1-15.7s3.2-12.4,8.5-15.9Z"/><path class="cls-1" d="m310,264.5h-24.4c-.8,0-1.6-.3-2.2-.9l-32.1-32.1c-1.6-1.6-4.1-1.6-5.7,0-1.6,1.6-1.6,4.1,0,5.7l32.1,32.1c2.1,2.1,4.9,3.2,7.8,3.2h24.4c2.2,0,4-1.8,4-4s-1.8-4-4-4Z"/><path class="cls-1" d="m131.8,140.1c-1.8-1.2-4.3-.8-5.5,1-1.3,1.8-.8,4.3,1,5.6.7.5,1.5.7,2.3.7,1.3,0,2.5-.6,3.3-1.7,0,0,0,0,0,0,1.2-1.8.7-4.3-1.1-5.5Z"/><path class="cls-1" d="m112.1,115.4c2.2-.3,3.7-2.4,3.3-4.6-.3-2.1-2.2-3.5-4.2-3.4-2.1.1-3.8,1.9-3.8,4s1.8,4,4,4,.4,0,.6,0Z"/><path class="cls-1" d="m101,149.7c1.6-1.6,1.6-4.1,0-5.7-.1-.1-.2-.2-.3-.3-1.7-1.4-4.2-1.1-5.6.6-1.3,1.7-1.1,4,.4,5.5.8.7,1.7,1.1,2.7,1.1s2-.4,2.8-1.2Z"/><path class="cls-1" d="m94.3,120.9c-2-.6-4.2.5-4.9,2.5-.7,2,.2,4.2,2.2,5.1.5.2,1,.3,1.5.3,1.6,0,3.1-.9,3.7-2.5,0-.1.1-.3.2-.4.6-2.1-.6-4.3-2.7-4.9Z"/><path class="cls-1" d="m107.6,156.1c.2,0,.3,0,.5.1.2,0,.4,0,.6,0,1.9,0,3.6-1.4,3.9-3.4.3-2.1-1.1-4.1-3.1-4.5-2-.4-4.1.8-4.7,2.8-.6,2.1.6,4.3,2.7,4.9Z"/><path class="cls-1" d="m134.3,125.4l11.1-11.1c1.6-1.6,1.6-4.1,0-5.7-1.6-1.6-4.1-1.6-5.7,0l-25.5,25.5-8.9-9.4c-1.5-1.6-4-1.7-5.7-.2-1.6,1.5-1.7,4-.2,5.7l11.7,12.4c.7.8,1.8,1.2,2.9,1.3,0,0,0,0,0,0,1.1,0,2.1-.4,2.8-1.2l12.5-12.5c-.3.6-.5,1.2-.5,1.9,0,2.2,1.8,4,4,4s4-1.8,4-4h0c0-2.2-1.8-4-4-4s-1.3.2-1.9.5l2.1-2.1c.4-.3.8-.6,1-1Z"/><path class="cls-1" d="m100.3,119.4c.8,0,1.6-.2,2.4-.8,1.8-1.3,2.2-3.8.9-5.6-1.3-1.8-3.8-2.2-5.6-.9h0c-1.8,1.3-2.2,3.8-.9,5.6.8,1.1,2,1.6,3.2,1.6Z"/><path class="cls-1" d="m121.1,117.9c.6.3,1.3.5,1.9.5,1.4,0,2.8-.8,3.5-2.1,1-1.9.4-4.2-1.4-5.3-1.8-1.1-4.2-.6-5.4,1.2-1.2,1.8-.7,4.3,1.1,5.5,0,0,.2.1.3.2Z"/><path class="cls-1" d="m119,147.3c-1.9.8-2.9,2.9-2.3,4.9.5,1.7,2.1,2.8,3.8,2.8s.8,0,1.2-.2c.2,0,.4-.2.6-.2,2-1,2.8-3.4,1.8-5.4-.9-1.9-3.2-2.7-5.1-1.9Z"/><path class="cls-1" d="m88.4,137.5c.4,1.9,2.1,3.1,3.9,3.1s.6,0,.8,0c2.2-.5,3.5-2.6,3.1-4.7,0,0,0,0,0-.1-.5-2.1-2.7-3.4-4.9-2.9-2.1.5-3.4,2.7-2.9,4.8Z"/><path class="cls-1" d="m119.7,170.1c-1.2,1.8-.7,4.3,1.1,5.5,0,0,.2.1.3.2.6.3,1.3.5,1.9.5,1.4,0,2.8-.8,3.5-2.1,1-1.9.4-4.2-1.4-5.3-1.8-1.1-4.2-.6-5.4,1.2Z"/><path class="cls-1" d="m107.6,214.1c.2,0,.3,0,.5.1.2,0,.4,0,.6,0,1.9,0,3.6-1.4,3.9-3.4.3-2.1-1.1-4.1-3.1-4.5-2-.4-4.1.8-4.7,2.8-.6,2.1.6,4.3,2.7,4.9Z"/><path class="cls-1" d="m94.3,178.9c-2-.6-4.2.5-4.9,2.5-.7,2,.2,4.2,2.2,5.1.5.2,1,.3,1.5.3,1.6,0,3.1-.9,3.7-2.5,0-.1.1-.3.2-.4.6-2.1-.6-4.3-2.7-4.9Z"/><path class="cls-1" d="m137,190c0-2.2-1.8-4-4-4s-4,1.8-4,4,1.8,4,4,4,4-1.8,4-4h0Z"/><path class="cls-1" d="m116.7,210.1c.5,1.7,2.1,2.8,3.8,2.8s.8,0,1.2-.2c.2,0,.4-.2.6-.2,2-1,2.8-3.4,1.8-5.4-.9-1.9-3.2-2.7-5.1-1.9-1.9.8-2.9,2.9-2.3,4.9Z"/><path class="cls-1" d="m101,207.7c1.6-1.6,1.6-4.1,0-5.7-.1-.1-.2-.2-.3-.3-1.7-1.4-4.2-1.1-5.6.6-1.3,1.7-1.1,4,.4,5.5.8.7,1.7,1.1,2.7,1.1s2-.4,2.8-1.2Z"/><path class="cls-1" d="m115.5,168.8c-.3-2.1-2.2-3.5-4.2-3.4-2.1.1-3.8,1.9-3.8,4s1.8,4,4,4,.4,0,.6,0c2.2-.3,3.7-2.4,3.3-4.6Z"/><path class="cls-1" d="m103.6,171c-1.3-1.8-3.8-2.2-5.6-.9h0c-1.8,1.3-2.2,3.8-.9,5.6.8,1.1,2,1.6,3.2,1.6s1.6-.2,2.4-.8c1.8-1.3,2.2-3.8.9-5.6Z"/><path class="cls-1" d="m131.8,198c-1.8-1.2-4.3-.8-5.5,1-1.3,1.8-.8,4.3,1,5.6.7.5,1.5.7,2.3.7,1.3,0,2.5-.6,3.3-1.7,0,0,0,0,0,0,1.2-1.8.7-4.3-1.1-5.5Z"/><path class="cls-1" d="m88.4,195.4c.4,1.9,2.1,3.1,3.9,3.1s.6,0,.8,0c2.2-.5,3.5-2.6,3.1-4.7,0,0,0,0,0-.1-.5-2.1-2.7-3.4-4.9-2.9-2.1.5-3.4,2.7-2.9,4.8Z"/><path class="cls-1" d="m132.8,184.6c2-1,2.8-3.4,1.8-5.4h0c-1-2-3.4-2.8-5.4-1.8-2,1-2.8,3.4-1.8,5.4.7,1.4,2.1,2.2,3.6,2.2s1.2-.1,1.8-.4Z"/><path class="cls-1" d="m116.7,271.6c.5,1.7,2.1,2.8,3.8,2.8s.8,0,1.2-.2c.2,0,.4-.2.6-.2,2-1,2.8-3.4,1.8-5.4-.9-1.9-3.2-2.7-5.1-1.9-1.9.8-2.9,2.9-2.3,4.9Z"/><path class="cls-1" d="m129.2,239c-2,1-2.8,3.4-1.8,5.4.7,1.4,2.1,2.2,3.6,2.2s1.2-.1,1.8-.4c2-1,2.8-3.4,1.8-5.4h0c-1-2-3.4-2.8-5.4-1.8Z"/><path class="cls-1" d="m126.5,235.7c1-1.9.4-4.2-1.4-5.3-1.8-1.1-4.2-.6-5.4,1.2-1.2,1.8-.7,4.3,1.1,5.5,0,0,.2.1.3.2.6.3,1.3.5,1.9.5,1.4,0,2.8-.8,3.5-2.1Z"/><path class="cls-1" d="m127.3,266.1c.7.5,1.5.7,2.3.7,1.3,0,2.5-.6,3.3-1.7,0,0,0,0,0,0,1.2-1.8.7-4.3-1.1-5.5-1.8-1.2-4.3-.8-5.5,1-1.3,1.8-.8,4.3,1,5.6Z"/><path class="cls-1" d="m137,251.5h0c0-2.2-1.8-4-4-4s-4,1.8-4,4,1.8,4,4,4,4-1.8,4-4Z"/><path class="cls-1" d="m107.6,275.6c.2,0,.3,0,.5.1.2,0,.4,0,.6,0,1.9,0,3.6-1.4,3.9-3.4.3-2.1-1.1-4.1-3.1-4.5-2-.4-4.1.8-4.7,2.8-.6,2.1.6,4.3,2.7,4.9Z"/><path class="cls-1" d="m103.6,232.4c-1.3-1.8-3.8-2.2-5.6-.9h0c-1.8,1.3-2.2,3.8-.9,5.6.8,1.1,2,1.6,3.2,1.6s1.6-.2,2.4-.8c1.8-1.3,2.2-3.8.9-5.6Z"/><path class="cls-1" d="m115.5,230.3c-.3-2.1-2.2-3.5-4.2-3.4-2.1.1-3.8,1.9-3.8,4s1.8,4,4,4,.4,0,.6,0c2.2-.3,3.7-2.4,3.3-4.6Z"/><path class="cls-1" d="m88.4,256.9c.4,1.9,2.1,3.1,3.9,3.1s.6,0,.8,0c2.2-.5,3.5-2.6,3.1-4.7,0,0,0,0,0-.1-.5-2.1-2.7-3.4-4.9-2.9-2.1.5-3.4,2.7-2.9,4.8Z"/><path class="cls-1" d="m98.2,270.3c1,0,2-.4,2.8-1.2,1.6-1.6,1.6-4.1,0-5.7-.1-.1-.2-.2-.3-.3-1.7-1.4-4.2-1.1-5.6.6-1.3,1.7-1.1,4,.4,5.5.8.7,1.7,1.1,2.7,1.1Z"/><path class="cls-1" d="m89.4,242.9c-.7,2,.2,4.2,2.2,5.1.5.2,1,.3,1.5.3,1.6,0,3.1-.9,3.7-2.5,0-.1.1-.3.2-.4.6-2.1-.6-4.3-2.7-4.9-2-.6-4.2.5-4.9,2.5Z"/></svg>