<?xml version="1.0" encoding="UTF-8"?><svg id="icona" xmlns="http://www.w3.org/2000/svg" width="370" height="370" viewBox="0 0 370 370"><defs><style>.cls-1{fill:#323e48;}</style></defs><path class="cls-1" d="m89,132.6c-.4.5-1,.9-1.8,1.1-.8.2-1.8.3-3.1.3-.2,0-.3,0-.4.2-.1.1-.2.2-.2.4v4.2c0,.2,0,.3,0,.4,0,.1.1.2.2.2h.3c2.6,0,4.7-.3,6.1-.8,1.4-.5,2.6-1.3,3.4-2.5.8-1.1,1.6-2.8,2.4-5.1l8-24c0-.2,0-.4,0-.5,0-.1-.2-.2-.4-.2h-5.6c-.3,0-.6.2-.6.5l-3.9,15c0,0,0,.1-.1.1s-.1,0-.1-.1l-3.9-15c0-.3-.3-.5-.6-.5h-5.8c-.3,0-.5.1-.5.4s0,.2,0,.2l7.6,23c0,.1,0,.2,0,.3-.2,1-.6,1.8-1,2.3Z"/><path class="cls-1" d="m262.4,264c.1-.2.2-.3,0-.5,0-.1-.2-.2-.4-.2h-6.2c-.3,0-.5.1-.6.4l-4.2,6.3c0,.2-.2.2-.3,0l-4.2-6.3c-.2-.2-.4-.4-.6-.4h-5.8c-.3,0-.5.1-.5.4s0,.2,0,.3l7.4,11c0,0,0,.2,0,.3l-7.4,11c-.1.2-.1.3,0,.5,0,.1.2.2.4.2h6.2c.3,0,.5-.1.6-.4l4.2-6.3c0-.2.2-.2.3,0l4.2,6.3c.2.2.4.4.6.4h5.8c.3,0,.4-.1.4-.4s0-.2,0-.3l-7.4-11c0,0,0-.2,0-.3l7.4-11Z"/><path class="cls-1" d="m170.6,197c-1.6-1.6-4.1-1.6-5.7,0l-67.6,67.6v-104.6l1.9,1.9c.8.8,1.8,1.2,2.8,1.2s2-.4,2.8-1.2c1.6-1.6,1.6-4.1,0-5.7l-8.7-8.7c0,0-.1,0-.2-.1-.1-.1-.3-.3-.4-.4-.1,0-.2-.1-.4-.2-.1,0-.2-.1-.3-.2-.1,0-.3,0-.4-.1-.1,0-.2,0-.3,0-.3,0-.5,0-.8,0h0s0,0,0,0c-.3,0-.5,0-.8,0-.1,0-.2,0-.4.1-.1,0-.3,0-.4.1-.1,0-.3.1-.4.2,0,0-.2,0-.3.1-.2.1-.4.3-.6.5l-8.7,8.7c-1.6,1.6-1.6,4.1,0,5.7.8.8,1.8,1.2,2.8,1.2s2-.4,2.8-1.2l1.9-1.9v113.2c-.5,1.4-.2,3,.9,4.1s1.8,1.2,2.8,1.2,1.3-.2,1.8-.5h124.8l-1.9,1.9c-1.6,1.6-1.6,4.1,0,5.7s1.8,1.2,2.8,1.2,2-.4,2.8-1.2l8.7-8.7s0,0,0,0c0,0,0,0,.1-.1.1-.1.3-.3.4-.5,0-.1.1-.2.2-.4,0-.1.1-.2.2-.3,0-.1,0-.3.1-.4,0-.1,0-.2,0-.3,0,0,0,0,0,0,0-.5,0-1,0-1.5,0-.1,0-.2-.1-.4,0-.1,0-.3-.1-.4,0-.1-.1-.3-.2-.4,0,0,0-.2-.2-.3-.1-.2-.3-.4-.5-.6l-8.7-8.7c-1.6-1.6-4.1-1.6-5.7,0-1.6,1.6-1.6,4.1,0,5.7l1.9,1.9h-116.5l67.4-67.4c1.6-1.6,1.6-4.1,0-5.7Z"/><path class="cls-1" d="m341.2,110.7c-2.2,0-4,1.8-4,4v194.9H32.7V79.6h123.8c2.2,0,4-1.8,4-4s-1.8-4-4-4H31.5c-3.7,0-6.7,3-6.7,6.7v232.5c0,3.7,3,6.7,6.7,6.7h307c3.7,0,6.7-3,6.7-6.7V114.7c0-2.2-1.8-4-4-4Z"/><path class="cls-1" d="m309.5,80.8l20.2,20.2c.8.8,1.8,1.2,2.8,1.2s2-.4,2.8-1.2c1.6-1.6,1.6-4.1,0-5.7l-20.2-20.2c-2.3-2.3-5.3-3.5-8.5-3.5h-121.7c-2.2,0-4,1.8-4,4s1.8,4,4,4h121.7c1.1,0,2.1.4,2.8,1.2Z"/></svg>