<?xml version="1.0" encoding="UTF-8"?><svg id="icona" xmlns="http://www.w3.org/2000/svg" width="370" height="370" viewBox="0 0 370 370"><defs><style>.cls-1{fill:#323e48;}</style></defs><path class="cls-1" d="m229,292.2v-60c4.8-2,9.1-4.8,12.8-8.2l2.5,2.5c.2.2.3.3.5.4l-3.2,3.2c-1.6,1.6-1.6,4.1,0,5.7,1.6,1.6,4.1,1.6,5.7,0l9.1-9.1,38.3,37.6c.8.8,1.8,1.1,2.8,1.1s2.1-.4,2.9-1.2c1.5-1.6,1.5-4.1,0-5.7l-41.1-40.4c-1.6-1.5-4.1-1.5-5.6,0l-3.2,3.2c-.1-.2-.3-.4-.4-.5l-2.8-2.8c5.1-6.9,8-15.5,8-24.7,0-17.6-10.8-32.6-26.1-38.9v-17.4c0-2.2-1.8-4-4-4s-4,1.8-4,4v15c-2.6-.5-5.2-.8-7.9-.8-17.3,0-32.2,10.5-38.7,25.5h-61.4c-2.2,0-4,1.8-4,4s1.8,4,4,4h58.8c-.6,2.7-.9,5.6-.9,8.5s.3,5.8.9,8.5h-58.8c-2.2,0-4,1.8-4,4s1.8,4,4,4h61.4c2.9,6.8,7.5,12.6,13.3,17h-74.7c-2.2,0-4,1.8-4,4s1.8,4,4,4h87.5c.9,0,1.6-.3,2.3-.7,3.3.8,6.7,1.3,10.2,1.3s5.4-.3,7.9-.8v55.8H92V109.7h53.4c2.2,0,4-1.8,4-4s-1.8-4-4-4h-55.2c-3.4,0-6.2,2.8-6.2,6.2v184.3c0,3.4,2.8,6.2,6.2,6.2h132.6c3.4,0,6.2-2.8,6.2-6.2Zm-50-98.9c0-18.8,15.3-34.1,34.1-34.1s34.1,15.3,34.1,34.1-15.3,34.1-34.1,34.1-34.1-15.3-34.1-34.1Z"/><path class="cls-1" d="m220.8,126.6c1.6-1.6,1.6-4.1,0-5.7l-16.2-16.2c-2-2-4.6-3-7.4-3h-29.2c-2.2,0-4,1.8-4,4s1.8,4,4,4h29.2c.6,0,1.2.2,1.7.7l16.2,16.2c.8.8,1.8,1.2,2.8,1.2s2-.4,2.8-1.2Z"/><path class="cls-1" d="m188.9,114.4c-2.2,0-4,1.8-4,4v24.8c0,2.2,1.8,4,4,4h24.6c2.2,0,4-1.8,4-4s-1.8-4-4-4h-20.6v-20.8c0-2.2-1.8-4-4-4Z"/><path class="cls-1" d="m109,155.7c0,2.2,1.8,4,4,4h62.5c2.2,0,4-1.8,4-4s-1.8-4-4-4h-62.5c-2.2,0-4,1.8-4,4Z"/><path class="cls-1" d="m201.3,259.8c2.2,0,4-1.8,4-4s-1.8-4-4-4h-88.2c-2.2,0-4,1.8-4,4s1.8,4,4,4h88.2Z"/><path class="cls-1" d="m203.2,178.7c1.8-1.2,2.3-3.7,1.1-5.6s-3.7-2.3-5.6-1.1c-7.1,4.8-11.3,12.7-11.3,21.2s4,16.1,10.8,20.9c.7.5,1.5.7,2.3.7,1.3,0,2.5-.6,3.3-1.7,1.3-1.8.9-4.3-.9-5.6-4.6-3.3-7.4-8.7-7.4-14.4s2.9-11.3,7.8-14.6Z"/><path class="cls-1" d="m314,273.6c0-2.2-1.8-4-4-4h-22.7c-.7,0-1.3-.3-1.8-.7l-29.9-29.8c-1.6-1.6-4.1-1.6-5.7,0s-1.6,4.1,0,5.7l29.9,29.8c2,2,4.6,3.1,7.5,3.1h22.7c2.2,0,4-1.8,4-4Z"/></svg>