<?xml version="1.0" encoding="UTF-8"?><svg id="icona" xmlns="http://www.w3.org/2000/svg" width="370" height="370" viewBox="0 0 370 370"><defs><style>.cls-1{fill:#323e48;}</style></defs><path class="cls-1" d="m207.5,159.2c-1.9-1-4.1-1.5-6.6-1.5s-4.7.5-6.6,1.5c-1.9,1-3.4,2.4-4.4,4.3-1.1,1.8-1.6,4-1.6,6.4v12.1c0,2.4.5,4.6,1.6,6.4,1.1,1.9,2.5,3.3,4.4,4.3,1.9,1,4.1,1.5,6.6,1.5s4.7-.5,6.6-1.5c1.9-1,3.4-2.5,4.4-4.3,1.1-1.9,1.6-4,1.6-6.4v-12.1c0-2.4-.5-4.5-1.6-6.4-1.1-1.8-2.5-3.3-4.4-4.3Zm1.1,23c0,2.3-.7,4.2-2.1,5.7-1.4,1.4-3.3,2.1-5.6,2.1s-4.2-.7-5.6-2.1c-1.4-1.4-2.1-3.3-2.1-5.7v-12.4c0-2.4.7-4.3,2.1-5.7,1.4-1.4,3.3-2.2,5.6-2.2s4.2.7,5.6,2.2c1.4,1.4,2.1,3.4,2.1,5.7v12.4Z"/><path class="cls-1" d="m239.2,159.2c-1.9-1-4.1-1.5-6.6-1.5s-4.7.5-6.6,1.5c-1.9,1-3.4,2.4-4.4,4.3-1.1,1.8-1.6,4-1.6,6.4v12.1c0,2.4.5,4.6,1.6,6.4,1.1,1.9,2.5,3.3,4.4,4.3,1.9,1,4.1,1.5,6.6,1.5s4.7-.5,6.6-1.5c1.9-1,3.4-2.5,4.4-4.3,1.1-1.9,1.6-4,1.6-6.4v-12.1c0-2.4-.5-4.5-1.6-6.4-1.1-1.8-2.5-3.3-4.4-4.3Zm1.1,23c0,2.3-.7,4.2-2.1,5.7-1.4,1.4-3.3,2.1-5.6,2.1s-4.2-.7-5.6-2.1c-1.4-1.4-2.1-3.3-2.1-5.7v-12.4c0-2.4.7-4.3,2.1-5.7,1.4-1.4,3.3-2.2,5.6-2.2s4.2.7,5.6,2.2c1.4,1.4,2.1,3.4,2.1,5.7v12.4Z"/><path class="cls-1" d="m272.1,159.4c-1.6-.9-3.4-1.3-5.5-1.3h-13.8c-.3,0-.5.2-.5.5v34.8c0,.3.2.5.5.5h3.9c.3,0,.5-.2.5-.5v-14.5c0-.1,0-.2.2-.2h9c2.1,0,4-.4,5.6-1.3,1.6-.9,2.9-2,3.8-3.6.9-1.5,1.3-3.3,1.3-5.4s-.4-3.8-1.3-5.4c-.9-1.6-2.1-2.8-3.7-3.6Zm-1.6,13.6c-1.1,1.1-2.6,1.7-4.5,1.7h-8.5c-.1,0-.2,0-.2-.2v-11.9c0-.1,0-.2.2-.2h8.5c1.9,0,3.4.6,4.5,1.7,1.1,1.1,1.7,2.6,1.7,4.5s-.6,3.3-1.7,4.4Z"/><path class="cls-1" d="m341.2,110.7c-2.2,0-4,1.8-4,4v194.9H32.7V79.6h123.8c2.2,0,4-1.8,4-4s-1.8-4-4-4H31.5c-3.7,0-6.7,3-6.7,6.7v232.5c0,3.7,3,6.7,6.7,6.7h307c3.7,0,6.7-3,6.7-6.7V114.7c0-2.2-1.8-4-4-4Z"/><path class="cls-1" d="m332.5,102.2c1,0,2-.4,2.8-1.2,1.6-1.6,1.6-4.1,0-5.7l-20.2-20.2c-2.3-2.3-5.3-3.5-8.5-3.5h-121.7c-2.2,0-4,1.8-4,4s1.8,4,4,4h121.7c1.1,0,2.1.4,2.8,1.2l20.2,20.2c.8.8,1.8,1.2,2.8,1.2Z"/><path class="cls-1" d="m294.4,102.2c2.2,0,4-1.8,4-4s-1.8-4-4-4H44.4c-2.2,0-4,1.8-4,4s1.8,4,4,4h250Z"/><path class="cls-1" d="m40.4,291.4c0,3.9,3.1,7,7,7h275.2c3.9,0,7-3.1,7-7V127c0-3.9-3.1-7-7-7H47.4c-3.9,0-7,3.1-7,7v164.4Zm8-163.4h273.2v162.4H48.4v-162.4Z"/><path class="cls-1" d="m172.9,218.1c0-.1.1-.2.2-.4,0-.1,0-.3.1-.4,0-.1,0-.2,0-.3,0-.3,0-.5,0-.8v-46.9s0,0,0,0c0-.2,0-.4,0-.6,0,0,0,0,0-.1,0,0,0,0,0,0,0-.2-.1-.4-.2-.6,0,0,0-.1,0-.2,0-.2-.2-.3-.3-.5,0,0,0,0,0-.1-.1-.2-.3-.4-.4-.5,0,0,0,0-.1-.1-.1-.1-.3-.3-.5-.4,0,0,0,0,0,0-.2-.1-.4-.2-.6-.3,0,0-.1,0-.2,0,0,0-.1,0-.2,0l-46.9-15.6c-1.4-.5-3-.1-4.1,1l-31.2,31.2c-.2.2-.3.3-.4.5,0,0,0,0,0,.1-.1.2-.2.4-.3.6,0,0,0,0,0,0,0,.2-.1.4-.2.6,0,0,0,.1,0,.2,0,.2,0,.5,0,.7,0,0,0,0,0,0v46.9s0,0,0,.1c0,.1,0,.3,0,.4,0,.1,0,.2,0,.4,0,.1,0,.2.1.4,0,.1,0,.2.1.4,0,.1.1.2.2.3,0,.1.1.2.2.3,0,.1.2.2.2.3,0,0,.2.2.3.3,0,0,.2.2.3.2.1,0,.2.2.3.2.1,0,.2.1.3.2.1,0,.3.1.4.2,0,0,0,0,.1,0l46.9,15.6c0,0,.2,0,.3,0,0,0,.2,0,.3,0,.2,0,.5,0,.7,0h0s0,0,0,0c.3,0,.5,0,.8,0,.2,0,.3,0,.4-.1.1,0,.2,0,.3,0,.2,0,.3-.2.5-.2,0,0,.2,0,.2-.1.2-.1.4-.3.6-.5,0,0,0,0,0,0l31.2-31.2s0,0,0,0c.2-.2.3-.4.5-.6,0-.1.1-.2.2-.3Zm-77.6-27.6l38.9,13v38.4l-38.9-13v-38.4Zm46.9,11.7l23.2-23.2v35.6l-23.2,23.2v-35.6Zm-18.5-44l38.4,12.8-24.9,24.9-38.4-12.8,24.9-24.9Z"/></svg>