<?xml version="1.0" encoding="UTF-8"?><svg id="icona" xmlns="http://www.w3.org/2000/svg" width="370" height="370" viewBox="0 0 370 370"><defs><style>.cls-1{fill:#323e48;}</style></defs><path class="cls-1" d="m127.1,105.8c-1.3-1.8-3.8-2.2-5.6-.9h0c-1.8,1.3-2.2,3.8-.9,5.6.8,1.1,2,1.6,3.2,1.6s1.6-.2,2.4-.8c1.8-1.3,2.2-3.8.9-5.6Z"/><path class="cls-1" d="m106.1,128.3c1.1,0,2.2-.4,3-1.3,1.5-1.6,1.3-4.2-.3-5.6-1.6-1.5-4.2-1.3-5.6.3h0c-1.5,1.6-1.3,4.2.3,5.7.8.7,1.7,1,2.7,1Z"/><path class="cls-1" d="m98.7,137.8c1.3,0,2.5-.6,3.3-1.7,1.3-1.8.8-4.3-1-5.6-1.8-1.3-4.3-.8-5.6,1,0,0,0,0,0,0-1.2,1.8-.7,4.3,1.1,5.5.7.5,1.5.7,2.2.7Z"/><path class="cls-1" d="m130.5,278.3c-.2-.1-.4-.2-.6-.3-2-1-4.4-.2-5.4,1.8-.9,1.9-.3,4.1,1.5,5.2.7.4,1.4.6,2.1.6,1.2,0,2.5-.6,3.2-1.6,1.3-1.8.9-4.3-.9-5.6Z"/><path class="cls-1" d="m112,112.6c-.1,0-.2.2-.3.3-1.6,1.6-1.6,4.1,0,5.7.8.8,1.8,1.2,2.8,1.2s1.9-.4,2.7-1.1c1.5-1.4,1.7-3.8.4-5.4-1.4-1.7-3.9-2-5.6-.6Z"/><path class="cls-1" d="m77.3,177.4s0,0,0,.1c-.3,2.2,1.2,4.2,3.3,4.5.2,0,.4,0,.6,0,1.9,0,3.6-1.4,3.9-3.3.4-2.2-1.1-4.2-3.3-4.6-2.2-.4-4.2,1.1-4.6,3.3Z"/><path class="cls-1" d="m87.5,167.4s0,0,0-.1c.5-2.1-.8-4.3-2.9-4.9-2.1-.5-4.3.7-4.8,2.8-.6,2.1.6,4.3,2.8,4.9.4.1.7.2,1.1.2,1.7,0,3.3-1.1,3.8-2.9Z"/><path class="cls-1" d="m91.1,156.4c0,0,0-.1,0-.2.7-2.1-.3-4.4-2.4-5.1-2-.7-4.3.3-5.1,2.3-.8,2,.2,4.3,2.2,5.2.5.2,1,.3,1.5.3,1.6,0,3.1-.9,3.7-2.5Z"/><path class="cls-1" d="m96,145.9c1-1.9.4-4.3-1.5-5.3-1.9-1.1-4.4-.5-5.5,1.4,0,0,0,.2-.1.2-1,2-.2,4.4,1.8,5.4.6.3,1.2.4,1.8.4,1.4,0,2.8-.8,3.5-2.1Z"/><path class="cls-1" d="m98.5,245.3c-1.1-1.9-3.6-2.6-5.5-1.4-1.9,1.1-2.6,3.6-1.4,5.5h0c.7,1.3,2.1,2,3.5,2s1.4-.2,2-.5c1.9-1.1,2.6-3.6,1.4-5.5Z"/><path class="cls-1" d="m89,224.4c0-.1,0-.3-.2-.4-.8-2-3.2-3-5.2-2.2-2,.8-2.9,3-2.3,5,.6,1.7,2.1,2.7,3.8,2.7s.7,0,1.1-.2c2.1-.6,3.4-2.8,2.7-4.9Z"/><path class="cls-1" d="m80.2,194c2.2,0,3.9-1.7,4-3.9,0-2.1-1.5-3.9-3.7-4.1-2.2-.2-4.1,1.5-4.3,3.7,0,.1,0,.2,0,.3,0,2.2,1.8,4,4,4Z"/><path class="cls-1" d="m83,217.8c2.1-.5,3.5-2.5,3.1-4.7-.4-2.1-2.4-3.5-4.6-3.2-2.2.4-3.7,2.4-3.3,4.6,0,0,0,.1,0,.2.4,1.9,2.1,3.2,3.9,3.2s.6,0,.8,0Z"/><path class="cls-1" d="m93.1,235.1c-.8-1.9-3-2.9-5-2.2-2.1.7-3.2,3-2.4,5.1,0,.2.1.3.2.5.7,1.4,2.1,2.2,3.6,2.2s1.2-.1,1.8-.4c1.9-1,2.7-3.2,1.9-5.2Z"/><path class="cls-1" d="m105,254.8c-1.3-1.7-3.8-2-5.6-.7-1.8,1.3-2.1,3.8-.8,5.6,0,0,0,0,0,.1.8,1,2,1.5,3.1,1.5s1.8-.3,2.5-.9c1.7-1.4,2-3.9.6-5.6Z"/><path class="cls-1" d="m115.7,271.6c-1.6,1.6-1.6,4.1,0,5.7s.3.3.5.4c.7.5,1.5.8,2.3.8,1.2,0,2.5-.6,3.2-1.6,1.2-1.7.9-4.1-.7-5.4-1.6-1.3-3.9-1.2-5.4.2Z"/><path class="cls-1" d="m112.5,263.5c-1.6-1.6-4.1-1.6-5.7,0s-1.6,4,0,5.6c.8.8,1.9,1.3,2.9,1.3s1.9-.3,2.7-1c1.6-1.5,1.8-4,.3-5.6,0,0-.1-.1-.2-.2Z"/><path class="cls-1" d="m80.1,198c-2.2.2-3.8,2.1-3.7,4.3l8-.7c-.2-2.2-2.1-3.8-4.3-3.7Z"/><path class="cls-1" d="m140.4,283.9s0,0-.1,0c-2-.9-4.4,0-5.3,2-.9,2,0,4.3,1.9,5.3.6.3,1.2.4,1.8.4,1.5,0,2.9-.8,3.6-2.2,1-2,.2-4.4-1.8-5.4Z"/><path class="cls-1" d="m173.6,293.6c-.2,0-.4,0-.6,0-2.2,0-4,1.8-4,4s1.6,3.8,3.7,4c.1,0,.2,0,.3,0,2,0,3.7-1.4,4-3.4.3-2.2-1.2-4.2-3.4-4.5Z"/><path class="cls-1" d="m151.1,288.4c-1.9-.7-4.1.2-5,2.1-.9,2,0,4.4,2,5.3.2,0,.3.1.5.2.4.1.8.2,1.2.2,1.7,0,3.3-1.1,3.8-2.8.6-2-.5-4.2-2.4-4.9Z"/><path class="cls-1" d="m162.4,291.7c-.2,0-.4-.1-.6-.1-2.2-.3-4.2,1.2-4.5,3.4-.3,2.1,1,4,3,4.5.3,0,.6.1.9.1,1.7,0,3.3-1.1,3.8-2.8.6-2.1-.5-4.3-2.6-5Z"/><path class="cls-1" d="m138,110.5v-11c0-2.2-1.8-4-4-4h-11c-2.2,0-4,1.8-4,4s1.8,4,4,4h7v7c0,2.2,1.8,4,4,4s4-1.8,4-4Z"/><path class="cls-1" d="m291.9,89.3c-1.1-.5-28.2-12.8-70.2-12.8s-64.8,12.5-65.7,13c-1.3.7-2,2-2,3.5v102.3c0,5.7,2.5,11.1,6.7,14.8l17.5,15.3c1.7,1.5,4.2,1.3,5.6-.4,1.5-1.7,1.3-4.2-.4-5.6l-17.5-15.3c-2.5-2.2-4-5.4-4-8.8v-99.8c6.3-2.9,26.8-11,59.8-11s57.2,8.3,64.5,11.1v96.2c-.2.5-.3,1-.3,1.6,0,1.7,0,3.4-.1,5.1-.6,2.3-2,4.4-3.9,5.9l-51.1,41.6c-5.1,4.1-12.4,4-17.3-.3l-14.3-12.5c-1.7-1.5-4.2-1.3-5.6.4-1.5,1.7-1.3,4.2.4,5.6l14.3,12.5c4,3.5,9.1,5.3,14.1,5.3s9.6-1.6,13.5-4.8l48.2-39.2c-9.2,46.3-50,81.3-99,81.3s0,0,0,0,0,0,0,0c-2.2,0-4,1.8-4,4s1.8,4,4,4h0c57.9,0,105.4-45.4,108.7-102.5.3-1.5.5-3,.5-4.5v-102.4c0-1.6-.9-3-2.3-3.6Z"/><path class="cls-1" d="m187.5,206c0,2.2,1.8,4,4,4h65.9c2.2,0,4-1.8,4-4v-65.9c0-.3,0-.5,0-.8,0-.8,0-1.6,0-2.3,0-20.4-16.6-37-37-37s-37,16.6-37,37,.1,1.1.3,1.5c-.2.5-.3,1-.3,1.5v65.9Zm65.9-4h-57.9v-57.9h57.9v57.9Zm-29-94c15.7,0,28.5,12.5,28.9,28.1h-57.9c.5-15.6,13.3-28.1,28.9-28.1Z"/><path class="cls-1" d="m220.5,177.5v7.3c0,2.2,1.8,4,4,4s4-1.8,4-4v-7.3c3.5-1.5,6-5.1,6-9.1s-4.5-10-10-10-10,4.5-10,10,2.5,7.6,6,9.1Z"/></svg>