<?xml version="1.0" encoding="UTF-8"?><svg id="icona" xmlns="http://www.w3.org/2000/svg" width="370" height="370" viewBox="0 0 370 370"><defs><style>.cls-1{fill:#323e48;}</style></defs><path class="cls-1" d="m31.5,317.6h307c3.7,0,6.7-3,6.7-6.7V114.7c0-2.2-1.8-4-4-4s-4,1.8-4,4v194.9H32.8V79.6h123.8c2.2,0,4-1.8,4-4s-1.8-4-4-4H31.5c-3.7,0-6.7,3-6.7,6.7v232.5c0,3.7,3,6.7,6.7,6.7Z"/><path class="cls-1" d="m185,79.6h121.7c1.1,0,2.1.4,2.8,1.2l20.2,20.2c.8.8,1.8,1.2,2.8,1.2s2-.4,2.8-1.2c1.6-1.6,1.6-4.1,0-5.7l-20.2-20.2c-2.3-2.3-5.3-3.5-8.5-3.5h-121.7c-2.2,0-4,1.8-4,4s1.8,4,4,4Z"/><path class="cls-1" d="m294.4,102.2c2.2,0,4-1.8,4-4s-1.8-4-4-4H44.4c-2.2,0-4,1.8-4,4s1.8,4,4,4h250Z"/><path class="cls-1" d="m40.4,291.4c0,3.9,3.1,7,7,7h275.2c3.9,0,7-3.1,7-7V127c0-3.9-3.1-7-7-7H47.4c-3.9,0-7,3.1-7,7v164.4Zm8-163.4h273.2v162.4H48.4v-162.4Z"/></svg>