<?xml version="1.0" encoding="UTF-8"?><svg id="icona" xmlns="http://www.w3.org/2000/svg" width="370" height="370" viewBox="0 0 370 370"><defs><style>.cls-1{fill:#323e48;}</style></defs><path class="cls-1" d="m275.3,193.3c17.3,0,31.3-18.4,31.3-41.1s0-.2,0-.4c0-.3,0-.6,0-.9,0-16.5-14-30-31.3-30s-31.3,13.4-31.3,30,0,.6,0,.9c0,.1,0,.2,0,.4,0,22.7,14,41.1,31.3,41.1Zm0-64.3c12.8,0,23.3,9.9,23.3,22s0,.7,0,1.1c0,.2,0,.5,0,.7-.2,18-10.6,32.6-23.3,32.6s-23.1-14.6-23.3-32.6c0-.2,0-.5,0-.7,0-.3,0-.7,0-1.1,0-12.1,10.4-22,23.3-22Z"/><path class="cls-1" d="m185.8,147.5c17.3,0,31.3-18.4,31.3-41.1s0-.2,0-.3c0-.3,0-.6,0-.9,0-6-1.9-11.7-5.1-16.4,0-1-.4-2.1-1.2-2.8-.5-.5-1.2-.8-1.8-1-5.7-6-14-9.8-23.1-9.8-17.3,0-31.3,13.4-31.3,30s0,.6,0,.9c0,.1,0,.2,0,.4,0,22.7,14,41.1,31.3,41.1Zm0-64.3c6.1,0,11.7,2.3,15.9,5.9-10.8,8.1-25.3,7.2-25.5,7.2-2.2-.2-4.1,1.5-4.3,3.7-.2,2.2,1.5,4.1,3.7,4.3.2,0,1,0,2.2,0,5.2,0,18.3-.9,28.9-9,1.6,2.9,2.4,6.3,2.4,9.8s0,.7,0,1.1c0,.2,0,.5,0,.7-.2,18-10.6,32.6-23.3,32.6s-23.1-14.6-23.3-32.6c0-.2,0-.5,0-.7,0-.3,0-.7,0-1.1,0-12.1,10.4-22,23.3-22Z"/><path class="cls-1" d="m117.1,154.9c-2.2,0-4,1.8-4,4s0,.5,0,.8c0,.2,0,.4,0,.6-.2,13.8-8,24.9-17.6,24.9s-17.6-11.4-17.6-25.4v-1.4c7.4.7,21.6,0,32.2-12.4,1.4-1.7,1.2-4.2-.4-5.6s-4.2-1.2-5.6.4c-11.4,13.4-28.4,9.3-29.1,9.1-1.2-.3-2.5,0-3.5.7s-1.6,1.9-1.6,3.2v6c0,18.4,11.5,33.4,25.6,33.4s25.6-15,25.6-33.4,0-.2,0-.3c0-.2,0-.5,0-.7,0-2.2-1.8-4-4-4Z"/><path class="cls-1" d="m318.9,250.4c-.8,2.1.3,4.4,2.3,5.2,2.1.8,4.4-.3,5.1-2.3l5.6-14.9c.2-.4.3-.9.3-1.4v-21.6c0-.5,0-.9-.2-1.3-.6-1.8-7.6-17.8-56.5-17.8s-22.2,1.2-29.9,2.9c-.5-12.8-1.5-26.6-3.5-29.8-1.8-2.9-13.1-17.1-57-17.1s-42.7,4-51.9,12.1c0-1.7,0-3.4.2-4.9,0,0,0-.2,0-.2,0-.4-.1-10.9-4.6-21.4-6.3-14.6-17.8-22.3-33.3-22.3s-26.7,6.8-32.4,20.1c-4.6,11-5.1,24.8-5.4,37,0,1.2,0,2.3-.1,3.5-.7,20.4-9.4,29.4-11,30.9-6.5,4.9-7.4,9.8-7.5,10.8,0,0,0,.1,0,.2,0,0-.3,4.8-1.7,16.5,0,.6,0,1.2.2,1.8,10,29,43.1,56.2,44.5,57.4.7.6,1.6.9,2.5.9h109.7c2.2,0,4-1.8,4-4s-1.8-4-4-4h-41l.3-68.9c0-.3,0-.5,0-.8-.2-1.1-1.8-6.7-10.6-11.8-4.1-3.1-6.6-10.5-8-19.1.1-.4.2-.9.2-1.4-.3-3.9,0-10.3,1.5-12.1,8-10.1,30.9-12.2,48.7-12.2,39.4,0,49.3,12.1,50.2,13.3,1,2.6,2,15.7,2.4,27.8-15.7,5.4-19.2,13.3-19.6,14.6-.2.4-.2.9-.2,1.4v56.2c0,2.2,1.8,4,4,4s4-1.8,4-4v-55.2c1-1.5,4.7-6.1,15.5-9.7.2,0,.4,0,.5,0s0,0,.1,0c1,0,1.8-.4,2.5-1,7.3-2,17.4-3.5,31.1-3.5,38,0,47.1,9.8,48.7,12.1v19.8l-5.3,14.2Zm-173.8,36.2h-13.2v-49.7c0-2.2-1.8-4-4-4s-4,1.8-4,4v49.7h-38.1c-5.6-4.8-32-28.3-40.6-52,1.2-9.9,1.6-14.7,1.7-15.8.3-1.2,5.1-14.5,48.5-14.5s49.1,12,50,14.1l-.3,68.3Zm-49.7-90.4c-15.7,0-27,1.7-35.1,4.2,2.6-5.8,4.9-13.7,5.2-24.1,0-1.1,0-2.3.1-3.5.9-28.9,3.6-49.4,29.8-49.4s29.9,33.1,29.9,35.6c-.2,3.7-1.1,25.9,4.8,41-8.3-2.3-19.5-3.8-34.7-3.8Z"/><path class="cls-1" d="m313.9,265.4c-1.6-1.5-4.1-1.5-5.7,0l-16.8,17.3c-.1.1-.2.3-.3.4,0,0-3.2,3.5-12.7,3.5h-61.7c-2.2,0-4,1.8-4,4s1.8,4,4,4h61.7c12.5,0,17.7-5.1,18.9-6.4l16.7-17.1c1.5-1.6,1.5-4.1,0-5.7Z"/><path class="cls-1" d="m247.1,273.6v-36.7c0-2.2-1.8-4-4-4s-4,1.8-4,4v36.7c0,2.2,1.8,4,4,4s4-1.8,4-4Z"/></svg>