<?xml version="1.0" encoding="UTF-8"?><svg id="icona" xmlns="http://www.w3.org/2000/svg" width="370" height="370" viewBox="0 0 370 370"><defs><style>.cls-1{fill:#323e48;}</style></defs><path class="cls-1" d="m31.5,317.6h307c3.7,0,6.7-3,6.7-6.7V114.7c0-2.2-1.8-4-4-4s-4,1.8-4,4v194.9h-54.5v-15.2c0-2.2-1.8-4-4-4H60c-2.2,0-4,1.8-4,4v15.2h-23.2V79.6h123.8c2.2,0,4-1.8,4-4s-1.8-4-4-4H31.5c-3.7,0-6.7,3-6.7,6.7v232.5c0,3.7,3,6.7,6.7,6.7Zm32.5-19.2h210.8v11.2h-16.5l1.1-1.1c1.6-1.6,1.6-4.1,0-5.7s-4.1-1.6-5.7,0l-6.5,6.5-6.5-6.5c-1.6-1.6-4.1-1.6-5.7,0s-1.6,4.1,0,5.7l1.1,1.1H64v-11.2Z"/><path class="cls-1" d="m309.5,80.8l20.2,20.2c.8.8,1.8,1.2,2.8,1.2s2-.4,2.8-1.2c1.6-1.6,1.6-4.1,0-5.7l-20.2-20.2c-2.3-2.3-5.3-3.5-8.5-3.5h-121.7c-2.2,0-4,1.8-4,4s1.8,4,4,4h121.7c1.1,0,2.1.4,2.8,1.2Z"/><path class="cls-1" d="m244.4,130.3c.2.2.4.4.6.5.7.4,1.4.7,2.2.7s.5,0,.8,0c.5-.1,1-.3,1.5-.6.2-.1.4-.3.6-.5h0s9.4-9.4,9.4-9.4c1.6-1.6,1.6-4.1,0-5.7-1.6-1.6-4.1-1.6-5.7,0l-6.5,6.5-6.5-6.5c-1.6-1.6-4.1-1.6-5.7,0-1.6,1.6-1.6,4.1,0,5.7l9.4,9.4Z"/><path class="cls-1" d="m282.8,106.9c0-2.2-1.8-4-4-4H60c-2.2,0-4,1.8-4,4v31.2c0,2.2,1.8,4,4,4h218.8c2.2,0,4-1.8,4-4v-31.2Zm-8,27.2H64v-23.2h210.8v23.2Z"/><path class="cls-1" d="m282.8,200.6c0-2.2-1.8-4-4-4H106.9c-2.2,0-4,1.8-4,4v31.2c0,2.2,1.8,4,4,4h171.9c2.2,0,4-1.8,4-4v-31.2Zm-8,27.2H110.9v-23.2h163.9v23.2Z"/><path class="cls-1" d="m278.8,243.5H106.9c-2.2,0-4,1.8-4,4v31.2c0,2.2,1.8,4,4,4h171.9c2.2,0,4-1.8,4-4v-31.2c0-2.2-1.8-4-4-4Zm-4,31.2H110.9v-23.2h163.9v23.2Z"/><path class="cls-1" d="m237.8,178.3c1,0,2-.4,2.8-1.2l6.5-6.5,6.5,6.5c.8.8,1.8,1.2,2.8,1.2s2-.4,2.8-1.2c1.6-1.6,1.6-4.1,0-5.7l-9.4-9.4c-.2-.2-.4-.4-.6-.5-1.4-.9-3.2-.9-4.6.1-.2.1-.3.2-.5.4h0s-9.4,9.4-9.4,9.4c-1.6,1.6-1.6,4.1,0,5.7.8.8,1.8,1.2,2.8,1.2Z"/><path class="cls-1" d="m282.8,153.8c0-2.2-1.8-4-4-4H60c-2.2,0-4,1.8-4,4v31.2c0,2.2,1.8,4,4,4h218.8c2.2,0,4-1.8,4-4v-31.2Zm-8,27.2H64v-23.2h210.8v23.2Z"/></svg>