<?xml version="1.0" encoding="UTF-8"?><svg id="icona" xmlns="http://www.w3.org/2000/svg" width="370" height="370" viewBox="0 0 370 370"><defs><style>.cls-1{fill:#323e48;}</style></defs><path class="cls-1" d="m341.2,110.7c-2.2,0-4,1.8-4,4v194.9H32.7V79.6h123.8c2.2,0,4-1.8,4-4s-1.8-4-4-4H31.5c-3.7,0-6.7,3-6.7,6.7v232.5c0,3.7,3,6.7,6.7,6.7h307c3.7,0,6.7-3,6.7-6.7V114.7c0-2.2-1.8-4-4-4Z"/><path class="cls-1" d="m185,79.6h121.7c1.1,0,2.1.4,2.8,1.2l20.2,20.2c.8.8,1.8,1.2,2.8,1.2s2-.4,2.8-1.2c1.6-1.6,1.6-4.1,0-5.7l-20.2-20.2c-2.3-2.3-5.3-3.5-8.5-3.5h-121.7c-2.2,0-4,1.8-4,4s1.8,4,4,4Z"/><path class="cls-1" d="m231.9,205c2.2,0,4-1.8,4-4v-30.5c0-1.9-.7-3.7-2.1-5.1l-22.2-22.2c-1.1-1.1-2.9-1.5-4.4-.9-1.5.6-2.5,2.1-2.5,3.7v23.7c0,2.2,1.8,4,4,4h19.1v27.2c0,2.2,1.8,4,4,4Zm-19.1-39.2v-10.1l10.1,10.1h-10.1Z"/><path class="cls-1" d="m155.6,238.4c0,0-.2-.1-.3-.1h-4.7c-.1,0-.3,0-.3.1s-.1.2-.1.3v.9c0,1.7.4,3.2,1.3,4.5.9,1.3,2.2,2.3,3.8,3,1.6.7,3.6,1,5.7,1,3.2,0,5.8-.7,7.7-2.2,1.9-1.5,2.8-3.5,2.8-6.1s-.4-3.1-1.3-4.2c-.9-1.1-1.9-1.9-3-2.4-1.1-.5-2.6-1.2-4.6-1.9-1.7-.6-3-1.1-3.9-1.5-.8-.4-1.5-.8-1.9-1.3-.4-.5-.6-1-.6-1.7s.4-1.7,1.1-2.3c.7-.5,1.7-.8,3-.8s2.9.4,3.9,1.2c.9.8,1.4,1.8,1.4,2.9v.3c0,.1,0,.3.1.3,0,0,.2.1.3.1h4.7c.1,0,.3,0,.3-.1,0,0,.1-.2.1-.3v-.6c0-1.7-.5-3.3-1.4-4.6-.9-1.3-2.2-2.4-3.8-3.1-1.6-.7-3.5-1.1-5.6-1.1s-3.7.3-5.2,1c-1.5.7-2.7,1.6-3.5,2.8-.8,1.2-1.3,2.7-1.3,4.3s.4,3.1,1.3,4.2c.9,1.1,1.9,2,3.2,2.7,1.3.7,2.8,1.3,4.7,1.9,1.6.6,2.8,1.1,3.6,1.4.8.3,1.3.7,1.8,1.2.4.5.7,1,.7,1.7s-.4,1.7-1.1,2.3c-.7.6-1.8.9-3.2.9s-3.1-.4-4.1-1.1c-1-.8-1.5-1.7-1.5-2.8v-.6c0-.1,0-.3-.1-.3Z"/><path class="cls-1" d="m191.1,219.2c-.3,0-.5.1-.6.4l-5.4,20c0,0,0,.1-.1.1s0,0-.1-.1l-5.5-20c0-.3-.3-.4-.6-.4h-5.2c-.3,0-.5.1-.5.4v.2s8.5,27.7,8.5,27.7c0,.3.3.4.5.4h5.2c.3,0,.5-.1.5-.4l8.6-27.7c0-.2,0-.3,0-.4,0-.1-.2-.2-.4-.2h-5Z"/><path class="cls-1" d="m213.8,228.8c0,0,.2.1.3.1h4.8c.1,0,.3,0,.3-.1s.1-.2.1-.3v-.3c0-1.7-.4-3.3-1.3-4.7-.9-1.4-2.1-2.5-3.7-3.3-1.6-.8-3.4-1.2-5.5-1.2s-4,.4-5.6,1.3c-1.6.8-2.9,2-3.8,3.5s-1.3,3.3-1.3,5.3v9.2c0,2,.4,3.8,1.3,5.3s2.1,2.7,3.8,3.5c1.6.8,3.5,1.3,5.6,1.3s4-.4,5.6-1.2c1.6-.8,2.8-2,3.7-3.5.9-1.5,1.3-3.3,1.3-5.4v-5.4c0-.1,0-.3-.1-.3,0,0-.2-.1-.3-.1h-10c-.1,0-.3,0-.3.1,0,0-.1.2-.1.3v3.8c0,.1,0,.3.1.3,0,0,.2.1.3.1h4.6c.1,0,.2,0,.2.2v1.8c0,1.3-.4,2.4-1.3,3.1-.8.8-2,1.1-3.4,1.1s-2.7-.5-3.6-1.4c-1-.9-1.4-2.1-1.4-3.6v-9.5c0-1.5.4-2.7,1.3-3.6.9-.9,2.1-1.4,3.5-1.4s2.6.4,3.5,1.3c.9.9,1.3,1.9,1.3,3.2h0c0,.3,0,.4.1.5Z"/><path class="cls-1" d="m266.4,196.3l3.3,1.5c.9.4,2,.5,3,.2,1-.4,1.9-1.1,2.3-2.1,3-6.3,4.5-13.1,4.5-20.1,0-.3,0-.7-.1-1-.4-1.8-2-3-3.9-3h-3.7c-.1-1-.2-2-.4-3-.2-1-.4-2-.6-2.9l3.4-1.2c1-.3,1.8-1,2.2-2,.5-1,.6-2.1.2-3.2-2.4-6.6-6.1-12.4-11.1-17.4-.2-.2-.5-.4-.7-.6-1.6-1-3.6-.8-4.9.6l-2.6,2.6c-.8-.6-1.6-1.2-2.4-1.8s-1.7-1.1-2.5-1.6l1.5-3.3c.5-1,.5-2.1.1-3.1-.4-1-1.1-1.8-2.1-2.3-6.3-3-13.1-4.5-20.1-4.5h0s0,0,0,0c-.1,0-.2,0-.3,0-.2,0-.3,0-.5,0,0,0,0,0,0,0-.5.1-.9.3-1.3.6s0,0,0,0c-.2.1-.4.3-.5.4,0,0,0,0,0,0-.2.2-.3.3-.4.5,0,0,0,0,0,0-.1.2-.2.4-.3.6,0,0,0,0,0,0-.2.5-.3,1-.3,1.5v7.4c0,2.2,1.8,4,4,4s4-1.8,4-4v-3.2c3.1.3,6.1,1,9,2l-1.4,3c-.9,2,0,4.3,1.9,5.3,0,0,.1,0,.2,0,1.7.8,3.3,1.7,4.8,2.8,1.5,1.1,3,2.3,4.3,3.6,1.5,1.5,3.8,1.5,5.4.2,0,0,.2-.2.3-.3l2.2-2.3c2,2.4,3.6,5,5,7.8l-3.1,1.1s0,0,0,0c-2.1.8-3.1,3.1-2.3,5.1,0,0,0,0,0,.1.6,1.7,1.1,3.5,1.4,5.3.3,1.8.5,3.7.5,5.6,0,2.1,1.6,3.8,3.7,4,.1,0,.3,0,.4,0h3.2c-.3,3.1-1,6.1-2,9l-3-1.4c-2-.9-4.3-.1-5.3,1.8,0,0,0,.1,0,.2-.8,1.7-1.7,3.3-2.8,4.8-1.1,1.5-2.3,3-3.6,4.3-1.5,1.5-1.5,3.8-.2,5.4,0,.1.2.2.3.3l2.3,2.3c-2.4,2-5,3.6-7.8,5l-1.1-3.1c-.7-2.1-3-3.1-5.1-2.4,0,0,0,0-.1,0-1.7.6-3.5,1.1-5.3,1.4-1.8.3-3.7.5-5.6.5-2.2,0-4,1.8-4,4,0,0,0,0,0,.1,0,0,0,.1,0,.2v46.4h-85.8v-115.1h58.5c2.2,0,4-1.8,4-4s-1.8-4-4-4h-61.4c-2.8,0-5.1,2.3-5.1,5.1v121c0,2.8,2.3,5.1,5.1,5.1h91.6c2.8,0,5.1-2.3,5.1-5.1v-45.8c1-.1,2-.2,3-.4,1-.2,2-.4,2.9-.6l1.3,3.4c0,0,0,.2.1.3.7,1.5,2.1,2.4,3.7,2.4s.9,0,1.4-.2c6.6-2.4,12.4-6.1,17.4-11.1.2-.2.4-.5.6-.7,1-1.6.8-3.6-.6-4.9l-2.6-2.6c.6-.8,1.2-1.6,1.8-2.4.6-.8,1.1-1.7,1.6-2.5Z"/><path class="cls-1" d="m192.1,172.9c-1.1,0-2.1.4-2.8,1.2l-12.8,12.8-4.3-4.3c-1.6-1.6-4.1-1.6-5.7,0l-15.6,15.6c-1.1,1.1-1.5,2.9-.9,4.4s2.1,2.5,3.7,2.5h62.5c1.6,0,3.1-1,3.7-2.5s.3-3.2-.9-4.4l-24.1-24.1c-.8-.8-1.8-1.2-2.8-1.2Z"/><circle class="cls-1" cx="161.6" cy="169.8" r="7.8"/></svg>