<?xml version="1.0" encoding="UTF-8"?><svg id="icona" xmlns="http://www.w3.org/2000/svg" width="370" height="370" viewBox="0 0 370 370"><defs><style>.cls-1{fill:#323e48;}</style></defs><path class="cls-1" d="m184.4,24.1c-19.8,0-35.9,16.1-35.9,35.9s7.3,25.4,19,31.7c.6.3,1.2.5,1.9.5,1.4,0,2.8-.8,3.5-2.1,1-1.9.3-4.4-1.6-5.4-9.1-4.9-14.8-14.3-14.8-24.6,0-15.4,12.5-27.9,27.9-27.9s27.9,12.5,27.9,27.9-5,18.7-13.4,23.8c-1.9,1.2-2.5,3.6-1.3,5.5,1.2,1.9,3.6,2.5,5.5,1.3,5-3.1,9.1-7.2,12-12,.4.2.9.2,1.4.2,1.4,0,2.8-.7,3.5-2.1,1.1-1.9.4-4.3-1.5-5.4,1.2-3.6,1.8-7.5,1.8-11.4,0-19.8-16.1-35.9-35.9-35.9Z"/><path class="cls-1" d="m220.2,309.6c0-19.8-16.1-35.9-35.9-35.9s-26.7,8.4-32.4,20.5c-1.4,0-2.8.7-3.6,2-1,1.8-.5,3.9,1.1,5.1-.6,2.6-1,5.4-1,8.2,0,19.8,16.1,35.9,35.9,35.9s35.9-16.1,35.9-35.9Zm-35.9,27.9c-15.4,0-27.9-12.5-27.9-27.9s12.5-27.9,27.9-27.9,27.9,12.5,27.9,27.9-12.5,27.9-27.9,27.9Z"/><path class="cls-1" d="m184.4,219.8c19.8,0,35.9-16.1,35.9-35.9s-11.1-30.8-27.1-34.8c-2.1-.5-4.3.8-4.9,2.9-.5,2.1.8,4.3,2.9,4.9,12.4,3.1,21.1,14.2,21.1,27.1s-12.5,27.9-27.9,27.9-27.9-12.5-27.9-27.9,1.7-11,4.8-15.7c1.2-1.8.8-4.3-1.1-5.6-1.8-1.2-4.3-.8-5.6,1.1-4.1,6-6.2,12.9-6.2,20.2,0,19.8,16.1,35.9,35.9,35.9Z"/><path class="cls-1" d="m115.9,122.2c0-8.1-2.7-15.6-7.3-21.7-.1-.2-.2-.3-.4-.5-6.6-8.4-16.8-13.7-28.2-13.7-19.8,0-35.9,16.1-35.9,35.9s16.1,35.9,35.9,35.9,35.9-16.1,35.9-35.9Zm-63.8,0c0-15.4,12.5-27.9,27.9-27.9s27.9,12.5,27.9,27.9-12.5,27.9-27.9,27.9-27.9-12.5-27.9-27.9Z"/><path class="cls-1" d="m80,286.2c10.2,0,19.4-4.3,26-11.2.1,1.2.8,2.4,2,3.1h0c.6.3,1.3.5,1.9.5,1.4,0,2.8-.7,3.5-2.1,1.1-1.9.4-4.4-1.6-5.4-.7-.4-1.5-.6-2.3-.5,4-5.8,6.3-12.8,6.3-20.3,0-19.8-16.1-35.9-35.9-35.9s-35.9,16.1-35.9,35.9,16.1,35.9,35.9,35.9Zm0-63.8c15.4,0,27.9,12.5,27.9,27.9s-12.5,27.9-27.9,27.9-27.9-12.5-27.9-27.9,12.5-27.9,27.9-27.9Z"/><path class="cls-1" d="m289.1,86.3c-10.7,0-20.3,4.7-26.8,12.1,0-1.3-.7-2.6-2-3.3h0c-1.9-1.1-4.4-.5-5.5,1.4-1.1,1.9-.5,4.4,1.4,5.5.6.4,1.3.6,2,.6s.6,0,.9-.1c-3.8,5.7-6,12.5-6,19.8,0,19.8,16.1,35.9,35.9,35.9s2,0,3-.1c.4,1.8,2,3.2,3.9,3.2s4-1.8,4-4h0c0-.3,0-.5,0-.8,14.5-4.6,25-18.2,25-34.2s-16.1-35.9-35.9-35.9Zm0,63.8c-15.4,0-27.9-12.5-27.9-27.9s12.5-27.9,27.9-27.9,27.9,12.5,27.9,27.9-12.5,27.9-27.9,27.9Z"/><path class="cls-1" d="m299.9,216.1c-.5-1.7-2-2.9-3.8-2.9s-2.3.6-3.1,1.5c-1.3-.1-2.6-.2-3.9-.2-19.8,0-35.9,16.1-35.9,35.9s2.5,15.1,6.8,21c-.2,1-.1,2,.4,2.9.7,1.3,2.1,2,3.5,2s.2,0,.4,0c6.5,6.2,15.2,10,24.9,10,19.8,0,35.9-16.1,35.9-35.9s-10.6-29.6-25.1-34.2Zm-10.8,62.1c-15.4,0-27.9-12.5-27.9-27.9s12.5-27.9,27.9-27.9,27.9,12.5,27.9,27.9-12.5,27.9-27.9,27.9Z"/><path class="cls-1" d="m180.5,91.9v37.3c0,5-1.9,9.6-5.4,13.1l-8.3,8.3c-1.6,1.6-1.6,4.1,0,5.7s1.8,1.2,2.8,1.2,2-.4,2.8-1.2l8.3-8.3c5-5,7.8-11.7,7.8-18.8v-37.3c0-2.2-1.8-4-4-4s-4,1.8-4,4Z"/><path class="cls-1" d="m128,94c1.9-1.1,2.6-3.6,1.4-5.5-1.1-1.9-3.6-2.6-5.5-1.4h0c-1.9,1.1-2.5,3.6-1.4,5.5.7,1.3,2.1,2,3.5,2s1.4-.2,2-.5Z"/><path class="cls-1" d="m148.7,81.7c1.9-1.1,2.6-3.6,1.4-5.5-1.1-1.9-3.6-2.6-5.5-1.4h0c-1.9,1.1-2.5,3.6-1.4,5.5.7,1.3,2.1,2,3.5,2s1.4-.2,2-.5Z"/><path class="cls-1" d="m138.5,87.8c1.9-1.2,2.5-3.6,1.3-5.5-1.2-1.9-3.6-2.5-5.5-1.3h0c-1.9,1.2-2.5,3.6-1.3,5.5.8,1.2,2.1,1.9,3.4,1.9s1.4-.2,2.1-.6Z"/><path class="cls-1" d="m119.1,94.5c-1.2-1.9-3.6-2.5-5.5-1.3h0c-1.9,1.2-2.5,3.6-1.3,5.5.8,1.2,2.1,1.9,3.4,1.9s1.4-.2,2.1-.6c1.9-1.2,2.5-3.6,1.3-5.5Z"/><path class="cls-1" d="m75.4,166.3c2.2,0,4-1.8,4-4s-1.8-4-4-4-4,1.8-4,4h0c0,2.2,1.8,4,4,4Z"/><path class="cls-1" d="m75.7,190.3c2.2,0,4-1.8,4-4s-1.8-4-4-4-4,1.8-4,4h0c0,2.2,1.8,4,4,4Z"/><path class="cls-1" d="m75.9,214.3c2.2,0,4-1.8,4-4s-1.8-4-4-4-4,1.8-4,4h0c0,2.2,1.8,4,4,4Z"/><path class="cls-1" d="m75.5,178.3c2.2,0,4-1.8,4-4s-1.8-4-4-4-4,1.8-4,4h0c0,2.2,1.8,4,4,4Z"/><path class="cls-1" d="m75.8,202.3c2.2,0,4-1.8,4-4s-1.8-4-4-4-4,1.8-4,4h0c0,2.2,1.8,4,4,4Z"/><path class="cls-1" d="m139.4,295.8h0c.6.3,1.3.5,1.9.5,1.4,0,2.8-.7,3.5-2.1,1.1-1.9.4-4.4-1.6-5.4-1.9-1.1-4.4-.4-5.4,1.6-1.1,1.9-.4,4.4,1.6,5.4Z"/><path class="cls-1" d="m118.5,284h0c.6.3,1.3.5,1.9.5,1.4,0,2.8-.7,3.5-2.1,1.1-1.9.4-4.4-1.6-5.4-1.9-1.1-4.4-.4-5.4,1.6-1.1,1.9-.4,4.4,1.6,5.4Z"/><path class="cls-1" d="m129,289.9h0c.6.3,1.3.5,1.9.5,1.4,0,2.8-.7,3.5-2.1,1.1-1.9.4-4.4-1.6-5.4-1.9-1.1-4.4-.4-5.4,1.6-1.1,1.9-.4,4.4,1.6,5.4Z"/><path class="cls-1" d="m241.2,281c-1.9,1.1-2.6,3.6-1.4,5.5.7,1.3,2.1,2,3.5,2s1.4-.2,2-.5h0c1.9-1.1,2.5-3.6,1.4-5.5-1.1-1.9-3.6-2.6-5.5-1.4Z"/><path class="cls-1" d="m230.9,287.1c-1.9,1.1-2.6,3.6-1.4,5.5.7,1.3,2.1,2,3.5,2s1.4-.2,2-.5h0c1.9-1.1,2.5-3.6,1.4-5.5-1.1-1.9-3.6-2.6-5.5-1.4Z"/><path class="cls-1" d="m220.5,293.3c-1.9,1.1-2.5,3.6-1.4,5.5.7,1.3,2.1,2,3.5,2s1.4-.2,2-.6h0c1.9-1.1,2.5-3.6,1.4-5.5-1.1-1.9-3.6-2.5-5.5-1.4Z"/><path class="cls-1" d="m250.1,280.5c.8,1.2,2.1,1.9,3.4,1.9s1.4-.2,2.1-.6h0c1.9-1.2,2.5-3.6,1.3-5.5-1.2-1.9-3.6-2.5-5.5-1.3-1.9,1.2-2.5,3.6-1.3,5.5Z"/><path class="cls-1" d="m296,173.2c2.2,0,4-1.8,4-4h0c0-2.2-1.8-4-4-4s-4,1.8-4,4,1.8,4,4,4Z"/><path class="cls-1" d="m296,209.2c2.2,0,4-1.8,4-4h0c0-2.2-1.8-4-4-4s-4,1.8-4,4,1.8,4,4,4Z"/><path class="cls-1" d="m296,185.2c2.2,0,4-1.8,4-4h0c0-2.2-1.8-4-4-4s-4,1.8-4,4,1.8,4,4,4Z"/><path class="cls-1" d="m296,197.2c2.2,0,4-1.8,4-4h0c0-2.2-1.8-4-4-4s-4,1.8-4,4,1.8,4,4,4Z"/><path class="cls-1" d="m228.8,77.3h0c-1.9-1.1-4.4-.4-5.4,1.6-1.1,1.9-.4,4.4,1.6,5.4.6.3,1.3.5,1.9.5,1.4,0,2.8-.7,3.5-2.1,1.1-1.9.4-4.4-1.6-5.4Z"/><path class="cls-1" d="m249.7,89.1h0c-1.9-1.1-4.4-.4-5.4,1.6-1.1,1.9-.4,4.4,1.6,5.4.6.3,1.3.5,1.9.5,1.4,0,2.8-.7,3.5-2.1,1.1-1.9.4-4.4-1.6-5.4Z"/><path class="cls-1" d="m239.3,83.2h0c-1.9-1.1-4.4-.4-5.4,1.6-1.1,1.9-.4,4.4,1.6,5.4.6.3,1.3.5,1.9.5,1.4,0,2.8-.7,3.5-2.1,1.1-1.9.4-4.4-1.6-5.4Z"/></svg>