<?xml version="1.0" encoding="UTF-8"?><svg id="icona" xmlns="http://www.w3.org/2000/svg" width="370" height="370" viewBox="0 0 370 370"><defs><style>.cls-1{fill:#323e48;}</style></defs><path class="cls-1" d="m31.5,317.6h307c3.7,0,6.7-3,6.7-6.7V114.7c0-2.2-1.8-4-4-4s-4,1.8-4,4v194.9H32.8V79.6h123.8c2.2,0,4-1.8,4-4s-1.8-4-4-4H31.5c-3.7,0-6.7,3-6.7,6.7v232.5c0,3.7,3,6.7,6.7,6.7Z"/><path class="cls-1" d="m185,79.6h121.7c1.1,0,2.1.4,2.8,1.2l20.2,20.2c.8.8,1.8,1.2,2.8,1.2s2-.4,2.8-1.2c1.6-1.6,1.6-4.1,0-5.7l-20.2-20.2c-2.3-2.3-5.3-3.5-8.5-3.5h-121.7c-2.2,0-4,1.8-4,4s1.8,4,4,4Z"/><path class="cls-1" d="m294.4,102.2c2.2,0,4-1.8,4-4s-1.8-4-4-4H44.4c-2.2,0-4,1.8-4,4s1.8,4,4,4h250Z"/><path class="cls-1" d="m40.4,291.4c0,3.9,3.1,7,7,7h275.2c3.9,0,7-3.1,7-7V127c0-3.9-3.1-7-7-7H47.4c-3.9,0-7,3.1-7,7v164.4Zm8-163.4h273.2v162.4h-93.7v-27.2c0,0,0-.2,0-.3,0,0,0-.2,0-.3,0,0,0-.1,0-.2,0,0,0,0,0,0-.7-4.1-2.5-7.8-5.5-10.8s-8.6-5.7-13.9-5.7-2.7.1-4,.4c-.2-.6-.5-1.1-.9-1.5l-28.4-28.4,28-28c1.8.4,3.6.5,5.4.5,15,0,27.3-12.2,27.3-27.3s-1.8-4-4-4-4,1.8-4,4c0,10.6-8.6,19.3-19.3,19.3s-19.3-8.6-19.3-19.3,8.6-19.3,19.3-19.3,4-1.8,4-4-1.8-4-4-4c-8.3,0-15.8,3.8-20.8,9.7,0-1-.4-2.1-1.2-2.8-.7-.7-1.8-1.2-2.8-1.2s-2.1.4-2.8,1.2c-.7.7-1.2,1.8-1.2,2.8s.4,2.1,1.2,2.8c.7.7,1.8,1.2,2.8,1.2s.9,0,1.3-.2c-2.4,4-3.7,8.7-3.7,13.8s.1,3.1.4,4.6c-.2.2-.4.3-.6.5l-29.2,30.1c-4.5.5-8.6,2.4-11.8,5.6-3.7,3.7-5.7,8.6-5.7,13.9s2,10.2,5.7,13.9c1.6,1.6,4.1,1.6,5.7,0,1.6-1.6,1.6-4.1,0-5.7s-3.4-5.1-3.4-8.2,1.2-6,3.4-8.2c2.2-2.2,5.1-3.4,8.2-3.4s6,1.2,8.2,3.4c2.2,2.2,3.4,5.1,3.4,8.2h0c0,3.1-1.2,6-3.4,8.2s-1.6,4.1,0,5.7,1.8,1.2,2.8,1.2c1,0,2-.4,2.8-1.2,1.7-1.7,3.1-3.7,4.1-5.9l25.3,25.3c-.8.6-1.7,1.3-2.4,2-1.6,1.6-1.6,4.1,0,5.7,1.6,1.6,4.1,1.6,5.7,0s5.1-3.4,8.2-3.4,6,1.2,8.2,3.4c1.7,1.7,2.8,3.9,3.2,6.3v26.9H48.4v-162.4Zm146.4,57.1l-23.1,23.1c-1-2.2-2.3-4.2-4.1-5.9s-3.9-3.2-6.2-4.2l23-23.7c2.4,4.4,6,8.1,10.4,10.7Z"/><path class="cls-1" d="m106.9,165.4h-11.6v-11.6c0-2.2-1.8-4-4-4s-4,1.8-4,4v15.6c0,2.2,1.8,4,4,4h15.6c2.2,0,4-1.8,4-4s-1.8-4-4-4Z"/><path class="cls-1" d="m156.6,234.6c-1.6-1.6-4.1-1.6-5.7,0s-1.6,4.1,0,5.7l28.9,28.9c.8.8,1.2,1.8,1.2,2.8v12.3c0,2.2,1.8,4,4,4s4-1.8,4-4v-12.3c0-3.2-1.2-6.2-3.5-8.5l-28.9-28.9Z"/><path class="cls-1" d="m100.2,163.4c1.1,0,2.1-.4,2.8-1.2s1.2-1.8,1.2-2.8-.4-2.1-1.2-2.8c-.7-.7-1.8-1.2-2.8-1.2s-2.1.4-2.8,1.2c-.7.7-1.2,1.8-1.2,2.8s.4,2.1,1.2,2.8,1.8,1.2,2.8,1.2Z"/><path class="cls-1" d="m170.4,144c0,0,.1,0,.2,0,.3,0,.5,0,.8,0,1.9,0,3.5-1.3,3.9-3.2.4-2.1-.9-4.2-3-4.7-2.1-.5-4.3.8-4.8,2.9-.5,2.1.8,4.3,2.9,4.9Z"/><path class="cls-1" d="m158.5,142.3c0,0,.2,0,.3,0,2.1,0,3.8-1.6,4-3.7.2-2.2-1.5-4.1-3.7-4.3,0,0,0,0,0,0-2.2-.1-4.1,1.5-4.3,3.7-.2,2.2,1.5,4.1,3.7,4.3Z"/><path class="cls-1" d="m119.8,141.5s0,0-.1,0c-2,.9-2.9,3.3-2,5.3.7,1.5,2.1,2.3,3.6,2.3s1.1-.1,1.7-.4c2-.9,3-3.2,2.1-5.3-.9-2-3.2-3-5.3-2.1Z"/><path class="cls-1" d="m146,142.5c.1,0,.3,0,.4,0,2.2-.2,3.8-2.2,3.6-4.4-.2-2.2-2.2-3.8-4.4-3.6,0,0,0,0,0,0-2.2.2-3.8,2.2-3.5,4.4.2,2.1,2,3.6,4,3.6Z"/><path class="cls-1" d="m137.3,139.8c-.5-2.1-2.7-3.4-4.9-2.9,0,0,0,0-.1,0-2.1.6-3.4,2.8-2.7,4.9.5,1.8,2.1,2.9,3.8,2.9s.7,0,1.1-.1c2.1-.6,3.4-2.7,2.8-4.8Z"/><path class="cls-1" d="m107.9,148.1c-1.8,1.2-2.3,3.7-1.1,5.5.8,1.2,2,1.8,3.3,1.8s1.5-.2,2.2-.7c0,0,0,0,.1,0,1.8-1.3,2.2-3.8,1-5.6-1.3-1.8-3.7-2.2-5.5-1Z"/><path class="cls-1" d="m223.7,218c-1.6-1.6-4.1-1.6-5.7,0-1.6,1.6-1.6,4.1,0,5.7l11,11c.2.2.4.4.6.5.7.4,1.4.7,2.2.7s1.5-.2,2.2-.7c.2-.1.4-.3.6-.5l11.1-11.1c1.6-1.6,1.6-4.1,0-5.7-1.6-1.6-4.1-1.6-5.7,0l-8.2,8.2-8.2-8.2Z"/><path class="cls-1" d="m232.7,212.2c-1.1,0-2.1.4-2.8,1.2-.7.7-1.2,1.8-1.2,2.8s.4,2.1,1.2,2.8c.7.7,1.8,1.2,2.8,1.2s2.1-.4,2.8-1.2c.7-.7,1.2-1.8,1.2-2.8s-.4-2.1-1.2-2.8c-.7-.7-1.8-1.2-2.8-1.2Z"/><polygon class="cls-1" points="231.1 203 227.4 203.8 227.2 203.8 231.1 203"/><path class="cls-1" d="m230.3,199.1c-2.2.4-3.6,2.5-3.1,4.7h.2s7.6-1.6,7.6-1.6c-.4-2.2-2.6-3.5-4.7-3.1Z"/><path class="cls-1" d="m223.7,191.8c0,.2.2.5.4.7.1.2.3.4.5.6.2.2.4.4.6.5.2.1.4.3.7.4.2,0,.5.2.7.2.3,0,.5,0,.8,0,1.1,0,2.1-.4,2.8-1.2.2-.2.4-.4.5-.6.1-.2.3-.4.4-.7.1-.2.2-.5.2-.7,0-.3,0-.5,0-.8s0-.5,0-.8c0-.3-.1-.5-.2-.7,0-.2-.2-.5-.4-.7-.1-.2-.3-.4-.5-.6-.2-.2-.4-.4-.6-.5-.2-.1-.4-.3-.7-.4s-.5-.2-.7-.2c-.5-.1-1-.1-1.6,0-.3,0-.5.1-.7.2-.2.1-.5.2-.7.4-.2.1-.4.3-.6.5-.2.2-.4.4-.5.6-.1.2-.3.4-.4.7-.1.2-.2.5-.2.7,0,.3,0,.5,0,.8s0,.5,0,.8c0,.3.1.5.2.7Z"/></svg>