<?xml version="1.0" encoding="UTF-8"?><svg id="icona" xmlns="http://www.w3.org/2000/svg" width="370" height="370" viewBox="0 0 370 370"><defs><style>.cls-1{fill:#323e48;}</style></defs><path class="cls-1" d="m260.1,86.5c-.2,0-.3,0-.4.2s-.2.3-.2.4v24.6c0,.2,0,.3.2.4.1.1.3.2.4.2h5.9c.2,0,.3,0,.4-.2s.2-.3.2-.4v-24.6c0-.2,0-.3-.2-.4-.1-.1-.3-.2-.4-.2h-5.9Z"/><path class="cls-1" d="m265.9,76.9c-.7-.7-1.7-1.1-2.9-1.1s-2.1.4-2.9,1.1-1.1,1.7-1.1,2.9.4,2.1,1.1,2.8,1.7,1.1,2.8,1.1,2.1-.4,2.8-1.1,1.1-1.7,1.1-2.8-.4-2.1-1.1-2.9Z"/><path class="cls-1" d="m292.4,107.9c1.9-1.1,2.6-3.5,1.5-5.5l-25.5-44.4c-1.2-2.1-3.4-3.4-5.9-3.4-2.5,0-4.7,1.3-5.9,3.4l-21.8,37.4h-64l-22.6-22.6c-.8-.8-1.8-1.2-2.8-1.2H60c-2.2,0-4,1.8-4,4v156.2c0,2.2,1.8,4,4,4h42.9v58.5c0,2.2,1.8,4,4,4h218.8c2.2,0,4-1.8,4-4v-132.3s0,0,0,0,0,0,0,0c0-2.2-1.8-4-4-4h-42.9v-31.4h6.3c1.8,0,3.5-.7,4.8-2l5.1-5.1c1.6-1.6,1.6-4.1,0-5.7-1.6-1.6-4.1-1.6-5.7,0l-4.7,4.7h-29.1c-2.2,0-4,1.8-4,4s1.8,4,4,4h15.3v31.4h-57.1l-22.6-22.6c-.8-.8-1.8-1.2-2.8-1.2h-85.3c-2.2,0-4,1.8-4,4v89.8h-38.9v-124.3h112.8c.3,0,.6,0,.9-.1h52.5l-7,12c-1.2,2.1-1.2,4.7,0,6.8s3.5,3.4,5.9,3.4h17.6c2.2,0,4-1.8,4-4s-1.8-4-4-4h-15.6l31.4-53.9,24.4,42.6c1.1,1.9,3.5,2.6,5.5,1.5Zm29.2,182.4H110.9v-124.3h112.8c.3,0,.6,0,.9-.1h97v124.4Zm-131.1-148.2l15.9,15.9h-95.6v-15.9h79.7Zm-126.6-62.5h79.7l15.9,15.9H64v-15.9Z"/></svg>