<?xml version="1.0" encoding="UTF-8"?><svg id="icona" xmlns="http://www.w3.org/2000/svg" width="370" height="370" viewBox="0 0 370 370"><defs><style>.cls-1{fill:#323e48;}</style></defs><path class="cls-1" d="m43.8,74.1v230.6c0,3.7,3,6.7,6.7,6.7h165.9c3.7,0,6.7-3,6.7-6.7v-75.8c6.4-2.5,12.2-6.3,17-11l3.8,3.8c.5.5,1,.8,1.6,1l-5,5c-1.6,1.6-1.6,4.1,0,5.7s4.1,1.6,5.7,0l12.1-12.1,48.6,47.8c.8.8,1.8,1.1,2.8,1.1s2.1-.4,2.9-1.2c1.5-1.6,1.5-4.1,0-5.7l-51.4-50.5c-1.6-1.5-4.1-1.5-5.6,0l-5,5c-.2-.6-.5-1.2-1-1.6l-4.1-4.1c6.5-8.6,10.4-19.4,10.4-31,0-21.8-13.6-40.4-32.7-48v-22.4c0-2.2-1.8-4-4-4s-4,1.8-4,4v20c-3.5-.8-7.2-1.2-10.9-1.2-28.5,0-51.6,23.2-51.6,51.6s2.3,17.4,6.3,24.7c-8-2.9-19.9-5.2-37.5-5.2-46.3,0-55,17.4-55.8,19.4-.2.4-.3.9-.3,1.4l-1.1,25.2c0,2.2,1.6,4.1,3.8,4.2,2.2,0,4.1-1.6,4.2-3.8l1.1-24.3c1.6-2.5,11.2-14,48.2-14s44.6,9.9,45.9,11.9l2.6,44.1c.1,2.1,1.9,3.8,4,3.8s.2,0,.2,0c2.2-.1,3.9-2,3.8-4.2l-2.4-40.2c8.2,5.5,18,8.7,28.6,8.7s7.4-.4,10.9-1.2v72.1H51.8V75.4h67.8c2.2,0,4-1.8,4-4s-1.8-4-4-4H50.6c-3.7,0-6.7,3-6.7,6.7Zm116.9,106.8c0-24.1,19.6-43.6,43.6-43.6s43.6,19.6,43.6,43.6-19.6,43.6-43.6,43.6-43.6-19.6-43.6-43.6Z"/><path class="cls-1" d="m213.3,96.8c1.6-1.6,1.6-4.1,0-5.7l-20.2-20.2c-2.3-2.3-5.3-3.5-8.5-3.5h-36.5c-2.2,0-4,1.8-4,4s1.8,4,4,4h36.5c1.1,0,2.1.4,2.8,1.2l20.2,20.2c.8.8,1.8,1.2,2.8,1.2s2-.4,2.8-1.2Z"/><path class="cls-1" d="m174.1,83.3c-2.2,0-4,1.8-4,4v31c0,2.2,1.8,4,4,4h30.8c2.2,0,4-1.8,4-4s-1.8-4-4-4h-26.8v-27c0-2.2-1.8-4-4-4Z"/><path class="cls-1" d="m191.4,161.8c1.8-1.2,2.3-3.7,1.1-5.6-1.2-1.8-3.7-2.3-5.6-1.1-8.6,5.8-13.7,15.4-13.7,25.7s4.9,19.5,13.1,25.3c.7.5,1.5.7,2.3.7,1.3,0,2.5-.6,3.3-1.7,1.3-1.8.9-4.3-.9-5.6-6.1-4.3-9.7-11.3-9.7-18.8s3.8-14.8,10.2-19.1Z"/><path class="cls-1" d="m325.6,277.5h-28.4c-1.1,0-2.2-.4-3-1.2l-37.4-37.3c-1.6-1.6-4.1-1.6-5.7,0-1.6,1.6-1.6,4.1,0,5.7l37.4,37.3c2.3,2.3,5.4,3.6,8.6,3.6h28.4c2.2,0,4-1.8,4-4s-1.8-4-4-4Z"/><path class="cls-1" d="m121.4,131.4c-16.4,0-29.8,12.8-29.8,28.6s0,.6,0,.9c0,.1,0,.2,0,.3,0,21.5,13.4,39.1,29.8,39.1s29.8-17.5,29.8-39.1,0-.2,0-.3c0-.3,0-.6,0-.9,0-15.7-13.4-28.6-29.8-28.6Zm21.8,30.2c-.2,16.9-9.9,30.6-21.8,30.6s-21.6-13.7-21.8-30.6c0-.2,0-.5,0-.7,0-.3,0-.7,0-1,0-11.3,9.8-20.6,21.8-20.6s21.8,9.2,21.8,20.6,0,.7,0,1c0,.2,0,.4,0,.7Z"/><path class="cls-1" d="m92.6,260.3v-27.3c0-2.2-1.8-4-4-4s-4,1.8-4,4v27.3c0,2.2,1.8,4,4,4s4-1.8,4-4Z"/><path class="cls-1" d="m155.8,263.8v-30.8c0-2.2-1.8-4-4-4s-4,1.8-4,4v30.8c0,2.2,1.8,4,4,4s4-1.8,4-4Z"/><path class="cls-1" d="m65.4,253.9c-1.5,1.6-1.5,4.1.1,5.7l16.4,15.8c1.7,1.7,4,2.6,6.4,2.6h85.7c2.2,0,4-1.8,4-4s-1.8-4-4-4h-85.7c-.3,0-.6-.1-.9-.3l-16.4-15.8c-1.6-1.5-4.1-1.5-5.7.1Z"/></svg>