<?xml version="1.0" encoding="UTF-8"?><svg id="icona" xmlns="http://www.w3.org/2000/svg" width="370" height="370" viewBox="0 0 370 370"><defs><style>.cls-1{fill:#323e48;}</style></defs><path class="cls-1" d="m341.2,110.7c-2.2,0-4,1.8-4,4v194.9H32.7V79.6h123.8c2.2,0,4-1.8,4-4s-1.8-4-4-4H31.5c-3.7,0-6.7,3-6.7,6.7v232.5c0,3.7,3,6.7,6.7,6.7h307c3.7,0,6.7-3,6.7-6.7V114.7c0-2.2-1.8-4-4-4Z"/><path class="cls-1" d="m332.5,102.2c1,0,2-.4,2.8-1.2,1.6-1.6,1.6-4.1,0-5.7l-20.2-20.2c-2.3-2.3-5.3-3.5-8.5-3.5h-121.7c-2.2,0-4,1.8-4,4s1.8,4,4,4h121.7c1.1,0,2.1.4,2.8,1.2l20.2,20.2c.8.8,1.8,1.2,2.8,1.2Z"/><path class="cls-1" d="m40.4,98.2c0,2.2,1.8,4,4,4h250c2.2,0,4-1.8,4-4s-1.8-4-4-4H44.4c-2.2,0-4,1.8-4,4Z"/><path class="cls-1" d="m47.4,120c-3.9,0-7,3.1-7,7v164.4c0,3.9,3.1,7,7,7h275.2c3.9,0,7-3.1,7-7V127c0-3.9-3.1-7-7-7H47.4Zm274.2,170.4H48.4v-162.4h273.2v162.4Z"/><path class="cls-1" d="m187.8,259.9h21.3c2.2,0,4-1.8,4-4v-93.1c0-2.2-1.8-4-4-4h-21.3c-2.2,0-4,1.8-4,4v93.1c0,2.2,1.8,4,4,4Zm4-93.1h13.3v85.1h-13.3v-85.1Z"/><path class="cls-1" d="m277.9,256.9c.4,1.9,2.1,3.2,3.9,3.2s.5,0,.8,0l20.9-4.2c1-.2,2-.8,2.6-1.7s.8-2,.6-3l-18.9-91.2c-.4-2.2-2.5-3.5-4.7-3.1l-20.9,4.2c-1,.2-2,.8-2.6,1.7s-.8,2-.6,3l18.9,91.2Zm2.8-91.5l17.3,83.3-13.1,2.6-17.3-83.3,13.1-2.6Z"/><path class="cls-1" d="m219.7,259.9h32c2.2,0,4-1.8,4-4v-93.1c0-2.2-1.8-4-4-4h-32c-2.2,0-4,1.8-4,4v93.1c0,2.2,1.8,4,4,4Zm4-93.1h24v85.1h-24v-85.1Z"/><path class="cls-1" d="m200.2,172.6h-3.7c-2.2,0-4,1.8-4,4s1.8,4,4,4h3.7c2.2,0,4-1.8,4-4s-1.8-4-4-4Z"/><path class="cls-1" d="m241.1,172.6h-11.5c-2.2,0-4,1.8-4,4s1.8,4,4,4h11.5c2.2,0,4-1.8,4-4s-1.8-4-4-4Z"/><path class="cls-1" d="m277.2,171.8l-3.5.7c-2.2.4-3.6,2.5-3.1,4.7.4,1.9,2,3.2,3.9,3.2s.5,0,.8,0l3.5-.7c2.2-.4,3.6-2.5,3.1-4.7-.4-2.2-2.5-3.6-4.7-3.1Z"/><path class="cls-1" d="m113.7,267.7c13.6,0,26.8-4.7,37.3-13.3,1.7-1.4,2-3.9.6-5.6-1.4-1.7-3.9-2-5.6-.6-3.1,2.5-6.5,4.6-10,6.4,1.8-2.4,3.4-5.1,4.9-8.1,8.5-1,15.5-4.1,21.6-12.9,1.2-1.8.8-4.3-1-5.6-1.8-1.2-4.3-.8-5.6,1-3.3,4.9-6.9,7.4-11.4,8.7,2.5-7.5,4-16,4.4-25.2h15.7c-.6,3.3-1.6,4.7-1.6,4.7h0c0,0,6.2,4.9,6.2,4.9.6-.7,3.3-4.6,3.8-13.4,0,0,0,0,0,0,0,0,0,0,0,0,0-32.6-26.5-59.2-59.2-59.2s-59.2,26.5-59.2,59.2,26.5,59.2,59.2,59.2Zm-44.6-34c1.1.8,2.2,1.6,3.4,2.3,3.6,2.2,7.6,4.1,11.9,5.7,1.9,4.9,4.3,9.3,7,13-9.4-4.6-17.2-11.9-22.3-21Zm71.5-29.1h-23v-25.9c6.7.3,13.1,1.4,19,3.2,2.2,6.7,3.7,14.5,4,22.7Zm5.4-19c9.7,4.7,16.5,11.5,18.3,19h-15.7c-.3-6.7-1.1-13.1-2.6-19Zm-28.4-14.9v-12.7c5.8,1.7,11,7,15,14.6-4.8-1-9.9-1.7-15-1.9Zm-8-12.7v12.7c-5.2.2-10.2.9-15,1.9,4-7.6,9.3-12.9,15-14.6Zm0,20.7v25.9h-23c.4-8.2,1.8-15.9,4-22.7,5.8-1.8,12.2-2.9,19-3.2Zm-15,65.9c4.8,1,9.9,1.7,15,1.9v12.7c-5.8-1.7-11-7-15-14.6Zm23,2c2.3,0,4.5,0,6.7.2,2.4,0,4.8.1,7,.1-3.8,6.3-8.5,10.7-13.7,12.2v-12.6Zm-8-8.1c-6.7-.3-13.1-1.4-19-3.2-2.2-6.7-3.7-14.5-4-22.7h23v25.9Zm-31-25.9c.3,6.7,1.1,13.1,2.6,19-9.7-4.7-16.5-11.5-18.3-19h15.7Zm0-8h-15.7c1.8-7.5,8.6-14.3,18.3-19-1.4,5.9-2.3,12.3-2.6,19Zm56.6,34.3c-3.1,0-6.7,0-10.7-.1-2.1,0-4.5-.1-6.9-.2v-26h23c-.4,9.7-2.3,18.8-5.3,26.3Zm22.9-55.4c-1.1-.8-2.2-1.6-3.4-2.3-3.6-2.2-7.6-4.1-11.9-5.7-1.9-4.9-4.3-9.3-7-13,9.4,4.6,17.2,11.9,22.3,21Zm-66.8-21c-2.7,3.7-5.1,8.1-7,13-4.3,1.5-8.3,3.4-11.9,5.7-1.2.7-2.3,1.5-3.4,2.3,5.1-9.1,12.9-16.4,22.3-21Z"/></svg>