<?xml version="1.0" encoding="UTF-8"?><svg id="icona" xmlns="http://www.w3.org/2000/svg" width="370" height="370" viewBox="0 0 370 370"><defs><style>.cls-1{fill:#323e48;}</style></defs><path class="cls-1" d="m341.3,110.7c-2.2,0-4,1.8-4,4v194.9H32.8V79.6h123.8c2.2,0,4-1.8,4-4s-1.8-4-4-4H31.5c-3.7,0-6.7,3-6.7,6.7v232.5c0,3.7,3,6.7,6.7,6.7h307c3.7,0,6.7-3,6.7-6.7V114.7c0-2.2-1.8-4-4-4Z"/><path class="cls-1" d="m309.5,80.8l20.2,20.2c.8.8,1.8,1.2,2.8,1.2s2-.4,2.8-1.2c1.6-1.6,1.6-4.1,0-5.7l-20.2-20.2c-2.3-2.3-5.3-3.5-8.5-3.5h-121.7c-2.2,0-4,1.8-4,4s1.8,4,4,4h121.7c1.1,0,2.1.4,2.8,1.2Z"/><path class="cls-1" d="m120.3,175.3c-1.6,1.6-1.6,4.1,0,5.7l11,11c.8.8,1.8,1.2,2.8,1.2s2-.4,2.8-1.2l11.1-11.1c1.6-1.6,1.6-4.1,0-5.7-1.6-1.6-4.1-1.6-5.7,0l-8.2,8.2-8.2-8.2c-1.6-1.6-4.1-1.6-5.7,0Z"/><path class="cls-1" d="m134.2,160.4c2.2,0,4-1.8,4-4h0c0-2.2-1.8-4-4-4s-4,1.8-4,4,1.8,4,4,4Z"/><path class="cls-1" d="m134.2,148.4c2.2,0,4-1.8,4-4h0c0-2.2-1.8-4-4-4s-4,1.8-4,4,1.8,4,4,4Z"/><path class="cls-1" d="m134.2,172.4c2.2,0,4-1.8,4-4h0c0-2.2-1.8-4-4-4s-4,1.8-4,4,1.8,4,4,4Z"/><path class="cls-1" d="m134.2,92.1c-12.1,0-22,9.9-22,22s9.9,22,22,22,22-9.9,22-22-9.9-22-22-22Zm0,36c-7.7,0-14-6.3-14-14s6.3-14,14-14,14,6.3,14,14-6.3,14-14,14Z"/><path class="cls-1" d="m195.4,229.5c.8.8,1.8,1.2,2.8,1.2s2-.4,2.8-1.2l11-11c1.6-1.6,1.6-4.1,0-5.7l-11.1-11.1c-1.6-1.6-4.1-1.6-5.7,0-1.6,1.6-1.6,4.1,0,5.7l8.2,8.2-8.2,8.2c-1.6,1.6-1.6,4.1,0,5.7Z"/><path class="cls-1" d="m164.5,211.6c-2.2,0-4,1.8-4,4s1.8,4,4,4,4-1.8,4-4-1.8-4-4-4h0Z"/><path class="cls-1" d="m176.5,219.6c2.2,0,4-1.8,4-4s-1.8-4-4-4h0c-2.2,0-4,1.8-4,4s1.8,4,4,4Z"/><path class="cls-1" d="m188.5,211.6c-2.2,0-4,1.8-4,4s1.8,4,4,4,4-1.8,4-4-1.8-4-4-4h0Z"/><path class="cls-1" d="m112.2,215.6c0,12.1,9.9,22,22,22s22-9.9,22-22-9.9-22-22-22-22,9.9-22,22Zm22-14c7.7,0,14,6.3,14,14s-6.3,14-14,14-14-6.3-14-14,6.3-14,14-14Z"/><path class="cls-1" d="m221.9,279.2c-1.6,1.6-1.6,4.1,0,5.7l11,11c.8.8,1.8,1.2,2.8,1.2s2-.4,2.8-1.2l11.1-11.1c1.6-1.6,1.6-4.1,0-5.7-1.6-1.6-4.1-1.6-5.7,0l-8.2,8.2-8.2-8.2c-1.6-1.6-4.1-1.6-5.7,0Z"/><path class="cls-1" d="m235.8,264.3c2.2,0,4-1.8,4-4h0c0-2.2-1.8-4-4-4s-4,1.8-4,4,1.8,4,4,4Z"/><path class="cls-1" d="m235.8,252.3c2.2,0,4-1.8,4-4h0c0-2.2-1.8-4-4-4s-4,1.8-4,4,1.8,4,4,4Z"/><path class="cls-1" d="m235.8,276.3c2.2,0,4-1.8,4-4h0c0-2.2-1.8-4-4-4s-4,1.8-4,4,1.8,4,4,4Z"/><path class="cls-1" d="m257.8,218c0-12.1-9.9-22-22-22s-22,9.9-22,22,9.9,22,22,22,22-9.9,22-22Zm-22,14c-7.7,0-14-6.3-14-14s6.3-14,14-14,14,6.3,14,14-6.3,14-14,14Z"/></svg>