<?xml version="1.0" encoding="UTF-8"?><svg id="icona" xmlns="http://www.w3.org/2000/svg" width="370" height="370" viewBox="0 0 370 370"><defs><style>.cls-1{fill:#323e48;}</style></defs><path class="cls-1" d="m56,101.6v186c0,3.4,2.8,6.2,6.2,6.2h245.6c3.4,0,6.2-2.8,6.2-6.2V75.4c0-19.6-29.2-35-66.5-35s-66.5,15.4-66.5,35,29.2,35,66.5,35,47.3-7.2,58.5-18.1v7.7c0,14.6-26.8,27-58.5,27s-25.9-2.1-36.4-6c-2.1-.8-4.4.3-5.2,2.3s.3,4.4,2.3,5.2c11.4,4.3,24.9,6.6,39.2,6.6,25.6,0,47.3-7.2,58.5-18.1v7.7c0,14.6-26.8,27-58.5,27s-25.7-2.1-36.1-5.9c-2.1-.8-4.4.3-5.1,2.4-.8,2.1.3,4.4,2.4,5.1,11.3,4.2,24.8,6.5,38.9,6.5,25.6,0,47.3-7.2,58.5-18.1v7.7c0,14.6-26.8,27-58.5,27s-25.7-2.1-36.1-5.9c0,0-.2,0-.3,0-.1,0-.3,0-.4-.1-.1,0-.3,0-.4,0,0,0-.2,0-.3,0s0,0,0,0c-.2,0-.3,0-.5,0-.1,0-.2,0-.3,0-.1,0-.3,0-.4.1-.1,0-.2,0-.4.1-.1,0-.2.1-.3.2-.1,0-.2.1-.3.2-.1,0-.2.2-.3.3,0,0-.2.1-.3.2,0,0-.2.2-.3.3,0,0-.2.2-.2.3,0,0-.1.2-.2.3,0,.1-.1.3-.2.4,0,0,0,0,0,0,0,0,0,.2,0,.3,0,.1,0,.3-.1.4,0,.1,0,.3,0,.4,0,0,0,.2,0,.3v8.8h-42v-41.9h17.5v4.1c-.6,3.3.4,6.8,2.8,9.2l9.8,10c.8.8,1.8,1.2,2.8,1.2s2-.4,2.8-1.2c1.6-1.6,1.6-4.1,0-5.7l-9.8-10c-.6-.6-.8-1.5-.6-2.2,0-.3.1-.6.1-1v-45.5c0-2.2-1.8-4-4-4s-4,1.8-4,4v13.5h-109c-2.2,0-4,1.8-4,4s1.8,4,4,4h109v11.6H64v-29.6h98.3c2.2,0,4-1.8,4-4s-1.8-4-4-4H62.2c-3.4,0-6.2,2.8-6.2,6.2Zm250,131.3h-42v-42h42v42Zm-50-42v42h-42v-42h42Zm0,50v44.8h-42v-44.8h42Zm-50,44.8h-42v-44.8h42v44.8Zm-50,0h-42v-44.8h42v44.8Zm-42-52.8v-42h42v42h-42Zm-8,0h-42v-42h42v42Zm-42,8h42v44.8h-42v-44.8Zm200,44.8v-44.8h42v44.8h-42Zm-16.5-183.4c-31.7,0-58.5-12.4-58.5-27s26.8-27,58.5-27,58.5,12.4,58.5,27-26.8,27-58.5,27Zm58.5,63.8v16.7h-39.6c17.2-2.6,31.3-8.6,39.6-16.7Zm-92,13.4c4.7,1.4,9.6,2.5,14.7,3.3h-14.7v-3.3Zm-8,11.3v42h-42v-42h42Zm-50-8h-42v-41.9h42v41.9Zm-50-41.9v41.9h-42v-41.9h42Z"/></svg>