<?xml version="1.0" encoding="UTF-8"?><svg id="icona" xmlns="http://www.w3.org/2000/svg" width="370" height="370" viewBox="0 0 370 370"><defs><style>.cls-1{fill:#323e48;}</style></defs><path class="cls-1" d="m224,150.9c-1.6,1.6-1.6,4.1,0,5.7.8.8,1.8,1.2,2.8,1.2s2-.4,2.8-1.2l21.8-21.8c.8-.8,1.2-1.8,1.2-2.8v-50.3c0-1.1-.4-2.1-1.2-2.8l-35.6-35.6c-.8-.8-1.8-1.2-2.8-1.2h-50.3c-1.1,0-2.1.4-2.8,1.2l-35.6,35.6c-.8.8-1.2,1.8-1.2,2.8v50.3c0,1.1.4,2.1,1.2,2.8l9.1,9.1c1.6,1.6,4.1,1.6,5.7,0,1.6-1.6,1.6-4.1,0-5.7l-8-8v-47l33.2-33.2h47l33.2,33.2v47l-20.7,20.7Z"/><path class="cls-1" d="m217.1,167.5c0-2.2-1.8-4-4-4h-25.8c-.7-.5-1.5-.9-2.4-.9s-1.8.3-2.4.9h-18l-11.4-11.4c-1.6-1.6-4.1-1.6-5.7,0-1.6,1.6-1.6,4.1,0,5.7l12.6,12.6c.8.8,1.8,1.2,2.8,1.2h50.3c2.2,0,4-1.8,4-4Z"/><path class="cls-1" d="m177,220.7h0c-1.8,1.3-2.2,3.8-.9,5.6.8,1.1,2,1.6,3.2,1.6s1.6-.2,2.4-.8c1.8-1.3,2.2-3.8.9-5.6-1.3-1.8-3.8-2.2-5.6-.9Z"/><path class="cls-1" d="m147.7,241.7h0c-1.8,1.3-2.2,3.8-.9,5.6.8,1.1,2,1.6,3.2,1.6s1.6-.2,2.4-.8c1.8-1.3,2.2-3.8.9-5.6-1.3-1.8-3.8-2.2-5.6-.9Z"/><path class="cls-1" d="m167.2,227.7h0c-1.8,1.3-2.2,3.8-.9,5.6.8,1.1,2,1.6,3.2,1.6s1.6-.2,2.4-.8c1.8-1.3,2.2-3.8.9-5.6-1.3-1.8-3.8-2.2-5.6-.9Z"/><path class="cls-1" d="m157.5,234.7h0c-1.8,1.3-2.2,3.8-1,5.6.8,1.1,2,1.7,3.3,1.7s1.6-.2,2.3-.7c1.8-1.3,2.2-3.8,1-5.6-1.3-1.8-3.8-2.2-5.6-1Z"/><path class="cls-1" d="m85.4,233.4l-25.6,25.6c-.8.8-1.2,1.8-1.2,2.8v36.3c0,1.1.4,2.1,1.2,2.8l25.6,25.6c.8.8,1.8,1.2,2.8,1.2h36.3c1.1,0,2.1-.4,2.8-1.2l6.6-6.6c1.6-1.6,1.6-4.1,0-5.7-1.6-1.6-4.1-1.6-5.7,0l-5.4,5.4h-33l-23.3-23.3v-2.7h79.6v2.7l-7.9,7.9c-1.6,1.6-1.6,4.1,0,5.7.8.8,1.8,1.2,2.8,1.2s2-.4,2.8-1.2l9.1-9.1c.8-.8,1.2-1.8,1.2-2.8v-5.8c.6-.7,1-1.6,1-2.6s-.4-1.9-1-2.6v-25.4c0-2.2-1.8-4-4-4s-4,1.8-4,4v23.9h-38l12.7-10.4c1.7-1.4,2-3.9.6-5.6-1.4-1.7-3.9-2-5.6-.6l-20.2,16.6h-29v-22.3l23.3-23.3h33l14.6,14.6c0,0,.1,0,.2.1,0,0,.1.1.2.2.2.1.4.3.5.4,0,0,.1,0,.2.1.2.1.5.2.7.2,0,0,0,0,.1,0,.4,0,.7.1,1.1,0,.2,0,.3,0,.5,0,0,0,.2,0,.3,0,.1,0,.3,0,.4-.1,0,0,.2,0,.3-.1.1,0,.3-.1.4-.2,0,0,.2,0,.2-.1,0,0,0,0,0,0,0,0,.2-.1.2-.2,0,0,.2-.1.2-.2,0,0,0,0,0,0,.1-.1.2-.3.3-.4,0,0,.1-.1.2-.2,0-.2.2-.3.3-.5,0,0,0-.1,0-.2,0-.2.1-.4.2-.6,0,0,0-.1,0-.2,0-.2,0-.4,0-.6,0,0,0,0,0-.1,0-.2,0-.5,0-.7,0,0,0,0,0,0,0-.2-.1-.4-.2-.6,0,0,0,0,0,0,0-.2-.2-.4-.3-.6,0,0,0,0,0-.1,0,0,0,0,0-.1-.1-.1-.2-.3-.4-.4,0,0,0,0,0,0h0c0,0,0-.1-.1-.2l-15.6-15.6c-.8-.8-1.8-1.2-2.8-1.2h-36.3c-1.1,0-2.1.4-2.8,1.2Z"/><path class="cls-1" d="m245.1,327.6c.8.8,1.8,1.2,2.8,1.2h36.3c1.1,0,2.1-.4,2.8-1.2l25.6-25.6c.8-.8,1.2-1.8,1.2-2.8v-36.3c0-1.1-.4-2.1-1.2-2.8l-25.6-25.6c-.8-.8-1.8-1.2-2.8-1.2h-36.3c-1.1,0-2.1.4-2.8,1.2l-6.6,6.6c-1.6,1.6-1.6,4.1,0,5.7s4.1,1.6,5.7,0l5.4-5.4h33l23.3,23.3v33l-23.3,23.3h-33l-14.6-14.6c-1.6-1.6-4.1-1.6-5.7,0-1.6,1.6-1.6,4.1,0,5.7l15.7,15.7Z"/><path class="cls-1" d="m222.3,303.1c2.2,0,4-1.8,4-4v-34.6l7.9-7.9c1.6-1.6,1.6-4.1,0-5.7-1.6-1.6-4.1-1.6-5.7,0l-3.9,3.9c-1.3-.4-2.9,0-3.9,1-1.1,1.1-1.4,2.6-1,3.9l-.2.2c-.8.8-1.2,1.8-1.2,2.8v36.3c0,2.2,1.8,4,4,4Z"/><path class="cls-1" d="m167.4,136.7c2.2,0,4-1.8,4-4v-32.8c0-2.2-1.8-4-4-4s-4,1.8-4,4v32.8c0,2.2,1.8,4,4,4Z"/><path class="cls-1" d="m188.9,132.7v-43.2c0-2.2-1.8-4-4-4s-4,1.8-4,4v43.2c0,2.2,1.8,4,4,4s4-1.8,4-4Z"/><path class="cls-1" d="m206.3,132.7v-59.9c0-2.2-1.8-4-4-4s-4,1.8-4,4v59.9c0,2.2,1.8,4,4,4s4-1.8,4-4Z"/><path class="cls-1" d="m184.9,182.7c2.2,0,4-1.8,4-4h0c0-2.2-1.8-4-4-4s-4,1.8-4,4,1.8,4,4,4Z"/><path class="cls-1" d="m184.9,206.7c2.2,0,4-1.8,4-4h0c0-2.2-1.8-4-4-4s-4,1.8-4,4,1.8,4,4,4Z"/><path class="cls-1" d="m184.9,194.7c2.2,0,4-1.8,4-4h0c0-2.2-1.8-4-4-4s-4,1.8-4,4,1.8,4,4,4Z"/><path class="cls-1" d="m217.9,253c1.6-1.6,1.6-4.1,0-5.7h0c-1.6-1.6-4.1-1.6-5.7,0-1.6,1.6-1.6,4.1,0,5.7.8.8,1.8,1.2,2.8,1.2s2-.4,2.8-1.2Z"/><path class="cls-1" d="m188.9,214.7h0c0-2.2-1.8-4-4-4s-4,1.8-4,4,1.8,4,4,4,4-1.8,4-4Z"/><path class="cls-1" d="m203.7,238.9c-1.6,1.6-1.6,4.1,0,5.7.8.8,1.8,1.2,2.8,1.2s2-.4,2.8-1.2c1.6-1.6,1.6-4.1,0-5.7h0c-1.6-1.6-4.1-1.6-5.7,0Z"/><path class="cls-1" d="m195.3,230.4c-1.6,1.6-1.6,4.1,0,5.7.8.8,1.8,1.2,2.8,1.2s2-.4,2.8-1.2c1.6-1.6,1.6-4.1,0-5.7h0c-1.6-1.6-4.1-1.6-5.7,0Z"/><path class="cls-1" d="m189.6,228.7c1,0,2-.4,2.8-1.2,1.6-1.6,1.6-4.1,0-5.7h0c-1.6-1.6-4.1-1.6-5.7,0-1.6,1.6-1.6,4.1,0,5.7.8.8,1.8,1.2,2.8,1.2Z"/><path class="cls-1" d="m129.3,257.2l-6.5,5.9c-1.6,1.5-1.8,4-.3,5.6.8.9,1.9,1.3,3,1.3s1.9-.3,2.7-1l6.5-5.9c1.6-1.5,1.8-4,.3-5.6-1.5-1.6-4-1.8-5.6-.3Z"/><path class="cls-1" d="m103.1,252.6l-.4,8.7c-.1,2.2,1.6,4.1,3.8,4.2,0,0,.1,0,.2,0,2.1,0,3.9-1.7,4-3.8l.4-8.7c.1-2.2-1.6-4.1-3.8-4.2-2.2-.1-4.1,1.6-4.2,3.8Z"/><path class="cls-1" d="m90.1,258.8c-1.8-1.3-4.3-1-5.6.8-1.3,1.8-1,4.3.8,5.6l7,5.3c.7.5,1.6.8,2.4.8,1.2,0,2.4-.5,3.2-1.6,1.3-1.8,1-4.3-.8-5.6l-7-5.3Z"/></svg>