<svg width="70" height="70" viewBox="0 0 70 70" fill="none" xmlns="http://www.w3.org/2000/svg">
<path d="M36 43.4708C34.4042 43.4686 32.8409 43.02 31.4867 42.1757C30.1326 41.3315 29.0416 40.1252 28.3372 38.6932C27.6329 37.2613 27.3432 35.6609 27.5009 34.0729C27.6586 32.4849 28.2574 30.9727 29.2296 29.7073C30.2019 28.4418 31.5088 27.4737 33.0025 26.9122C34.4963 26.3507 36.1174 26.2184 37.6824 26.5301C39.2475 26.8418 40.6941 27.5852 41.8587 28.6762C43.0234 29.7671 43.8596 31.1622 44.2728 32.7035C44.8598 34.8942 44.5527 37.2284 43.419 39.1927C42.2853 41.1569 40.4178 42.5905 38.2273 43.1781C37.5004 43.3702 36.7519 43.4686 36 43.4708ZM36 28.2617C34.6097 28.2504 33.2509 28.6756 32.1149 29.4774C30.979 30.2791 30.1232 31.4171 29.6682 32.7309C29.2132 34.0447 29.1818 35.4682 29.5785 36.8008C29.9753 38.1333 30.7801 39.3079 31.8796 40.1589C32.9791 41.0099 34.3179 41.4945 35.7074 41.5445C37.0969 41.5944 38.467 41.2072 39.6248 40.4373C40.7825 39.6674 41.6696 38.5536 42.1609 37.253C42.6523 35.9523 42.7232 34.5303 42.3637 33.1872C41.9878 31.7831 41.1619 30.541 40.0124 29.6514C38.863 28.7617 37.4535 28.2735 36 28.2617Z" fill="black"/>
<path d="M49.2618 67.5254H23.3746C23.1215 67.5251 22.8788 67.4244 22.7 67.2454L19.0982 63.6563C18.9194 63.4773 18.819 63.2347 18.819 62.9817C18.819 62.7288 18.9194 62.4861 19.0982 62.3072C19.1859 62.2171 19.2908 62.1455 19.4067 62.0967C19.5225 62.0478 19.647 62.0226 19.7727 62.0226C19.8985 62.0226 20.0229 62.0478 20.1388 62.0967C20.2546 62.1455 20.3595 62.2171 20.4473 62.3072L23.7691 65.6163H48.8673L66.8891 47.5944C67.07 47.4258 67.3094 47.334 67.5567 47.3384C67.804 47.3428 68.0399 47.4429 68.2148 47.6178C68.3897 47.7927 68.4899 48.0287 68.4942 48.276C68.4986 48.5233 68.4068 48.7626 68.2382 48.9435L49.9364 67.2454C49.756 67.4221 49.5144 67.5224 49.2618 67.5254Z" fill="black"/>
<path d="M57.4837 17.5454C56.3976 17.5429 55.3426 17.1825 54.4821 16.5198C53.6216 15.8572 53.0036 14.9294 52.7236 13.88C52.3861 12.6142 52.5652 11.2661 53.2216 10.1324C53.878 8.99863 54.9578 8.17207 56.2236 7.83452C57.4895 7.49697 58.8375 7.67609 59.9713 8.33247C61.105 8.98884 61.9316 10.0687 62.2691 11.3345C62.6075 12.5986 62.4302 13.9453 61.7764 15.0788C61.1225 16.2123 60.0455 17.04 58.7818 17.38C58.358 17.4907 57.9217 17.5464 57.4837 17.5454ZM57.4837 9.05634C57.1694 9.05392 56.8565 9.09678 56.5546 9.18361C55.6632 9.43552 54.908 10.0305 54.4546 10.8382C54.2191 11.2389 54.0653 11.6823 54.0018 12.1427C53.9384 12.6031 53.9666 13.0716 54.0849 13.5211C54.2032 13.9706 54.4092 14.3922 54.6911 14.7618C54.9729 15.1314 55.3251 15.4416 55.7273 15.6745C56.1271 15.9135 56.5715 16.0683 57.0333 16.1296C57.495 16.1909 57.9644 16.1573 58.4127 16.0309C58.8623 15.9137 59.284 15.7081 59.6533 15.4262C60.0226 15.1444 60.332 14.7918 60.5636 14.3891C61.0326 13.5762 61.1608 12.6107 60.92 11.7036C60.8 11.2536 60.592 10.8318 60.308 10.4626C60.024 10.0934 59.6697 9.78415 59.2655 9.5527C58.7334 9.23815 58.1272 9.0712 57.5091 9.06907L57.4837 9.05634Z" fill="black"/>
<path d="M14.2746 62.3836C13.1907 62.3726 12.1398 62.009 11.281 61.3476C10.4222 60.6863 9.8021 59.7632 9.51457 58.7181C9.17703 57.4523 9.35614 56.1043 10.0125 54.9705C10.6689 53.8368 11.7488 53.0102 13.0146 52.6727C14.2804 52.3351 15.6284 52.5142 16.7622 53.1706C17.8959 53.827 18.7225 54.9068 19.06 56.1727C19.3949 57.4366 19.2161 58.7817 18.5628 59.9144C17.9094 61.047 16.8345 61.8752 15.5728 62.2181C15.1489 62.3289 14.7126 62.3845 14.2746 62.3836ZM14.2746 53.8945C13.9656 53.8954 13.6579 53.9339 13.3582 54.009C12.5195 54.3084 11.8245 54.9131 11.412 55.7023C10.9995 56.4915 10.8997 57.4073 11.1327 58.2668C11.3657 59.1264 11.9142 59.8664 12.6688 60.3393C13.4234 60.8123 14.3286 60.9832 15.2037 60.8181C15.6549 60.7007 16.0778 60.4938 16.4473 60.2095C16.8168 59.9253 17.1254 59.5695 17.3546 59.1636C17.5875 58.7613 17.7388 58.3171 17.7999 57.8563C17.8611 57.3955 17.8308 56.9272 17.7109 56.4781C17.5909 56.0281 17.3829 55.6063 17.0989 55.2371C16.8149 54.8679 16.4606 54.5587 16.0564 54.3272C15.5157 54.0282 14.905 53.8789 14.2873 53.8945H14.2746Z" fill="black"/>
<path d="M68.06 45.5454C67.8069 45.5454 67.5641 45.4448 67.3851 45.2658C67.206 45.0868 67.1055 44.844 67.1055 44.5909V23.3363C67.1061 23.0389 67.0025 22.7507 66.8127 22.5218L62.5491 18.2581C62.4261 18.1854 62.321 18.0861 62.2415 17.9673C62.162 17.8486 62.1102 17.7136 62.0899 17.5721C62.0696 17.4307 62.0813 17.2865 62.1241 17.1502C62.1669 17.0139 62.2398 16.889 62.3374 16.7846C62.4349 16.6802 62.5546 16.5991 62.6877 16.5471C62.8208 16.4952 62.9639 16.4738 63.1064 16.4845C63.2489 16.4952 63.3871 16.5378 63.5109 16.6091C63.6348 16.6803 63.741 16.7785 63.8218 16.8963L68.0982 21.1599C68.6527 21.7481 68.9583 22.528 68.9509 23.3363V44.5654C68.9549 44.8114 68.865 45.0497 68.6995 45.2318C68.534 45.4139 68.3053 45.526 68.06 45.5454Z" fill="black"/>
<path d="M52.8637 6.6254L48.8164 2.57813C48.7241 2.47856 48.6117 2.39981 48.4866 2.34714C48.3615 2.29447 48.2266 2.26908 48.0909 2.27267H22.2546C22.0015 2.2729 21.7589 2.37361 21.58 2.55267L3.26547 20.8799C3.08641 21.0588 2.9857 21.3014 2.98547 21.5545V47.4418C2.9857 47.6948 3.08641 47.9375 3.26547 48.1163L8.14002 52.9909C8.22815 53.0801 8.33321 53.1508 8.44905 53.1989C8.56488 53.247 8.68915 53.2714 8.81456 53.2709C8.94008 53.2722 9.06457 53.248 9.1805 53.1999C9.29644 53.1518 9.40142 53.0807 9.48911 52.9909C9.57916 52.9031 9.65074 52.7982 9.69961 52.6824C9.74848 52.5665 9.77365 52.442 9.77365 52.3163C9.77365 52.1906 9.74848 52.0661 9.69961 51.9503C9.65074 51.8344 9.57916 51.7295 9.48911 51.6418L4.89456 47.0472V21.949L22.6364 4.20722H47.7473L51.5655 8.0254C51.7482 8.20192 51.9923 8.30059 52.2464 8.30059C52.5004 8.30059 52.7446 8.20192 52.9273 8.0254C53.106 7.84642 53.2065 7.60381 53.2065 7.35085C53.2065 7.0979 53.106 6.85529 52.9273 6.67631L52.8637 6.6254Z" fill="black"/>
<path d="M52.4564 38.9781C52.8461 37.423 53.009 35.8198 52.94 34.2181L56.2236 33.8999L56.1345 32.9835C55.8816 30.3103 55.0984 27.7143 53.8309 25.3472L53.3982 24.5072L50.4964 26.0854C49.6616 24.7066 48.6329 23.455 47.4418 22.369L49.44 19.9254L48.7527 19.2381C47.7533 18.426 46.6795 17.7101 45.5455 17.0999H45.4309C44.9048 16.8199 44.3703 16.5654 43.8273 16.3363H43.6745C43.123 16.1072 42.563 15.9035 41.9945 15.7254L41.8036 15.6617L40.9382 15.4072L40.0854 18.1944L39.9709 18.5635C38.4191 18.1801 36.8209 18.0173 35.2236 18.0799L34.8927 14.7963L33.9764 14.8981C31.3519 15.1216 28.7966 15.8567 26.4545 17.0617L25.64 17.4944L27.1673 20.4217C25.8004 21.2473 24.5576 22.2629 23.4764 23.4381L22.14 22.3435L21.0454 21.3635L20.32 22.089C19.4933 23.0967 18.7686 24.1838 18.1564 25.3344C17.5366 26.504 17.0336 27.7317 16.6545 28.9999L16.3873 29.8781L19.5436 30.8454C19.3513 31.6194 19.2152 32.4063 19.1364 33.1999C19.1364 33.3399 19.1364 33.4926 19.1364 33.6326C19.1364 33.7726 19.1364 34.1417 19.1364 34.3963C19.1364 34.6508 19.1364 35.1854 19.1364 35.5926L15.8527 35.9108L15.9418 36.8144C15.9418 37.0435 15.9418 37.2726 16.0182 37.5017V37.8072C16.0466 37.9374 16.0678 38.0691 16.0818 38.2017C16.0818 38.3926 16.0818 38.5963 16.1836 38.7872C16.5053 40.3911 17.0181 41.9507 17.7109 43.4326C17.8382 43.7126 17.9782 43.9799 18.1182 44.2472V44.3363L18.5509 45.1508L21.4527 43.5981C21.4794 43.6426 21.5091 43.6851 21.5418 43.7254C21.7327 44.0308 21.9236 44.3363 22.1273 44.629C22.3309 44.9217 22.42 45.0108 22.5727 45.2145L22.84 45.5708C23.3475 46.1843 23.896 46.7626 24.4818 47.3017L22.3945 49.8472L23.0691 50.4072L23.2091 50.5217C23.6673 50.8908 24.1254 51.2345 24.6091 51.5526L24.8636 51.7181C25.3239 52.0265 25.7997 52.3111 26.2891 52.5708L26.5564 52.7235C27.0782 52.9908 27.6 53.2454 28.1473 53.4744H28.2745C28.8473 53.7035 29.4454 53.9199 30.0436 54.0981L30.5654 54.2635L30.9345 54.3781L31.9018 51.2217L32.2836 51.3108L33.0727 51.4763L33.7091 51.5654H34.2691C34.4218 51.5654 34.5745 51.5654 34.7273 51.5654H35.4655H36.6745L36.9927 54.849L37.8964 54.7599C40.5692 54.5049 43.1648 53.7219 45.5327 52.4563L46.3091 52.049L44.7818 49.4272C44.9982 49.2999 45.2018 49.1472 45.4182 49.0072C45.5459 48.934 45.6692 48.8533 45.7873 48.7654C46.0291 48.5999 46.2709 48.409 46.5 48.2308L46.7418 48.0399C47.0218 47.8108 47.2891 47.5817 47.5436 47.3399L47.6327 47.2508C47.9254 46.9835 48.2055 46.6908 48.4727 46.3981L51.0182 48.4854L51.54 47.8363C52.1596 47.0838 52.7252 46.2885 53.2327 45.4563L53.6527 44.7181L53.7291 44.5781C53.8436 44.3745 53.9454 44.1454 54.06 43.929L54.1745 43.6872C54.2636 43.4963 54.3527 43.3181 54.4291 43.1272L54.5818 42.7708L54.7727 42.2999C54.7727 42.1472 54.8873 41.9945 54.9509 41.829C55.0145 41.6635 55.0273 41.5872 55.0782 41.4599C55.1291 41.3326 55.2055 41.0781 55.2564 40.8872V40.709L55.46 40.0344L52.5455 39.1435L52.4564 38.9781ZM45.5455 23.2217C47.1146 24.4754 48.4135 26.034 49.3636 27.8035L49.8091 28.6308L52.6473 27.0781C53.4301 28.7059 53.9581 30.4444 54.2127 32.2326L50.98 32.5508L51.0691 33.4799C51.2575 35.4509 51.0586 37.4398 50.4836 39.3344L50.2036 40.2126L53.3091 41.1672L53.1436 41.5872C53.0418 41.8672 52.94 42.1344 52.8255 42.389C52.7109 42.6435 52.6855 42.6563 52.6218 42.7963C52.5582 42.9363 52.3673 43.3308 52.2273 43.5981L52.0745 43.8654C51.9091 44.1708 51.7309 44.4635 51.5527 44.7563C51.5503 44.7859 51.5503 44.8157 51.5527 44.8454C51.3364 45.1763 51.1073 45.5072 50.8782 45.8254L48.3327 43.7635L48.1291 44.0054L47.7727 44.4508L47.5691 44.6544C47.3228 44.9618 47.0593 45.255 46.78 45.5326L46.5 45.7872C46.2327 46.0417 45.9655 46.2963 45.6855 46.5254C45.4902 46.6851 45.2863 46.8338 45.0745 46.9708C44.8922 47.1261 44.701 47.2706 44.5018 47.4035C44.094 47.6846 43.669 47.9396 43.2291 48.1672L42.5164 48.5999L42.7964 49.3126L43.9673 51.4508C43.6491 51.6035 43.3182 51.7308 43 51.8581L42.7455 51.9726C41.4935 52.4557 40.1915 52.7972 38.8636 52.9908L38.5582 49.7581L37.6291 49.8472C37.2218 49.8472 36.8145 49.8472 36.42 49.8472H36.1527H35.3127H34.6764C34.4727 49.8472 34.2564 49.7835 34.0527 49.7581L33.2127 49.6308L32.7418 49.5163L31.5455 49.3635L30.6545 49.0835L29.7127 52.2017C29.28 52.049 28.86 51.8708 28.44 51.6926C27.2334 51.1583 26.0895 50.4925 25.0291 49.7072L27.0909 47.1617L26.4545 46.5763C25.6906 45.9522 24.9913 45.253 24.3673 44.489C24.2145 44.3108 24.0873 44.1072 23.9345 43.9163C23.7818 43.7254 23.6291 43.5217 23.4891 43.3181L23.0818 42.6308C22.9673 42.4399 22.84 42.249 22.7382 42.0581L22.3054 41.3454L21.9109 41.4981L19.4545 42.7708C19.34 42.5163 19.2382 42.249 19.1236 41.9944C19.0524 41.845 18.9886 41.6921 18.9327 41.5363C18.9327 41.3835 18.8182 41.2181 18.7673 41.0654C18.7164 40.9126 18.5764 40.5308 18.5 40.2635C18.4943 40.1873 18.4943 40.1107 18.5 40.0344C18.3982 39.6781 18.2964 39.3344 18.22 38.9781V38.7744C18.1436 38.4054 18.0673 38.049 18.0164 37.6799L21.2491 37.3617L21.16 36.4326C20.9652 34.4616 21.1642 32.4715 21.7454 30.5781L21.8473 30.2472L22.0127 29.6999L18.8945 28.7581C18.934 28.6712 18.968 28.5819 18.9964 28.4908C19.4343 27.3265 19.9886 26.2093 20.6509 25.1563C20.88 24.7999 21.1091 24.4563 21.3636 24.1126L23.26 25.6654L23.8327 26.1617L24.4564 25.4617C25.7009 23.9505 27.2321 22.7004 28.9618 21.7835L29.7636 21.3508L28.2745 18.4744C29.8842 17.7049 31.6003 17.1815 33.3655 16.9217L33.6709 20.1544L34.6 20.0654C36.5593 19.8144 38.5489 19.9529 40.4545 20.4726L41.3327 20.7399L42.2745 17.6217C43.1037 17.9233 43.9116 18.2805 44.6927 18.6908C45.0109 18.8563 45.3164 19.0344 45.6091 19.2126L45.8509 19.3654C46.0673 19.4926 46.2836 19.6454 46.4873 19.7854L46.9582 20.1163L46.7164 20.409L46.5127 20.6635L45.4691 21.9363L44.9345 22.5981L45.5455 23.2217Z" fill="black"/>
</svg>
