<?xml version="1.0" encoding="UTF-8"?><svg id="icona" xmlns="http://www.w3.org/2000/svg" width="370" height="370" viewBox="0 0 370 370"><defs><style>.cls-1{fill:#323e48;}</style></defs><path class="cls-1" d="m108.6,162.5c.8.8,1.8,1.2,2.8,1.2s2-.4,2.8-1.2c14-14,14-36.9,0-50.9-6.8-6.8-15.8-10.5-25.5-10.5s-18.7,3.7-25.5,10.5c-14,14-14,36.9,0,50.9,1.6,1.6,4.1,1.6,5.7,0,1.6-1.6,1.6-4.1,0-5.7-10.9-10.9-10.9-28.7,0-39.6s12.3-8.2,19.8-8.2,14.5,2.9,19.8,8.2c10.9,10.9,10.9,28.7,0,39.6s-1.6,4.1,0,5.7Z"/><path class="cls-1" d="m175.9,246.6v-115.2c1.3-.7,2.2-2,2.2-3.6s-.9-2.9-2.2-3.6v-2.7c0-2.2-1.8-4-4-4s-4,1.8-4,4v123.2h-7.3c-2.2,0-4,1.8-4,4s1.8,4,4,4h9.2c3.4,0,6.1-2.7,6.1-6.1Z"/><path class="cls-1" d="m54.5,248.7c0-2.2-1.8-4-4-4H17.1V95.3h60.1c2.2,0,4-1.8,4-4s-1.8-4-4-4H15.2c-3.4,0-6.1,2.7-6.1,6.1v153.2c0,3.4,2.7,6.1,6.1,6.1h35.3c2.2,0,4-1.8,4-4Z"/><path class="cls-1" d="m165.1,112.7c1,0,2-.4,2.8-1.2,1.6-1.6,1.6-4.1,0-5.7l-15.6-15.6c-1.9-1.9-4.5-3-7.2-3h-45.9c-2.2,0-4,1.8-4,4s1.8,4,4,4h45.9c.6,0,1.1.2,1.6.6l15.6,15.6c.8.8,1.8,1.2,2.8,1.2Z"/><path class="cls-1" d="m194.1,187.8c0,2.2,1.8,4,4,4s4-1.8,4-4-1.8-4-4-4-4,1.8-4,4h0Z"/><path class="cls-1" d="m194.1,139.8c0,2.2,1.8,4,4,4s4-1.8,4-4-1.8-4-4-4-4,1.8-4,4h0Z"/><path class="cls-1" d="m194.1,151.8c0,2.2,1.8,4,4,4s4-1.8,4-4-1.8-4-4-4-4,1.8-4,4h0Z"/><path class="cls-1" d="m354.3,244.7c-2.2,0-4,1.8-4,4s1.8,4,4,4h0c2.2,0,4-1.8,4-4s-1.8-4-4-4Z"/><path class="cls-1" d="m194.1,175.8c0,2.2,1.8,4,4,4s4-1.8,4-4-1.8-4-4-4-4,1.8-4,4h0Z"/><path class="cls-1" d="m194.1,223.8c0,2.2,1.8,4,4,4s4-1.8,4-4-1.8-4-4-4-4,1.8-4,4h0Z"/><path class="cls-1" d="m194.1,199.8c0,2.2,1.8,4,4,4s4-1.8,4-4-1.8-4-4-4-4,1.8-4,4h0Z"/><path class="cls-1" d="m194.1,211.8c0,2.2,1.8,4,4,4s4-1.8,4-4-1.8-4-4-4-4,1.8-4,4h0Z"/><path class="cls-1" d="m194.1,103.7c0,2.2,1.8,4,4,4s4-1.8,4-4-1.8-4-4-4-4,1.8-4,4h0Z"/><path class="cls-1" d="m351.8,120.5c.7,1.4,2.1,2.2,3.6,2.2s1.3-.1,1.8-.5c2-1,2.7-3.4,1.7-5.4h0c-1-2-3.4-2.7-5.4-1.7-2,1-2.7,3.4-1.7,5.4Z"/><path class="cls-1" d="m194.1,235.8c0,2.2,1.8,4,4,4s4-1.8,4-4-1.8-4-4-4-4,1.8-4,4h0Z"/><path class="cls-1" d="m338.2,96.8c-1.5,1.6-1.5,4.1,0,5.7.8.8,1.8,1.1,2.8,1.1s2.1-.4,2.9-1.2c1.5-1.6,1.5-4.1,0-5.7h0c-1.6-1.6-4.1-1.5-5.7,0Z"/><path class="cls-1" d="m196.4,244.4c-1.9,1.1-2.5,3.6-1.3,5.5,0,0,.1.2.2.3.8,1.1,2,1.6,3.2,1.6s1.6-.2,2.3-.8c1.8-1.3,2.2-3.7,1-5.5-1.2-1.8-3.6-2.3-5.4-1.2Z"/><path class="cls-1" d="m194.1,127.8c0,2.2,1.8,4,4,4s0,0,0,0c0,0,0,0,0,0,2.2,0,4-1.8,4-4s-1.4-3.6-3.2-3.9c-.3,0-.5,0-.8,0-2.2,0-4,1.8-4,4h0Z"/><path class="cls-1" d="m198.7,95.9c1,0,2-.4,2.8-1.1,0,0,.2-.2.2-.2,1.5-1.6,1.3-4.2-.3-5.6-1.6-1.4-4-1.4-5.5.2-1.5,1.5-1.6,4,0,5.6.8.8,1.8,1.2,2.9,1.2Z"/><path class="cls-1" d="m194.1,115.7c0,2.2,1.8,4,4,4s4-1.8,4-4-1.8-4-4-4-4,1.8-4,4h0Z"/><path class="cls-1" d="m194.1,163.8c0,2.2,1.8,4,4,4s4-1.8,4-4-1.8-4-4-4-4,1.8-4,4h0Z"/><path class="cls-1" d="m326.3,248.7c0,2.2,1.8,4,4,4h0c2.2,0,4-1.8,4-4s-1.8-4-4-4-4,1.8-4,4Z"/><path class="cls-1" d="m356.9,150.3c-2.2,0-4,1.8-4,4s1.8,4,4,4,4-1.8,4-4h0c0-2.2-1.8-4-4-4Z"/><path class="cls-1" d="m332.2,95.6c1.6,0,3.1-.9,3.7-2.5.8-2-.1-4.4-2.2-5.2s-.2,0-.2,0c-2.1-.7-4.4.4-5.1,2.5-.7,2.1.4,4.3,2.4,5.1.5.2.9.3,1.4.3Z"/><path class="cls-1" d="m282.2,252.7h0c2.2,0,4-1.8,4-4s-1.8-4-4-4-4,1.8-4,4,1.8,4,4,4Z"/><path class="cls-1" d="m356.9,126.3c-2.2,0-4,1.8-4,4s1.8,4,4,4,4-1.8,4-4h0c0-2.2-1.8-4-4-4Z"/><path class="cls-1" d="m356.9,174.3c-2.2,0-4,1.8-4,4s1.8,4,4,4,4-1.8,4-4h0c0-2.2-1.8-4-4-4Z"/><path class="cls-1" d="m356.9,162.3c-2.2,0-4,1.8-4,4s1.8,4,4,4,4-1.8,4-4h0c0-2.2-1.8-4-4-4Z"/><path class="cls-1" d="m270.6,95.3c2.2,0,4-1.8,4-4s-1.8-4-4-4h0c-2.2,0-4,1.8-4,4s1.8,4,4,4Z"/><path class="cls-1" d="m356.9,198.3c-2.2,0-4,1.8-4,4s1.8,4,4,4,4-1.8,4-4h0c0-2.2-1.8-4-4-4Z"/><path class="cls-1" d="m314.3,248.7c0,2.2,1.8,4,4,4h0c2.2,0,4-1.8,4-4s-1.8-4-4-4-4,1.8-4,4Z"/><path class="cls-1" d="m302.3,248.7c0,2.2,1.8,4,4,4h0c2.2,0,4-1.8,4-4s-1.8-4-4-4-4,1.8-4,4Z"/><path class="cls-1" d="m282.6,95.3c.3,0,.5,0,.8,0,.3,0,.5,0,.8,0,2.2,0,4-1.8,4-4s-1.8-4-4-4h0c-.3,0-.5,0-.8,0-.3,0-.5,0-.8,0h0c-2.2,0-4,1.8-4,4s1.8,4,4,4Z"/><path class="cls-1" d="m312.2,91.3c0-2.2-1.8-4-4-4h0c-2.2,0-4,1.8-4,4s1.8,4,4,4,4-1.8,4-4Z"/><path class="cls-1" d="m324.3,91.3c0-2.2-1.8-4-4-4h0c-2.2,0-4,1.8-4,4s1.8,4,4,4,4-1.8,4-4Z"/><path class="cls-1" d="m356.9,210.3c-2.2,0-4,1.8-4,4s1.8,4,4,4,4-1.8,4-4h0c0-2.2-1.8-4-4-4Z"/><path class="cls-1" d="m356.9,222.3c-2.2,0-4,1.8-4,4s1.8,4,4,4,4-1.8,4-4h0c0-2.2-1.8-4-4-4Z"/><path class="cls-1" d="m290.2,248.7c0,2.2,1.8,4,4,4h0c2.2,0,4-1.8,4-4s-1.8-4-4-4-4,1.8-4,4Z"/><path class="cls-1" d="m356.9,138.3c-2.2,0-4,1.8-4,4s1.8,4,4,4,4-1.8,4-4h0c0-2.2-1.8-4-4-4Z"/><path class="cls-1" d="m210.6,87.3h0c-2.2,0-4,1.8-4,4s1.8,4,4,4,4-1.8,4-4-1.8-4-4-4Z"/><path class="cls-1" d="m246.2,252.7h0c2.2,0,4-1.8,4-4s-1.8-4-4-4-4,1.8-4,4,1.8,4,4,4Z"/><path class="cls-1" d="m258.2,252.7h0c2.2,0,4-1.8,4-4s-1.8-4-4-4-4,1.8-4,4,1.8,4,4,4Z"/><path class="cls-1" d="m246.6,95.3c2.2,0,4-1.8,4-4s-1.8-4-4-4h0c-2.2,0-4,1.8-4,4s1.8,4,4,4Z"/><path class="cls-1" d="m300.2,91.3c0-2.2-1.8-4-4-4h0c-2.2,0-4,1.8-4,4s1.8,4,4,4,4-1.8,4-4Z"/><path class="cls-1" d="m234.6,87.3h0c-2.2,0-4,1.8-4,4s1.8,4,4,4,4-1.8,4-4-1.8-4-4-4Z"/><path class="cls-1" d="m210.2,244.7c-2.2,0-4,1.8-4,4s1.8,4,4,4h0c2.2,0,4-1.8,4-4s-1.8-4-4-4Z"/><path class="cls-1" d="m234.2,244.7c-2.2,0-4,1.8-4,4s1.8,4,4,4h0c2.2,0,4-1.8,4-4s-1.8-4-4-4Z"/><path class="cls-1" d="m218.2,248.7c0,2.2,1.8,4,4,4h0c2.2,0,4-1.8,4-4s-1.8-4-4-4-4,1.8-4,4Z"/><path class="cls-1" d="m222.6,95.3c2.2,0,4-1.8,4-4s-1.8-4-4-4h0c-2.2,0-4,1.8-4,4s1.8,4,4,4Z"/><path class="cls-1" d="m352.4,105.3h0c-1.6-1.6-4.1-1.6-5.7,0-1.6,1.6-1.6,4.1,0,5.7.8.8,1.8,1.2,2.8,1.2s2-.4,2.8-1.2c1.6-1.6,1.6-4.1,0-5.7Z"/><path class="cls-1" d="m356.9,234.3c-2.2,0-4,1.8-4,4s1.8,4,4,4,4-1.8,4-4h0c0-2.2-1.8-4-4-4Z"/><path class="cls-1" d="m356.9,186.3c-2.2,0-4,1.8-4,4s1.8,4,4,4,4-1.8,4-4h0c0-2.2-1.8-4-4-4Z"/><path class="cls-1" d="m342.3,244.7c-2.2,0-4,1.8-4,4s1.8,4,4,4h0c2.2,0,4-1.8,4-4s-1.8-4-4-4Z"/><path class="cls-1" d="m258.6,95.3c2.2,0,4-1.8,4-4s-1.8-4-4-4h0c-2.2,0-4,1.8-4,4s1.8,4,4,4Z"/><path class="cls-1" d="m270.2,252.7h0c2.2,0,4-1.8,4-4s-1.8-4-4-4-4,1.8-4,4,1.8,4,4,4Z"/><path class="cls-1" d="m131.1,266.9c-2,1-2.8,3.4-1.8,5.4.7,1.4,2.1,2.2,3.6,2.2s1.2-.1,1.8-.4c10.3-5.1,14.4-15.8,14.6-16.2.2-.4.3-.9.3-1.4,0-7.3.3-43.1,0-47.8,0-2.5-1.2-7.2-5.9-10.1-3.1-1.9-6.4-1.7-9.2-.8-1.1-1.8-2.5-3.9-4.5-5.1-3.9-2.4-7.3-2.2-10.8-1-2.1-3.9-5-6.7-8.8-8.4-2.7-1.2-5.8-1-8.5-.4v-27.8c0-6.7-5.5-12.2-12.2-12.2s-12.2,5.5-12.2,12.2v55.9c0,1-.1,1.8-.3,2.2-1.5-1.8-3.9-5.8-5-7.7-.9-1.5-1.7-2.9-2.3-3.8-2.7-3.8-5.5-4.8-9-5.7-4.4-1.2-9.6,3.2-13.2,7.1-1,1-1.3,2.5-.9,3.9l9.1,30.7c.6,2.1,2.9,3.3,5,2.7,2.1-.6,3.3-2.9,2.7-5l-8.4-28.4c1.6-1.5,3.3-2.8,4.2-3.1,2.3.6,3,1,4,2.5.4.6,1.2,1.9,2,3.3,4.4,7.4,6.7,10.6,9.4,11.6,2.3.9,4.7.6,6.7-.8,1.8-1.3,4-3.9,4-9.5v-55.9c0-2.3,1.9-4.2,4.2-4.2s4.2,1.9,4.2,4.2v33.3c0,1.4.7,2.6,1.8,3.4s2.6.8,3.8.3c2.5-1.1,6.2-2,7.6-1.4,2.9,1.3,4.9,3.7,6.1,7.5.4,1.1,1.2,1.9,2.2,2.4s2.2.4,3.3,0c5.1-2.3,5.8-1.9,7.1-1.1,1,.6,2.4,3.1,3,5,.4,1.2,1.4,2.1,2.6,2.5,1.2.4,2.5.2,3.6-.6.6-.4,3.1-1.9,4.5-1,2,1.2,2.1,3.1,2.1,3.3,0,.2,0,.3,0,.5.2,2.3.1,29.4,0,46.5-.9,2-4.2,8.2-10.4,11.3Z"/><path class="cls-1" d="m120.8,266.4h-31c-.7,0-1.3-.2-1.8-.7l-21.1-20c-1.6-1.5-4.1-1.4-5.7.2-1.5,1.6-1.4,4.1.2,5.7l21.1,20c2,1.9,4.5,2.9,7.3,2.9h31c2.2,0,4-1.8,4-4s-1.8-4-4-4Z"/><path class="cls-1" d="m213.7,113.9c-1.6,1.6-1.6,4.1,0,5.7l8.2,8.2-8.2,8.2c-1.6,1.6-1.6,4.1,0,5.7s1.8,1.2,2.8,1.2,2-.4,2.8-1.2l11-11c1.6-1.6,1.6-4.1,0-5.7l-11.1-11.1c-1.6-1.6-4.1-1.6-5.7,0Z"/><path class="cls-1" d="m138.1,131.8c2.2,0,4-1.8,4-4s-1.8-4-4-4h0c-2.2,0-4,1.8-4,4s1.8,4,4,4Z"/><path class="cls-1" d="m154.1,127.8c0-2.2-1.8-4-4-4h0c-2.2,0-4,1.8-4,4s1.8,4,4,4,4-1.8,4-4Z"/><path class="cls-1" d="m162.1,123.8h0c-2.2,0-4,1.8-4,4s1.8,4,4,4,4-1.8,4-4-1.8-4-4-4Z"/><path class="cls-1" d="m210.2,131.8c2.2,0,4-1.8,4-4s-1.8-4-4-4h0c-2.2,0-4,1.8-4,4s1.8,4,4,4Z"/><path class="cls-1" d="m186.1,131.8c2.2,0,4-1.8,4-4s-1.8-4-4-4h0c-2.2,0-4,1.8-4,4s1.8,4,4,4Z"/></svg>