<?xml version="1.0" encoding="UTF-8"?><svg id="icona" xmlns="http://www.w3.org/2000/svg" width="370" height="370" viewBox="0 0 370 370"><defs><style>.cls-1{fill:#323e48;}</style></defs><path class="cls-1" d="m341.2,110.7c-2.2,0-4,1.8-4,4v194.9H32.7V79.6h123.8c2.2,0,4-1.8,4-4s-1.8-4-4-4H31.5c-3.7,0-6.7,3-6.7,6.7v232.5c0,3.7,3,6.7,6.7,6.7h307c3.7,0,6.7-3,6.7-6.7V114.7c0-2.2-1.8-4-4-4Z"/><path class="cls-1" d="m309.5,80.8l20.2,20.2c.8.8,1.8,1.2,2.8,1.2s2-.4,2.8-1.2c1.6-1.6,1.6-4.1,0-5.7l-20.2-20.2c-2.3-2.3-5.3-3.5-8.5-3.5h-121.7c-2.2,0-4,1.8-4,4s1.8,4,4,4h121.7c1.1,0,2.1.4,2.8,1.2Z"/><path class="cls-1" d="m87.8,148.8c-.4.5-.9.8-1.6.9-.7.2-1.6.3-2.7.3-.1,0-.3,0-.3.1,0,0-.1.2-.1.3v3.8c0,.1,0,.3,0,.3,0,0,.1.1.2.1h.3c2.4,0,4.2-.2,5.5-.7,1.3-.5,2.3-1.2,3-2.2.7-1,1.4-2.5,2.1-4.5l7.1-21.3c0-.2,0-.3,0-.4,0,0-.2-.1-.3-.1h-5c-.3,0-.5.1-.6.4l-3.4,13.3c0,0,0,.1-.1.1s0,0-.1-.1l-3.4-13.3c0-.3-.3-.4-.6-.4h-5.1c-.3,0-.5.1-.5.4s0,.2,0,.2l6.7,20.4c0,.1,0,.2,0,.2-.2.9-.5,1.6-.9,2Z"/><path class="cls-1" d="m241.7,265.4c.1-.2.1-.3,0-.4,0-.1-.2-.2-.4-.2h-5.5c-.2,0-.4.1-.6.3l-3.7,5.6c0,.2-.2.2-.3,0l-3.7-5.6c-.1-.2-.3-.3-.6-.3h-5.1c-.3,0-.4.1-.4.3s0,.2,0,.3l6.6,9.8c0,0,0,.2,0,.2l-6.6,9.8c-.1.2-.1.3,0,.4,0,.1.2.2.4.2h5.5c.2,0,.4-.1.6-.3l3.7-5.6c0-.2.2-.2.2,0l3.7,5.6c.1.2.3.3.6.3h5.2c.2,0,.4-.1.4-.3s0-.2,0-.3l-6.6-9.8c0,0,0-.2,0-.2l6.6-9.8Z"/><path class="cls-1" d="m160.5,205.7c-1.6-1.6-4.1-1.6-5.7,0l-59.3,59.3v-90.7l.9.9c.8.8,1.8,1.2,2.8,1.2s2-.4,2.8-1.2c1.6-1.6,1.6-4.1,0-5.7l-7.8-7.8s0,0,0,0c-.2-.2-.3-.3-.5-.4-.1,0-.2-.1-.3-.2-.1,0-.2-.1-.3-.2-.1,0-.3,0-.4-.1-.1,0-.2,0-.3,0-.3,0-.5,0-.8,0s0,0,0,0c0,0,0,0,0,0-.2,0-.5,0-.7,0-.1,0-.2,0-.4.1-.1,0-.3,0-.4.1-.1,0-.3.1-.4.2,0,0-.2,0-.3.1-.2.1-.4.3-.6.5l-7.8,7.8c-1.6,1.6-1.6,4.1,0,5.7.8.8,1.8,1.2,2.8,1.2s2-.4,2.8-1.2l.9-.9v99.3c-.4,1.4-.1,3,1,4,.8.8,1.8,1.2,2.8,1.2s1.2-.1,1.7-.4h109.6l-.9.9c-1.6,1.6-1.6,4.1,0,5.7.8.8,1.8,1.2,2.8,1.2s2-.4,2.8-1.2l7.8-7.8s0,0,0,0c.2-.2.3-.4.5-.6,0-.1.1-.2.2-.3,0-.1.1-.2.2-.4,0-.1,0-.3.1-.4,0-.1,0-.2,0-.3,0-.3,0-.5,0-.8h0c0-.3,0-.5,0-.8,0-.1,0-.2-.1-.4,0-.1,0-.3-.1-.4s-.1-.3-.2-.4c0,0,0-.2-.2-.3-.1-.2-.3-.4-.5-.6l-7.8-7.8c-1.6-1.6-4.1-1.6-5.7,0-1.6,1.6-1.6,4.1,0,5.7l.9.9h-101.3l59.1-59.1c1.6-1.6,1.6-4.1,0-5.7Z"/></svg>