<?xml version="1.0" encoding="UTF-8"?><svg id="icona" xmlns="http://www.w3.org/2000/svg" width="370" height="370" viewBox="0 0 370 370"><defs><style>.cls-1{fill:#323e48;}</style></defs><path class="cls-1" d="m31.5,317.6h307c3.7,0,6.7-3,6.7-6.7V114.7c0-2.2-1.8-4-4-4s-4,1.8-4,4v194.9H32.7V79.6h123.8c2.2,0,4-1.8,4-4s-1.8-4-4-4H31.5c-3.7,0-6.7,3-6.7,6.7v232.5c0,3.7,3,6.7,6.7,6.7Z"/><path class="cls-1" d="m309.5,80.8l20.2,20.2c.8.8,1.8,1.2,2.8,1.2s2-.4,2.8-1.2c1.6-1.6,1.6-4.1,0-5.7l-20.2-20.2c-2.3-2.3-5.3-3.5-8.5-3.5h-121.7c-2.2,0-4,1.8-4,4s1.8,4,4,4h121.7c1.1,0,2.1.4,2.8,1.2Z"/><path class="cls-1" d="m132.4,167.5c1.2-1.2,3.4-1.8,6.6-1.8h2.3c.6,0,1-.3,1-1v-6.2c0-.6-.3-1-1-1h-3.3c-4.3,0-7.7.5-10.1,1.5-2.4,1-4.1,2.7-5.1,5-1,2.3-1.5,5.6-1.5,9.9v1.7c0,.3-.1.4-.4.4h-6.5c-.6,0-1,.3-1,1v6.6c0,.6.3,1,1,1h6.5c.3,0,.4.1.4.4v39.5c0,.6.3,1,1,1h7.4c.6,0,1-.3,1-1v-39.5c0-.3.1-.4.4-.4h10.2c.6,0,1-.3,1-1v-6.6c0-.6-.3-1-1-1h-10.2c-.3,0-.4-.1-.4-.4v-1.2c0-3.4.6-5.8,1.7-7Z"/><path class="cls-1" d="m166,152.7c.2-.3.2-.6,0-.8-.1-.2-.4-.3-.8-.3h-7c-.5,0-.9.2-1.2.6-3.4,4.9-6.2,11-8.3,18.2-2.1,7.2-3.2,15-3.2,23.3s1,15.8,3.1,22.9c2.1,7.1,4.8,13.1,8.2,18.1.3.4.7.6,1.2.6h7.2c.6,0,.9-.2.9-.6s0-.3-.2-.6c-2.8-5-5.2-11.1-7-18.1-1.8-7-2.8-14.5-2.8-22.4s.9-15.5,2.8-22.6c1.8-7.1,4.2-13.2,7-18.3Z"/><path class="cls-1" d="m176.9,224.3c-.2.3-.2.6,0,.8.1.2.4.3.8.3h8.3c.5,0,.9-.2,1.2-.6l11.4-16.6c0-.1.2-.2.3-.2s.2,0,.3.2l11.3,16.6c.3.4.6.6,1.2.6h8c.6,0,.9-.2.9-.7l-.2-.5-16.1-23.2c0-.2,0-.4,0-.6l16.1-23.3c.2-.3.2-.6,0-.8-.1-.2-.4-.3-.8-.3h-8.4c-.5,0-.9.2-1.2.6l-11.3,16.6c0,0-.2,0-.3,0s-.2,0-.3,0l-11.4-16.6c-.3-.4-.6-.6-1.2-.6h-7.9c-.6,0-.9.2-.9.7l.2.5,16.1,23.3c.1.2.1.4,0,.6l-16.1,23.2Z"/><path class="cls-1" d="m231,234c-.2.3-.2.6,0,.8.1.2.4.3.8.3h7.1c.5,0,.9-.2,1.2-.6,3.4-5,6.2-11.1,8.3-18.3,2.1-7.2,3.2-15,3.2-23.3s-1-15.8-3.1-22.9c-2.1-7.1-4.8-13.1-8.3-18.1-.3-.4-.7-.6-1.2-.6h-7.2c-.6,0-.9.2-.9.6s0,.3.2.6c2.9,5,5.3,11.1,7.1,18.1,1.8,7,2.8,14.5,2.8,22.4s-.9,15.5-2.8,22.6c-1.8,7.1-4.2,13.2-7.1,18.3Z"/></svg>