<?xml version="1.0" encoding="UTF-8"?><svg id="icona" xmlns="http://www.w3.org/2000/svg" width="370" height="370" viewBox="0 0 370 370"><defs><style>.cls-1{fill:#323e48;}</style></defs><path class="cls-1" d="m73.6,109.5l10,8.7c1.7,1.5,4.2,1.3,5.6-.4,1.5-1.7,1.3-4.2-.4-5.6l-10-8.7c-1.1-.9-1.7-2.3-1.7-3.7v-55.9c4.3-1.8,15.4-5.7,32.4-5.7s30.1,4,35.1,5.8v55.7c0,1.5-.7,2.9-1.8,3.9l-29.2,23.8c-2.3,1.8-5.5,1.8-7.7-.1l-8.1-7.1c-1.7-1.5-4.2-1.3-5.6.4-1.5,1.7-1.3,4.2.4,5.6l8.1,7.1c2.6,2.3,5.9,3.5,9.2,3.5s6.2-1,8.8-3.1l29.2-23.8c3-2.5,4.8-6.1,4.8-10.1v-58.4c0-1.6-.9-3-2.3-3.6-.7-.3-16.4-7.5-40.8-7.5s-37.8,7.3-38.4,7.6c-1.3.7-2,2-2,3.5v58.4c0,3.7,1.6,7.3,4.4,9.8Z"/><path class="cls-1" d="m88.3,105.9c0,2.2,1.8,4,4,4h37.7c2.2,0,4-1.8,4-4v-37.7c0-.1,0-.3,0-.4,0-.5,0-.9,0-1.4,0-12.6-10.2-22.8-22.8-22.8s-22.8,10.2-22.8,22.8,0,.6.1.9c0,.3-.1.6-.1.9v37.7Zm37.7-4h-29.7v-29.7h29.7v29.7Zm-14.8-50.2c7.4,0,13.6,5.5,14.6,12.6h-29.3c1.1-7.1,7.2-12.6,14.6-12.6Z"/><path class="cls-1" d="m107.1,90.6v3.2c0,2.2,1.8,4,4,4s4-1.8,4-4v-3.2c2.1-1.3,3.4-3.6,3.4-6.2,0-4.1-3.3-7.4-7.4-7.4s-7.4,3.3-7.4,7.4,1.4,4.9,3.4,6.2Z"/><path class="cls-1" d="m255.3,247.8c-12.6,0-22.8,10.2-22.8,22.8s0,.6.1.9c0,.3-.1.6-.1.9v37.7c0,2.2,1.8,4,4,4h37.7c2.2,0,4-1.8,4-4v-37.7c0-.1,0-.3,0-.4,0-.5,0-.9,0-1.4,0-12.6-10.2-22.8-22.8-22.8Zm0,8c7.4,0,13.6,5.5,14.6,12.6h-29.3c1.1-7.1,7.2-12.6,14.6-12.6Zm14.8,50.2h-29.7v-29.7h29.7v29.7Z"/><path class="cls-1" d="m251.3,294.7v3.2c0,2.2,1.8,4,4,4s4-1.8,4-4v-3.2c2.1-1.3,3.4-3.6,3.4-6.2,0-4.1-3.3-7.4-7.4-7.4s-7.4,3.3-7.4,7.4,1.4,4.9,3.4,6.2Z"/><path class="cls-1" d="m96.9,176.6c-1.6,1.6-1.6,4.1,0,5.7l11,11c.2.2.4.4.6.5.7.4,1.4.7,2.2.7s2-.4,2.8-1.2l11.1-11.1c1.6-1.6,1.6-4.1,0-5.7-1.6-1.6-4.1-1.6-5.7,0l-8.2,8.2-8.2-8.2c-1.6-1.6-4.1-1.6-5.7,0Z"/><path class="cls-1" d="m110.8,173.8c2.2,0,4-1.8,4-4h0c0-2.2-1.8-4-4-4s-4,1.8-4,4,1.8,4,4,4Z"/><path class="cls-1" d="m110.8,161.7c2.2,0,4-1.8,4-4h0c0-2.2-1.8-4-4-4s-4,1.8-4,4,1.8,4,4,4Z"/><path class="cls-1" d="m110.8,149.7c2.2,0,4-1.8,4-4h0c0-2.2-1.8-4-4-4s-4,1.8-4,4,1.8,4,4,4Z"/><path class="cls-1" d="m172,230.8c.8.8,1.8,1.2,2.8,1.2s2-.4,2.8-1.2l11-11c1.6-1.6,1.6-4.1,0-5.7l-11.1-11.1c-1.6-1.6-4.1-1.6-5.7,0-1.6,1.6-1.6,4.1,0,5.7l8.2,8.2-8.2,8.2c-1.6,1.6-1.6,4.1,0,5.7Z"/><path class="cls-1" d="m141.1,213c-2.2,0-4,1.8-4,4s1.8,4,4,4,4-1.8,4-4-1.8-4-4-4h0Z"/><path class="cls-1" d="m153.1,213c-2.2,0-4,1.8-4,4s1.8,4,4,4,4-1.8,4-4-1.8-4-4-4h0Z"/><path class="cls-1" d="m165.1,213c-2.2,0-4,1.8-4,4s1.8,4,4,4,4-1.8,4-4-1.8-4-4-4h0Z"/><path class="cls-1" d="m88.8,217c0,12.1,9.9,22,22,22s22-9.9,22-22-9.9-22-22-22-22,9.9-22,22Zm22-14c7.7,0,14,6.3,14,14s-6.3,14-14,14-14-6.3-14-14,6.3-14,14-14Z"/><path class="cls-1" d="m198.5,280.5c-1.6,1.6-1.6,4.1,0,5.7l11,11c.8.8,1.8,1.2,2.8,1.2s2-.4,2.8-1.2l11.1-11.1c1.6-1.6,1.6-4.1,0-5.7-1.6-1.6-4.1-1.6-5.7,0l-8.2,8.2-8.2-8.2c-1.6-1.6-4.1-1.6-5.7,0Z"/><path class="cls-1" d="m212.3,277.7c2.2,0,4-1.8,4-4h0c0-2.2-1.8-4-4-4s-4,1.8-4,4,1.8,4,4,4Z"/><path class="cls-1" d="m212.3,265.6c2.2,0,4-1.8,4-4h0c0-2.2-1.8-4-4-4s-4,1.8-4,4,1.8,4,4,4Z"/><path class="cls-1" d="m212.3,253.6c2.2,0,4-1.8,4-4h0c0-2.2-1.8-4-4-4s-4,1.8-4,4,1.8,4,4,4Z"/><path class="cls-1" d="m234.3,219.3c0-12.1-9.9-22-22-22s-22,9.9-22,22,9.9,22,22,22,22-9.9,22-22Zm-22,14c-7.7,0-14-6.3-14-14s6.3-14,14-14,14,6.3,14,14-6.3,14-14,14Z"/></svg>