<?xml version="1.0" encoding="UTF-8"?><svg id="icona" xmlns="http://www.w3.org/2000/svg" width="370" height="370" viewBox="0 0 370 370"><defs><style>.cls-1{fill:#323e48;}</style></defs><path class="cls-1" d="m260.1,86.5c-.2,0-.3,0-.4.2-.1.1-.2.3-.2.4v24.6c0,.2,0,.3.2.4.1.1.3.2.4.2h5.9c.2,0,.3,0,.4-.2s.2-.3.2-.4v-24.6c0-.2,0-.3-.2-.4-.1-.1-.3-.2-.4-.2h-5.9Z"/><path class="cls-1" d="m265.9,76.9c-.7-.7-1.7-1.1-2.9-1.1s-2.1.4-2.9,1.1c-.7.7-1.1,1.7-1.1,2.9s.4,2.1,1.1,2.8,1.7,1.1,2.8,1.1,2.1-.4,2.8-1.1c.8-.8,1.1-1.7,1.1-2.8s-.4-2.1-1.1-2.9Z"/><path class="cls-1" d="m255.5,122.5c0,2.2,1.8,4,4,4h29.5c1.8,0,3.5-.7,4.8-2l5.1-5.1c1.6-1.6,1.6-4.1,0-5.7-1.6-1.6-4.1-1.6-5.7,0l-4.7,4.7h-29.1c-2.2,0-4,1.8-4,4Z"/><path class="cls-1" d="m162.3,95.4H62.2c-3.4,0-6.2,2.8-6.2,6.2v186c0,3.4,2.8,6.2,6.2,6.2h137.5c6.8,28.7,32.6,50.2,63.4,50.2s65.2-29.2,65.2-65.2-5.4-29.5-14.3-40.7v-107.4c0-2.2-1.8-4-4-4s-4,1.8-4,4v2.3H64v-29.6h98.3c2.2,0,4-1.8,4-4s-1.8-4-4-4Zm101.7,118.2v-22.7h42v38.8c-11.3-9.9-25.9-15.9-42-16.1Zm-8,.4c-15.2,1.7-28.9,8.6-39.2,19h-2.8v-42h42v23Zm-50,19h-42v-42h42v42Zm8-50v-41.9h42v41.9h-42Zm-8,0h-42v-41.9h42v41.9Zm-50,0h-42v-41.9h42v41.9Zm0,8v42h-42v-42h42Zm0,50v44.8h-42v-44.8h42Zm-50-8h-42v-42h42v42Zm-42,8h42v44.8h-42v-44.8Zm100,44.8v-44.8h42v6.5c-5.1,9.3-8.1,20-8.1,31.4s.1,4.7.4,7h-34.3Zm99.1,50.2c-31.5,0-57.2-25.7-57.2-57.2s2.6-19.3,7.1-27.5c.3-.4.6-.8.8-1.3,9.9-16.9,28.3-28.4,49.4-28.4,31.5,0,57.2,25.7,57.2,57.2s-25.7,57.2-57.2,57.2Zm42.9-153h-42v-41.9h42v41.9Zm-200-41.9v41.9h-42v-41.9h42Z"/><path class="cls-1" d="m223.7,113.4H72.5c-2.2,0-4,1.8-4,4s1.8,4,4,4h150.3c.1.3.2.5.4.8,1.2,2.1,3.5,3.4,5.9,3.4h17.6c2.2,0,4-1.8,4-4s-1.8-4-4-4h-15.6l31.4-53.9,24.4,42.6c1.1,1.9,3.5,2.6,5.5,1.5,1.9-1.1,2.6-3.5,1.5-5.5l-25.5-44.4c-1.2-2.1-3.4-3.4-5.9-3.4-2.5,0-4.7,1.3-5.9,3.4l-21.8,37.5c-.1,0-.2,0-.4,0h-49.5c-2.2,0-4,1.8-4,4s1.8,4,4,4h45.2l-5.9,10.1c-.2,0-.4,0-.6,0Z"/><path class="cls-1" d="m266.1,275.1v-33c0-2.2-1.8-4-4-4s-4,1.8-4,4v34.6c0,1.1.4,2.1,1.2,2.8l15.6,15.6c.8.8,1.8,1.2,2.8,1.2s2-.4,2.8-1.2c1.6-1.6,1.6-4.1,0-5.7l-14.5-14.5Z"/><path class="cls-1" d="m263.1,225.9c-29.1,0-52.8,23.7-52.8,52.8s23.7,52.8,52.8,52.8,52.8-23.7,52.8-52.8-23.7-52.8-52.8-52.8Zm0,97.7c-24.7,0-44.8-20.1-44.8-44.8s20.1-44.8,44.8-44.8,44.8,20.1,44.8,44.8-20.1,44.8-44.8,44.8Z"/></svg>