<?xml version="1.0" encoding="UTF-8"?><svg id="icona" xmlns="http://www.w3.org/2000/svg" width="370" height="370" viewBox="0 0 370 370"><defs><style>.cls-1{fill:#323e48;}</style></defs><path class="cls-1" d="m34.5,154.4c.8.8,1.8,1.2,2.8,1.2s2-.4,2.8-1.2c1.6-1.6,1.6-4.1,0-5.7l-7.8-7.8c-.1-.1-.3-.3-.5-.4,0,0,0,0-.1,0-.2-.1-.4-.2-.6-.3,0,0,0,0,0,0-.8-.3-1.6-.4-2.4-.2-.2,0-.5.1-.7.2,0,0,0,0,0,0-.4.2-.9.5-1.2.8l-7.8,7.8c-1.6,1.6-1.6,4.1,0,5.7.8.8,1.8,1.2,2.8,1.2s2-.4,2.8-1.2l4.9-4.9,4.9,4.9Z"/><path class="cls-1" d="m317.6,299.6c-1.6,1.6-1.6,4.1,0,5.7.8.8,1.8,1.2,2.8,1.2s2-.4,2.8-1.2l7.8-7.8s0,0,0,0c.2-.2.3-.3.4-.5,0-.1.1-.2.2-.3,0-.1.1-.2.2-.3,0-.1,0-.3.1-.4,0-.1,0-.2,0-.3,0-.3,0-.5,0-.8h0s0,0,0,0c0-.3,0-.5,0-.8,0-.1,0-.2-.1-.4,0-.1,0-.3-.1-.4,0-.1-.1-.3-.2-.4,0,0,0-.2-.1-.3-.1-.2-.3-.4-.5-.6l-7.8-7.8c-1.6-1.6-4.1-1.6-5.7,0-1.6,1.6-1.6,4.1,0,5.7l.9.9H32.5c.7-.7,1.1-1.7,1.1-2.7h0c0-2.2-1.8-4-4-4s-4,1.8-4,4,.7,2.6,1.8,3.3c-1.1.7-1.8,1.9-1.8,3.3,0,2.2,1.8,4,4,4h289l-.9.9Z"/><path class="cls-1" d="m29.6,272c-2.2,0-4,1.8-4,4s1.8,4,4,4,4-1.8,4-4h0c0-2.2-1.8-4-4-4Z"/><path class="cls-1" d="m33.6,191.9c0-2.2-1.8-4-4-4s-4,1.8-4,4,1.8,4,4,4,4-1.8,4-4h0Z"/><path class="cls-1" d="m33.6,239.9c0-2.2-1.8-4-4-4s-4,1.8-4,4,1.8,4,4,4,4-1.8,4-4h0Z"/><path class="cls-1" d="m33.6,251.9c0-2.2-1.8-4-4-4s-4,1.8-4,4,1.8,4,4,4,4-1.8,4-4h0Z"/><path class="cls-1" d="m33.6,179.9c0-2.2-1.8-4-4-4s-4,1.8-4,4,1.8,4,4,4,4-1.8,4-4h0Z"/><path class="cls-1" d="m33.6,215.9c0-2.2-1.8-4-4-4s-4,1.8-4,4,1.8,4,4,4,4-1.8,4-4h0Z"/><path class="cls-1" d="m33.6,227.9c0-2.2-1.8-4-4-4s-4,1.8-4,4,1.8,4,4,4,4-1.8,4-4h0Z"/><path class="cls-1" d="m33.6,203.9c0-2.2-1.8-4-4-4s-4,1.8-4,4,1.8,4,4,4,4-1.8,4-4h0Z"/><path class="cls-1" d="m33.6,167.9c0-2.2-1.8-4-4-4s-4,1.8-4,4,1.8,4,4,4,4-1.8,4-4h0Z"/><path class="cls-1" d="m33.6,263.9c0-2.2-1.8-4-4-4s-4,1.8-4,4,1.8,4,4,4,4-1.8,4-4h0Z"/><path class="cls-1" d="m33.6,155.8c0-2.2-1.8-4-4-4s-4,1.8-4,4,1.8,4,4,4,4-1.8,4-4h0Z"/><path class="cls-1" d="m59.9,167.2c-2.2,0-4,1.8-4,4v109.4c0,2.2,1.8,4,4,4h31.2c2.2,0,4-1.8,4-4v-109.4c0-2.2-1.8-4-4-4h-31.2Zm27.2,109.4h-23.2v-101.4h23.2v101.4Z"/><path class="cls-1" d="m106.8,135.9c-2.2,0-4,1.8-4,4v140.6c0,2.2,1.8,4,4,4h31.2c2.2,0,4-1.8,4-4v-140.6c0-2.2-1.8-4-4-4h-31.2Zm27.2,140.6h-23.2v-132.6h23.2v132.6Z"/><path class="cls-1" d="m154.1,151.7c-2.2,0-4,1.8-4,4v124.9c0,2.2,1.8,4,4,4h31.2c2.2,0,4-1.8,4-4v-124.9c0-2.2-1.8-4-4-4h-31.2Zm27.2,124.9h-23.2v-116.9h23.2v116.9Z"/><path class="cls-1" d="m200.5,284.6h31.2c2.2,0,4-1.8,4-4v-124.9c0-2.2-1.8-4-4-4h-31.2c-2.2,0-4,1.8-4,4v124.9c0,2.2,1.8,4,4,4Zm4-124.9h23.2v116.9h-23.2v-116.9Z"/><path class="cls-1" d="m273.9,117.1v163.4c0,2.2,1.8,4,4,4s4-1.8,4-4V120h19.7c2.1,0,4-1.3,4.8-3.2s.4-4.1-1.1-5.6l-37.2-37.2c-2.5-2.5-6.5-2.5-8.9,0l-38.1,37.1c-1.5,1.5-1.9,3.7-1.1,5.6s2.7,3.2,4.8,3.2h19.1v47.5c0,2.2,1.8,4,4,4s4-1.8,4-4v-50.3c0-2.8-2.3-5.2-5.2-5.2h-15l31.9-31,31.2,31.2h-15.7c-2.9,0-5.2,2.3-5.2,5.2Z"/><path class="cls-1" d="m247.9,178.6c-2.2,0-4,1.8-4,4v69.1c0,3.6,1.4,6.9,3.9,9.4.2.2.3.3.5.5l14.5,10.1c.7.5,1.5.7,2.3.7,1.3,0,2.5-.6,3.3-1.7,1.3-1.8.8-4.3-1-5.6l-14.2-9.9c-.9-1-1.4-2.2-1.4-3.6v-69.1c0-2.2-1.8-4-4-4Z"/></svg>