<?xml version="1.0" encoding="UTF-8"?><svg id="icona" xmlns="http://www.w3.org/2000/svg" width="370" height="370" viewBox="0 0 370 370"><defs><style>.cls-1{fill:#323e48;}</style></defs><path class="cls-1" d="m341.2,110.7c-2.2,0-4,1.8-4,4v194.9H32.7V79.6h123.8c2.2,0,4-1.8,4-4s-1.8-4-4-4H31.5c-3.7,0-6.7,3-6.7,6.7v232.5c0,3.7,3,6.7,6.7,6.7h307c3.7,0,6.7-3,6.7-6.7V114.7c0-2.2-1.8-4-4-4Z"/><path class="cls-1" d="m306.7,79.6c1.1,0,2.1.4,2.8,1.2l20.2,20.2c.8.8,1.8,1.2,2.8,1.2s2-.4,2.8-1.2c1.6-1.6,1.6-4.1,0-5.7l-20.2-20.2c-2.3-2.3-5.3-3.5-8.5-3.5h-121.7c-2.2,0-4,1.8-4,4s1.8,4,4,4h121.7Z"/><path class="cls-1" d="m169.4,118.5H60c-2.2,0-4,1.8-4,4v156.2c0,2.2,1.8,4,4,4h109.4c2.2,0,4-1.8,4-4v-58.3h7.6v56.9c0,3,2.4,5.4,5.3,5.4h90.2c2.2,0,4-1.8,4-4s-1.8-4-4-4h-87.4v-54.3h7.8v11.6c0,1.6,1,3.1,2.5,3.7,1.5.6,3.2.3,4.4-.9l31.2-31.2c1.6-1.6,1.6-4.1,0-5.7l-31.5-31.5c-1.1-1.1-2.9-1.5-4.4-.9-1.5.6-2.5,2.1-2.5,3.7v11.6h-7.6v-54.5h101.4v59.9c0,2.2,1.8,4,4,4s4-1.8,4-4v-62.6c0-3-2.4-5.4-5.3-5.4h-106.9c-2.9,0-5.3,2.4-5.3,5.4v57.1h-7.6v-58.5c0-2.2-1.8-4-4-4Zm31.2,70.5c2.2,0,4-1.8,4-4v-6l21.8,21.8-21.6,21.6v-6c0-2.2-1.8-4-4-4h-31.5c-2.2,0-4,1.8-4,4v58.3H64V126.5h101.4v58.5c0,2.2,1.8,4,4,4h31.2Z"/><path class="cls-1" d="m294.4,196.6c-2.2,0-4,1.8-4,4v60.8c0,0,0,.1,0,.1l-9.3,10.1c-1.5,1.6-1.4,4.2.2,5.7.8.7,1.7,1.1,2.7,1.1s2.2-.4,2.9-1.3l9.3-10.1c1.4-1.5,2.1-3.5,2.1-5.5v-60.8c0-2.2-1.8-4-4-4Z"/><path class="cls-1" d="m153.7,149.7h-78.1c-2.2,0-4,1.8-4,4s1.8,4,4,4h78.1c2.2,0,4-1.8,4-4s-1.8-4-4-4Z"/><path class="cls-1" d="m153.7,180h-78.1c-2.2,0-4,1.8-4,4s1.8,4,4,4h78.1c2.2,0,4-1.8,4-4s-1.8-4-4-4Z"/><path class="cls-1" d="m153.7,210.2h-78.1c-2.2,0-4,1.8-4,4s1.8,4,4,4h78.1c2.2,0,4-1.8,4-4s-1.8-4-4-4Z"/><path class="cls-1" d="m153.7,240.5h-78.1c-2.2,0-4,1.8-4,4s1.8,4,4,4h78.1c2.2,0,4-1.8,4-4s-1.8-4-4-4Z"/><path class="cls-1" d="m212.6,149.7c-2.2,0-4,1.8-4,4s1.8,4,4,4,4-1.8,4-4-1.8-4-4-4h0Z"/><path class="cls-1" d="m224.6,149.7c-2.2,0-4,1.8-4,4s1.8,4,4,4,4-1.8,4-4-1.8-4-4-4h0Z"/><path class="cls-1" d="m248.7,149.7h0c-2.2,0-4,1.8-4,4s1.8,4,4,4,4-1.8,4-4-1.8-4-4-4Z"/><path class="cls-1" d="m200.6,149.7c-2.2,0-4,1.8-4,4s1.8,4,4,4,4-1.8,4-4-1.8-4-4-4h0Z"/><path class="cls-1" d="m260.7,149.7h0c-2.2,0-4,1.8-4,4s1.8,4,4,4,4-1.8,4-4-1.8-4-4-4Z"/><path class="cls-1" d="m272.7,149.7h0c-2.2,0-4,1.8-4,4s1.8,4,4,4,4-1.8,4-4-1.8-4-4-4Z"/><path class="cls-1" d="m236.7,149.7h0c-2.2,0-4,1.8-4,4s1.8,4,4,4,4-1.8,4-4-1.8-4-4-4Z"/><path class="cls-1" d="m240.3,184c0-2.2-1.8-4-4-4h0c-2.2,0-4,1.8-4,4s1.8,4,4,4,4-1.8,4-4Z"/><path class="cls-1" d="m260.3,188c2.2,0,4-1.8,4-4s-1.8-4-4-4h0c-2.2,0-4,1.8-4,4s1.8,4,4,4Z"/><path class="cls-1" d="m272.3,188c2.2,0,4-1.8,4-4s-1.8-4-4-4h0c-2.2,0-4,1.8-4,4s1.8,4,4,4Z"/><path class="cls-1" d="m248.3,188c2.2,0,4-1.8,4-4s-1.8-4-4-4h0c-2.2,0-4,1.8-4,4s1.8,4,4,4Z"/><path class="cls-1" d="m260.3,218.2c2.2,0,4-1.8,4-4s-1.8-4-4-4h0c-2.2,0-4,1.8-4,4s1.8,4,4,4Z"/><path class="cls-1" d="m248.3,218.2c2.2,0,4-1.8,4-4s-1.8-4-4-4h0c-2.2,0-4,1.8-4,4s1.8,4,4,4Z"/><path class="cls-1" d="m272.3,218.2c2.2,0,4-1.8,4-4s-1.8-4-4-4h0c-2.2,0-4,1.8-4,4s1.8,4,4,4Z"/><path class="cls-1" d="m232.3,214.2c0,2.2,1.8,4,4,4s4-1.8,4-4-1.8-4-4-4h0c-2.2,0-4,1.8-4,4Z"/><path class="cls-1" d="m260.7,248.5c2.2,0,4-1.8,4-4s-1.8-4-4-4h0c-2.2,0-4,1.8-4,4s1.8,4,4,4Z"/><path class="cls-1" d="m224.6,240.5c-2.2,0-4,1.8-4,4s1.8,4,4,4,4-1.8,4-4-1.8-4-4-4h0Z"/><path class="cls-1" d="m272.7,248.5c2.2,0,4-1.8,4-4s-1.8-4-4-4h0c-2.2,0-4,1.8-4,4s1.8,4,4,4Z"/><path class="cls-1" d="m200.6,240.5h0c-2.2,0-4,1.8-4,4s1.8,4,4,4,4-1.8,4-4-1.8-4-4-4Z"/><path class="cls-1" d="m236.7,248.5c2.2,0,4-1.8,4-4s-1.8-4-4-4h0c-2.2,0-4,1.8-4,4s1.8,4,4,4Z"/><path class="cls-1" d="m212.6,240.5c-2.2,0-4,1.8-4,4s1.8,4,4,4,4-1.8,4-4-1.8-4-4-4h0Z"/><path class="cls-1" d="m248.7,248.5c2.2,0,4-1.8,4-4s-1.8-4-4-4h0c-2.2,0-4,1.8-4,4s1.8,4,4,4Z"/></svg>