<?xml version="1.0" encoding="UTF-8"?><svg id="icona" xmlns="http://www.w3.org/2000/svg" width="370" height="370" viewBox="0 0 370 370"><defs><style>.cls-1{fill:#323e48;}</style></defs><path class="cls-1" d="m204.3,126h5.2c.3,0,.5-.1.5-.4l1.2-4c0-.1.1-.2.2-.2h10.1c0,0,.1,0,.2.2l1.2,4c0,.3.3.4.5.4h5.2c.3,0,.5-.1.5-.4s0-.1,0-.2l-8.9-27.7c0-.3-.3-.4-.5-.4h-6.4c-.3,0-.5.1-.5.4l-8.9,27.7c0,.2,0,.3,0,.4,0,0,.2.1.4.1Zm12-21.5c0,0,0-.1.1-.1,0,0,0,0,.1.1l3.7,12.2c0,.2,0,.2-.2.2h-7.2c-.1,0-.2,0-.2-.2l3.6-12.2Z"/><path class="cls-1" d="m138.3,193.7c18.5,0,33.5-19.8,33.5-44.1s0-.2,0-.4c0-.3,0-.7,0-1,0-17.7-15-32.1-33.5-32.1s-33.5,14.4-33.5,32.1,0,.7,0,1c0,.1,0,.2,0,.4,0,24.3,15,44.1,33.5,44.1Zm0-69.6c14.1,0,25.5,10.8,25.5,24.1s0,.8,0,1.2c0,.2,0,.5,0,.7-.2,19.7-11.6,35.6-25.5,35.6s-25.3-15.9-25.5-35.6c0-.2,0-.5,0-.7,0-.4,0-.8,0-1.2,0-13.3,11.5-24.1,25.5-24.1Z"/><path class="cls-1" d="m75.2,217.1c-.2.4-.3.9-.3,1.4l-1.3,28.8c0,2.2,1.6,4.1,3.8,4.2,2.2.1,4.1-1.6,4.2-3.8l1.2-27.9c1.8-2.8,13-16.5,55.7-16.5s51.8,11.8,53.1,14l3,50.7c.1,2.1,1.9,3.8,4,3.8s.2,0,.2,0c2.2-.1,3.9-2,3.8-4.2l-3.1-51.5c0-.3,0-.7-.2-1-.7-2-8-19.7-60.9-19.7s-63,21-63.4,21.9Z"/><path class="cls-1" d="m96.8,231.9v31.2c0,2.2,1.8,4,4,4s4-1.8,4-4v-31.2c0-2.2-1.8-4-4-4s-4,1.8-4,4Z"/><path class="cls-1" d="m169.1,231.9v35.3c0,2.2,1.8,4,4,4s4-1.8,4-4v-35.3c0-2.2-1.8-4-4-4s-4,1.8-4,4Z"/><path class="cls-1" d="m74.8,261.9l18.8,18.1c1.9,1.8,4.3,2.8,6.9,2.8h98.2c2.2,0,4-1.8,4-4s-1.8-4-4-4h-98.2c-.5,0-1-.2-1.4-.6l-18.8-18.1c-1.6-1.5-4.1-1.5-5.7.1-1.5,1.6-1.5,4.1.1,5.7Z"/><path class="cls-1" d="m237.7,105.9c0,1.5-.5,2.7-1.4,3.6l1.9,2.7c2.7-2.2,5.4-4.1,8-5.8-.1-.9-.2-2.1-.3-3.4-1.6,1.2-3.3,2.4-5.2,3.6v-19.3h-7.6v2.9h4.5v15.7Z"/><path class="cls-1" d="m247.8,112.9h3v-2.4h15.4v2.4h3v-14.7h-21.4v14.7Zm3-11.9h15.4v6.6h-15.4v-6.6Z"/><path class="cls-1" d="m243.6,80.8c-1.3-1.4-3.4-3.7-6.3-6.6l-2.4,2.1c2.3,2.4,4.3,4.7,6,6.9l2.8-2.4Z"/><path class="cls-1" d="m272.8,91.3h-5v-8.4h-12.6l.6-4.6h15.3v-2.8h-25.9v2.8h7.6l-.7,4.6h-6.1v2.8h5.7l-.8,5.6h-6.8v2.8h28.6v-2.8Zm-8,0h-10.7l.8-5.6h10v5.6Z"/><path class="cls-1" d="m313.6,79.1h-18.6l1.8-.9c-.8-1.5-1.8-3.1-2.9-4.9l-3,1.4c1,1.5,1.8,3,2.5,4.4h-18.7v3h39v-3Z"/><rect class="cls-1" x="278.6" y="85.5" width="31.2" height="2.8"/><path class="cls-1" d="m279.3,113h3.2v-2.4h22.9v2.3h3.2v-14.9h-29.3v15Zm3.2-12.1h22.9v6.9h-22.9v-6.9Z"/><rect class="cls-1" x="278.6" y="91.8" width="31.2" height="2.8"/><path class="cls-1" d="m325.6,55.5h-140.6c-2.2,0-4,1.8-4,4v78.1c0,2.2,1.8,4,4,4h11.6v12.1c0,1.6,1,3.1,2.5,3.7.5.2,1,.3,1.5.3,1.1,0,2.1-.4,2.9-1.2l14.4-14.9h107.7c2.2,0,4-1.8,4-4V59.5c0-2.2-1.8-4-4-4Zm-4,78.1h-105.4c-1.1,0-2.1.4-2.9,1.2l-8.8,9v-6.2c0-2.2-1.8-4-4-4h-11.6V63.5h132.6v70.1Z"/></svg>