<?xml version="1.0" encoding="UTF-8"?><svg id="icona" xmlns="http://www.w3.org/2000/svg" width="370" height="370" viewBox="0 0 370 370"><defs><style>.cls-1{fill:#323e48;}</style></defs><path class="cls-1" d="m217.7,189.2c-1.3-1-4.9-4-16.9-4-4.2-4-9-9.6-13.8-16.9,2.7-10.5,2.4-16.8-1-19.9-2.4-2.2-5.6-2.1-7.8-1.1-.1,0-.3.1-.4.2-.5.3-3.2,2.1-4.2,6-1,3.7,0,8,2.8,12.7.7,1.2,1.3,2.3,2,3.4-.6,2.1-1.4,4.4-2.3,7.1-2.1,6.1-4.2,10.9-6.2,14.7-.5.2-1.1.4-1.6.6-11.2,4.3-17.3,8.5-18.1,12.4-.7,3.2.4,5.3,1.4,6.5,2,2.4,4.9,2.6,5.8,2.7,0,0,.1,0,.2,0,2.2,0,9.6-1.2,18-15.7,7.1-2.4,15.3-4.4,22.4-4.7,5.1,4.6,9.3,7.2,11.6,8,4.7,1.7,8.6-.5,10.1-3.3,1.7-3,1-6.6-1.7-8.8Zm-37.6-1.1c1.1-2.6,2.3-5.6,3.4-8.8.2-.4.3-.9.5-1.3,2.2,2.9,4.3,5.6,6.4,7.9-3.3.5-6.7,1.2-10.3,2.1Z"/><path class="cls-1" d="m31.5,317.6h307c3.7,0,6.7-3,6.7-6.7V114.7c0-2.2-1.8-4-4-4s-4,1.8-4,4v194.9H32.8V79.6h123.8c2.2,0,4-1.8,4-4s-1.8-4-4-4H31.5c-3.7,0-6.7,3-6.7,6.7v232.5c0,3.7,3,6.7,6.7,6.7Z"/><path class="cls-1" d="m309.5,80.8l20.2,20.2c.8.8,1.8,1.2,2.8,1.2s2-.4,2.8-1.2c1.6-1.6,1.6-4.1,0-5.7l-20.2-20.2c-2.3-2.3-5.3-3.5-8.5-3.5h-121.7c-2.2,0-4,1.8-4,4s1.8,4,4,4h121.7c1.1,0,2.1.4,2.8,1.2Z"/><path class="cls-1" d="m200.6,136.2h-61.4c-2.8,0-5.1,2.3-5.1,5.1v121c0,2.8,2.3,5.1,5.1,5.1h91.6c2.8,0,5.1-2.3,5.1-5.1v-49.3c0-2.2-1.8-4-4-4s-4,1.8-4,4v46.4h-85.8v-115.1h58.5c2.2,0,4-1.8,4-4s-1.8-4-4-4Z"/><path class="cls-1" d="m235.9,171.3c0-1.9-.7-3.7-2.1-5.1l-22.2-22.2c-1.1-1.1-2.9-1.5-4.4-.9-1.5.6-2.5,2.1-2.5,3.7v23.7c0,2.2,1.8,4,4,4h19.1v27.2c0,2.2,1.8,4,4,4s4-1.8,4-4v-30.5Zm-23.1-4.7v-10.1l10.1,10.1h-10.1Z"/><path class="cls-1" d="m167.7,221.1c-1.4-.7-3-1.1-4.8-1.1h-11.6c-.1,0-.3,0-.3.1,0,0-.1.2-.1.3v27.8c0,.1,0,.3.1.3,0,0,.2.1.3.1h4.8c.1,0,.3,0,.3-.1,0,0,.1-.2.1-.3v-10.5c0-.1,0-.2.2-.2h5.8c1.8,0,3.5-.4,4.9-1.1,1.4-.7,2.5-1.7,3.3-3.1.8-1.3,1.2-2.8,1.2-4.6s-.4-3.3-1.1-4.7c-.8-1.4-1.8-2.4-3.2-3.1Zm-2.6,10.8c-.8.7-1.8,1.1-3,1.1h-5.2c-.1,0-.2,0-.2-.2v-7.5c0-.1,0-.2.2-.2h5.2c1.3,0,2.3.4,3,1.1.8.7,1.1,1.7,1.1,2.9s-.4,2.1-1.1,2.8Z"/><path class="cls-1" d="m191.7,221.1c-1.5-.7-3.3-1.1-5.4-1.1h-10.2c-.1,0-.3,0-.3.1s-.1.2-.1.3v27.7c0,.1,0,.3.1.3,0,0,.2.1.3.1h10.2c2,0,3.8-.4,5.4-1.1,1.5-.7,2.7-1.7,3.6-3.1.8-1.3,1.3-2.8,1.3-4.6v-11.3c0-1.7-.4-3.2-1.3-4.6-.8-1.3-2-2.3-3.6-3.1Zm-.9,18c0,1.4-.4,2.6-1.2,3.4-.8.8-1.8,1.3-3.1,1.3h-5c-.1,0-.2,0-.2-.2v-18.4c0-.1,0-.2.2-.2h4.9c1.3,0,2.4.4,3.1,1.3s1.2,2,1.2,3.4v9.4Z"/><path class="cls-1" d="m206.9,224.9h13.4c.1,0,.3,0,.3-.1,0,0,.1-.2.1-.3v-4c0-.1,0-.3-.1-.3,0,0-.2-.1-.3-.1h-18.9c-.1,0-.3,0-.3.1s-.1.2-.1.3v27.7c0,.1,0,.3.1.3,0,0,.2.1.3.1h4.8c.1,0,.3,0,.3-.1,0,0,.1-.2.1-.3v-11.3c0-.1,0-.2.2-.2h8.8c.1,0,.3,0,.3-.1,0,0,.1-.2.1-.3v-4c0-.1,0-.3-.1-.3,0,0-.2-.1-.3-.1h-8.8c-.1,0-.2,0-.2-.2v-6.4c0-.1,0-.2.2-.2Z"/></svg>