<?xml version="1.0" encoding="UTF-8"?><svg id="icona" xmlns="http://www.w3.org/2000/svg" width="370" height="370" viewBox="0 0 370 370"><defs><style>.cls-1{fill:#323e48;}</style></defs><path class="cls-1" d="m223.6,236.6c1.4-.8,2.5-1.9,3.4-3.4.8-1.4,1.2-3,1.2-4.6s-.4-3.2-1.3-4.6c-.8-1.4-2-2.5-3.4-3.4-1.4-.8-2.9-1.3-4.6-1.3s-3.3.4-4.7,1.3c-1.4.8-2.6,2-3.4,3.4-.8,1.4-1.3,2.9-1.3,4.6s.4,3.2,1.3,4.6c.8,1.4,2,2.5,3.4,3.4,1.4.8,3,1.2,4.7,1.2s3.2-.4,4.6-1.2Zm-9.1-8c0-1.2.4-2.2,1.3-3.1.9-.9,1.9-1.3,3.2-1.3s2.2.4,3.1,1.3c.8.9,1.3,1.9,1.3,3.1s-.4,2.3-1.3,3.2c-.8.9-1.9,1.3-3.1,1.3s-2.3-.4-3.2-1.3c-.9-.9-1.3-1.9-1.3-3.2Z"/><path class="cls-1" d="m244,220.1c0-.2-.3-.2-.5-.2h-4.3c-.4,0-.7.2-.9.5l-22,39.6c-.1.2-.1.4,0,.6,0,.2.3.2.5.2h4.4c.4,0,.7-.2.9-.5l22-39.6c.1-.2.1-.4,0-.6Z"/><path class="cls-1" d="m246.4,244.1c-1.4-.8-3-1.2-4.6-1.2s-3.2.4-4.6,1.2c-1.4.8-2.6,1.9-3.4,3.3-.8,1.4-1.3,2.9-1.3,4.6s.4,3.2,1.3,4.6c.8,1.4,2,2.6,3.4,3.4,1.4.8,3,1.3,4.6,1.3s3.2-.4,4.6-1.3c1.4-.8,2.6-2,3.4-3.4.8-1.4,1.3-3,1.3-4.6s-.4-3.2-1.3-4.6c-.8-1.4-2-2.5-3.4-3.3Zm-1.5,11.1c-.9.9-1.9,1.3-3.1,1.3s-2.3-.4-3.1-1.3c-.8-.9-1.3-1.9-1.3-3.2s.4-2.3,1.3-3.1c.9-.8,1.9-1.3,3.1-1.3s2.2.4,3.1,1.3c.9.9,1.3,1.9,1.3,3.1s-.4,2.3-1.3,3.2Z"/><path class="cls-1" d="m148,307.3c.2,0,.4,0,.6,0,.8,0,1.7-.3,2.4-.8.9-.6,1.4-1.6,1.6-2.6l17.4-109.6c0-.1,0-.3,0-.4,0,0,0-.1,0-.2v-111c0-2.2-1.8-4-4-4-26.2,0-50.8,8.3-71,24.1-20.2,15.8-34.2,37.6-40.6,63,0,0,0,0,0,0-.8,3.2-1.5,6.6-2,9.8-9.9,62.6,33,121.6,95.6,131.6Zm14-220.5v101.8l-83.7-20.9-15.1-3.8c12.9-45.1,51.9-75.5,98.8-77.2Zm-101.7,90.2c.3-1.7.6-3.5,1-5.2l57.4,14.3,42.8,10.7-16.2,102c-56.1-11-94-64.8-85-121.7Z"/><path class="cls-1" d="m285.8,152.5c-.5-.9-1.3-1.7-2.3-2-1-.3-2.1-.2-3.1.2l-98.9,50.4c-1.1.6-1.9,1.7-2.1,2.9l-17.4,109.6c-.2,1,0,2.1.7,3,.6.9,1.6,1.4,2.6,1.6,6.6,1,13,1.6,19.3,1.6,17.6,0,34.1-4.2,50.9-12.7,56.5-28.8,79-98.2,50.3-154.7Zm-53.9,147.5c-19.9,10.2-39.5,13.7-61.4,10.9l16.4-103.6,93.4-47.6c24.1,51.9,2.9,114.1-48.5,140.3Z"/><path class="cls-1" d="m247.4,78c-17.6-10.8-38.5-16.5-60.3-16.5s-4,1.8-4,4v111c0,1.4.7,2.7,1.9,3.4.6.4,1.4.6,2.1.6s1.2-.1,1.8-.4l98.9-50.4c2-1,2.8-3.4,1.7-5.4-9.9-19.4-24.5-35.4-42.1-46.3Zm-56.3,91.9v-100.4c38.6,1.3,70.8,21,89.5,54.8l-89.5,45.6Z"/></svg>