<?xml version="1.0" encoding="UTF-8"?><svg id="icona" xmlns="http://www.w3.org/2000/svg" width="370" height="370" viewBox="0 0 370 370"><defs><style>.cls-1{fill:#323e48;}</style></defs><path class="cls-1" d="m167.2,172.2c-1.1,0-2.1.4-2.8,1.1-.7.7-1.1,1.6-1.1,2.7s.4,2,1.1,2.7c.7.7,1.6,1.1,2.7,1.1s2-.4,2.7-1.1c.7-.7,1.1-1.6,1.1-2.7s-.3-2-1-2.7c-.7-.7-1.6-1-2.7-1Z"/><path class="cls-1" d="m174.3,146.4c-1.7-.8-3.6-1.2-5.8-1.2s-4.3.4-6,1.2c-1.7.8-3.1,2-4.1,3.5-1,1.5-1.5,3.2-1.5,5.2v.5c0,.2,0,.3.2.4.1.1.3.2.4.2l5.7.2c.4,0,.6-.2.6-.5v-.8c0-1.1.4-1.9,1.2-2.6s1.9-1,3.3-1,2.3.3,3.1.9c.8.6,1.2,1.5,1.2,2.5s-.3,1.8-.9,2.5c-.6.7-1.6,1.5-2.8,2.3-1.6,1.1-2.7,2.1-3.6,3.1-.8,1-1.2,2.3-1.2,3.9v1.6c0,.2,0,.3.2.4.1.1.3.2.4.2h5.6c.2,0,.3,0,.4-.2.1-.1.2-.3.2-.4v-1.1c0-.8.3-1.6.8-2.1.6-.6,1.4-1.3,2.6-2.1,1.1-.8,2-1.5,2.7-2.1.7-.6,1.3-1.5,1.8-2.5.5-1,.8-2.2.8-3.7s-.5-3.5-1.4-5c-.9-1.4-2.2-2.5-3.9-3.3Z"/><path class="cls-1" d="m341.2,292.1h-49.1c-2.9,0-5.5-1.1-7.6-3.1l-33.2-32.8c-1.6-1.6-4.1-1.5-5.7,0-1.6,1.6-1.5,4.1,0,5.7l33.1,32.7c3.5,3.5,8.2,5.5,13.2,5.5h49.1c2.2,0,4-1.8,4-4s-1.8-4-4-4Z"/><path class="cls-1" d="m267.9,219.9c-1.6-1.5-4.1-1.5-5.6,0l-26.7,26.7c-1.6,1.6-1.6,4.1,0,5.7,1.6,1.6,4.1,1.6,5.7,0l23.9-23.9,54.8,52.1c.8.7,1.8,1.1,2.8,1.1s2.1-.4,2.9-1.2c1.5-1.6,1.5-4.1-.1-5.7l-57.6-54.8Z"/><path class="cls-1" d="m92.3,207.4c15.7,25.6,43.9,42.6,76,42.6s48-10.5,64.2-27.4l9,9c.8.8,1.8,1.2,2.8,1.2s2-.4,2.8-1.2c1.6-1.6,1.6-4.1,0-5.7l-9.3-9.3c12.3-15.3,19.6-34.6,19.6-55.7,0-49.1-40-89.1-89.1-89.1s-54.4,13.7-70.7,34.9h-53.3c-2.2,0-4,1.8-4,4v92.6c0,2.2,1.8,4,4,4h14.5v15.1c0,1.6,1,3.1,2.5,3.7.5.2,1,.3,1.5.3,1.1,0,2.1-.4,2.9-1.2l17.4-17.9h9.2Zm76-127.6c44.7,0,81.1,36.4,81.1,81.1s-36.4,81.1-81.1,81.1-51.7-13.7-66.4-34.6h109.2c2.2,0,4-1.8,4-4v-92.6c0-2.2-1.8-4-4-4h-103.1c14.9-16.5,36.4-26.9,60.3-26.9Zm-71.4,119.6c-6.2-11.5-9.7-24.6-9.7-38.5s5.4-33.1,14.5-46.2h105.4v84.6h-110.2Zm-18.4,1.2l-11.7,12v-9.2c0-2.2-1.8-4-4-4h-14.5v-84.6h43.8c-8.2,13.5-12.9,29.3-12.9,46.2s3.1,26.8,8.7,38.5h-6.5c-1.1,0-2.1.4-2.9,1.2Z"/></svg>