<?xml version="1.0" encoding="UTF-8"?><svg id="icona" xmlns="http://www.w3.org/2000/svg" width="370" height="370" viewBox="0 0 370 370"><defs><style>.cls-1{fill:#323e48;}</style></defs><path class="cls-1" d="m201.9,96c-2.2,0-4,1.8-4,4v98.6c0,2.8,1.1,5.4,3.1,7.4l32,32c.8.8,1.8,1.2,2.8,1.2s2-.4,2.8-1.2c1.6-1.6,1.6-4.1,0-5.7l-32-32c-.5-.5-.7-1.1-.7-1.8v-98.6c0-2.2-1.8-4-4-4Z"/><path class="cls-1" d="m72.5,300.4c1.6,3.9,5.4,6.5,9.7,6.5h205.7c4.3,0,8.1-2.5,9.7-6.5,1.6-3.9.7-8.4-2.3-11.4l-39.7-39.7c-1.6-1.6-4.1-1.6-5.7,0s-1.6,4.1,0,5.7l39.7,39.7c1.1,1.1.7,2.3.5,2.7-.2.5-.8,1.5-2.3,1.5H82.2c-1.5,0-2.1-1.1-2.3-1.5-.2-.5-.5-1.7.5-2.7l39.2-39h99.3c2.2,0,4-1.8,4-4s-1.8-4-4-4h-91.2l41.3-41.1c2-2,3.1-4.7,3.1-7.4v-112.4h26.6c2.2,0,4-1.8,4-4s-1.8-4-4-4h-27.4c-4,0-7.3,3.3-7.3,7.3v113.2c0,.7-.3,1.3-.7,1.8l-47.2,46.9c-1.4.4-2.4,1.4-2.8,2.8l-38.6,38.4c-3,3-3.9,7.5-2.3,11.5Z"/></svg>