<?xml version="1.0" encoding="UTF-8"?><svg id="icona" xmlns="http://www.w3.org/2000/svg" width="370" height="370" viewBox="0 0 370 370"><defs><style>.cls-1{fill:#323e48;}</style></defs><path class="cls-1" d="m341.2,110.7c-2.2,0-4,1.8-4,4v194.9H32.7V79.6h123.8c2.2,0,4-1.8,4-4s-1.8-4-4-4H31.5c-3.7,0-6.7,3-6.7,6.7v232.5c0,3.7,3,6.7,6.7,6.7h307c3.7,0,6.7-3,6.7-6.7V114.7c0-2.2-1.8-4-4-4Z"/><path class="cls-1" d="m185,79.6h121.7c1.1,0,2.1.4,2.8,1.2l20.2,20.2c.8.8,1.8,1.2,2.8,1.2s2-.4,2.8-1.2c1.6-1.6,1.6-4.1,0-5.7l-20.2-20.2c-2.3-2.3-5.3-3.5-8.5-3.5h-121.7c-2.2,0-4,1.8-4,4s1.8,4,4,4Z"/><path class="cls-1" d="m294.4,102.2c2.2,0,4-1.8,4-4s-1.8-4-4-4H44.4c-2.2,0-4,1.8-4,4s1.8,4,4,4h250Z"/><path class="cls-1" d="m40.4,291.4c0,3.9,3.1,7,7,7h275.2c3.9,0,7-3.1,7-7V127c0-3.9-3.1-7-7-7H47.4c-3.9,0-7,3.1-7,7v164.4Zm8-163.4h273.2v162.4H48.4v-162.4Z"/><path class="cls-1" d="m294.4,149.5h-140.9c-2.2,0-4,1.8-4,4v15.5c0,2.2,1.8,4,4,4h140.9c2.2,0,4-1.8,4-4v-15.5c0-2.2-1.8-4-4-4Zm-4,15.5h-132.9v-7.5h132.9v7.5Z"/><path class="cls-1" d="m294.4,197.5h-140.9c-2.2,0-4,1.8-4,4v15.5c0,2.2,1.8,4,4,4h140.9c2.2,0,4-1.8,4-4v-15.5c0-2.2-1.8-4-4-4Zm-4,15.5h-132.9v-7.5h132.9v7.5Z"/><path class="cls-1" d="m294.4,245.5h-140.9c-2.2,0-4,1.8-4,4v15.5c0,2.2,1.8,4,4,4h140.9c2.2,0,4-1.8,4-4v-15.5c0-2.2-1.8-4-4-4Zm-4,15.5h-132.9v-7.5h132.9v7.5Z"/><path class="cls-1" d="m99.1,144.9c-1-1-2.3-1.5-3.7-1.5s-2.7.5-3.7,1.5l-18.5,18.5c-1.3,1.3-1.7,3.3-1,5,.7,1.7,2.4,2.8,4.3,2.8h8.1v23c0,2.2,1.8,4,4,4s4-1.8,4-4v-26.4c0-2.5-2.1-4.6-4.6-4.6h-3.3l10.8-10.8,10.8,10.8h-3.6c-2.5,0-4.6,2-4.6,4.5v44.4c0,2.2,1.8,4,4,4s4-1.8,4-4v-41h8.4c1.9,0,3.5-1.1,4.3-2.8.7-1.7.3-3.7-1-5l-18.6-18.6Z"/><path class="cls-1" d="m114.1,245.5h-8.1v-23c0-2.2-1.8-4-4-4s-4,1.8-4,4v26.4c0,2.5,2.1,4.6,4.6,4.6h3.3l-10.8,10.8-10.8-10.8h3.6c2.5,0,4.6-2,4.6-4.5v-44.4c0-2.2-1.8-4-4-4s-4,1.8-4,4v41h-8.4c-1.9,0-3.5,1.1-4.3,2.8-.7,1.7-.3,3.7,1,5l18.6,18.6c1,1,2.3,1.5,3.7,1.5s2.7-.5,3.7-1.5l18.5-18.5c1.3-1.3,1.7-3.3,1-5s-2.4-2.8-4.3-2.8Z"/></svg>