<svg width="88" height="72" viewBox="0 0 88 72" fill="none" xmlns="http://www.w3.org/2000/svg">
<g clip-path="url(#clip0)">
<path d="M29.4254 69.9064H7.09112C6.79514 69.9071 6.50842 69.8033 6.2815 69.6133L4.88561 68.4547H46.6088C46.8864 68.4547 47.1527 68.3444 47.349 68.148C47.5454 67.9517 47.6557 67.6854 47.6557 67.4078C47.6557 67.1301 47.5454 66.8638 47.349 66.6675C47.1527 66.4711 46.8864 66.3608 46.6088 66.3608H4.5506L6.97945 64.5043H48.1582L49.5541 65.3558C49.6704 65.441 49.803 65.5013 49.9437 65.5329C50.0844 65.5645 50.2301 65.5667 50.3717 65.5393C50.5132 65.512 50.6476 65.4557 50.7664 65.3739C50.8852 65.2922 50.9858 65.1868 51.062 65.0644C51.1382 64.942 51.1882 64.8051 51.209 64.6625C51.2298 64.5198 51.2209 64.3743 51.1829 64.2353C51.1448 64.0962 51.0785 63.9664 50.988 63.8542C50.8974 63.742 50.7847 63.6496 50.6568 63.583L49.4005 62.8013V33.7808H5.30438V63.0945L0 67.2263L4.94145 71.1906C5.54112 71.6781 6.29036 71.9443 7.0632 71.9444H29.3974C29.6751 71.9444 29.9414 71.8341 30.1377 71.6378C30.3341 71.4414 30.4444 71.1751 30.4444 70.8975C30.4444 70.6198 30.3341 70.3535 30.1377 70.1572C29.9414 69.9609 29.6751 69.8506 29.3974 69.8506L29.4254 69.9064ZM7.39822 35.8746H47.2928V56.6873V62.2709H7.39822V35.8746Z" fill="black"/>
<path d="M51.8995 66.8212L49.1915 69.1105C48.6923 69.6131 48.0153 69.899 47.307 69.9061H34.0879C33.8103 69.9061 33.544 70.0164 33.3476 70.2128C33.1513 70.4091 33.041 70.6754 33.041 70.953C33.041 71.2307 33.1513 71.497 33.3476 71.6933C33.544 71.8897 33.8103 72 34.0879 72H47.307C48.5497 71.9844 49.737 71.4834 50.6153 70.6041L53.2535 68.3986C53.4461 68.2243 53.566 67.9839 53.5893 67.7252C53.6126 67.4665 53.5375 67.2085 53.3791 67.0027C53.2945 66.8928 53.1888 66.8009 53.0684 66.7322C52.9479 66.6635 52.8149 66.6194 52.6773 66.6025C52.5396 66.5856 52.3999 66.5963 52.2664 66.6338C52.1329 66.6714 52.0082 66.7351 51.8995 66.8212Z" fill="black"/>
<path d="M24.0655 44.9336C23.8692 44.7376 23.6031 44.6274 23.3257 44.6274C23.0482 44.6274 22.7822 44.7376 22.5859 44.9336C21.4402 46.0824 20.7969 47.6385 20.7969 49.2609C20.7969 50.8832 21.4402 52.4394 22.5859 53.5881C22.7822 53.7842 23.0482 53.8943 23.3257 53.8943C23.6031 53.8943 23.8692 53.7842 24.0655 53.5881C24.2616 53.3918 24.3717 53.1258 24.3717 52.8483C24.3717 52.5709 24.2616 52.3048 24.0655 52.1085C23.3154 51.3506 22.8946 50.3273 22.8946 49.2609C22.8946 48.1945 23.3154 47.1712 24.0655 46.4133C24.2616 46.217 24.3717 45.9509 24.3717 45.6734C24.3717 45.396 24.2616 45.1299 24.0655 44.9336Z" fill="black"/>
<path d="M19.5422 49.2611C19.5371 48.3691 19.7097 47.4851 20.05 46.6607C20.3904 45.8362 20.8915 45.0878 21.5243 44.4592C21.7204 44.2629 21.8305 43.9968 21.8305 43.7194C21.8305 43.4419 21.7204 43.1759 21.5243 42.9796C21.4281 42.8808 21.313 42.8023 21.186 42.7487C21.0589 42.6951 20.9224 42.6675 20.7845 42.6675C20.6466 42.6675 20.5101 42.6951 20.383 42.7487C20.256 42.8023 20.1409 42.8808 20.0447 42.9796C18.3808 44.6466 17.4463 46.9057 17.4463 49.2611C17.4463 51.6164 18.3808 53.8755 20.0447 55.5426C20.1409 55.6411 20.256 55.7191 20.3832 55.7719C20.5103 55.8246 20.6468 55.8511 20.7845 55.8497C20.9221 55.8503 21.0584 55.8235 21.1854 55.7707C21.3124 55.718 21.4277 55.6404 21.5243 55.5426C21.7204 55.3463 21.8305 55.0802 21.8305 54.8027C21.8305 54.5253 21.7204 54.2592 21.5243 54.0629C20.8922 53.4338 20.3914 52.6854 20.0511 51.861C19.7108 51.0367 19.5378 50.1529 19.5422 49.2611Z" fill="black"/>
<path d="M18.9985 42.5466C19.0972 42.4503 19.1757 42.3353 19.2293 42.2082C19.2829 42.0811 19.3105 41.9446 19.3105 41.8067C19.3105 41.6688 19.2829 41.5323 19.2293 41.4053C19.1757 41.2782 19.0972 41.1632 18.9985 41.0669C18.8022 40.8709 18.5361 40.7607 18.2586 40.7607C17.9812 40.7607 17.7151 40.8709 17.5188 41.0669C15.3529 43.241 14.1367 46.1849 14.1367 49.2538C14.1367 52.3227 15.3529 55.2666 17.5188 57.4407C17.6155 57.5386 17.7307 57.6162 17.8578 57.6689C17.9848 57.7216 18.1211 57.7485 18.2586 57.7478C18.3965 57.7509 18.5336 57.7252 18.661 57.6723C18.7884 57.6194 18.9033 57.5406 18.9985 57.4407C19.0972 57.3445 19.1757 57.2294 19.2293 57.1024C19.2829 56.9753 19.3105 56.8388 19.3105 56.7009C19.3105 56.563 19.2829 56.4265 19.2293 56.2994C19.1757 56.1723 19.0972 56.0573 18.9985 55.9611C17.2212 54.1813 16.223 51.769 16.223 49.2538C16.223 46.7386 17.2212 44.3263 18.9985 42.5466Z" fill="black"/>
<path d="M32.1752 44.9338C31.9734 44.7715 31.7186 44.6897 31.46 44.7043C31.2014 44.7189 30.9575 44.8288 30.7752 45.0128C30.593 45.1968 30.4854 45.4418 30.4732 45.7005C30.4611 45.9592 30.5453 46.2132 30.7095 46.4134C31.0843 46.7869 31.3817 47.2307 31.5846 47.7194C31.7875 48.208 31.8919 48.7319 31.8919 49.2611C31.8919 49.7902 31.7875 50.3141 31.5846 50.8027C31.3817 51.2914 31.0843 51.7352 30.7095 52.1087C30.5134 52.305 30.4033 52.5711 30.4033 52.8485C30.4033 53.1259 30.5134 53.392 30.7095 53.5883C30.9089 53.7798 31.1729 53.8894 31.4493 53.8954C31.7263 53.8922 31.9913 53.7822 32.1891 53.5883C33.3329 52.4377 33.9738 50.8805 33.9711 49.2582C33.9685 47.6358 33.3227 46.0807 32.1752 44.9338Z" fill="black"/>
<path d="M34.7302 42.9796C34.6339 42.8808 34.5189 42.8023 34.3918 42.7487C34.2647 42.6951 34.1282 42.6675 33.9903 42.6675C33.8524 42.6675 33.7159 42.6951 33.5889 42.7487C33.4618 42.8023 33.3468 42.8808 33.2505 42.9796C33.0545 43.1759 32.9443 43.4419 32.9443 43.7194C32.9443 43.9968 33.0545 44.2629 33.2505 44.4592C33.8836 45.0884 34.386 45.8366 34.7288 46.6607C35.0717 47.4848 35.2482 48.3685 35.2482 49.2611C35.2482 50.1536 35.0717 51.0374 34.7288 51.8615C34.386 52.6856 33.8836 53.4337 33.2505 54.0629C33.0545 54.2592 32.9443 54.5253 32.9443 54.8027C32.9443 55.0802 33.0545 55.3463 33.2505 55.5426C33.3472 55.6404 33.4624 55.718 33.5894 55.7707C33.7165 55.8235 33.8528 55.8503 33.9903 55.8497C34.128 55.8511 34.2645 55.8246 34.3917 55.7719C34.5188 55.7191 34.634 55.6411 34.7302 55.5426C35.5574 54.719 36.2138 53.7401 36.6617 52.6621C37.1096 51.5842 37.3401 50.4284 37.3401 49.2611C37.3401 48.0938 37.1096 46.9379 36.6617 45.86C36.2138 44.782 35.5574 43.8032 34.7302 42.9796Z" fill="black"/>
<path d="M35.7623 41.0669C35.6635 41.1632 35.585 41.2782 35.5314 41.4053C35.4778 41.5323 35.4502 41.6688 35.4502 41.8067C35.4502 41.9446 35.4778 42.0811 35.5314 42.2082C35.585 42.3353 35.6635 42.4503 35.7623 42.5466C37.5395 44.3263 38.5378 46.7386 38.5378 49.2538C38.5378 51.769 37.5395 54.1813 35.7623 55.9611C35.6635 56.0573 35.585 56.1723 35.5314 56.2994C35.4778 56.4265 35.4502 56.563 35.4502 56.7009C35.4502 56.8388 35.4778 56.9753 35.5314 57.1024C35.585 57.2294 35.6635 57.3445 35.7623 57.4407C35.8584 57.5392 35.9736 57.6172 36.1007 57.67C36.2279 57.7228 36.3644 57.7492 36.5021 57.7478C36.6396 57.7484 36.7759 57.7216 36.903 57.6689C37.03 57.6161 37.1453 57.5386 37.2419 57.4407C39.4079 55.2666 40.624 52.3227 40.624 49.2538C40.624 46.1849 39.4079 43.241 37.2419 41.0669C37.0456 40.8709 36.7795 40.7607 36.5021 40.7607C36.2247 40.7607 35.9586 40.8709 35.7623 41.0669Z" fill="black"/>
<path d="M27.3592 46.4692C26.807 46.4692 26.2672 46.633 25.8081 46.9397C25.349 47.2465 24.9912 47.6825 24.7799 48.1926C24.5686 48.7028 24.5133 49.2641 24.621 49.8057C24.7287 50.3472 24.9946 50.8447 25.3851 51.2351C25.7755 51.6255 26.273 51.8914 26.8145 51.9992C27.3561 52.1069 27.9174 52.0516 28.4275 51.8403C28.9377 51.629 29.3737 51.2712 29.6804 50.812C29.9872 50.3529 30.1509 49.8132 30.1509 49.261C30.1509 48.5206 29.8568 47.8105 29.3332 47.2869C28.8097 46.7634 28.0996 46.4692 27.3592 46.4692ZM27.3592 49.959C27.2211 49.959 27.0862 49.918 26.9714 49.8413C26.8566 49.7646 26.7672 49.6556 26.7143 49.5281C26.6615 49.4006 26.6477 49.2602 26.6746 49.1249C26.7016 48.9895 26.768 48.8651 26.8656 48.7675C26.9633 48.6699 27.0876 48.6034 27.223 48.5765C27.3584 48.5495 27.4987 48.5634 27.6263 48.6162C27.7538 48.669 27.8628 48.7585 27.9395 48.8733C28.0162 48.988 28.0571 49.123 28.0571 49.261C28.0571 49.4461 27.9836 49.6236 27.8527 49.7545C27.7218 49.8854 27.5443 49.959 27.3592 49.959Z" fill="black"/>
<path d="M86.5454 9.84102V9.77123L86.3918 9.42226C85.1101 6.61698 83.0506 4.23821 80.4576 2.56813C77.8647 0.898062 74.8471 0.00677423 71.7629 0V0C68.6685 0.00119794 65.6398 0.89287 63.0384 2.56857C60.4369 4.24427 58.3727 6.6332 57.0921 9.45017L56.9385 9.77123C55.9523 12.1104 55.5318 14.6492 55.7113 17.1814C55.8908 19.7136 56.6651 22.1677 57.9715 24.3443L70.8555 45.7852L71.7908 47.3067L85.5543 24.3443C86.8457 22.1741 87.6084 19.7305 87.7806 17.2109C87.9527 14.6914 87.5296 12.1667 86.5454 9.84102ZM83.7536 23.3253L71.7629 43.2726L65.6908 33.2361L59.7582 23.2974C58.5885 21.3572 57.9087 19.1614 57.7774 16.8996C57.646 14.6379 58.0672 12.3782 59.0044 10.3156L59.1301 10.0085C60.2634 7.63573 62.0439 5.63131 64.2666 4.22611C66.4892 2.82092 69.0635 2.07211 71.6931 2.06592C74.3167 2.06705 76.8869 2.80754 79.1089 4.20248C81.3309 5.59741 83.1148 7.59033 84.2561 9.95269L84.4236 10.3017C85.3806 12.363 85.8197 14.6269 85.703 16.8965C85.5862 19.1662 84.917 21.373 83.7536 23.3253Z" fill="black"/>
<path d="M71.7624 4.52296C69.4752 4.5202 67.2387 5.19607 65.3358 6.46501C63.433 7.73395 61.9494 9.53892 61.0729 11.6514C60.1964 13.7639 59.9663 16.089 60.4118 18.3323C60.8574 20.5757 61.9584 22.6364 63.5757 24.2536C65.1929 25.8709 67.2537 26.972 69.497 27.4175C71.7403 27.863 74.0654 27.6329 76.1779 26.7564C78.2904 25.8799 80.0954 24.3963 81.3643 22.4935C82.6333 20.5906 83.3091 18.3541 83.3064 16.067C83.3027 13.0064 82.0852 10.0723 79.9211 7.9082C77.757 5.74408 74.8229 4.52665 71.7624 4.52296ZM71.7624 25.4613C69.912 25.4641 68.1024 24.9179 66.5626 23.8919C65.0228 22.8659 63.8219 21.4063 63.1119 19.6976C62.4019 17.9889 62.2146 16.108 62.5739 14.2928C62.9332 12.4777 63.8229 10.81 65.1303 9.50061C66.4377 8.19124 68.1041 7.29912 69.9187 6.93712C71.7333 6.57512 73.6144 6.75951 75.3242 7.46697C77.0339 8.17442 78.4954 9.37314 79.5237 10.9114C80.552 12.4498 81.1009 14.2585 81.1009 16.1088C81.0898 18.5796 80.1015 20.9456 78.3518 22.6901C76.6021 24.4345 74.2331 25.4158 71.7624 25.4194V25.4613Z" fill="black"/>
<path d="M71.7632 8.08212C70.3997 8.08143 69.0895 8.61134 68.1099 9.5597C67.1303 10.508 66.5582 11.8004 66.5146 13.1632V13.3446V14.5451V22.1666H77.0397V13.1632C76.996 11.7956 76.42 10.4991 75.4344 9.54994C74.4488 8.60083 73.1315 8.07415 71.7632 8.08212ZM71.7632 10.176C72.5692 10.1784 73.3438 10.4893 73.9278 11.0448C74.5119 11.6003 74.8612 12.3583 74.9039 13.1632H68.6085C68.6514 12.3558 69.0026 11.5958 69.5897 11.04C70.1767 10.4841 70.9547 10.1748 71.7632 10.176ZM68.5945 20.0728V15.257H74.9319V17.5602V20.1007L68.5945 20.0728Z" fill="black"/>
<path d="M71.7347 15.9829C71.4792 15.9829 71.2342 16.0844 71.0536 16.265C70.873 16.4456 70.7715 16.6906 70.7715 16.9461C70.7707 17.1343 70.8243 17.3187 70.9258 17.4772C71.0274 17.6357 71.1725 17.7615 71.3438 17.8394V19.1376H72.1395V17.8394C72.337 17.7439 72.4967 17.5846 72.5927 17.3873C72.6887 17.19 72.7155 16.9661 72.6687 16.7516C72.6219 16.5372 72.5044 16.3448 72.3349 16.2054C72.1655 16.0659 71.9541 15.9875 71.7347 15.9829Z" fill="black"/>
<path d="M52.6533 55.6543C52.3946 55.6841 52.156 55.808 51.9828 56.0023C51.8096 56.1966 51.7139 56.4479 51.7139 56.7082C51.7139 56.9685 51.8096 57.2198 51.9828 57.4141C52.156 57.6084 52.3946 57.7323 52.6533 57.7621C52.9119 57.7323 53.1505 57.6084 53.3237 57.4141C53.4969 57.2198 53.5926 56.9685 53.5926 56.7082C53.5926 56.4479 53.4969 56.1966 53.3237 56.0023C53.1505 55.808 52.9119 55.6841 52.6533 55.6543Z" fill="black"/>
<path d="M70.883 49.5403C70.693 49.7395 70.5879 50.0048 70.5899 50.2801C70.5893 50.5551 70.6942 50.8199 70.883 51.0199C71.0817 51.2168 71.3501 51.3273 71.6298 51.3273C71.9095 51.3273 72.1779 51.2168 72.3766 51.0199C72.5654 50.8199 72.6703 50.5551 72.6698 50.2801C72.6717 50.0048 72.5666 49.7395 72.3766 49.5403C72.2792 49.4411 72.163 49.3623 72.0347 49.3085C71.9065 49.2548 71.7689 49.2271 71.6298 49.2271C71.4908 49.2271 71.3531 49.2548 71.2249 49.3085C71.0967 49.3623 70.9805 49.4411 70.883 49.5403Z" fill="black"/>
<path d="M56.9804 55.6543C56.7218 55.6841 56.4832 55.808 56.3099 56.0023C56.1367 56.1966 56.041 56.4479 56.041 56.7082C56.041 56.9685 56.1367 57.2198 56.3099 57.4141C56.4832 57.6084 56.7218 57.7323 56.9804 57.7621C57.239 57.7323 57.4776 57.6084 57.6509 57.4141C57.8241 57.2198 57.9198 56.9685 57.9198 56.7082C57.9198 56.4479 57.8241 56.1966 57.6509 56.0023C57.4776 55.808 57.239 55.6841 56.9804 55.6543Z" fill="black"/>
<path d="M61.3075 55.6543C61.0489 55.6841 60.8103 55.808 60.6371 56.0023C60.4639 56.1966 60.3682 56.4479 60.3682 56.7082C60.3682 56.9685 60.4639 57.2198 60.6371 57.4141C60.8103 57.6084 61.0489 57.7323 61.3075 57.7621C61.5662 57.7323 61.8048 57.6084 61.978 57.4141C62.1512 57.2198 62.2469 56.9685 62.2469 56.7082C62.2469 56.4479 62.1512 56.1966 61.978 56.0023C61.8048 55.808 61.5662 55.6841 61.3075 55.6543Z" fill="black"/>
<path d="M64.7693 55.6538C64.6714 55.7505 64.5938 55.8657 64.5411 55.9928C64.4883 56.1198 64.4615 56.2561 64.4622 56.3937C64.4591 56.5316 64.4848 56.6686 64.5376 56.796C64.5905 56.9234 64.6694 57.0383 64.7693 57.1335C64.9656 57.3295 65.2316 57.4397 65.5091 57.4397C65.7865 57.4397 66.0526 57.3295 66.2489 57.1335C66.3487 57.0383 66.4276 56.9234 66.4805 56.796C66.5334 56.6686 66.5591 56.5316 66.556 56.3937C66.5566 56.2561 66.5298 56.1198 66.4771 55.9928C66.4243 55.8657 66.3468 55.7505 66.2489 55.6538C66.0526 55.4578 65.7865 55.3477 65.5091 55.3477C65.2316 55.3477 64.9656 55.4578 64.7693 55.6538Z" fill="black"/>
<path d="M67.8266 52.5972C67.6351 52.7966 67.5255 53.0607 67.5195 53.337C67.5227 53.614 67.6328 53.879 67.8266 54.0769C67.9233 54.1747 68.0385 54.2523 68.1656 54.305C68.2926 54.3578 68.4289 54.3846 68.5664 54.384C68.705 54.3878 68.8428 54.3634 68.9716 54.3121C69.1004 54.2609 69.2173 54.1839 69.3153 54.0859C69.4133 53.9879 69.4903 53.871 69.5415 53.7422C69.5928 53.6134 69.6172 53.4756 69.6134 53.337C69.6139 53.062 69.509 52.7972 69.3202 52.5972C69.1198 52.4036 68.8521 52.2954 68.5734 52.2954C68.2948 52.2954 68.027 52.4036 67.8266 52.5972Z" fill="black"/>
</g>
<defs>
<clipPath id="clip0">
<rect width="87.8573" height="72" fill="white"/>
</clipPath>
</defs>
</svg>
