<?xml version="1.0" encoding="UTF-8"?><svg id="icona" xmlns="http://www.w3.org/2000/svg" width="370" height="370" viewBox="0 0 370 370"><defs><style>.cls-1{fill:#323e48;}</style></defs><path class="cls-1" d="m261.6,86.8c0-2.2-1.8-4-4-4H104.6c-2.2,0-4,1.8-4,4v70.6c0,2.2,1.8,4,4,4h153c2.2,0,4-1.8,4-4v-70.6Zm-8,66.6H108.6v-62.6h145v62.6Z"/><path class="cls-1" d="m100.6,192.7c0,2.2,1.8,4,4,4h23.5c2.2,0,4-1.8,4-4v-23.5c0-2.2-1.8-4-4-4h-23.5c-2.2,0-4,1.8-4,4v23.5Zm8-19.5h15.5v15.5h-15.5v-15.5Z"/><path class="cls-1" d="m167.1,169.7c0-2.2-1.8-4-4-4h-23.2c-2.2,0-4,1.8-4,4v23.2c0,2.2,1.8,4,4,4h23.2c2.2,0,4-1.8,4-4v-23.2Zm-8,19.2h-15.2v-15.2h15.2v15.2Z"/><path class="cls-1" d="m100.6,251.7c0,2.2,1.8,4,4,4h47.1c2.2,0,4-1.8,4-4v-47.1c0-2.2-1.8-4-4-4h-47.1c-2.2,0-4,1.8-4,4v47.1Zm8-43.1h39.1v39.1h-39.1v-39.1Z"/><path class="cls-1" d="m100.6,298.6c0,2.2,1.8,4,4,4h132.3c1,0,2-.4,2.8-1.1l20.7-20c.8-.8,1.2-1.8,1.2-2.9v-15.3c0-2.2-1.8-4-4-4H104.6c-2.2,0-4,1.8-4,4v35.3Zm8-31.3h145v9.6l-18.3,17.7h-126.7v-27.3Z"/><path class="cls-1" d="m201.6,166.7c-1.6-1.6-4.1-1.6-5.7,0l-11.8,11.8s0,0,0,0c-.6.6-1,1.3-1.1,2.1,0,.5,0,1,0,1.5.1.8.5,1.5,1.1,2.1h0s11.8,11.8,11.8,11.8c.8.8,1.8,1.2,2.8,1.2s2-.4,2.8-1.2c1.6-1.6,1.6-4.1,0-5.7l-8.9-8.9,8.9-8.9c1.6-1.6,1.6-4.1,0-5.7Z"/><path class="cls-1" d="m243,195.9c.8.8,1.8,1.2,2.8,1.2s2-.4,2.8-1.2l11.8-11.8h0c.6-.6,1-1.3,1.1-2.1,0-.5,0-1,0-1.5-.1-.8-.5-1.5-1.1-2.1,0,0,0,0,0,0l-11.8-11.8c-1.6-1.6-4.1-1.6-5.7,0s-1.6,4.1,0,5.7l8.9,8.9-8.9,8.9c-1.6,1.6-1.6,4.1,0,5.7Z"/><path class="cls-1" d="m238,181.3c0-8.7-7.1-15.8-15.8-15.8s-15.8,7.1-15.8,15.8,7.1,15.8,15.8,15.8,15.8-7.1,15.8-15.8Z"/><circle class="cls-1" cx="163.4" cy="204.6" r="3.3"/><circle class="cls-1" cx="163.4" cy="216.4" r="3.3"/><circle class="cls-1" cx="163.4" cy="228" r="3.3"/><path class="cls-1" d="m257.6,200.6h-82.4c-2.2,0-4,1.8-4,4s1.8,4,4,4h82.4c2.2,0,4-1.8,4-4s-1.8-4-4-4Z"/><path class="cls-1" d="m257.6,212.4h-82.4c-2.2,0-4,1.8-4,4s1.8,4,4,4h82.4c2.2,0,4-1.8,4-4s-1.8-4-4-4Z"/><path class="cls-1" d="m257.6,224h-82.4c-2.2,0-4,1.8-4,4s1.8,4,4,4h82.4c2.2,0,4-1.8,4-4s-1.8-4-4-4Z"/><circle class="cls-1" cx="163.4" cy="239.8" r="3.3"/><path class="cls-1" d="m257.6,235.8h-82.4c-2.2,0-4,1.8-4,4s1.8,4,4,4h82.4c2.2,0,4-1.8,4-4s-1.8-4-4-4Z"/><circle class="cls-1" cx="163.4" cy="251.5" r="3.3"/><path class="cls-1" d="m257.6,247.5h-82.4c-2.2,0-4,1.8-4,4s1.8,4,4,4h82.4c2.2,0,4-1.8,4-4s-1.8-4-4-4Z"/><path class="cls-1" d="m93.6,314.4h147.7c2.2,0,4-1.8,4-4s-1.8-4-4-4H95.5V79h171.2v92.3c0,2.2,1.8,4,4,4s4-1.8,4-4v-94.2c0-3.3-2.7-6.1-6.1-6.1H93.6c-3.3,0-6.1,2.7-6.1,6.1v231.2c0,3.3,2.7,6.1,6.1,6.1Z"/><path class="cls-1" d="m253.7,307.8c1,0,2-.4,2.8-1.2l15.2-15.2c1.9-1.9,2.9-4.4,2.9-7.1v-91.6c0-2.2-1.8-4-4-4s-4,1.8-4,4v91.6c0,.5-.2,1-.6,1.4l-15.2,15.2c-1.6,1.6-1.6,4.1,0,5.7.8.8,1.8,1.2,2.8,1.2Z"/></svg>