<?xml version="1.0" encoding="UTF-8"?><svg id="icona" xmlns="http://www.w3.org/2000/svg" width="370" height="370" viewBox="0 0 370 370"><defs><style>.cls-1{fill:#323e48;}</style></defs><path class="cls-1" d="m260.9,188.8c-.2,0-.3,0-.4.2-.1.1-.2.3-.2.4v24.6c0,.2,0,.3.2.4.1.1.3.2.4.2h5.9c.2,0,.3,0,.4-.2.1-.1.2-.3.2-.4v-24.6c0-.2,0-.3-.2-.4-.1-.1-.3-.2-.4-.2h-5.9Z"/><path class="cls-1" d="m266.8,179.1c-.7-.7-1.7-1.1-2.9-1.1s-2.1.4-2.9,1.1c-.7.7-1.1,1.7-1.1,2.9s.4,2.1,1.1,2.8,1.7,1.1,2.8,1.1,2.1-.4,2.8-1.1,1.1-1.7,1.1-2.8-.4-2.1-1.1-2.9Z"/><path class="cls-1" d="m289.4,220.8h-29.1c-2.2,0-4,1.8-4,4s1.8,4,4,4h29.5c1.8,0,3.5-.7,4.8-2l5.1-5.1c1.6-1.6,1.6-4.1,0-5.7-1.6-1.6-4.1-1.6-5.7,0l-4.7,4.7Z"/><path class="cls-1" d="m229.9,227.9h17.6c2.2,0,4-1.8,4-4s-1.8-4-4-4h-15.6l31.4-53.9,24.4,42.6c1.1,1.9,3.5,2.6,5.5,1.5s2.6-3.5,1.5-5.5l-25.5-44.4c-1.2-2.1-3.4-3.4-5.9-3.4-2.5,0-4.7,1.3-5.9,3.4l-33.5,57.4c-1.2,2.1-1.2,4.7,0,6.8,1.2,2.1,3.5,3.4,5.9,3.4Z"/><path class="cls-1" d="m341.2,110.7c-2.2,0-4,1.8-4,4v194.9H32.7V79.6h123.8c2.2,0,4-1.8,4-4s-1.8-4-4-4H31.5c-3.7,0-6.7,3-6.7,6.7v232.5c0,3.7,3,6.7,6.7,6.7h307c3.7,0,6.7-3,6.7-6.7V114.7c0-2.2-1.8-4-4-4Z"/><path class="cls-1" d="m332.5,102.2c1,0,2-.4,2.8-1.2,1.6-1.6,1.6-4.1,0-5.7l-20.2-20.2c-2.3-2.3-5.3-3.5-8.5-3.5h-121.7c-2.2,0-4,1.8-4,4s1.8,4,4,4h121.7c1.1,0,2.1.4,2.8,1.2l20.2,20.2c.8.8,1.8,1.2,2.8,1.2Z"/><path class="cls-1" d="m294.4,102.2c2.2,0,4-1.8,4-4s-1.8-4-4-4H44.4c-2.2,0-4,1.8-4,4s1.8,4,4,4h250Z"/><path class="cls-1" d="m40.4,291.4c0,3.9,3.1,7,7,7h77.8c5.8,4.1,12.9,6.5,20.5,6.5s14.8-2.4,20.6-6.6c0,0,.1,0,.2,0h156.2c3.9,0,7-3.1,7-7V127c0-3.9-3.1-7-7-7H47.4c-3.9,0-7,3.1-7,7v164.4Zm77.7-22.1c0-15.2,12.4-27.6,27.6-27.6s27.6,12.4,27.6,27.6-12.4,27.6-27.6,27.6-27.6-12.4-27.6-27.6ZM48.4,128h273.2v162.4h-147.2c4.3-5.9,6.9-13.2,6.9-21.1,0-19.6-16-35.6-35.6-35.6s-35.6,16-35.6,35.6,2.6,15.2,6.9,21.1H48.4v-162.4Z"/><path class="cls-1" d="m102.2,176.8c-.1,0-.3,0-.5.2l-30.7,13.6c-.5.2-.7.6-.7,1.1v7.7c0,.5.2.8.7,1.1l30.7,13.6c.3.2.6.2.8,0,.2-.1.3-.4.3-.7v-8.3c0-.5-.2-.9-.7-1.1l-20.3-8.2c-.3-.2-.3-.3,0-.5l20.3-8.3c.5-.3.7-.6.7-1.1v-8.3c0-.6-.2-.8-.6-.8Z"/><path class="cls-1" d="m122.8,216.2h8.8c.6,0,.9-.2,1.1-.7l19.5-51.4c.3-.7,0-1.1-.8-1.1h-8.8c-.6,0-.9.2-1.1.7l-19.5,51.4c-.3.7,0,1.1.8,1.1Z"/><path class="cls-1" d="m174.1,214.1c.1,0,.3,0,.5-.2l30.7-13.6c.5-.3.7-.6.7-1.1v-7.7c0-.5-.2-.9-.7-1.1l-30.7-13.6c-.3-.2-.6-.2-.8,0-.2.1-.3.4-.3.7v8.3c0,.5.2.8.7,1.1l20.3,8.3c.3.2.3.3,0,.5l-20.3,8.2c-.5.2-.7.6-.7,1.1v8.3c0,.6.2.8.6.8Z"/><path class="cls-1" d="m149.1,269.4v-20.8c0-2.2-1.8-4-4-4s-4,1.8-4,4v22.4c0,1.1.4,2.1,1.2,2.8l10.1,10.1c.8.8,1.8,1.2,2.8,1.2s2-.4,2.8-1.2c1.6-1.6,1.6-4.1,0-5.7l-9-9Z"/><path class="cls-1" d="m286.2,253.9c-1.6-1.6-4.1-1.6-5.7,0-1.6,1.6-1.6,4.1,0,5.7l9.8,9.8-9.8,9.8c-1.6,1.6-1.6,4.1,0,5.7.8.8,1.8,1.2,2.8,1.2s2-.4,2.8-1.2l12.6-12.6c1.6-1.6,1.6-4.1,0-5.7l-12.6-12.6Z"/><path class="cls-1" d="m192.2,265.3h0c-2.2,0-4,1.8-4,4s1.8,4,4,4,4-1.8,4-4-1.8-4-4-4Z"/><path class="cls-1" d="m228.3,265.3h0c-2.2,0-4,1.8-4,4s1.8,4,4,4,4-1.8,4-4-1.8-4-4-4Z"/><path class="cls-1" d="m204.2,265.3c-2.2,0-4,1.8-4,4s1.8,4,4,4,4-1.8,4-4-1.8-4-4-4h0Z"/><path class="cls-1" d="m276.3,265.3h0c-2.2,0-4,1.8-4,4s1.8,4,4,4,4-1.8,4-4-1.8-4-4-4Z"/><path class="cls-1" d="m216.3,273.3c2.2,0,4-1.8,4-4s-1.8-4-4-4h0c-2.2,0-4,1.8-4,4s1.8,4,4,4Z"/><path class="cls-1" d="m264.3,265.3h0c-2.2,0-4,1.8-4,4s1.8,4,4,4,4-1.8,4-4-1.8-4-4-4Z"/><path class="cls-1" d="m240.3,265.3h0c-2.2,0-4,1.8-4,4s1.8,4,4,4,4-1.8,4-4-1.8-4-4-4Z"/><path class="cls-1" d="m252.3,265.3h0c-2.2,0-4,1.8-4,4s1.8,4,4,4,4-1.8,4-4-1.8-4-4-4Z"/><path class="cls-1" d="m96.4,265.3h0c-2.2,0-4,1.8-4,4s1.8,4,4,4,4-1.8,4-4-1.8-4-4-4Z"/><path class="cls-1" d="m84.4,265.3h0c-2.2,0-4,1.8-4,4s1.8,4,4,4,4-1.8,4-4-1.8-4-4-4Z"/><path class="cls-1" d="m72.4,265.3h0c-2.2,0-4,1.8-4,4s1.8,4,4,4,4-1.8,4-4-1.8-4-4-4Z"/></svg>