<?xml version="1.0" encoding="UTF-8"?><svg id="icona" xmlns="http://www.w3.org/2000/svg" width="370" height="370" viewBox="0 0 370 370"><defs><style>.cls-1{fill:#323e48;}</style></defs><path class="cls-1" d="m31.5,317.6h307c3.7,0,6.7-3,6.7-6.7V114.7c0-2.2-1.8-4-4-4s-4,1.8-4,4v194.9H32.8V79.6h123.8c2.2,0,4-1.8,4-4s-1.8-4-4-4H31.5c-3.7,0-6.7,3-6.7,6.7v232.5c0,3.7,3,6.7,6.7,6.7Z"/><path class="cls-1" d="m332.5,102.2c1,0,2-.4,2.8-1.2,1.6-1.6,1.6-4.1,0-5.7l-20.2-20.2c-2.3-2.3-5.3-3.5-8.5-3.5h-121.7c-2.2,0-4,1.8-4,4s1.8,4,4,4h121.7c1.1,0,2.1.4,2.8,1.2l20.2,20.2c.8.8,1.8,1.2,2.8,1.2Z"/><path class="cls-1" d="m294.4,102.2c2.2,0,4-1.8,4-4s-1.8-4-4-4H44.4c-2.2,0-4,1.8-4,4s1.8,4,4,4h250Z"/><path class="cls-1" d="m40.4,291.4c0,3.9,3.1,7,7,7h77.8c5.8,4.1,12.9,6.5,20.5,6.5s14.8-2.4,20.6-6.6c0,0,.1,0,.2,0h156.2c3.9,0,7-3.1,7-7V127c0-3.9-3.1-7-7-7H47.4c-3.9,0-7,3.1-7,7v164.4Zm77.7-22.1c0-15.2,12.4-27.6,27.6-27.6s27.6,12.4,27.6,27.6-12.4,27.6-27.6,27.6-27.6-12.4-27.6-27.6ZM48.4,128h273.2v162.4h-147.2c4.3-5.9,6.9-13.2,6.9-21.1,0-19.6-16-35.6-35.6-35.6s-35.6,16-35.6,35.6,2.6,15.2,6.9,21.1H48.4v-162.4Z"/><path class="cls-1" d="m99.4,214c.3.2.6.2.8,0,.2-.1.3-.4.3-.7v-8.3c0-.5-.2-.9-.7-1.1l-20.3-8.2c-.3-.2-.3-.3,0-.5l20.3-8.3c.5-.3.7-.6.7-1.1v-8.3c0-.6-.2-.8-.6-.8s-.3,0-.5.2l-30.7,13.6c-.5.2-.7.6-.7,1.1v7.7c0,.5.2.8.7,1.1l30.7,13.6Z"/><path class="cls-1" d="m120.4,216.2h8.8c.6,0,.9-.2,1.1-.7l19.5-51.4c.3-.7,0-1.1-.8-1.1h-8.8c-.6,0-.9.2-1.1.7l-19.5,51.4c-.3.7,0,1.1.8,1.1Z"/><path class="cls-1" d="m171.7,214.1c.1,0,.3,0,.5-.2l30.7-13.6c.5-.3.7-.6.7-1.1v-7.7c0-.5-.2-.9-.7-1.1l-30.7-13.6c-.3-.2-.6-.2-.8,0-.2.1-.3.4-.3.7v8.3c0,.5.2.8.7,1.1l20.3,8.3c.3.2.3.3,0,.5l-20.3,8.2c-.5.2-.7.6-.7,1.1v8.3c0,.6.2.8.6.8Z"/><path class="cls-1" d="m239.2,198h10.4c.3,0,.4.1.4.4v10.2c0,.3,0,.5.3.6.2.2.4.3.6.3h7.3c.3,0,.5,0,.6-.3s.3-.4.3-.6v-10.2c0-.3.1-.4.4-.4h10.4c.3,0,.5,0,.6-.3s.3-.4.3-.6v-7.4c0-.3,0-.5-.3-.6-.2-.2-.4-.3-.6-.3h-10.4c-.3,0-.4-.1-.4-.4v-10.5c0-.3,0-.5-.3-.6-.2-.2-.4-.3-.6-.3h-7.3c-.3,0-.5,0-.6.3-.2.2-.3.4-.3.6v10.5c0,.3-.1.4-.4.4h-10.4c-.3,0-.5,0-.6.3s-.3.4-.3.6v7.4c0,.3,0,.5.3.6.2.2.4.3.6.3Z"/><path class="cls-1" d="m149.1,269.4v-20.8c0-2.2-1.8-4-4-4s-4,1.8-4,4v22.4c0,1.1.4,2.1,1.2,2.8l10.1,10.1c.8.8,1.8,1.2,2.8,1.2s2-.4,2.8-1.2c1.6-1.6,1.6-4.1,0-5.7l-9-9Z"/><path class="cls-1" d="m290.4,269.3l-9.8,9.8c-1.6,1.6-1.6,4.1,0,5.7.8.8,1.8,1.2,2.8,1.2s2-.4,2.8-1.2l12.6-12.6c1.6-1.6,1.6-4.1,0-5.7l-12.6-12.6c-1.6-1.6-4.1-1.6-5.7,0-1.6,1.6-1.6,4.1,0,5.7l9.8,9.8Z"/><path class="cls-1" d="m200.2,269.3c0,2.2,1.8,4,4,4s4-1.8,4-4-1.8-4-4-4h0c-2.2,0-4,1.8-4,4Z"/><path class="cls-1" d="m240.3,273.3c2.2,0,4-1.8,4-4s-1.8-4-4-4h0c-2.2,0-4,1.8-4,4s1.8,4,4,4Z"/><path class="cls-1" d="m216.3,273.3c2.2,0,4-1.8,4-4s-1.8-4-4-4h0c-2.2,0-4,1.8-4,4s1.8,4,4,4Z"/><path class="cls-1" d="m228.3,273.3c2.2,0,4-1.8,4-4s-1.8-4-4-4h0c-2.2,0-4,1.8-4,4s1.8,4,4,4Z"/><path class="cls-1" d="m252.3,265.3h0c-2.2,0-4,1.8-4,4s1.8,4,4,4,4-1.8,4-4-1.8-4-4-4Z"/><path class="cls-1" d="m264.3,265.3h0c-2.2,0-4,1.8-4,4s1.8,4,4,4,4-1.8,4-4-1.8-4-4-4Z"/><path class="cls-1" d="m192.2,265.3h0c-2.2,0-4,1.8-4,4s1.8,4,4,4,4-1.8,4-4-1.8-4-4-4Z"/><path class="cls-1" d="m276.3,273.3c2.2,0,4-1.8,4-4s-1.8-4-4-4h0c-2.2,0-4,1.8-4,4s1.8,4,4,4Z"/><path class="cls-1" d="m96.4,265.3h0c-2.2,0-4,1.8-4,4s1.8,4,4,4,4-1.8,4-4-1.8-4-4-4Z"/><path class="cls-1" d="m84.4,265.3h0c-2.2,0-4,1.8-4,4s1.8,4,4,4,4-1.8,4-4-1.8-4-4-4Z"/><path class="cls-1" d="m72.4,265.3h0c-2.2,0-4,1.8-4,4s1.8,4,4,4,4-1.8,4-4-1.8-4-4-4Z"/></svg>