<?xml version="1.0" encoding="UTF-8"?><svg id="icona" xmlns="http://www.w3.org/2000/svg" width="370" height="370" viewBox="0 0 370 370"><defs><style>.cls-1{fill:#323e48;}</style></defs><path class="cls-1" d="m341.2,110.7c-2.2,0-4,1.8-4,4v194.9H32.7V79.6h123.8c2.2,0,4-1.8,4-4s-1.8-4-4-4H31.5c-3.7,0-6.7,3-6.7,6.7v232.5c0,3.7,3,6.7,6.7,6.7h307c3.7,0,6.7-3,6.7-6.7V114.7c0-2.2-1.8-4-4-4Z"/><path class="cls-1" d="m309.5,80.8l20.2,20.2c.8.8,1.8,1.2,2.8,1.2s2-.4,2.8-1.2c1.6-1.6,1.6-4.1,0-5.7l-20.2-20.2c-2.3-2.3-5.3-3.5-8.5-3.5h-121.7c-2.2,0-4,1.8-4,4s1.8,4,4,4h121.7c1.1,0,2.1.4,2.8,1.2Z"/><path class="cls-1" d="m149.5,188.5v12.3c0,2.2,1.8,4,4,4s4-1.8,4-4v-12.3c0-1.1.4-2.1,1.2-2.8l19.8-19.8c1.6-1.6,1.6-4.1,0-5.7-1.6-1.6-4.1-1.6-5.7,0l-19.8,19.8c-2.3,2.3-3.5,5.3-3.5,8.5Z"/><path class="cls-1" d="m253.3,252.5c0-1.6-.6-3.1-1.8-4.2l-30.3-30.3c-1.4-1.4-3.6-1.9-5.4-1.1s-3.1,2.6-3.1,4.6v15.8h-7.7v-12.3c0-2.2-1.8-4-4-4h-46.8l77.2-77.2,11.5,11.5c1.4,1.4,3.6,1.9,5.4,1.1,1.9-.8,3.1-2.6,3.1-4.6v-43c0-3.3-2.7-6-6-6h-42.8c-2,0-3.8,1.2-4.6,3.1-.8,1.9-.4,4,1.1,5.4l11.2,11.2-28.3,28.3c-1.6,1.6-1.6,4.1,0,5.7,1.6,1.6,4.1,1.6,5.7,0l30.5-30.5c1.9-1.9,1.9-5.1,0-7.1l-8.2-8.2h33.6v33.7l-8.5-8.5c-.9-.9-2.1-1.4-3.4-1.5-1.4,0-2.7.5-3.6,1.4l-85,85H60.2c-2.2,0-4,1.8-4,4v69.5c0,2.2,1.8,4,4,4h140.9c.3,0,.5,0,.8,0,1.1-.2,2-.8,2.5-1.7,0,0,0,0,0,0,.3-.4.5-.9.6-1.4,0-.3,0-.5,0-.8v-27.2h7.6v16.2c0,2,1.2,3.8,3.1,4.6.6.3,1.3.4,1.9.4,1.3,0,2.6-.5,3.5-1.5l30.4-30.4c1.1-1.1,1.8-2.6,1.8-4.2Zm-56.2,38H64.2v-61.5h70.8l-11.6,11.6c0,0-.2.1-.2.2l-8.7,8.7c-1.6,1.6-1.6,4.1,0,5.7s1.8,1.2,2.8,1.2,2-.4,2.8-1.2l5-5s0,0,.1,0l3.7-3.7c.7-.7,1.7-1.1,2.7-1.1h28c2.2,0,4-1.8,4-4s-1.8-4-4-4h-21.7l8.3-8.3h50.8v8.3h-24.4c-2.2,0-4,1.8-4,4s1.8,4,4,4h24.4v14h-90.2c-2.2,0-4,1.8-4,4s1.8,4,4,4h90.2v23.2Zm23.6-14.2v-12c0-2.8-2.2-5-5-5h-10.6v-14h10.7c2.8,0,5-2.2,5-5v-11.6l23.7,23.7-23.8,23.8Z"/><path class="cls-1" d="m214.1,290.5h0c-2.2,0-4,1.8-4,4s1.8,4,4,4,4-1.8,4-4-1.8-4-4-4Z"/><path class="cls-1" d="m239.9,290.5c-2.2,0-4,1.8-4,4s1.8,4,4,4,4-1.8,4-4-1.8-4-4-4h0Z"/><path class="cls-1" d="m252.9,298.5c2.2,0,4-1.8,4-4s-1.8-4-4-4h0c-2.2,0-4,1.8-4,4s1.8,4,4,4Z"/><path class="cls-1" d="m265.8,290.5h0c-2.2,0-4,1.8-4,4s1.8,4,4,4,4-1.8,4-4-1.8-4-4-4Z"/><path class="cls-1" d="m227,290.5c-2.2,0-4,1.8-4,4s1.8,4,4,4,4-1.8,4-4-1.8-4-4-4h0Z"/><path class="cls-1" d="m276.6,297.8c.2.1.4.3.7.4.2.1.5.2.7.2.3,0,.5,0,.8,0s.5,0,.8,0c.3,0,.5-.1.7-.2.2,0,.5-.2.7-.4.2-.1.4-.3.6-.5.7-.7,1.2-1.8,1.2-2.8s-.4-2.1-1.2-2.8c-.2-.2-.4-.4-.6-.5-.2-.1-.4-.3-.7-.4-.2,0-.5-.2-.7-.2-.5-.1-1-.1-1.6,0-.3,0-.5.1-.7.2-.2.1-.5.2-.7.4-.2.1-.4.3-.6.5-.7.7-1.2,1.8-1.2,2.8s.4,2.1,1.2,2.8c.2.2.4.4.6.5Z"/><path class="cls-1" d="m278.8,251.5c2.2,0,4-1.8,4-4s-1.8-4-4-4-4,1.8-4,4,1.8,4,4,4Z"/><path class="cls-1" d="m278.8,228c2.2,0,4-1.8,4-4s-1.8-4-4-4-4,1.8-4,4,1.8,4,4,4Z"/><path class="cls-1" d="m278.8,286.7c2.2,0,4-1.8,4-4s-1.8-4-4-4-4,1.8-4,4,1.8,4,4,4Z"/><path class="cls-1" d="m278.8,239.8c2.2,0,4-1.8,4-4s-1.8-4-4-4-4,1.8-4,4,1.8,4,4,4Z"/><path class="cls-1" d="m278.8,263.3c2.2,0,4-1.8,4-4s-1.8-4-4-4-4,1.8-4,4,1.8,4,4,4Z"/><path class="cls-1" d="m278.8,275c2.2,0,4-1.8,4-4s-1.8-4-4-4-4,1.8-4,4,1.8,4,4,4Z"/><path class="cls-1" d="m278.8,216.3c2.2,0,4-1.8,4-4s-1.8-4-4-4-4,1.8-4,4,1.8,4,4,4Z"/><path class="cls-1" d="m281.6,197.6c-.2-.2-.4-.4-.6-.5-.2-.1-.4-.3-.7-.4-.2-.1-.5-.2-.7-.2-.5-.1-1-.1-1.6,0-.3,0-.5.1-.7.2-.2,0-.5.2-.7.4-.2.1-.4.3-.6.5s-.4.4-.5.6c-.1.2-.3.4-.4.7-.1.2-.2.5-.2.7,0,.3,0,.5,0,.8s0,.5,0,.8c0,.3.1.5.2.7,0,.2.2.5.4.7.1.2.3.4.5.6s.4.4.6.5c.2.1.4.3.7.4.2.1.5.2.7.2.3,0,.5,0,.8,0s.5,0,.8,0c.3,0,.5-.1.7-.2.2,0,.5-.2.7-.4.2-.1.4-.3.6-.5.2-.2.4-.4.5-.6.1-.2.3-.4.4-.7.1-.2.2-.5.2-.7,0-.3,0-.5,0-.8,0-1.1-.4-2.1-1.2-2.8Z"/><path class="cls-1" d="m225.8,200.4c0,2.2,1.8,4,4,4h0c2.2,0,4-1.8,4-4s-1.8-4-4-4-4,1.8-4,4Z"/><path class="cls-1" d="m213.5,200.4c0,2.2,1.8,4,4,4h0c2.2,0,4-1.8,4-4s-1.8-4-4-4-4,1.8-4,4Z"/><path class="cls-1" d="m201.2,200.4c0,2.2,1.8,4,4,4h0c2.2,0,4-1.8,4-4s-1.8-4-4-4-4,1.8-4,4Z"/><path class="cls-1" d="m238,200.4c0,2.2,1.8,4,4,4h0c2.2,0,4-1.8,4-4s-1.8-4-4-4-4,1.8-4,4Z"/><path class="cls-1" d="m258.3,200.4c0-2.2-1.8-4-4-4s-4,1.8-4,4,1.8,4,4,4h0c2.2,0,4-1.8,4-4Z"/><path class="cls-1" d="m266.5,196.4c-2.2,0-4,1.8-4,4s1.8,4,4,4h0c2.2,0,4-1.8,4-4s-1.8-4-4-4Z"/><path class="cls-1" d="m196.3,198.2c-.1-.2-.3-.4-.5-.6s-.4-.4-.6-.5c-.2-.1-.4-.3-.7-.4-.2-.1-.5-.2-.7-.2-.5-.1-1-.1-1.6,0-.3,0-.5.1-.7.2-.2,0-.5.2-.7.4-.2.1-.4.3-.6.5-.2.2-.4.4-.5.6-.1.2-.3.4-.4.7,0,.2-.2.5-.2.7,0,.3,0,.5,0,.8s0,.5,0,.8c0,.3.1.5.2.7.1.2.2.5.4.7.1.2.3.4.5.6.2.2.4.4.6.5.2.1.4.3.7.4.2.1.5.2.7.2.3,0,.5,0,.8,0s.5,0,.8,0c.3,0,.5-.1.7-.2.2,0,.5-.2.7-.4.2-.1.4-.3.6-.5s.4-.4.5-.6c.1-.2.3-.4.4-.7.1-.2.2-.5.2-.7,0-.3,0-.5,0-.8s0-.5,0-.8c0-.3-.1-.5-.2-.7,0-.2-.2-.5-.4-.7Z"/><path class="cls-1" d="m189.1,110.6c.2.1.5.2.7.2.3,0,.5,0,.8,0s.5,0,.8,0c.3,0,.5-.1.7-.2.2-.1.5-.2.7-.4.2-.1.4-.3.6-.5.7-.7,1.2-1.8,1.2-2.8s-.4-2.1-1.2-2.8c-.2-.2-.4-.4-.6-.5-.2-.1-.4-.3-.7-.4-.2,0-.5-.2-.7-.2-.5-.1-1-.1-1.6,0-.3,0-.5.1-.7.2-.2.1-.5.2-.7.4-.2.1-.4.3-.6.5-.7.7-1.2,1.8-1.2,2.8s.4,2.1,1.2,2.8c.2.2.4.4.6.5.2.1.5.3.7.4Z"/><path class="cls-1" d="m135.5,107c0-2.2-1.8-4-4-4-2.2,0-4,1.8-4,4,0,2.2,1.8,4,4,4,2.2,0,4-1.8,4-4Z"/><path class="cls-1" d="m147.3,106.9c0-2.2-1.8-4-4-4-2.2,0-4,1.8-4,4,0,2.2,1.8,4,4,4,2.2,0,4-1.8,4-4Z"/><path class="cls-1" d="m99.9,107c0-2.2-1.8-4-4-4-2.2,0-4,1.8-4,4,0,2.2,1.8,4,4,4,2.2,0,4-1.8,4-4Z"/><path class="cls-1" d="m88.1,107c0-2.2-1.8-4-4-4-2.2,0-4,1.8-4,4,0,2.2,1.8,4,4,4,2.2,0,4-1.8,4-4Z"/><path class="cls-1" d="m111.8,107c0-2.2-1.8-4-4-4-2.2,0-4,1.8-4,4,0,2.2,1.8,4,4,4,2.2,0,4-1.8,4-4Z"/><path class="cls-1" d="m123.6,107c0-2.2-1.8-4-4-4-2.2,0-4,1.8-4,4,0,2.2,1.8,4,4,4,2.2,0,4-1.8,4-4Z"/><path class="cls-1" d="m159.1,106.9c0-2.2-1.8-4-4-4-2.2,0-4,1.8-4,4,0,2.2,1.8,4,4,4,2.2,0,4-1.8,4-4Z"/><path class="cls-1" d="m174.8,106.9c0,2.2,1.8,4,4,4,2.2,0,4-1.8,4-4,0-2.2-1.8-4-4-4-2.2,0-4,1.8-4,4Z"/><path class="cls-1" d="m171,106.9c0-2.2-1.8-4-4-4-2.2,0-4,1.8-4,4,0,2.2,1.8,4,4,4,2.2,0,4-1.8,4-4Z"/><path class="cls-1" d="m76.2,107c0-2.2-1.8-4-4-4-2.2,0-4,1.8-4,4,0,2.2,1.8,4,4,4s4-1.8,4-4Z"/><path class="cls-1" d="m58.1,110.3c.2.1.4.3.7.4.2,0,.5.2.7.2.3,0,.5,0,.8,0s.5,0,.8,0c.3,0,.5-.1.7-.2.2-.1.5-.2.7-.4.2-.1.4-.3.6-.5.7-.7,1.2-1.8,1.2-2.8s-.4-2.1-1.2-2.8c-.2-.2-.4-.4-.6-.5-.2-.1-.4-.3-.7-.4-.2-.1-.5-.2-.7-.2-.5-.1-1-.1-1.6,0-.3,0-.5.1-.7.2-.2.1-.5.2-.7.4-.2.1-.4.3-.6.5-.7.7-1.2,1.8-1.2,2.8s.4,2.1,1.2,2.8c.2.2.4.4.6.5Z"/><path class="cls-1" d="m60.3,146.6h0c2.2,0,4-1.8,4-4,0-2.2-1.8-4-4-4-2.2,0-4,1.8-4,4,0,2.2,1.8,4,4,4Z"/><path class="cls-1" d="m60.3,170.3h0c2.2,0,4-1.8,4-4,0-2.2-1.8-4-4-4-2.2,0-4,1.8-4,4,0,2.2,1.8,4,4,4Z"/><path class="cls-1" d="m60.3,158.4h0c2.2,0,4-1.8,4-4,0-2.2-1.8-4-4-4-2.2,0-4,1.8-4,4,0,2.2,1.8,4,4,4Z"/><path class="cls-1" d="m60.3,194h0c2.2,0,4-1.8,4-4,0-2.2-1.8-4-4-4-2.2,0-4,1.8-4,4,0,2.2,1.8,4,4,4Z"/><path class="cls-1" d="m60.3,182.1h0c2.2,0,4-1.8,4-4,0-2.2-1.8-4-4-4s-4,1.8-4,4c0,2.2,1.8,4,4,4Z"/><path class="cls-1" d="m60.2,205.8h0c2.2,0,4-1.8,4-4,0-2.2-1.8-4-4-4-2.2,0-4,1.8-4,4,0,2.2,1.8,4,4,4Z"/><path class="cls-1" d="m60.3,122.9h0c2.2,0,4-1.8,4-4,0-2.2-1.8-4-4-4-2.2,0-4,1.8-4,4,0,2.2,1.8,4,4,4Z"/><path class="cls-1" d="m60.3,134.7h0c2.2,0,4-1.8,4-4,0-2.2-1.8-4-4-4-2.2,0-4,1.8-4,4,0,2.2,1.8,4,4,4Z"/><path class="cls-1" d="m57.4,216.6c.7.7,1.8,1.2,2.8,1.2s2.1-.4,2.8-1.2c.7-.7,1.2-1.8,1.2-2.8s-.4-2.1-1.2-2.8c-.7-.7-1.8-1.2-2.8-1.2s-2.1.4-2.8,1.2c-.7.7-1.2,1.8-1.2,2.8s.4,2.1,1.2,2.8Z"/><path class="cls-1" d="m243.5,178.1h0c0,2.2,1.8,4,4,4s4-1.8,4-4-1.8-4-4-4-4,1.8-4,4Z"/><path class="cls-1" d="m247.5,162c-2.2,0-4,1.8-4,4h0c0,2.2,1.8,4,4,4s4-1.8,4-4-1.8-4-4-4Z"/><path class="cls-1" d="m251.5,190.1c0-2.2-1.8-4-4-4s-4,1.8-4,4h0c0,2.2,1.8,4,4,4s4-1.8,4-4Z"/></svg>