<?xml version="1.0" encoding="UTF-8"?><svg id="icona" xmlns="http://www.w3.org/2000/svg" width="370" height="370" viewBox="0 0 370 370"><defs><style>.cls-1{fill:#323e48;}</style></defs><path class="cls-1" d="m306.7,144.7c-1.6-1.6-4.1-1.6-5.7,0-1.6,1.6-1.6,4.1,0,5.7l14.5,14.5c.8.8,1.8,1.2,2.8,1.2s2.1-.4,2.8-1.2l32.1-32.1c1.6-1.6,1.6-4.1,0-5.7-1.6-1.6-4.1-1.6-5.7,0l-29.3,29.3-11.7-11.7Z"/><path class="cls-1" d="m365.1,100.2c-.7-.3-16.4-7.5-40.8-7.5s-7.1.2-10.3.4v-18c0-2.2-1.8-4-4-4H60c-2.2,0-4,1.8-4,4v190.5c0,2.2,1.8,4,4,4h250c2.2,0,4-1.8,4-4v-71.1l1.4,1.3c2.6,2.3,5.9,3.5,9.2,3.5s6.2-1,8.8-3.1l29.2-23.8c3-2.5,4.8-6.1,4.8-10.1v-58.4c0-1.6-.9-3-2.3-3.6Zm-301.1-21h242v14.7c0,.1,0,.2,0,.3-12.8,2.2-19.7,6-20.1,6.2-1.3.7-2,2-2,3.5v30.8H64v-55.5Zm242,182.5H64v-55.5h242v55.5Zm53.4-99.4c0,1.5-.7,2.9-1.8,3.9l-29.2,23.8c-2.3,1.8-5.5,1.8-7.7-.1l-7.7-6.8c-.6-.7-1.5-1.2-2.5-1.3,0,0-.2,0-.2,0,0,0-.2,0-.3,0s0,0-.1,0c-.2,0-.4,0-.6,0,0,0,0,0,0,0-.8.2-1.6.6-2.3,1.3-.8.9-1.1,2.2-.9,3.3v11.8H64v-55.5h219.9v19.6c0,3.7,1.6,7.3,4.4,9.8l10,8.7c1.7,1.5,4.2,1.3,5.6-.4,1.5-1.7,1.3-4.2-.4-5.6l-10-8.7c-1.1-.9-1.7-2.3-1.7-3.7v-55.9c4.3-1.8,15.4-5.7,32.4-5.7s30.1,4,35.1,5.8v55.7Z"/><path class="cls-1" d="m275.6,102.9H122.5c-2.2,0-4,1.8-4,4s1.8,4,4,4h153.1c2.2,0,4-1.8,4-4s-1.8-4-4-4Z"/><path class="cls-1" d="m79.9,102.9h0c-2.2,0-4,1.8-4,4s1.8,4,4,4,4-1.8,4-4-1.8-4-4-4Z"/><path class="cls-1" d="m103.9,102.9h0c-2.2,0-4,1.8-4,4s1.8,4,4,4,4-1.8,4-4-1.8-4-4-4Z"/><path class="cls-1" d="m91.9,102.9h0c-2.2,0-4,1.8-4,4s1.8,4,4,4,4-1.8,4-4-1.8-4-4-4Z"/><path class="cls-1" d="m103.9,166.4h0c-2.2,0-4,1.8-4,4s1.8,4,4,4,4-1.8,4-4-1.8-4-4-4Z"/><path class="cls-1" d="m91.9,166.4h0c-2.2,0-4,1.8-4,4s1.8,4,4,4,4-1.8,4-4-1.8-4-4-4Z"/><path class="cls-1" d="m79.9,166.4h0c-2.2,0-4,1.8-4,4s1.8,4,4,4,4-1.8,4-4-1.8-4-4-4Z"/><path class="cls-1" d="m91.9,237.9c2.2,0,4-1.8,4-4s-1.8-4-4-4h0c-2.2,0-4,1.8-4,4s1.8,4,4,4Z"/><path class="cls-1" d="m79.9,237.9c2.2,0,4-1.8,4-4s-1.8-4-4-4h0c-2.2,0-4,1.8-4,4s1.8,4,4,4Z"/><path class="cls-1" d="m103.9,237.9c2.2,0,4-1.8,4-4s-1.8-4-4-4h0c-2.2,0-4,1.8-4,4s1.8,4,4,4Z"/><path class="cls-1" d="m275.6,166.4H122.5c-2.2,0-4,1.8-4,4s1.8,4,4,4h153.1c2.2,0,4-1.8,4-4s-1.8-4-4-4Z"/><path class="cls-1" d="m122.5,237.9h153.1c2.2,0,4-1.8,4-4s-1.8-4-4-4H122.5c-2.2,0-4,1.8-4,4s1.8,4,4,4Z"/></svg>