<?xml version="1.0" encoding="UTF-8"?><svg id="icona" xmlns="http://www.w3.org/2000/svg" width="370" height="370" viewBox="0 0 370 370"><defs><style>.cls-1{fill:#323e48;}</style></defs><path class="cls-1" d="m31.5,317.6h307c3.7,0,6.7-3,6.7-6.7V114.7c0-2.2-1.8-4-4-4s-4,1.8-4,4v194.9H32.8V79.6h123.8c2.2,0,4-1.8,4-4s-1.8-4-4-4H31.5c-3.7,0-6.7,3-6.7,6.7v232.5c0,3.7,3,6.7,6.7,6.7Z"/><path class="cls-1" d="m309.5,80.8l20.2,20.2c.8.8,1.8,1.2,2.8,1.2s2-.4,2.8-1.2c1.6-1.6,1.6-4.1,0-5.7l-20.2-20.2c-2.3-2.3-5.3-3.5-8.5-3.5h-121.7c-2.2,0-4,1.8-4,4s1.8,4,4,4h121.7c1.1,0,2.1.4,2.8,1.2Z"/><path class="cls-1" d="m245.9,212.3c-3.2,2.5-7.8,3.8-13.6,3.8s-7.5-.6-10.5-1.9c-2.7-1.2-4.8-2.8-6.2-4.9-1.4-2.1-2.1-4.4-2.1-7.2s-1.8-4-4-4-4,1.8-4,4c0,4.4,1.2,8.4,3.5,11.8,2.3,3.4,5.6,5.9,9.7,7.7,3.9,1.7,8.5,2.5,13.6,2.5,7.7,0,13.9-1.9,18.6-5.5,4.9-3.9,7.5-9.3,7.5-15.9s-1.2-8.4-3.7-11.4c-2.2-2.7-4.8-4.8-7.6-6.2-2.5-1.2-5.7-2.6-10-4.1-3.6-1.3-6.2-2.3-7.9-3-1.5-.7-2.3-1.3-2.6-1.7-.1-.2-.3-.4-.3-.9,0-.9.3-1.2.7-1.5.8-.6,2.1-.9,3.9-.9s4.3.5,5.5,1.6c1.4,1.2,1.6,2.3,1.6,3.1,0,2.2,1.8,4,4,4s4-1.8,4-4c0-3.6-1.5-6.7-4.4-9.2-2.7-2.3-6.3-3.5-10.7-3.5s-6.5.9-8.7,2.5c-2.5,1.9-3.9,4.7-3.9,7.9s.8,4.6,2.4,6.3c1.3,1.4,3,2.6,5.3,3.6,1.9.8,4.6,1.9,8.4,3.2,3.9,1.4,7,2.7,9.2,3.8,1.8.9,3.5,2.3,5,4.1,1.3,1.5,1.9,3.6,1.9,6.3,0,4.2-1.4,7.3-4.4,9.6Z"/><path class="cls-1" d="m73.4,195.6l17.7-7.2c.4-.2.6-.5.6-.9v-7.2c0-.5-.2-.7-.5-.7s-.2,0-.4.1l-26.8,11.9c-.4.2-.6.5-.6.9v6.8c0,.4.2.7.6.9l26.8,11.9c.3.1.5.1.7,0,.2-.1.3-.3.3-.6v-7.3c0-.4-.2-.8-.6-.9l-17.7-7.2c-.3-.1-.3-.3,0-.4Z"/><path class="cls-1" d="m126.4,167.6c-.5,0-.8.2-.9.6l-17,44.8c-.2.6,0,.9.7.9h7.7c.5,0,.8-.2.9-.6l17-44.8c.2-.6,0-.9-.7-.9h-7.7Z"/><path class="cls-1" d="m171.6,196l-17.7,7.2c-.4.2-.6.5-.6.9v7.3c0,.5.2.7.5.7s.2,0,.4-.1l26.8-11.9c.4-.2.6-.5.6-.9v-6.8c0-.4-.2-.8-.6-.9l-26.8-11.9c-.3-.1-.5-.1-.7,0-.2.1-.3.3-.3.6v7.2c0,.4.2.7.6.9l17.7,7.2c.3.1.3.3,0,.4Z"/></svg>