<?xml version="1.0" encoding="UTF-8"?><svg id="icona" xmlns="http://www.w3.org/2000/svg" width="370" height="370" viewBox="0 0 370 370"><defs><style>.cls-1{fill:#323e48;}</style></defs><path class="cls-1" d="m302,212.3h-89.9l1.7-1.7s0,0,0,0,0,0,0,0l33.1-33.1s0,0,0,0,0,0,0,0l27.5-27.5c2.3-2.3,3.5-5.3,3.5-8.5s-1.2-6.2-3.5-8.5l-43.9-43.9c-4.7-4.7-12.3-4.7-17,0l-55.9,55.9v-76.8c0-6.6-5.4-12-12-12h-62.1c-6.6,0-12,5.4-12,12v132.2c0,2.2,1.8,4,4,4s4-1.8,4-4v-42.4h70.1v128.6c0,2.2-1.8,4-4,4h-50.5c-1.5,0-2-.4-4.3-5.5l-10.4-21.8c-.6-1.4-1-2.9-1-4.4v-28.2c0-2.2-1.8-4-4-4s-4,1.8-4,4v28.2c0,2.7.6,5.4,1.8,7.8l10.2,21.5v.2c2.3,5,4.7,10.2,11.6,10.2h206.8c6.6,0,12-5.4,12-12v-62.1c0-6.6-5.4-12-12-12Zm-42.9,8v70.1h-38.9v-70.1h38.9Zm-70.2-95.3l49.6,49.6-27.5,27.5-49.6-49.6,27.5-27.5Zm-31.2,35.1l47.6,47.6-47.6,47.6v-95.3Zm61.5-65.4c1.6-1.6,4.1-1.6,5.7,0l43.9,43.9c.8.8,1.2,1.8,1.2,2.8s-.4,2.1-1.2,2.8l-24.7,24.7-49.6-49.6,24.7-24.7Zm-135.6-30.6h62.1c2.2,0,4,1.8,4,4v34.9h-70.1v-34.9c0-2.2,1.8-4,4-4Zm-4,85.8v-38.9h70.1v38.9h-70.1Zm78.1,136.6v-19.9c.2-.2.5-.3.7-.5l45.8-45.8c.3,0,.5,0,.8,0h7.3v70.1h-55.2c.4-1.3.7-2.6.7-4Zm148.2,0c0,2.2-1.8,4-4,4h-34.9v-70.1h34.9c2.2,0,4,1.8,4,4v62.1Z"/><path class="cls-1" d="m124.8,255.3c0-5.6-4.5-10.1-10.1-10.1s-10.1,4.5-10.1,10.1,4.5,10.1,10.1,10.1,10.1-4.5,10.1-10.1Zm-12.2,0c0-1.1.9-2.1,2.1-2.1s2.1.9,2.1,2.1-.9,2.1-2.1,2.1-2.1-.9-2.1-2.1Z"/></svg>