<?xml version="1.0" encoding="UTF-8"?><svg id="icona" xmlns="http://www.w3.org/2000/svg" width="370" height="370" viewBox="0 0 370 370"><defs><style>.cls-1{fill:#323e48;}</style></defs><path class="cls-1" d="m111.5,143.2c-2.2,0-4,1.8-4,4v93.1c0,2.2,1.8,4,4,4h21.3c2.2,0,4-1.8,4-4v-93.1c0-2.2-1.8-4-4-4h-21.3Zm17.3,93.1h-13.3v-85.1h13.3v85.1Z"/><path class="cls-1" d="m139.5,147.2v93.1c0,2.2,1.8,4,4,4h21.3c2.2,0,4-1.8,4-4v-93.1c0-2.2-1.8-4-4-4h-21.3c-2.2,0-4,1.8-4,4Zm8,4h13.3v85.1h-13.3v-85.1Z"/><path class="cls-1" d="m238.7,141.2l-20.9,4.2c-1,.2-2,.8-2.6,1.7-.6.9-.8,2-.6,3l18.9,91.2c.4,1.9,2.1,3.2,3.9,3.2s.5,0,.8,0l20.9-4.2c1-.2,2-.8,2.6-1.7.6-.9.8-2,.6-3l-18.9-91.2c-.4-2.2-2.5-3.5-4.7-3.1Zm1.9,94.6l-17.3-83.3,13.1-2.6,17.3,83.3-13.1,2.6Z"/><path class="cls-1" d="m171.5,147.2v93.1c0,2.2,1.8,4,4,4h32c2.2,0,4-1.8,4-4v-93.1c0-2.2-1.8-4-4-4h-32c-2.2,0-4,1.8-4,4Zm8,4h24v85.1h-24v-85.1Z"/><path class="cls-1" d="m341.3,110.7c-2.2,0-4,1.8-4,4v194.9H32.7V79.6h123.8c2.2,0,4-1.8,4-4s-1.8-4-4-4H31.5c-3.7,0-6.7,3-6.7,6.7v232.5c0,3.7,3,6.7,6.7,6.7h307c3.7,0,6.7-3,6.7-6.7V114.7c0-2.2-1.8-4-4-4Z"/><path class="cls-1" d="m309.5,80.8l20.2,20.2c.8.8,1.8,1.2,2.8,1.2s2-.4,2.8-1.2c1.6-1.6,1.6-4.1,0-5.7l-20.2-20.2c-2.3-2.3-5.3-3.5-8.5-3.5h-121.7c-2.2,0-4,1.8-4,4s1.8,4,4,4h121.7c1.1,0,2.1.4,2.8,1.2Z"/><path class="cls-1" d="m120.4,165h3.7c2.2,0,4-1.8,4-4s-1.8-4-4-4h-3.7c-2.2,0-4,1.8-4,4s1.8,4,4,4Z"/><path class="cls-1" d="m156,157h-3.7c-2.2,0-4,1.8-4,4s1.8,4,4,4h3.7c2.2,0,4-1.8,4-4s-1.8-4-4-4Z"/><path class="cls-1" d="m196.9,157h-11.5c-2.2,0-4,1.8-4,4s1.8,4,4,4h11.5c2.2,0,4-1.8,4-4s-1.8-4-4-4Z"/><path class="cls-1" d="m233,156.2l-3.5.7c-2.2.4-3.6,2.5-3.1,4.7.4,1.9,2.1,3.2,3.9,3.2s.5,0,.8,0l3.5-.7c2.2-.4,3.6-2.5,3.1-4.7-.4-2.2-2.5-3.6-4.7-3.1Z"/></svg>