<?xml version="1.0" encoding="UTF-8"?><svg id="icona" xmlns="http://www.w3.org/2000/svg" width="370" height="370" viewBox="0 0 370 370"><defs><style>.cls-1{fill:#323e48;}</style></defs><path class="cls-1" d="m102,210c0,0,0,.1.1.2,0,0,.1.1.2.2,5.8,8.2,14.5,14.4,24.5,17.1,0,0,0,0,0,0,0,0,0,0,0,0,3.6,1,7.4,1.5,11.3,1.5,6.6,0,12.9-1.5,18.5-4.1,0,0,0,0,.1,0,0,0,0,0,0,0,9.3-4.4,16.8-11.9,21.1-21.1,0,0,0,0,0-.1,0,0,0,0,0-.1,2.6-5.6,4.1-11.9,4.1-18.5s-.5-7.7-1.5-11.4c0,0,0,0,0,0,0,0,0,0,0,0-2.7-10-8.8-18.6-17-24.4,0,0-.1-.1-.2-.2,0,0-.1,0-.2-.1-7.1-4.9-15.7-7.8-25-7.8s-2.5,0-3.7.2c0,0,0,0-.1,0,0,0,0,0,0,0-10.5.9-19.9,5.5-27,12.5,0,0-.1.1-.2.2,0,0-.1.1-.2.2-7,7.1-11.6,16.5-12.5,27,0,0,0,0,0,0,0,0,0,0,0,.1-.1,1.2-.2,2.5-.2,3.7,0,9.3,2.9,17.9,7.8,25Zm69.7-38.1l-5.5,1.5c-2.1.6-3.4,2.8-2.8,4.9.5,1.8,2.1,3,3.9,3s.7,0,1-.1l5.5-1.5c.3,1.8.4,3.6.4,5.4,0,4-.7,7.9-1.9,11.5l-5.2-2.4c-2-.9-4.4,0-5.3,1.9-.9,2,0,4.4,1.9,5.3l5.2,2.4c-3,4.9-7.1,9-12,12l-2.4-5.2c-.9-2-3.3-2.9-5.3-1.9-2,.9-2.9,3.3-1.9,5.3l2.4,5.2c-3.6,1.2-7.5,1.9-11.5,1.9s-3.6-.1-5.4-.4l1.5-5.5c.6-2.1-.7-4.3-2.8-4.9-2.1-.6-4.3.7-4.9,2.8l-1.5,5.5c-5.4-2.1-10.1-5.5-13.9-9.7l4.7-3.3c1.8-1.3,2.2-3.8,1-5.6-1.3-1.8-3.8-2.2-5.6-1l-4.7,3.3c-2.7-4.9-4.2-10.5-4.4-16.4l5.7.5c.1,0,.2,0,.4,0,2.1,0,3.8-1.6,4-3.7.2-2.2-1.4-4.1-3.6-4.3l-5.7-.5c1.1-5.7,3.7-11,7.2-15.3l4,4c.8.8,1.8,1.2,2.8,1.2s2-.4,2.8-1.2c1.6-1.6,1.6-4.1,0-5.7l-4-4c4.4-3.5,9.6-6,15.3-7.2l.5,5.7c.2,2.1,1.9,3.7,4,3.7s.2,0,.4,0c2.2-.2,3.8-2.1,3.6-4.3l-.5-5.7c5.9.1,11.5,1.7,16.4,4.4l-3.3,4.7c-1.3,1.8-.8,4.3,1,5.6.7.5,1.5.7,2.3.7,1.3,0,2.5-.6,3.3-1.7l3.3-4.7c4.3,3.8,7.6,8.5,9.7,13.9Z"/><path class="cls-1" d="m138.1,165.1c-11,0-19.9,8.9-19.9,19.9s8.9,19.9,19.9,19.9,19.9-8.9,19.9-19.9-8.9-19.9-19.9-19.9Zm0,31.8c-6.6,0-11.9-5.3-11.9-11.9s5.3-11.9,11.9-11.9,11.9,5.3,11.9,11.9-5.3,11.9-11.9,11.9Z"/><path class="cls-1" d="m204.3,126h5.2c.3,0,.5-.1.5-.4l1.2-4c0-.1.1-.2.2-.2h10.1c0,0,.1,0,.2.2l1.2,4c0,.3.3.4.5.4h5.2c.3,0,.5-.1.5-.4s0-.1,0-.2l-8.9-27.7c0-.3-.3-.4-.5-.4h-6.4c-.3,0-.5.1-.5.4l-8.9,27.7c0,.2,0,.3,0,.4s.2.1.4.1Zm12-21.5c0,0,0-.1.1-.1,0,0,0,0,.1.1l3.7,12.2c0,.2,0,.2-.2.2h-7.2c-.1,0-.2,0-.2-.2l3.6-12.2Z"/><path class="cls-1" d="m247.8,112.9h3v-2.4h15.4v2.4h3v-14.7h-21.4v14.7Zm3-11.9h15.4v6.6h-15.4v-6.6Z"/><path class="cls-1" d="m243.6,80.8c-1.3-1.4-3.4-3.7-6.3-6.6l-2.4,2.1c2.3,2.4,4.3,4.7,6,6.9l2.8-2.4Z"/><path class="cls-1" d="m237.7,105.9c0,1.5-.5,2.7-1.4,3.6l1.9,2.7c2.7-2.2,5.4-4.1,8-5.8-.1-.9-.2-2.1-.3-3.4-1.6,1.2-3.3,2.4-5.2,3.6v-19.3h-7.6v2.9h4.5v15.7Z"/><path class="cls-1" d="m272.8,91.3h-5v-8.4h-12.6l.6-4.6h15.3v-2.8h-25.9v2.8h7.6l-.7,4.6h-6.1v2.8h5.7l-.8,5.6h-6.8v2.8h28.6v-2.8Zm-8,0h-10.7l.8-5.6h10v5.6Z"/><path class="cls-1" d="m313.6,79.1h-18.6l1.8-.9c-.8-1.5-1.8-3.1-2.9-4.9l-3,1.4c1,1.5,1.8,3,2.5,4.4h-18.7v3h39v-3Z"/><rect class="cls-1" x="278.6" y="91.8" width="31.2" height="2.8"/><path class="cls-1" d="m279.3,113h3.2v-2.4h22.9v2.3h3.2v-14.9h-29.3v15Zm3.2-12.1h22.9v6.9h-22.9v-6.9Z"/><rect class="cls-1" x="278.6" y="85.5" width="31.2" height="2.8"/><path class="cls-1" d="m325.6,55.5h-140.6c-2.2,0-4,1.8-4,4v27.7h-42.9c-2.2,0-4,1.8-4,4s1.8,4,4,4h42.9v42.4c0,2.2,1.8,4,4,4h11.6v12.1c0,1.6,1,3.1,2.5,3.7.5.2,1,.3,1.5.3,1.1,0,2.1-.4,2.9-1.2l14.4-14.9h9.5v132.7H48.9v-44.3h14.2c2.2,0,4-1.8,4-4v-76.8c0-2.2-1.8-4-4-4h-14.2v-50.1h72.3c2.2,0,4-1.8,4-4s-1.8-4-4-4H46.5c-3.2,0-5.6,2.7-5.6,6.1v182.8c0,3.4,2.5,6.1,5.6,6.1h9.5v12c0,2.2,1.8,4,4,4h37.4c2.2,0,4-1.8,4-4v-12h72.7v12c0,2.2,1.8,4,4,4h37.4c2.2,0,4-1.8,4-4v-12h10.2c3.2,0,5.6-2.7,5.6-6.1v-134.6h90.2c2.2,0,4-1.8,4-4V59.5c0-2.2-1.8-4-4-4ZM59.1,153.3v68.8h-10.2v-68.8h10.2Zm34.3,137h-29.4v-8h29.4v8Zm118.1,0h-29.4v-8h29.4v8Zm110.1-156.7h-105.4c-1.1,0-2.1.4-2.9,1.2l-8.8,9v-6.2c0-2.2-1.8-4-4-4h-11.6V63.5h132.6v70.1Z"/></svg>