<?xml version="1.0" encoding="UTF-8"?><svg id="icona" xmlns="http://www.w3.org/2000/svg" width="370" height="370" viewBox="0 0 370 370"><defs><style>.cls-1{fill:#323e48;}</style></defs><path class="cls-1" d="m170.7,285.6c0,2.2,1.8,4,4,4h43.1c2.8,0,5-2.2,5-5v-11.6l23.7,23.7-23.8,23.8v-12c0-2.8-2.2-5-5-5h-108.8c-2.2,0-4,1.8-4,4s1.8,4,4,4h105.8v16.2c0,2,1.2,3.8,3.1,4.6.6.3,1.3.4,1.9.4,1.3,0,2.6-.5,3.5-1.5l30.4-30.4c1.1-1.1,1.8-2.6,1.8-4.2s-.6-3.1-1.8-4.2l-30.3-30.3c-1.4-1.4-3.6-1.9-5.4-1.1-1.9.8-3.1,2.6-3.1,4.6v15.8h-40.1c-2.2,0-4,1.8-4,4Z"/><path class="cls-1" d="m119.3,300.7c1,0,2-.4,2.8-1.2l8.7-8.7c.8-.8,1.8-1.2,2.8-1.2h28c2.2,0,4-1.8,4-4s-1.8-4-4-4h-28c-3.2,0-6.2,1.2-8.5,3.5l-8.7,8.7c-1.6,1.6-1.6,4.1,0,5.7.8.8,1.8,1.2,2.8,1.2Z"/><path class="cls-1" d="m134.3,119s0,0,0,0c-2-.8-4.4.1-5.2,2.1-.9,2,0,4.4,2.1,5.2.5.2,1,.3,1.6.3,1.6,0,3-.9,3.7-2.4.9-2,0-4.4-2.1-5.3Z"/><path class="cls-1" d="m109.5,113.6c-2.3-.2-4.3,1.7-4.3,4,0,2.2,1.7,3.9,3.9,4,0,0,0,0,.1,0,2.1,0,3.8-1.6,4-3.7.2-2.2-1.5-4.1-3.7-4.3Z"/><path class="cls-1" d="m110.4,248.4c-2.1,0-3.8,1.8-3.8,4s1.8,4,4,4,.2,0,.3,0c2.2-.2,3.9-2.1,3.7-4.3-.2-2.2-2-3.8-4.2-3.7Z"/><path class="cls-1" d="m122.2,115.2s0,0-.1,0c-2.2-.5-4.3.9-4.7,3.1-.5,2.1.9,4.3,3,4.7.3,0,.6.1.9.1,1.8,0,3.4-1.2,3.9-3,.5-2.1-.8-4.3-2.9-4.9Z"/><path class="cls-1" d="m176,203.3c.5-2-.7-4.1-2.7-4.8-2.1-.6-4.3.5-5,2.6,0,.2-.1.4-.1.6-.3,2.2,1.2,4.2,3.4,4.5.2,0,.4,0,.6,0,1.8,0,3.5-1.3,3.9-3.1Z"/><path class="cls-1" d="m175.6,165.1c-.6-2.1-2.9-3.3-5-2.7-2.1.6-3.3,2.8-2.7,4.9.5,1.8,2.1,2.9,3.8,2.9s.7,0,1.1-.2c2.1-.6,3.4-2.8,2.7-4.9,0,0,0,0,0,0Z"/><path class="cls-1" d="m178,177.6c-.3-2.2-2.3-3.7-4.5-3.4-2.1.3-3.6,2.2-3.4,4.3,0,0,0,0,0,.1,0,0,0,0,0,0,.2,2.1,1.9,3.7,4,3.7s4-1.8,4-4,0-.3,0-.5c0,0,0-.2,0-.2Z"/><path class="cls-1" d="m121.7,246.7c-.1,0-.3,0-.4.1-2.1.7-3.2,3-2.5,5.1.6,1.7,2.1,2.7,3.8,2.7s.7,0,1-.1c2.1-.5,3.4-2.6,2.9-4.7-.5-2.2-2.6-3.5-4.7-3.1Z"/><path class="cls-1" d="m165.1,226.4c1.3-1.8.9-4.3-.9-5.5-1.8-1.3-4.3-.9-5.6.9,0,0,0,0,0,.1-1.2,1.8-.7,4.3,1.1,5.5.7.5,1.5.7,2.2.7,1.3,0,2.5-.6,3.3-1.7Z"/><path class="cls-1" d="m171.6,215.4c1-2,.2-4.3-1.8-5.3-2-1-4.4-.2-5.4,1.8s0,0,0,.1c-.9,2,0,4.4,2,5.3.5.3,1.1.4,1.7.4,1.5,0,2.9-.8,3.6-2.3Z"/><path class="cls-1" d="m174.7,186.5c-2.2-.3-4.2,1.2-4.5,3.4,0,.2,0,.4,0,.6,0,2.2,1.8,4,4,4s3.8-1.6,4-3.7c.2-2.1-1.3-4-3.4-4.3Z"/><path class="cls-1" d="m147.4,238.2c0-1.2-.5-2.3-1.5-3.1,0,0,0,0-.1,0-1.8-1.3-4.3-1-5.6.8-1.2,1.6-1,3.8.3,5.2,0,.8.2,1.6.7,2.3.8,1.1,2,1.7,3.3,1.7.8,0,1.6-.2,2.2-.7,1.8-1.2,2.3-3.7,1.1-5.5-.1-.2-.3-.4-.5-.6Z"/><path class="cls-1" d="m155.6,132.7c-1.6-1.5-4.2-1.3-5.6.3-1.5,1.6-1.3,4.1.2,5.6.8.7,1.8,1.1,2.7,1.1s2-.4,2.8-1.2c1.6-1.6,1.6-4.1,0-5.7,0,0-.1-.1-.2-.2Z"/><path class="cls-1" d="m151.2,230.4c-1.6,1.5-1.6,3.9-.2,5.6.8.9,1.9,1.3,3,1.3s1.9-.3,2.7-1c0,0,.1-.1.2-.2,1.6-1.6,1.6-4.1,0-5.7s-4-1.6-5.6,0Z"/><path class="cls-1" d="m157.8,147.1c.8,1.1,2,1.6,3.2,1.6s1.6-.2,2.3-.8c1.8-1.3,2.2-3.8.9-5.6h0c-1.3-1.8-3.8-2.2-5.6-.9-1.8,1.3-2.2,3.8-.9,5.6Z"/><path class="cls-1" d="m170.9,153.2c-1-2-3.4-2.8-5.4-1.8-2,1-2.8,3.4-1.8,5.3.7,1.4,2.1,2.3,3.6,2.3s1.1-.1,1.7-.4c2-.9,2.9-3.3,2-5.3,0,0,0,0,0-.1Z"/><path class="cls-1" d="m134,250.8c.4,0,.9,0,1.3-.2.2,0,.3-.1.5-.2,2-1,2.8-3.4,1.8-5.4-1-1.9-3.2-2.7-5.2-1.9-1.9.8-2.9,3-2.2,5,.6,1.6,2.1,2.7,3.8,2.7Z"/><path class="cls-1" d="m47.7,207.9c-.8-2.1-3.1-3.1-5.2-2.3-2.1.8-3.1,3.1-2.3,5.2h0c.6,1.6,2.1,2.6,3.7,2.6s1,0,1.4-.3c2.1-.8,3.1-3.1,2.3-5.2Z"/><path class="cls-1" d="m52.8,218.2s0,0,0-.1c-1.2-1.9-3.7-2.4-5.5-1.2-1.8,1.2-2.4,3.6-1.3,5.4.7,1.2,2.1,1.9,3.4,1.9s1.4-.2,2-.5c1.9-1.1,2.6-3.6,1.4-5.5Z"/><path class="cls-1" d="m89.1,119.6c-.8-2-3-3-5-2.4-2.1.7-3.2,2.9-2.5,5,.5,1.7,2.1,2.8,3.8,2.8s.8,0,1.2-.2c0,0,.2,0,.3,0,2.1-.8,3.1-3.1,2.3-5.2Z"/><path class="cls-1" d="m72,242.8c-1,1.9-.3,4.4,1.6,5.4,0,0,0,0,.1,0,.6.3,1.2.4,1.8.4,1.5,0,2.9-.8,3.6-2.2s.2-4.3-1.8-5.3c-1.9-1-4.3-.3-5.4,1.7Z"/><path class="cls-1" d="m72.5,122.3c0,0-.2,0-.2.1-1.9,1.1-2.6,3.6-1.4,5.5.7,1.3,2.1,2,3.5,2s1.3-.2,1.9-.5c1.9-1,2.6-3.4,1.6-5.3-1-2-3.4-2.8-5.4-1.8Z"/><path class="cls-1" d="m50.6,147.5c-1.9-1.1-4.4-.5-5.5,1.4h0c-1.1,1.9-.5,4.4,1.4,5.5.6.4,1.3.5,2,.5,1.4,0,2.7-.7,3.5-2,1.1-1.9.5-4.4-1.4-5.5Z"/><path class="cls-1" d="m39.7,160.6c-.7,2,.3,4.3,2.3,5.1.5.2,1,.3,1.4.3,1.6,0,3.1-1,3.7-2.6,0,0,0-.2,0-.3.6-2.1-.5-4.3-2.6-5-2.1-.6-4.2.5-4.9,2.5Z"/><path class="cls-1" d="m52.6,138.5c-1.4,1.6-1.3,4.1.3,5.6.8.7,1.7,1,2.7,1s2.2-.4,3-1.3c0,0,0-.1.1-.2,1.4-1.7,1.1-4.2-.6-5.6-1.7-1.4-4.1-1.2-5.6.5Z"/><path class="cls-1" d="m41.5,201.6c2.1-.5,3.5-2.5,3.1-4.7-.4-2.1-2.4-3.5-4.5-3.2-2.2.3-3.7,2.4-3.3,4.6,0,0,0,.2,0,.2.4,1.9,2.1,3.2,3.9,3.2s.6,0,.8,0Z"/><path class="cls-1" d="m61.8,129.6s0,0,0,0c-1.7,1.4-2,3.9-.6,5.6.8,1,1.9,1.5,3.1,1.5s1.8-.3,2.5-.9c1.7-1.4,2-3.9.6-5.6-1.4-1.7-3.9-2-5.6-.6Z"/><path class="cls-1" d="m36.5,172.7c0,.1,0,.2,0,.3-.3,2.2,1.2,4.2,3.4,4.5.2,0,.4,0,.6,0,1.9,0,3.6-1.4,3.9-3.3.4-2.1-1-4.1-3-4.6-2.2-.5-4.3.8-4.8,3Z"/><path class="cls-1" d="m43.4,185.7c0-2.2-1.8-4-4-4s-4,1.8-4,4h0c0,2.2,1.8,4,4,4s4-1.8,4-4Z"/><path class="cls-1" d="m62.2,235.6c-1.4,1.7-1.1,4.2.6,5.6,0,0,.1.1.2.1.7.5,1.5.8,2.3.8,1.2,0,2.5-.6,3.2-1.6,1.3-1.8.9-4.2-.8-5.5-1.7-1.3-4.2-1-5.5.6Z"/><path class="cls-1" d="m54,226.8c-1.7,1.4-2,3.9-.6,5.6,0,0,0,.1.1.2.8.9,1.9,1.3,3,1.3s1.9-.3,2.7-1c1.6-1.5,1.8-4,.3-5.6-1.4-1.6-3.9-1.8-5.6-.5Z"/><path class="cls-1" d="m94.5,251.7c-.2,2.1,1.4,4,3.5,4.3.2,0,.3,0,.5,0,2,0,3.7-1.4,4-3.4.3-2.2-1.2-4.2-3.4-4.5,0,0-.2,0-.3,0-2.2-.2-4.1,1.5-4.3,3.7Z"/><path class="cls-1" d="m101.1,117.6c-.3-2.2-2.4-3.7-4.6-3.3l1.2,7.9c2.2-.3,3.7-2.4,3.3-4.6Z"/><path class="cls-1" d="m82.8,248.3c-.6,2.1.6,4.3,2.7,4.9l2.2-7.7c-2.1-.6-4.3.6-4.9,2.7Z"/><path class="cls-1" d="m151.8,248.3c.6.3,1.2.4,1.8.4,1.5,0,2.9-.8,3.6-2.2,1-1.9.2-4.3-1.7-5.3-1.9-1-4.3-.4-5.3,1.5-1.1,1.9-.5,4.4,1.4,5.5,0,0,.2,0,.2.1Z"/><path class="cls-1" d="m200.7,254.6c.3,0,.7,0,1-.1,2.1-.5,3.4-2.6,2.9-4.7-.5-2.2-2.6-3.5-4.7-3.1-.1,0-.3,0-.4.1-2.1.7-3.2,3-2.5,5.1.6,1.7,2.1,2.7,3.8,2.7Z"/><path class="cls-1" d="m130.8,218.1c-1.1-1.8-3.4-2.4-5.3-1.4-1.9,1.1-2.7,3.5-1.6,5.4,0,.1.1.2.2.3.8,1.2,2,1.8,3.3,1.8s1.5-.2,2.2-.7c1.8-1.2,2.3-3.6,1.2-5.4Z"/><path class="cls-1" d="m118.1,193.8c-2.2.3-3.7,2.4-3.3,4.6,0,0,0,.2,0,.2.4,1.9,2.1,3.2,3.9,3.2s.6,0,.8,0c2.1-.5,3.5-2.5,3.1-4.7-.4-2.1-2.4-3.5-4.5-3.2Z"/><path class="cls-1" d="m212.1,250.8c.4,0,.9,0,1.3-.2.2,0,.3-.1.5-.2,2-1,2.8-3.4,1.8-5.4-1-1.9-3.2-2.7-5.2-1.9-1.9.8-2.9,3-2.2,5,.6,1.6,2.1,2.7,3.8,2.7Z"/><path class="cls-1" d="m200.1,115.1c-2.2-.5-4.3.9-4.7,3.1-.5,2.1.9,4.3,3,4.7.3,0,.6.1.9.1,1.8,0,3.4-1.2,3.9-3,.5-2.1-.8-4.3-2.9-4.9,0,0,0,0-.1,0Z"/><path class="cls-1" d="m139.4,135.4c.8.9,1.9,1.3,3,1.3s1.8-.3,2.5-.9c1.4-1.1,1.9-3,1.2-4.6.2-.1.3-.3.5-.5,1.4-1.7,1.1-4.2-.6-5.6-.2-.1-.3-.2-.5-.3-1.9-1.1-4.4-.5-5.5,1.4-.6,1.1-.7,2.4-.3,3.5,0,0,0,0,0,0-1.6,1.5-1.8,4-.3,5.6Z"/><path class="cls-1" d="m123.2,158.3c-2-.9-4.4,0-5.3,2,0,.2-.1.3-.2.5-.6,2.1.5,4.3,2.6,5,.4.1.8.2,1.2.2,1.6,0,3.2-1,3.8-2.6.7-1.9-.2-4.1-2.1-5Z"/><path class="cls-1" d="m212.4,119c-2-.8-4.4.1-5.2,2.1-.9,2,0,4.4,2.1,5.2.5.2,1,.3,1.6.3,1.6,0,3-.9,3.7-2.4.9-2,0-4.4-2.1-5.3,0,0,0,0,0,0Z"/><path class="cls-1" d="m125.7,207.7c-.9-2-3.3-2.9-5.3-2-1.9.9-2.8,3.1-2.1,5,.6,1.6,2.1,2.6,3.8,2.6s.8,0,1.2-.2c2.1-.6,3.3-2.9,2.6-5,0-.2-.1-.3-.2-.5Z"/><path class="cls-1" d="m229.3,230.4c-1.6,1.5-1.6,3.9-.2,5.6.8.9,1.9,1.3,3,1.3s1.9-.3,2.7-1c0,0,.1-.1.2-.2,1.6-1.6,1.6-4.1,0-5.7s-4-1.6-5.6,0Z"/><path class="cls-1" d="m246.1,217.7c1.5,0,2.9-.8,3.6-2.3,1-2,.2-4.3-1.8-5.3-2-1-4.4-.2-5.4,1.8s0,0,0,.1c-.9,2,0,4.4,2,5.3.5.3,1.1.4,1.7.4Z"/><path class="cls-1" d="m242.3,220.9c-1.8-1.3-4.3-.9-5.6.9,0,0,0,0,0,.1-1.2,1.8-.7,4.3,1.1,5.5.7.5,1.5.7,2.2.7,1.3,0,2.5-.6,3.3-1.7,1.3-1.8.9-4.3-.9-5.5Z"/><path class="cls-1" d="m254.1,203.3c.5-2-.7-4.1-2.7-4.8-2.1-.6-4.3.5-5,2.6,0,.2-.1.4-.1.6-.3,2.2,1.2,4.2,3.4,4.5.2,0,.4,0,.6,0,1.8,0,3.5-1.3,3.9-3.1Z"/><path class="cls-1" d="m187.3,121.6c2.1,0,3.8-1.6,4-3.7.2-2.2-1.5-4.1-3.7-4.3-2.3-.2-4.3,1.7-4.3,4s1.7,3.9,3.9,4c0,0,0,0,.1,0Z"/><path class="cls-1" d="m113.5,185.7c0,2.2,1.8,4,4,4s4-1.8,4-4-1.8-4-4-4-4,1.8-4,4h0Z"/><path class="cls-1" d="m188.5,248.4c-2.1,0-3.8,1.8-3.8,4s1.8,4,4,4,.2,0,.3,0c2.2-.2,3.9-2.1,3.7-4.3-.2-2.2-2-3.8-4.2-3.7Z"/><path class="cls-1" d="m233.8,132.7c-1.6-1.5-4.2-1.3-5.6.3-1.5,1.6-1.3,4.1.2,5.6.8.7,1.8,1.1,2.7,1.1s2-.4,2.8-1.2c1.6-1.6,1.6-4.1,0-5.7,0,0-.1-.1-.2-.2Z"/><path class="cls-1" d="m114.6,172.7c0,.1,0,.2,0,.3-.3,2.2,1.2,4.2,3.4,4.5.2,0,.4,0,.6,0,1.9,0,3.6-1.4,3.9-3.3.4-2.1-1-4.1-3-4.6-2.2-.5-4.3.8-4.8,3Z"/><path class="cls-1" d="m242.4,142.4c-1.3-1.8-3.8-2.2-5.6-.9-1.8,1.3-2.2,3.8-.9,5.6.8,1.1,2,1.6,3.2,1.6s1.6-.2,2.3-.8c1.8-1.3,2.2-3.8.9-5.6h0Z"/><path class="cls-1" d="m253.7,165.1c-.6-2.1-2.9-3.3-5-2.7-2.1.6-3.3,2.8-2.7,4.9s2.1,2.9,3.8,2.9.7,0,1.1-.2c2.1-.6,3.4-2.8,2.7-4.9,0,0,0,0,0,0Z"/><path class="cls-1" d="m249,153.2c-1-2-3.4-2.8-5.4-1.8-2,1-2.8,3.4-1.8,5.3.7,1.4,2.1,2.3,3.6,2.3s1.1-.1,1.7-.4c2-.9,2.9-3.3,2-5.3s0,0,0-.1Z"/><path class="cls-1" d="m256.1,177.6c-.3-2.2-2.3-3.7-4.5-3.4-2.1.3-3.6,2.2-3.4,4.3,0,0,0,0,0,.1,0,0,0,0,0,0,.2,2.1,1.9,3.7,4,3.7s4-1.8,4-4,0-.3,0-.5c0,0,0-.2,0-.2Z"/><path class="cls-1" d="m256.3,190.8c.2-2.1-1.3-4-3.4-4.3-2.2-.3-4.2,1.2-4.5,3.4,0,.2,0,.4,0,.6,0,2.2,1.8,4,4,4s3.8-1.6,4-3.7Z"/><path class="cls-1" d="m132.3,226.7c-1.8,1.3-2.2,3.8-.9,5.6.1.2.3.3.4.5.8.8,1.8,1.2,2.8,1.2s2-.4,2.8-1.2c1.5-1.5,1.6-3.9.2-5.5-1.3-1.5-3.7-1.8-5.4-.6Z"/><path class="cls-1" d="m150.6,122.3c0,0-.2,0-.2.1-1.9,1.1-2.6,3.6-1.4,5.5.7,1.3,2.1,2,3.5,2s1.3-.2,1.9-.5c1.9-1,2.6-3.4,1.6-5.3-1-2-3.4-2.8-5.4-1.8Z"/><path class="cls-1" d="m162.2,117.2c-2,.7-3.2,2.8-2.6,4.9.5,1.8,2.1,2.9,3.8,2.9s.7,0,1.1-.2c.1,0,.3,0,.4-.2,2-.9,3-3.2,2.2-5.2-.8-2-3-2.9-5-2.3Z"/><path class="cls-1" d="m168.6,250.5c.6-2.1-.6-4.3-2.7-4.9-2.1-.6-4.3.5-5,2.6-.7,2.1.4,4.4,2.5,5.1,0,0,.1,0,.2,0,.4.1.7.2,1.1.2,1.7,0,3.3-1.1,3.8-2.9Z"/><path class="cls-1" d="m174.6,114.3c-2.2.3-3.7,2.3-3.4,4.5.3,2,2,3.4,4,3.4s.4,0,.6,0c0,0,0,0,.1,0,2.2-.4,3.7-2.4,3.3-4.6-.4-2.2-2.4-3.6-4.5-3.3Z"/><path class="cls-1" d="m176.1,255.9c.2,0,.3,0,.5,0,2,0,3.7-1.4,4-3.4.3-2.2-1.2-4.2-3.4-4.5,0,0-.2,0-.2,0-2.2-.2-4.1,1.5-4.3,3.7-.2,2.2,1.4,4,3.5,4.3Z"/><path class="cls-1" d="m123.4,148.8c0,.1-.2.3-.3.4-1,2-.2,4.4,1.8,5.4.6.3,1.2.4,1.8.4,1.4,0,2.8-.7,3.5-2,1-1.8.5-4.1-1.3-5.3-1.8-1.2-4.3-.7-5.5,1.1Z"/><path class="cls-1" d="m130.8,138.5c0,0-.1.1-.2.2-1.4,1.7-1.1,4.2.6,5.6.7.6,1.6.9,2.5.9s2.3-.5,3.1-1.4c1.4-1.6,1.2-4.1-.4-5.5-1.6-1.5-4.2-1.4-5.7.3Z"/><path class="cls-1" d="m257.8,113.5c-36.2,0-66.7,27.1-71,63-.3,2.2,1.3,4.2,3.5,4.4,2.2.3,4.2-1.3,4.4-3.5,2.3-19.1,12.9-35.4,28-45.4.6-.2,1.2-.6,1.7-1.1,9.7-6,21.2-9.5,33.3-9.5,35,0,63.5,28.5,63.5,63.5s-28.5,63.5-63.5,63.5-21.9-2.9-31.1-8.2c0-.5-.3-1.1-.6-1.6-1-1.5-2.8-2.1-4.5-1.6-12.2-8.5-21.4-21.2-25.3-36.4-.5-2.1-2.7-3.4-4.9-2.9-2.1.5-3.4,2.7-2.9,4.9,8.1,31.7,36.5,53.8,69.3,53.8s71.5-32.1,71.5-71.5-32.1-71.5-71.5-71.5Z"/></svg>