<?xml version="1.0" encoding="UTF-8"?><svg id="icona" xmlns="http://www.w3.org/2000/svg" width="370" height="370" viewBox="0 0 370 370"><defs><style>.cls-1{fill:#323e48;}</style></defs><path class="cls-1" d="m138.4,255c27.3,0,52-11.5,69.6-29.8l9.9,9.9c.8.8,1.8,1.2,2.8,1.2s2-.4,2.8-1.2c1.6-1.6,1.6-4.1,0-5.7l-10.3-10.3c13.3-16.5,21.3-37.5,21.3-60.3,0-53-43.1-96.2-96.2-96.2s-96.2,43.1-96.2,96.2,43.1,96.2,96.2,96.2Zm0-184.3c48.6,0,88.2,39.6,88.2,88.2s-39.6,88.2-88.2,88.2-88.2-39.6-88.2-88.2,39.6-88.2,88.2-88.2Z"/><path class="cls-1" d="m329.6,305.2c0-2.2-1.8-4-4-4h-53.2c-3.2,0-6.2-1.2-8.4-3.5l-35.9-35.5c-1.6-1.6-4.1-1.5-5.7,0-1.6,1.6-1.5,4.1,0,5.7l35.9,35.5c3.8,3.8,8.8,5.8,14.1,5.8h53.2c2.2,0,4-1.8,4-4Z"/><path class="cls-1" d="m302.8,288.1c.8.7,1.8,1.1,2.8,1.1s2.1-.4,2.9-1.2c1.5-1.6,1.5-4.1-.1-5.7l-62.4-59.3c-1.6-1.5-4.1-1.5-5.6,0l-28.9,28.9c-1.6,1.6-1.6,4.1,0,5.7,1.6,1.6,4.1,1.6,5.7,0l26.1-26.1,59.6,56.7Z"/><path class="cls-1" d="m62,187.7c.8.8,1.8,1.2,2.8,1.2s2-.4,2.8-1.2l47.3-47.3,27.3,27.3c1.5,1.5,4.1,1.6,5.6,0l43.2-42.1v18.2c0,2.2,1.8,4,4,4s4-1.8,4-4v-28.4c0-2.2-1.8-4-4-4h-29.6c-2.2,0-4,1.8-4,4s1.8,4,4,4h20.5l-40.8,39.8-27.3-27.3c-1.6-1.6-4.1-1.6-5.7,0l-50.2,50.2c-1.6,1.6-1.6,4.1,0,5.7Z"/><path class="cls-1" d="m104.9,162c-2.2,0-4,1.8-4,4v39c0,2.2,1.8,4,4,4s4-1.8,4-4v-39c0-2.2-1.8-4-4-4Z"/><path class="cls-1" d="m84.9,181.5c-2.2,0-4,1.8-4,4v19.5c0,2.2,1.8,4,4,4s4-1.8,4-4v-19.5c0-2.2-1.8-4-4-4Z"/><path class="cls-1" d="m125,177.7c-2.2,0-4,1.8-4,4v23.2c0,2.2,1.8,4,4,4s4-1.8,4-4v-23.2c0-2.2-1.8-4-4-4Z"/><path class="cls-1" d="m145,186c-2.2,0-4,1.8-4,4v15c0,2.2,1.8,4,4,4s4-1.8,4-4v-15c0-2.2-1.8-4-4-4Z"/><path class="cls-1" d="m165.1,171.1c-2.2,0-4,1.8-4,4v29.9c0,2.2,1.8,4,4,4s4-1.8,4-4v-29.9c0-2.2-1.8-4-4-4Z"/><path class="cls-1" d="m185.2,151.1c-2.2,0-4,1.8-4,4v49.9c0,2.2,1.8,4,4,4s4-1.8,4-4v-49.9c0-2.2-1.8-4-4-4Z"/></svg>