<?xml version="1.0" encoding="UTF-8"?><svg id="icona" xmlns="http://www.w3.org/2000/svg" width="370" height="370" viewBox="0 0 370 370"><defs><style>.cls-1{fill:#323e48;}</style></defs><path class="cls-1" d="m319.4,45.8c-.5,0-.9,0-1.3.2.1-.1.3-.2.4-.4,1.6-1.6,1.6-4.1,0-5.7l-8.5-8.5c-1.4-1.4-3.2-2.2-5.2-2.2h-51.2c-2.2,0-4,1.8-4,4s1.8,4,4,4h50.9l8.3,8.3c.8.8,1.8,1.2,2.8,1.2s.9,0,1.3-.2c-1,.7-1.6,1.9-1.6,3.2v79.7h-123.5V37.4h49.8c2.2,0,4-1.8,4-4s-1.8-4-4-4h-52.6c-2.8,0-5.1,2.3-5.1,5.1v52.7h-45.8c-2.2,0-4,1.8-4,4s1.8,4,4,4h45.8v37.1c0,2.8,2.3,5.1,5.1,5.1h38.4c0,0,0,.1,0,.2v136.7H48.9v-44.3h14.2c2.2,0,4-1.8,4-4v-76.8c0-2.2-1.8-4-4-4h-14.2v-50.1h72.3c2.2,0,4-1.8,4-4s-1.8-4-4-4H46.5c-3.2,0-5.6,2.7-5.6,6.1v182.8c0,3.4,2.5,6.1,5.6,6.1h9.5v12c0,2.2,1.8,4,4,4h37.4c2.2,0,4-1.8,4-4v-12h72.7v12c0,2.2,1.8,4,4,4h37.4c2.2,0,4-1.8,4-4v-12h10.2c3.2,0,5.6-2.7,5.6-6.1v-138.6c0,0,0-.1,0-.2h82.9c2.8,0,5.1-2.3,5.1-5.1V49.8c0-2.2-1.8-4-4-4ZM59.1,153.3v68.8h-10.2v-68.8h10.2Zm34.3,137h-29.4v-8h29.4v8Zm118.1,0h-29.4v-8h29.4v8Z"/><path class="cls-1" d="m303.2,42.2h-105.2c-2.2,0-4,1.8-4,4s1.8,4,4,4h105.2c2.2,0,4-1.8,4-4s-1.8-4-4-4Z"/><path class="cls-1" d="m194.5,55v69.2c0,.7.6,1.3,1.3,1.3h115.8c.7,0,1.3-.6,1.3-1.3V55c0-.7-.6-1.3-1.3-1.3h-115.8c-.7,0-1.3.6-1.3,1.3Zm8,6.7h102.3v55.7h-102.3v-55.7Z"/><path class="cls-1" d="m102,210c0,0,0,.1.1.2,0,0,.1.1.2.2,5.8,8.2,14.4,14.4,24.5,17.1,0,0,0,0,0,0,0,0,0,0,0,0,3.6,1,7.4,1.5,11.3,1.5,6.6,0,12.9-1.5,18.5-4.1,0,0,0,0,.1,0,0,0,0,0,0,0,9.3-4.4,16.8-11.9,21.1-21.1,0,0,0,0,0-.1,0,0,0,0,0-.1,2.6-5.6,4.1-11.9,4.1-18.5s-.5-7.7-1.5-11.4c0,0,0,0,0,0,0,0,0,0,0,0-2.7-10-8.8-18.6-17-24.4,0,0-.1-.1-.2-.2,0,0-.1,0-.2-.1-7.1-4.9-15.7-7.8-25-7.8s-2.5,0-3.7.2c0,0,0,0-.1,0,0,0,0,0,0,0-10.5.9-19.9,5.5-27,12.5,0,0-.1.1-.2.2,0,0-.1.1-.2.2-7,7.1-11.6,16.5-12.5,27,0,0,0,0,0,0,0,0,0,0,0,.1-.1,1.2-.2,2.5-.2,3.7,0,9.3,2.9,17.9,7.8,25Zm69.7-38.1l-5.5,1.5c-2.1.6-3.4,2.8-2.8,4.9.5,1.8,2.1,3,3.9,3s.7,0,1-.1l5.5-1.5c.3,1.8.4,3.6.4,5.4,0,4-.7,7.9-1.9,11.5l-5.2-2.4c-2-.9-4.4,0-5.3,1.9-.9,2,0,4.4,1.9,5.3l5.2,2.4c-3,4.9-7.1,9-12,12l-2.4-5.2c-.9-2-3.3-2.9-5.3-1.9-2,.9-2.9,3.3-1.9,5.3l2.4,5.2c-3.6,1.2-7.5,1.9-11.5,1.9s-3.6-.1-5.4-.4l1.5-5.5c.6-2.1-.7-4.3-2.8-4.9-2.1-.6-4.3.7-4.9,2.8l-1.5,5.5c-5.4-2.1-10.1-5.5-13.9-9.7l4.7-3.3c1.8-1.3,2.2-3.8,1-5.6-1.3-1.8-3.8-2.2-5.6-1l-4.7,3.3c-2.7-4.9-4.2-10.5-4.4-16.4l5.7.5c.1,0,.2,0,.4,0,2.1,0,3.8-1.6,4-3.7.2-2.2-1.4-4.1-3.6-4.3l-5.7-.5c1.1-5.7,3.7-11,7.2-15.3l4,4c.8.8,1.8,1.2,2.8,1.2s2-.4,2.8-1.2c1.6-1.6,1.6-4.1,0-5.7l-4-4c4.4-3.5,9.6-6,15.3-7.2l.5,5.7c.2,2.1,1.9,3.7,4,3.7s.2,0,.4,0c2.2-.2,3.8-2.1,3.6-4.3l-.5-5.7c5.9.1,11.5,1.7,16.4,4.4l-3.3,4.7c-1.3,1.8-.8,4.3,1,5.6.7.5,1.5.7,2.3.7,1.3,0,2.5-.6,3.3-1.7l3.3-4.7c4.3,3.8,7.6,8.5,9.7,13.9Z"/><path class="cls-1" d="m138.1,165.1c-11,0-19.9,8.9-19.9,19.9s8.9,19.9,19.9,19.9,19.9-8.9,19.9-19.9-8.9-19.9-19.9-19.9Zm0,31.8c-6.6,0-11.9-5.3-11.9-11.9s5.3-11.9,11.9-11.9,11.9,5.3,11.9,11.9-5.3,11.9-11.9,11.9Z"/></svg>