<?xml version="1.0" encoding="UTF-8"?><svg id="icona" xmlns="http://www.w3.org/2000/svg" width="370" height="370" viewBox="0 0 370 370"><defs><style>.cls-1{fill:#323e48;}</style></defs><path class="cls-1" d="m333.3,201.1c-.3-1.8-1.9-3.2-3.7-3.3l-16.7-1c0-4.7-.2-9.5-.7-14.2-.6-4.7-1.4-9.4-2.6-13.9l16-4.8c1-.3,1.9-1,2.4-1.9.5-.9.6-2.1.3-3.1-5.3-17.6-14.1-33.5-26.4-47.2-.2-.2-.5-.5-.7-.6-1.5-1.1-3.6-.9-5,.3l-12.5,11.1c-3.3-3.4-6.8-6.6-10.5-9.5-3.7-2.9-7.6-5.6-11.7-8l8-14.8c1-1.9.3-4.3-1.6-5.4-16.1-8.7-33.7-13.7-52-14.7-.3,0-.6,0-.9,0-1.8.3-3.2,1.9-3.3,3.7l-1,16.7c-4.7,0-9.5.2-14.2.7-4.7.6-9.4,1.4-13.9,2.6l-4.8-16.1c-.6-2.1-2.9-3.3-5-2.7-17.6,5.3-33.5,14.1-47.2,26.4,0,0,0,0,0,0,0,0,0,0-.1.1-.1.1-.3.3-.4.5,0,0,0,0,0,0-1.1,1.5-1,3.6.3,5l13.6,15.3c.8.9,1.9,1.3,3,1.3s1.9-.3,2.7-1c1.6-1.5,1.8-4,.3-5.6l-10.9-12.2c11.1-9.3,23.6-16.3,37.3-20.9l4.8,15.9c.6,2.1,2.9,3.3,5,2.7,0,0,.1,0,.2,0,5.3-1.6,10.7-2.7,16.3-3.3,5.6-.7,11.2-.8,16.8-.5,2,.1,3.9-1.3,4.2-3.4v-.2c0-.1,0-.3,0-.4l.9-16.4c14.4,1.3,28.2,5.2,41.2,11.6l-7.9,14.6s0,0,0,0c-1,1.9-.3,4.4,1.6,5.4,0,0,.1,0,.2.1,4.8,2.6,9.5,5.7,13.8,9.1,4.4,3.5,8.5,7.3,12.2,11.5,1.4,1.5,3.7,1.8,5.3.6h.2c.1-.2.2-.3.3-.4l12.2-10.9c9.3,11.1,16.3,23.7,20.9,37.4l-15.9,4.8c-2.1.6-3.3,2.9-2.7,5,0,0,0,.1,0,.2,1.6,5.3,2.7,10.8,3.3,16.3.7,5.6.8,11.2.5,16.8-.1,2.1,1.3,3.9,3.4,4.2h.2c.1,0,.3,0,.4,0l16.4.9c-1.3,14.4-5.2,28.2-11.6,41.2l-14.6-7.9s0,0,0,0c-1.9-1-4.4-.3-5.4,1.6,0,0,0,.1-.1.2-2.6,4.8-5.7,9.5-9.1,13.8-3.5,4.4-7.3,8.5-11.5,12.2-1.6,1.5-1.8,4-.3,5.6.8.9,1.9,1.3,3,1.3s1.9-.3,2.7-1c4.5-4,8.7-8.5,12.4-13.2,2.9-3.7,5.6-7.6,8-11.7l14.8,7.9s0,0,.1,0c1.9,1,4.3.2,5.3-1.7,8.7-16.1,13.7-33.7,14.7-52,0-.3,0-.6,0-.9Z"/><path class="cls-1" d="m181.8,179.7c15.3,0,27.7-16.2,27.7-36.2s0-.2,0-.3c0-.3,0-.5,0-.8,0-5.3-1.6-10.3-4.5-14.4,0-1-.5-1.9-1.2-2.6-.5-.5-1.1-.8-1.7-.9-5.1-5.3-12.3-8.6-20.3-8.6-15.3,0-27.7,11.9-27.7,26.6s0,.5,0,.8c0,.1,0,.2,0,.3,0,20,12.4,36.2,27.7,36.2Zm0-55.8c5,0,9.5,1.7,12.9,4.6-9.1,6.5-21.1,5.8-21.3,5.8-2.2-.2-4.1,1.5-4.3,3.7-.2,2.2,1.5,4.1,3.7,4.3.1,0,.8,0,2,0,4.5,0,15.6-.8,24.9-7.5,1.1,2.3,1.8,4.9,1.8,7.7s0,.6,0,.9c0,.2,0,.4,0,.6-.2,15.3-8.9,27.7-19.7,27.7s-19.5-12.4-19.7-27.7c0-.2,0-.4,0-.7,0-.3,0-.6,0-.9,0-10.2,8.8-18.6,19.7-18.6Z"/><path class="cls-1" d="m122.2,185c-2.2,0-4,1.8-4,4s0,.4,0,.7c0,.2,0,.4,0,.6-.2,11.5-6.8,21.1-14.8,21.1s-14.8-9.8-14.8-21.5v-.6c6.7.5,18.8-.4,27.8-11,1.4-1.7,1.2-4.2-.4-5.6-1.7-1.4-4.2-1.2-5.6.4-9.7,11.3-24.1,7.9-24.7,7.7-1.2-.3-2.5,0-3.5.7s-1.6,1.9-1.6,3.2v5.2c0,16.3,10.2,29.5,22.8,29.5s22.8-13.2,22.8-29.5,0-.2,0-.3c0-.2,0-.4,0-.6,0-2.2-1.8-4-4-4Z"/><path class="cls-1" d="m261,281.2l-14.6,15c-.2.2-.2.2-.3.3-.4.4-3.3,2.9-10.6,2.9h-53.6c-2.2,0-4,1.8-4,4s1.8,4,4,4h53.6c11,0,15.6-4.5,16.8-5.7l14.5-14.9c1.5-1.6,1.5-4.1,0-5.7-1.6-1.5-4.1-1.5-5.7,0Z"/><path class="cls-1" d="m136.8,189.2c0-13.3-7.2-38.4-33.4-38.4s-23.6,6-28.6,17.8c-4.1,9.7-4.4,21.7-4.8,32.3v3c-.7,18.7-9.2,26.3-9.7,26.7-5.6,4.3-6.4,8.6-6.5,9.5,0,0,0,.1,0,.2,0,0-.3,4.2-1.5,14.3,0,.6,0,1.2.2,1.8,8.7,25.3,37.6,49.1,38.8,50.1.7.6,1.6.9,2.5.9h68.5c2.2,0,4-1.8,4-4s-1.8-4-4-4h-8.3l.3-59.3c0-.3,0-.5,0-.8-.2-1-1.6-5.9-9.3-10.4,0,0,0,0,0,0-3.5-2.5-5.6-8.9-6.8-16.2.1-.4.2-.9.1-1.3-.3-3.7.1-8.8,1.2-10.2,6.8-8.6,26.5-10.4,41.8-10.4,33.6,0,42.2,10,43.1,11.3.9,2.6,1.8,15.9,2.1,26.9,0,2.2,1.8,3.9,4,3.9s0,0,.1,0c2.2,0,4-1.9,3.9-4.1-.5-17.8-1.6-28.2-3.3-30.9-1.6-2.5-11.5-15.1-49.9-15.1s-36.3,3.2-44.5,9.9c0-1.1,0-2.1.1-3.1,0,0,0-.2,0-.2Zm9.2,110.1h-10.4v-42.6c0-2.2-1.8-4-4-4s-4,1.8-4,4v42.6h-32.3c-5.2-4.4-27.5-24.4-34.9-44.7,1-8.4,1.3-12.5,1.4-13.6.3-1.1,4.7-12.2,41.6-12.2s42,10,42.9,11.8l-.2,58.6Zm-42.6-78.5c-13,0-22.5,1.4-29.6,3.4,2.1-5,3.8-11.6,4.1-20.1,0-1,0-2,0-3,.8-24.8,3.1-42.4,25.3-42.4s25.4,28.1,25.4,30.4c-.2,3.2-.9,21.6,3.8,34.9-7.1-1.9-16.6-3.1-29.3-3.1Z"/></svg>