<?xml version="1.0" encoding="UTF-8"?><svg id="icona" xmlns="http://www.w3.org/2000/svg" width="370" height="370" viewBox="0 0 370 370"><defs><style>.cls-1{fill:#323e48;}</style></defs><path class="cls-1" d="m184.8,190.9c23.3,0,42.3-25.1,42.3-56s0-.3,0-.4c0-.4,0-.9,0-1.3,0-22.3-19-40.5-42.3-40.5s-42.3,18.2-42.3,40.5,0,.9,0,1.3c0,.1,0,.3,0,.4,0,30.9,19,56,42.3,56Zm0-90.3c18.9,0,34.3,14.6,34.3,32.5s0,1,0,1.6c0,.3,0,.5,0,.8-.2,26.2-15.5,47.5-34.3,47.5s-34.1-21.2-34.3-47.5c0-.3,0-.5,0-.8,0-.5,0-1,0-1.6,0-17.9,15.4-32.5,34.3-32.5Z"/><path class="cls-1" d="m104,222.8c-.2.4-.3.9-.3,1.4l-1.7,37.4c0,2.2,1.6,4.1,3.8,4.2,2.2,0,4.1-1.6,4.2-3.8l1.6-36.5c2.1-3.4,16.3-22.3,73.4-22.3s68.6,16.3,70.1,19l3.9,66c.1,2.1,1.9,3.8,4,3.8s.2,0,.2,0c2.2-.1,3.9-2,3.8-4.2l-4-66.7c0-.3,0-.7-.2-1-.8-2.5-10.1-24.8-77.8-24.8s-80.6,26.5-81.1,27.6Z"/><path class="cls-1" d="m132.2,241.5v40.5c0,2.2,1.8,4,4,4s4-1.8,4-4v-40.5c0-2.2-1.8-4-4-4s-4,1.8-4,4Z"/><path class="cls-1" d="m226,241.5v45.8c0,2.2,1.8,4,4,4s4-1.8,4-4v-45.8c0-2.2-1.8-4-4-4s-4,1.8-4,4Z"/><path class="cls-1" d="m103.3,279.6l24.4,23.4c2.2,2.1,5.1,3.3,8.2,3.3h127.3c2.2,0,4-1.8,4-4s-1.8-4-4-4h-127.3c-1,0-1.9-.4-2.6-1.1l-24.4-23.4c-1.6-1.5-4.1-1.5-5.7.1-1.5,1.6-1.5,4.1.1,5.7Z"/></svg>