<?xml version="1.0" encoding="utf-8"?>
<!-- Generator: Adobe Illustrator 27.6.1, SVG Export Plug-In . SVG Version: 6.00 Build 0)  -->
<svg version="1.1" xmlns="http://www.w3.org/2000/svg" xmlns:xlink="http://www.w3.org/1999/xlink" x="0px" y="0px"
	 viewBox="0 0 500 500" style="enable-background:new 0 0 500 500;" xml:space="preserve">
<style type="text/css">
	.st0{fill:none;stroke:#323E48;stroke-width:8;stroke-linecap:round;stroke-linejoin:round;stroke-miterlimit:10;}
	.st1{fill:#323E48;stroke:#323E48;stroke-width:8;stroke-linecap:round;stroke-linejoin:round;stroke-miterlimit:10;}
	.st2{fill:#323E48;}
	.st3{fill:none;stroke:#323E48;stroke-width:8;stroke-linecap:round;stroke-linejoin:round;}
	.st4{fill:none;stroke:#323E48;stroke-width:8;stroke-linecap:round;stroke-linejoin:round;stroke-dasharray:1.066000e-02,12.792;}
	.st5{fill:none;stroke:#323E48;stroke-width:8;stroke-linecap:round;stroke-linejoin:round;stroke-dasharray:1.108697e-02,13.3044;}
	
		.st6{fill:none;stroke:#323E48;stroke-width:8;stroke-linecap:round;stroke-linejoin:round;stroke-miterlimit:10;stroke-dasharray:1.000000e-02,12;}
	.st7{fill:none;stroke:#323E48;stroke-width:8;stroke-linecap:round;stroke-linejoin:round;stroke-dasharray:1.077703e-02,12.9324;}
	.st8{fill:none;stroke:#323E48;stroke-width:8;stroke-linecap:round;stroke-linejoin:round;stroke-dasharray:0,11.7463;}
	.st9{fill:none;stroke:#323E48;stroke-width:8;stroke-linecap:round;stroke-linejoin:round;stroke-dasharray:1.020348e-02,12.2442;}
	.st10{fill:none;stroke:#323E48;stroke-width:8;stroke-linecap:round;stroke-linejoin:round;stroke-dasharray:0,11.8406;}
	.st11{fill:none;stroke:#323E48;stroke-width:8;stroke-linecap:round;stroke-linejoin:round;stroke-dasharray:0,11.854;}
	
		.st12{fill:none;stroke:#323E48;stroke-width:8;stroke-linecap:round;stroke-linejoin:round;stroke-dasharray:1.008569e-02,12.1028;}
	.st13{fill:#020203;}
	
		.st14{clip-path:url(#SVGID_00000000921262718946499300000009347864798567671173_);fill:url(#SVGID_00000142857826051130944030000003665446674989907608_);}
	
		.st15{clip-path:url(#SVGID_00000160895841795237472930000017194088711653129885_);fill:url(#SVGID_00000070840756525407077440000003995682471208187019_);}
	
		.st16{clip-path:url(#SVGID_00000124150665338201915330000005194121319762747327_);fill:url(#SVGID_00000097478532006721288210000001311817542657192108_);}
	
		.st17{clip-path:url(#SVGID_00000181068637060009368030000017198997363018381728_);fill:url(#SVGID_00000175315653802814528920000011548304585145035687_);}
	
		.st18{clip-path:url(#SVGID_00000070086147119034375200000006195054633213461918_);fill:url(#SVGID_00000140004503552157953920000000191031619721217446_);}
	
		.st19{clip-path:url(#SVGID_00000036209678984443184890000009287871036848182663_);fill:url(#SVGID_00000038392119162619133870000006163380668390161566_);}
	
		.st20{clip-path:url(#SVGID_00000044153069042655992040000018199381562793527706_);fill:url(#SVGID_00000144322621019614121620000015016186907335279797_);}
	
		.st21{clip-path:url(#SVGID_00000049218178750223680070000013194177892086598323_);fill:url(#SVGID_00000083076433845289472920000010356112127291030439_);}
	
		.st22{clip-path:url(#SVGID_00000128476233211451084890000005034377706117594281_);fill:url(#SVGID_00000034796668743547302340000007727076523704579492_);}
	
		.st23{clip-path:url(#SVGID_00000171721967156423376330000013687732639508164228_);fill:url(#SVGID_00000116922036604944368770000011341747460952610455_);}
	
		.st24{clip-path:url(#SVGID_00000007417974388153570580000001246322714178040462_);fill:url(#SVGID_00000012451022946467637340000010955743018681320832_);}
	
		.st25{clip-path:url(#SVGID_00000155110317888841480040000000136076845208143262_);fill:url(#SVGID_00000155863958104856713850000001374636477917563796_);}
	
		.st26{clip-path:url(#SVGID_00000160153874048686176480000017941954311794232228_);fill:url(#SVGID_00000139267738178677161560000002712780875638428046_);}
	
		.st27{clip-path:url(#SVGID_00000159471853566654793800000015493767363926146959_);fill:url(#SVGID_00000158721831210821265830000006754890556121024178_);}
	
		.st28{clip-path:url(#SVGID_00000056409114783426664440000003276344324893402244_);fill:url(#SVGID_00000123436235824744119510000012779968873199134636_);}
	
		.st29{clip-path:url(#SVGID_00000096741299672898133370000017325003730065559967_);fill:url(#SVGID_00000163791998525307823650000017591924551100840860_);}
	
		.st30{clip-path:url(#SVGID_00000062192050968526924510000014854029906691426746_);fill:url(#SVGID_00000065753479934604612270000017239429286695634854_);}
	
		.st31{clip-path:url(#SVGID_00000172441141604036040500000014409320867519650719_);fill:url(#SVGID_00000168829617788220539340000013209139565627879603_);}
	
		.st32{clip-path:url(#SVGID_00000062169784771109340940000012538817660714605701_);fill:url(#SVGID_00000039093710476800414350000008380218568968193172_);}
	
		.st33{clip-path:url(#SVGID_00000111167191849149595970000005713066804551588016_);fill:url(#SVGID_00000133523636235402674810000010042106084994570398_);}
	.st34{display:none;}
	.st35{display:inline;fill:none;stroke:#E6007E;stroke-width:0.25;stroke-miterlimit:10;}
	.st36{display:inline;opacity:8.000000e-02;fill:#E6007E;}
</style>
<g id="ICONE">
	<path class="st0" d="M279.3,213.2c0-15.5-13.2-28.1-29.5-28.1s-29.5,12.6-29.5,28.1c0,0.5,0,0.9,0,1.4h0
		c0,22.2,13.2,40.1,29.5,40.1s29.5-18,29.5-40.1h0C279.3,214.1,279.3,213.7,279.3,213.2z"/>
	<path class="st0" d="M310.2,332.7l-3.1-51.5c0,0-5.6-17-57.1-17s-59.7,19.4-59.7,19.4l-1.3,28.8"/>
	<line class="st0" x1="212.2" y1="296.9" x2="212.2" y2="328.1"/>
	<line class="st0" x1="284.6" y1="296.9" x2="284.6" y2="332.2"/>
	<path class="st0" d="M189,324l18.8,18.1c1.1,1.1,2.6,1.7,4.2,1.7h98.2"/>
</g>
<g id="GRIGLIA_BASE" class="st34">
	<line class="st35" x1="0" y1="62.5" x2="500" y2="62.5"/>
	<line class="st35" x1="0" y1="78.1" x2="500" y2="78.1"/>
	<line class="st35" x1="0" y1="109.4" x2="500" y2="109.4"/>
	<line class="st35" x1="0" y1="140.6" x2="500" y2="140.6"/>
	<line class="st35" x1="0" y1="390.6" x2="500" y2="390.6"/>
	<line class="st35" x1="0" y1="93.8" x2="500" y2="93.8"/>
	<line class="st35" x1="0" y1="156.2" x2="500" y2="156.2"/>
	<line class="st35" x1="0" y1="171.9" x2="500" y2="171.9"/>
	<line class="st35" x1="0" y1="203.1" x2="500" y2="203.1"/>
	<line class="st35" x1="0" y1="234.4" x2="500" y2="234.4"/>
	<line class="st35" x1="0" y1="265.6" x2="500" y2="265.6"/>
	<line class="st35" x1="0" y1="218.8" x2="500" y2="218.8"/>
	<line class="st35" x1="0" y1="281.2" x2="500" y2="281.2"/>
	<line class="st35" x1="0" y1="296.9" x2="500" y2="296.9"/>
	<line class="st35" x1="0" y1="328.1" x2="500" y2="328.1"/>
	<line class="st35" x1="0" y1="359.4" x2="500" y2="359.4"/>
	<line class="st35" x1="0" y1="343.8" x2="500" y2="343.8"/>
	<line class="st35" x1="0" y1="406.2" x2="500" y2="406.2"/>
	<line class="st35" x1="0" y1="421.9" x2="500" y2="421.9"/>
	<line class="st35" x1="0" y1="125" x2="500" y2="125"/>
	<line class="st35" x1="0" y1="187.5" x2="500" y2="187.5"/>
	<line class="st35" x1="0" y1="312.5" x2="500" y2="312.5"/>
	<line class="st35" x1="0" y1="250" x2="500" y2="250"/>
	<line class="st35" x1="0" y1="375" x2="500" y2="375"/>
	<line class="st35" x1="0" y1="437.5" x2="500" y2="437.5"/>
	<line class="st35" x1="437.5" y1="0" x2="437.5" y2="500"/>
	<line class="st35" x1="375" y1="0" x2="375" y2="500"/>
	<line class="st35" x1="312.5" y1="0" x2="312.5" y2="500"/>
	<line class="st35" x1="187.5" y1="0" x2="187.5" y2="500"/>
	<line class="st35" x1="250" y1="0" x2="250" y2="500"/>
	<line class="st35" x1="265.6" y1="0" x2="265.6" y2="500"/>
	<line class="st35" x1="296.9" y1="0" x2="296.9" y2="500"/>
	<line class="st35" x1="328.1" y1="0" x2="328.1" y2="500"/>
	<line class="st35" x1="125" y1="0" x2="125" y2="500"/>
	<line class="st35" x1="140.6" y1="0" x2="140.6" y2="500"/>
	<line class="st35" x1="171.9" y1="0" x2="171.9" y2="500"/>
	<line class="st35" x1="203.1" y1="0" x2="203.1" y2="500"/>
	<line class="st35" x1="234.4" y1="0" x2="234.4" y2="500"/>
	<line class="st35" x1="156.2" y1="0" x2="156.2" y2="500"/>
	<line class="st35" x1="218.8" y1="0" x2="218.8" y2="500"/>
	<line class="st35" x1="281.2" y1="0" x2="281.2" y2="500"/>
	<line class="st35" x1="343.8" y1="0" x2="343.8" y2="500"/>
	<line class="st35" x1="359.4" y1="0" x2="359.4" y2="500"/>
	<line class="st35" x1="390.6" y1="0" x2="390.6" y2="500"/>
	<line class="st35" x1="406.2" y1="0" x2="406.2" y2="500"/>
	<line class="st35" x1="421.9" y1="0" x2="421.9" y2="500"/>
	<line class="st35" x1="93.8" y1="0" x2="93.8" y2="500"/>
	<line class="st35" x1="78.1" y1="0" x2="78.1" y2="500"/>
	<line class="st35" x1="109.4" y1="0" x2="109.4" y2="500"/>
	<line class="st35" x1="62.5" y1="0" x2="62.5" y2="500"/>
	<line class="st35" x1="0" y1="0" x2="500" y2="500"/>
	<line class="st35" x1="500" y1="0" x2="0" y2="500"/>
	<line class="st35" x1="250" y1="0" x2="0" y2="250"/>
	<line class="st35" x1="500" y1="250" x2="250" y2="500"/>
	<line class="st35" x1="0" y1="250" x2="250" y2="500"/>
	<line class="st35" x1="250" y1="0" x2="500" y2="250"/>
	<rect x="62.5" y="62.5" class="st36" width="375" height="375"/>
</g>
</svg>
