<?xml version="1.0" encoding="UTF-8"?><svg id="icona" xmlns="http://www.w3.org/2000/svg" width="370" height="370" viewBox="0 0 370 370"><defs><style>.cls-1{fill:#323e48;}</style></defs><path class="cls-1" d="m31.5,317.6h307c3.7,0,6.7-3,6.7-6.7V114.7c0-2.2-1.8-4-4-4s-4,1.8-4,4v194.9H32.7V79.6h123.8c2.2,0,4-1.8,4-4s-1.8-4-4-4H31.5c-3.7,0-6.7,3-6.7,6.7v232.5c0,3.7,3,6.7,6.7,6.7Z"/><path class="cls-1" d="m185,79.6h121.7c1.1,0,2.1.4,2.8,1.2l20.2,20.2c.8.8,1.8,1.2,2.8,1.2s2-.4,2.8-1.2c1.6-1.6,1.6-4.1,0-5.7l-20.2-20.2c-2.3-2.3-5.3-3.5-8.5-3.5h-121.7c-2.2,0-4,1.8-4,4s1.8,4,4,4Z"/><path class="cls-1" d="m170.7,201.1c.7.3,1.3.4,2,.4,1.2,0,2.4-.4,3.3-1.2l25.2-22.5c1-.9,1.6-2.2,1.6-3.5,0-1.3-.6-2.6-1.6-3.5l-25.2-22.5c-1.4-1.3-3.5-1.6-5.3-.8-1.7.8-2.8,2.5-2.8,4.4v45.1c0,1.9,1.1,3.6,2.8,4.3Z"/><path class="cls-1" d="m134.5,174.1c0,25.5,20.7,46.2,46.2,46.2s46.2-20.7,46.2-46.2-20.7-46.2-46.2-46.2-46.2,20.7-46.2,46.2Zm46.2-38.2c21.1,0,38.2,17.2,38.2,38.2s-17.2,38.2-38.2,38.2-38.2-17.2-38.2-38.2,17.2-38.2,38.2-38.2Z"/><path class="cls-1" d="m262.8,248.6c-1.7-6.2-7.4-10.7-14.1-10.7s-12.4,4.5-14.1,10.7H75.6c-2.2,0-4,1.8-4,4s1.8,4,4,4h158.9c1.7,6.2,7.4,10.7,14.1,10.7s12.4-4.5,14.1-10.7h31.6c2.2,0,4-1.8,4-4s-1.8-4-4-4h-31.6Zm-14.1,10.7c-3.7,0-6.7-3-6.7-6.7s3-6.7,6.7-6.7,6.7,3,6.7,6.7-3,6.7-6.7,6.7Z"/></svg>