<?xml version="1.0" encoding="UTF-8"?><svg id="icona" xmlns="http://www.w3.org/2000/svg" width="370" height="370" viewBox="0 0 370 370"><defs><style>.cls-1{fill:#323e48;}</style></defs><path class="cls-1" d="m341.2,110.7c-2.2,0-4,1.8-4,4v194.9H32.7V110.8h277.4c2.2,0,4-1.8,4-4s-1.8-4-4-4H32.7v-23.1h123.8c2.2,0,4-1.8,4-4s-1.8-4-4-4H31.5c-3.7,0-6.7,3-6.7,6.7v232.5c0,3.7,3,6.7,6.7,6.7h307c3.7,0,6.7-3,6.7-6.7V114.7c0-2.2-1.8-4-4-4Z"/><path class="cls-1" d="m181,75.6c0,2.2,1.8,4,4,4h121.7c1.1,0,2.1.4,2.8,1.2l20.2,20.2c.8.8,1.8,1.2,2.8,1.2s2-.4,2.8-1.2c1.6-1.6,1.6-4.1,0-5.7l-20.2-20.2c-2.3-2.3-5.3-3.5-8.5-3.5h-121.7c-2.2,0-4,1.8-4,4Z"/><path class="cls-1" d="m184.4,141.5c-32.6,0-59.2,26.5-59.2,59.2s26.5,59.2,59.2,59.2,26.8-4.7,37.3-13.3c1.7-1.4,2-3.9.6-5.6-1.4-1.7-3.9-2-5.6-.6-3.1,2.5-6.5,4.6-10,6.4,1.8-2.4,3.4-5.1,4.9-8.1,8.5-1,15.5-4.1,21.6-12.9,1.2-1.8.8-4.3-1-5.6-1.8-1.2-4.3-.8-5.6,1-3.3,4.9-6.9,7.4-11.4,8.7,2.5-7.5,4-16,4.4-25.2h15.7c-.6,3.3-1.6,4.7-1.6,4.7h0c0,0,6.2,4.9,6.2,4.9.6-.7,3.3-4.6,3.8-13.4,0,0,0,0,0,0,0,0,0,0,0,0,0-32.6-26.5-59.2-59.2-59.2Zm-19,95.2c4.8,1,9.9,1.7,15,1.9v12.7c-5.8-1.7-11-7-15-14.6Zm23,2c2.3,0,4.5,0,6.7.2,2.4,0,4.8.1,7,.1-3.8,6.3-8.5,10.7-13.7,12.2v-12.6Zm-8-8.1c-6.7-.3-13.1-1.4-19-3.2-2.2-6.7-3.7-14.5-4-22.7h23v25.9Zm-46.7-33.9c1.8-7.5,8.6-14.3,18.3-19-1.4,5.9-2.3,12.3-2.6,19h-15.7Zm15.7,8c.3,6.7,1.1,13.1,2.6,19-9.7-4.7-16.5-11.5-18.3-19h15.7Zm8-8c.4-8.2,1.8-15.9,4-22.7,5.8-1.8,12.2-2.9,19-3.2v25.9h-23Zm46-32c-4.8-1-9.9-1.7-15-1.9v-12.7c5.8,1.7,11,7,15,14.6Zm-23-14.6v12.7c-5.2.2-10.2.9-15,1.9,4-7.6,9.3-12.9,15-14.6Zm8,20.7c6.7.3,13.1,1.4,19,3.2,2.2,6.7,3.7,14.5,4,22.7h-23v-25.9Zm28.4,6.9c9.7,4.7,16.5,11.5,18.3,19h-15.7c-.3-6.7-1.1-13.1-2.6-19Zm12.1-2.1c-1.1-.8-2.2-1.6-3.4-2.3-3.6-2.2-7.6-4.1-11.9-5.7-1.9-4.9-4.3-9.3-7-13,9.4,4.6,17.2,11.9,22.3,21Zm-66.8-21c-2.7,3.7-5.1,8.1-7,13-4.3,1.5-8.3,3.4-11.9,5.7-1.2.7-2.3,1.5-3.4,2.3,5.1-9.1,12.9-16.4,22.3-21Zm-22.3,71.2c1.1.8,2.2,1.6,3.4,2.3,3.6,2.2,7.6,4.1,11.9,5.7,1.9,4.9,4.3,9.3,7,13-9.4-4.6-17.2-11.9-22.3-21Zm66.2,5.2c-3.1,0-6.7,0-10.7-.1-2.1,0-4.5-.1-6.9-.2v-26h23c-.4,9.7-2.3,18.8-5.3,26.3Z"/><path class="cls-1" d="m37.9,91.1c0,3.5,2.8,6.3,6.3,6.3s6.3-2.8,6.3-6.3-2.8-6.3-6.3-6.3-6.3,2.8-6.3,6.3Zm8,0c0,1-.8,1.7-1.7,1.7s-1.7-.8-1.7-1.7.8-1.7,1.7-1.7,1.7.8,1.7,1.7Z"/><path class="cls-1" d="m53.6,91.1c0,3.5,2.8,6.3,6.3,6.3s6.3-2.8,6.3-6.3-2.8-6.3-6.3-6.3-6.3,2.8-6.3,6.3Zm8,0c0,1-.8,1.7-1.7,1.7s-1.7-.8-1.7-1.7.8-1.7,1.7-1.7,1.7.8,1.7,1.7Z"/><path class="cls-1" d="m69.2,91.1c0,3.5,2.8,6.3,6.3,6.3s6.3-2.8,6.3-6.3-2.8-6.3-6.3-6.3-6.3,2.8-6.3,6.3Zm8,0c0,1-.8,1.7-1.7,1.7s-1.7-.8-1.7-1.7.8-1.7,1.7-1.7,1.7.8,1.7,1.7Z"/></svg>