<?xml version="1.0" encoding="UTF-8"?><svg id="icona" xmlns="http://www.w3.org/2000/svg" width="370" height="370" viewBox="0 0 370 370"><defs><style>.cls-1{fill:#323e48;}</style></defs><path class="cls-1" d="m24.7,185c0,2.2,1.8,4,4,4h87.1c.5.5,1.1.9,1.8,1.2.4.1.8.2,1.2.2,1.1,0,2.2-.5,3-1.3h59.2v105.4c0,2.2,1.8,4,4,4s4-1.8,4-4v-105.4h99.8l-1,1c-1.5,1.6-1.5,4.1.1,5.7.8.7,1.8,1.1,2.8,1.1s2.1-.4,2.9-1.2l7.6-8s0,0,0,0c1-1,1.3-2.4,1-3.6-.2-.8-.5-1.5-1.1-2l-8-7.6c-1.6-1.5-4.1-1.5-5.7.1-1.5,1.6-1.5,4.1.1,5.7l.9.9h-99.5v-70c.2-.2.4-.5.5-.8.7-1.5.5-3.2-.5-4.4v-24.4l.9.9c.8.8,1.8,1.2,2.8,1.2s2-.4,2.8-1.2c1.6-1.6,1.6-4.1,0-5.7l-7.8-7.8c-1.6-1.6-4.1-1.6-5.7,0l-7.8,7.8c-1.6,1.6-1.6,4.1,0,5.7.8.8,1.8,1.2,2.8,1.2s2-.4,2.8-1.2l.9-.9v99.6H28.7c-2.2,0-4,1.8-4,4Z"/><path class="cls-1" d="m127.6,163.7c.5-2.2-.9-4.3-3.1-4.7-2.2-.5-4.3.9-4.7,3.1,0,0,0,0,0,0-.4,2.2,1,4.2,3.1,4.7.3,0,.5,0,.8,0,1.8,0,3.5-1.3,3.9-3.2Z"/><path class="cls-1" d="m212.9,150.5c.5,0,1-.1,1.6-.3,2-.9,3-3.2,2.1-5.2,0,0,0,0,0-.1-.9-2-3.3-2.9-5.3-2-2,.9-2.9,3.3-2,5.3.7,1.5,2.1,2.4,3.7,2.4Z"/><path class="cls-1" d="m117.7,173.8s0,0,0,0c-.4,2.2,1,4.2,3.1,4.7.3,0,.5,0,.8,0,1.8,0,3.5-1.3,3.9-3.2.5-2.2-.9-4.3-3.1-4.7-2.2-.5-4.3.9-4.7,3.1Z"/><path class="cls-1" d="m149.7,108s-.1,0-.1,0c-1.8,1.3-2.3,3.8-1,5.6.8,1.1,2,1.7,3.3,1.7s1.5-.2,2.2-.7c1.8-1.2,2.3-3.6,1.1-5.5-1.2-1.9-3.7-2.4-5.5-1.2Z"/><path class="cls-1" d="m215.6,159.4c.8,1,2,1.6,3.2,1.6s1.7-.3,2.4-.8c1.7-1.3,2.1-3.8.8-5.6-1.3-1.8-3.8-2.1-5.6-.9-1.8,1.3-2.2,3.8-.9,5.6,0,0,0,0,0,.1Z"/><path class="cls-1" d="m206.8,122.4l-6.7,4.3c.8,1.2,2.1,1.9,3.4,1.9s1.5-.2,2.1-.6c1.9-1.2,2.4-3.7,1.2-5.5Z"/><path class="cls-1" d="m130.4,152.4s0-.1,0-.1c.6-2.1-.7-4.3-2.8-4.9-2.1-.6-4.3.7-4.9,2.7-.6,2.1.6,4.3,2.7,5,.4.1.8.2,1.2.2,1.7,0,3.3-1.1,3.8-2.8Z"/><path class="cls-1" d="m174.1,109.1c.1,0,.3,0,.4,0,1.9,0,3.7-1.4,4-3.4.3-2.2-1.2-4.2-3.4-4.5,0,0-.2,0-.3,0-2.2-.2-4.1,1.5-4.3,3.7-.2,2.2,1.4,4.1,3.6,4.3Z"/><path class="cls-1" d="m192.8,112.6c-1.5,1.6-1.3,4.1.2,5.6.8.7,1.8,1.1,2.7,1.1s2-.4,2.8-1.2c1.6-1.6,1.6-4.1,0-5.7,0,0-.1-.1-.2-.2-1.6-1.5-4.2-1.3-5.6.3Z"/><path class="cls-1" d="m161.7,102.3c-.1,0-.2,0-.3,0-2.1.6-3.3,2.9-2.6,5,.5,1.7,2.1,2.8,3.8,2.8s.7,0,1.1-.1c2-.6,3.3-2.6,2.9-4.7-.5-2.2-2.6-3.5-4.8-3Z"/><path class="cls-1" d="m283.3,134.9c1.5,0,3-.9,3.6-2.3.9-2,0-4.4-2-5.3-2-.9-4.4,0-5.3,2,0,0,0,0,0,0-.9,2,0,4.4,2,5.3.5.2,1.1.4,1.7.4Z"/><path class="cls-1" d="m134.3,141.4c.8-2,0-4.3-2-5.2-2-.9-4.4,0-5.3,2,0,0,0,.2-.1.2-.8,2.1.2,4.4,2.3,5.2.5.2,1,.3,1.4.3,1.6,0,3.1-.9,3.7-2.5Z"/><path class="cls-1" d="m275.5,144.8c.7.4,1.4.6,2.1.6,1.3,0,2.6-.7,3.4-1.9,1.2-1.9.6-4.3-1.2-5.5-1.9-1.2-4.3-.6-5.5,1.2,0,0,0,0,0,0-1.2,1.9-.6,4.3,1.3,5.5Z"/><path class="cls-1" d="m267.4,148.2c-1.5,1.6-1.4,4.1.2,5.6.8.7,1.8,1.1,2.8,1.1s2.1-.4,2.9-1.2c0,0,0,0,0,0,1.5-1.6,1.3-4.2-.3-5.6-1.6-1.5-4.1-1.3-5.6.2Z"/><path class="cls-1" d="m208.7,139.2c.5,0,.9,0,1.4-.3,2.1-.8,3.1-3.1,2.3-5.1,0,0,0,0,0,0-.8-2.1-3.1-3.1-5.2-2.3-2.1.8-3.1,3.1-2.3,5.1.6,1.6,2.1,2.6,3.7,2.6Z"/><path class="cls-1" d="m291.5,121s0,0,0-.1c.6-2.1-.5-4.3-2.6-5-2.1-.6-4.3.5-5,2.6-.7,2.1.4,4.3,2.5,5,.4.1.9.2,1.3.2,1.7,0,3.2-1,3.8-2.7Z"/><path class="cls-1" d="m235.1,167.9c.2,2.1,1.9,3.7,4,3.7s.1,0,.2,0c2.1,0,3.8-1.8,3.8-4s-2-4.2-4.3-4c-2.2.2-3.9,2.1-3.7,4.3Z"/><path class="cls-1" d="m294.9,109.2c0,0,0-.1,0-.2.5-2.2-.9-4.3-3.1-4.7-2.1-.5-4.2.9-4.7,3-.5,2.1.7,4.3,2.8,4.8.3,0,.7.1,1,.1,1.8,0,3.4-1.2,3.9-3Z"/><path class="cls-1" d="m224.1,163c-1.1,1.9-.5,4.4,1.4,5.5,0,0,.1,0,.2,0,.6.3,1.2.5,1.8.5,1.4,0,2.8-.8,3.5-2.2,1-1.9.3-4.3-1.6-5.3-1.9-1.1-4.3-.4-5.4,1.5Z"/><path class="cls-1" d="m259,155s0,0,0,0c-1.9,1.1-2.5,3.6-1.4,5.5.7,1.3,2.1,2,3.4,2s1.4-.2,2-.5c1.9-1.1,2.6-3.6,1.4-5.5-1.1-1.9-3.6-2.6-5.5-1.4Z"/><path class="cls-1" d="m297.5,97.1c0,0,0-.1,0-.2.3-2.2-1.2-4.2-3.4-4.5-2.1-.3-4.1,1.2-4.5,3.3-.4,2.1,1,4.2,3.2,4.6.3,0,.5,0,.8,0,1.9,0,3.6-1.3,3.9-3.2Z"/><path class="cls-1" d="m249.1,160.8c0,0-.1,0-.2,0-2,1-2.8,3.3-1.9,5.3.7,1.4,2.1,2.3,3.6,2.3s1.1-.1,1.7-.4c2-.9,2.9-3.2,2-5.2-.8-2-3.2-3-5.2-2.2Z"/><path class="cls-1" d="m52.1,243.7c-2.2.3-3.7,2.4-3.4,4.5.3,2,2,3.4,4,3.4s.3,0,.5,0c2.1-.2,3.7-2.1,3.5-4.3-.2-2.2-2.1-3.9-4.3-3.7,0,0-.2,0-.3,0Z"/><path class="cls-1" d="m63.6,241.4c-.1,0-.2,0-.3,0-2.1.6-3.3,2.9-2.6,5,.5,1.7,2.1,2.8,3.8,2.8s.7,0,1.1-.1c2.1-.6,3.3-2.6,2.9-4.7-.5-2.2-2.6-3.5-4.8-3Z"/><path class="cls-1" d="m40.7,244.4c-2.2,0-4,1.8-4,4s1.8,4,4,4,4-1.8,4-4-1.8-4-4-4h0Z"/><path class="cls-1" d="m74.2,237.4c0,0-.1,0-.2,0-2,1-2.8,3.3-1.9,5.3.7,1.4,2.1,2.3,3.6,2.3s1.1-.1,1.7-.4c2-.9,2.9-3.2,2-5.2-.8-2-3.2-3-5.2-2.2Z"/><path class="cls-1" d="m139.4,131.2c1.1-1.9.6-4.3-1.3-5.4-1.9-1.2-4.3-.6-5.5,1.2,0,0,0,0,0,.1-1.1,1.9-.5,4.4,1.4,5.5.6.4,1.3.5,2,.5,1.4,0,2.7-.7,3.4-1.9Z"/><path class="cls-1" d="m27.9,251.4c0,0,.1,0,.2,0,.2,0,.5,0,.7,0,1.9,0,3.6-1.4,3.9-3.3.4-2.2-1-4.2-3.2-4.6-2.1-.4-4.2.9-4.7,3.1-.5,2.2.9,4.3,3,4.8Z"/><path class="cls-1" d="m109.8,212.5c1.4,0,2.8-.8,3.5-2.1,1.1-1.9.3-4.4-1.6-5.4-1.9-1.1-4.4-.3-5.4,1.6h0c-1.1,2-.3,4.4,1.6,5.4.6.3,1.3.5,1.9.5Z"/><path class="cls-1" d="m92.7,224.7c-1.6,1.5-1.7,4-.2,5.6.8.9,1.9,1.3,3,1.3s1.9-.3,2.7-1c0,0,.2-.1.2-.2,1.5-1.6,1.5-4.1-.1-5.7-1.6-1.5-4-1.5-5.5,0Z"/><path class="cls-1" d="m142.9,123.4c1.1,0,2.2-.4,3-1.3,0,0,0-.1.1-.2,1.4-1.7,1.1-4.2-.6-5.6-1.7-1.4-4.1-1.2-5.6.5-1.4,1.6-1.3,4.1.3,5.6.8.7,1.7,1,2.7,1Z"/><path class="cls-1" d="m101,221.9c.7.5,1.5.8,2.3.8,1.2,0,2.4-.6,3.2-1.6,1.3-1.7,1-4.2-.8-5.6-1.7-1.4-4.3-1-5.6.7,0,0,0,0,0,.1-1.3,1.8-.9,4.3.9,5.6Z"/><path class="cls-1" d="m118.6,199.2c.8-2-.2-4.3-2.2-5.2-2-.8-4.4.1-5.2,2.2,0,0,0,0,0,.1-.8,2.1.2,4.4,2.3,5.2.5.2,1,.3,1.4.3,1.6,0,3.1-1,3.7-2.5Z"/><path class="cls-1" d="m84,231.8s0,0-.1,0c-1.8,1.3-2.3,3.8-1,5.6.8,1.1,2,1.7,3.3,1.7s1.6-.2,2.2-.7c1.8-1.2,2.3-3.6,1.1-5.5-1.2-1.9-3.7-2.4-5.5-1.2Z"/><path class="cls-1" d="m181.2,57.7c-.4.5-.9.8-1.6.9-.7.2-1.6.3-2.7.3-.1,0-.3,0-.3.1,0,0-.1.2-.1.3v3.8c0,.1,0,.3,0,.3,0,0,.1.1.2.1h.3c2.4,0,4.2-.2,5.5-.7,1.3-.5,2.3-1.2,3-2.2.7-1,1.4-2.5,2.1-4.5l7.1-21.3c0-.2,0-.3,0-.4,0,0-.2-.1-.3-.1h-5c-.3,0-.5.1-.6.4l-3.4,13.3c0,0,0,.1-.1.1s0,0-.1-.1l-3.4-13.3c0-.3-.3-.4-.6-.4h-5.1c-.3,0-.5.1-.5.4s0,.2,0,.2l6.7,20.4c0,.1,0,.2,0,.2-.2.9-.5,1.6-.9,2Z"/><path class="cls-1" d="m324.9,174.7c.1-.2.1-.3,0-.4,0-.1-.2-.2-.4-.2h-5.5c-.2,0-.4.1-.6.3l-3.7,5.6c0,.2-.2.2-.3,0l-3.7-5.6c-.1-.2-.3-.3-.6-.3h-5.1c-.3,0-.4.1-.4.3s0,.2,0,.3l6.6,9.8c0,0,0,.2,0,.2l-6.6,9.8c-.1.2-.1.3,0,.4,0,.1.2.2.4.2h5.5c.2,0,.4-.1.6-.3l3.7-5.6c0-.2.2-.2.2,0l3.7,5.6c.1.2.3.3.6.3h5.2c.2,0,.4-.1.4-.3s0-.2,0-.3l-6.6-9.8c0,0,0-.2,0-.2l6.6-9.8Z"/></svg>