<?xml version="1.0" encoding="UTF-8" standalone="no"?>
<svg
   xmlns:dc="http://purl.org/dc/elements/1.1/"
   xmlns:cc="http://creativecommons.org/ns#"
   xmlns:rdf="http://www.w3.org/1999/02/22-rdf-syntax-ns#"
   xmlns:svg="http://www.w3.org/2000/svg"
   xmlns="http://www.w3.org/2000/svg"
   xmlns:sodipodi="http://sodipodi.sourceforge.net/DTD/sodipodi-0.dtd"
   xmlns:inkscape="http://www.inkscape.org/namespaces/inkscape"
   width="135.46666mm"
   height="18.684875mm"
   viewBox="0 0 135.46666 18.684876"
   version="1.1"
   id="svg8"
   sodipodi:docname="Conveyor.svg"
   inkscape:version="1.0.1 (3bc2e813f5, 2020-09-07)">
  <defs
     id="defs2" />
  <sodipodi:namedview
     id="base"
     pagecolor="#ffffff"
     bordercolor="#666666"
     borderopacity="1.0"
     inkscape:pageopacity="0.0"
     inkscape:pageshadow="2"
     inkscape:zoom="0.98994949"
     inkscape:cx="224.05224"
     inkscape:cy="-244.89669"
     inkscape:document-units="mm"
     inkscape:current-layer="g879"
     inkscape:document-rotation="0"
     showgrid="false"
     fit-margin-top="0"
     fit-margin-left="0"
     fit-margin-right="0"
     fit-margin-bottom="0"
     inkscape:window-width="1455"
     inkscape:window-height="1198"
     inkscape:window-x="318"
     inkscape:window-y="115"
     inkscape:window-maximized="0" />
  <metadata
     id="metadata5">
    <rdf:RDF>
      <cc:Work
         rdf:about="">
        <dc:format>image/svg+xml</dc:format>
        <dc:type
           rdf:resource="http://purl.org/dc/dcmitype/StillImage" />
        <dc:title></dc:title>
      </cc:Work>
    </rdf:RDF>
  </metadata>
  <g
     inkscape:label="Layer 1"
     inkscape:groupmode="layer"
     id="layer1"
     transform="translate(-19.957144,-154.88179)">
    <g
       id="g957"
       transform="matrix(0.26458333,0,0,0.26458333,19.957144,38.100001)">
      <g
         id="g879">
	
	<path
   style="fill:#2c3e50"
   d="M 476.69,512 H 35.31 C 15.81,512 0,496.19 0,476.69 0,457.19 15.81,441.38 35.31,441.38 h 441.38 c 19.5,0 35.31,15.81 35.31,35.31 0,19.5 -15.81,35.31 -35.31,35.31"
   id="path839" />

	
	
	
	
	
	<g
   id="g877">
		<path
   style="fill:#5a6c7a"
   d="m 88.276,476.69 c 0,-4.873 -3.955,-8.828 -8.828,-8.828 -4.873,0 -8.828,3.955 -8.828,8.828 0,4.873 3.955,8.828 8.828,8.828 4.873,0 8.828,-3.956 8.828,-8.828"
   id="path851" />

		<path
   style="fill:#5a6c7a"
   d="m 52.966,476.69 c 0,-4.873 -3.955,-8.828 -8.828,-8.828 -4.873,0 -8.828,3.955 -8.828,8.828 0,4.873 3.955,8.828 8.828,8.828 4.873,0 8.828,-3.956 8.828,-8.828"
   id="path853" />

		<path
   style="fill:#5a6c7a"
   d="m 123.586,476.69 c 0,-4.873 -3.955,-8.828 -8.828,-8.828 -4.873,0 -8.828,3.955 -8.828,8.828 0,4.873 3.955,8.828 8.828,8.828 4.873,-10e-4 8.828,-3.956 8.828,-8.828"
   id="path855" />

		<path
   style="fill:#5a6c7a"
   d="m 158.897,476.69 c 0,-4.873 -3.955,-8.828 -8.828,-8.828 -4.873,0 -8.828,3.955 -8.828,8.828 0,4.873 3.955,8.828 8.828,8.828 4.873,-10e-4 8.828,-3.956 8.828,-8.828"
   id="path857" />

		<path
   style="fill:#5a6c7a"
   d="m 194.207,476.69 c 0,-4.873 -3.955,-8.828 -8.828,-8.828 -4.873,0 -8.828,3.955 -8.828,8.828 0,4.873 3.955,8.828 8.828,8.828 4.873,-10e-4 8.828,-3.956 8.828,-8.828"
   id="path859" />

		<path
   style="fill:#5a6c7a"
   d="m 229.517,476.69 c 0,-4.873 -3.955,-8.828 -8.828,-8.828 -4.873,0 -8.828,3.955 -8.828,8.828 0,4.873 3.955,8.828 8.828,8.828 4.873,0 8.828,-3.956 8.828,-8.828"
   id="path861" />

		<path
   style="fill:#5a6c7a"
   d="m 264.828,476.69 c 0,-4.873 -3.955,-8.828 -8.828,-8.828 -4.873,0 -8.828,3.955 -8.828,8.828 0,4.873 3.955,8.828 8.828,8.828 4.873,0 8.828,-3.956 8.828,-8.828"
   id="path863" />

		<path
   style="fill:#5a6c7a"
   d="m 300.138,476.69 c 0,-4.873 -3.955,-8.828 -8.828,-8.828 -4.873,0 -8.828,3.955 -8.828,8.828 0,4.873 3.955,8.828 8.828,8.828 4.873,-10e-4 8.828,-3.956 8.828,-8.828"
   id="path865" />

		<path
   style="fill:#5a6c7a"
   d="m 335.448,476.69 c 0,-4.873 -3.955,-8.828 -8.828,-8.828 -4.873,0 -8.828,3.955 -8.828,8.828 0,4.873 3.955,8.828 8.828,8.828 4.873,0 8.828,-3.956 8.828,-8.828"
   id="path867" />

		<path
   style="fill:#5a6c7a"
   d="m 370.759,476.69 c 0,-4.873 -3.955,-8.828 -8.828,-8.828 -4.873,0 -8.828,3.955 -8.828,8.828 0,4.873 3.955,8.828 8.828,8.828 4.873,-10e-4 8.828,-3.956 8.828,-8.828"
   id="path869" />

		<path
   style="fill:#5a6c7a"
   d="m 406.069,476.69 c 0,-4.873 -3.955,-8.828 -8.828,-8.828 -4.873,0 -8.828,3.955 -8.828,8.828 0,4.873 3.955,8.828 8.828,8.828 4.873,-10e-4 8.828,-3.956 8.828,-8.828"
   id="path871" />

		<path
   style="fill:#5a6c7a"
   d="m 441.379,476.69 c 0,-4.873 -3.955,-8.828 -8.828,-8.828 -4.873,0 -8.828,3.955 -8.828,8.828 0,4.873 3.955,8.828 8.828,8.828 4.873,0 8.828,-3.956 8.828,-8.828"
   id="path873" />

		<path
   style="fill:#5a6c7a"
   d="m 476.69,476.69 c 0,-4.873 -3.955,-8.828 -8.828,-8.828 -4.873,0 -8.828,3.955 -8.828,8.828 0,4.873 3.955,8.828 8.828,8.828 4.873,-10e-4 8.828,-3.956 8.828,-8.828"
   id="path875" />

	</g>

</g>
      <g
         id="g881">
</g>
      <g
         id="g883">
</g>
      <g
         id="g885">
</g>
      <g
         id="g887">
</g>
      <g
         id="g889">
</g>
      <g
         id="g891">
</g>
      <g
         id="g893">
</g>
      <g
         id="g895">
</g>
      <g
         id="g897">
</g>
      <g
         id="g899">
</g>
      <g
         id="g901">
</g>
      <g
         id="g903">
</g>
      <g
         id="g905">
</g>
      <g
         id="g907">
</g>
      <g
         id="g909">
</g>
    </g>
  </g>
</svg>
