<?xml version="1.0" encoding="UTF-8" standalone="no"?>
<svg
   xmlns:dc="http://purl.org/dc/elements/1.1/"
   xmlns:cc="http://creativecommons.org/ns#"
   xmlns:rdf="http://www.w3.org/1999/02/22-rdf-syntax-ns#"
   xmlns:svg="http://www.w3.org/2000/svg"
   xmlns="http://www.w3.org/2000/svg"
   xmlns:sodipodi="http://sodipodi.sourceforge.net/DTD/sodipodi-0.dtd"
   xmlns:inkscape="http://www.inkscape.org/namespaces/inkscape"
   width="42.126926mm"
   height="164.88234mm"
   viewBox="0 0 42.126926 164.88234"
   version="1.1"
   id="svg8"
   inkscape:version="1.0.1 (3bc2e813f5, 2020-09-07)"
   sodipodi:docname="Picker.svg">
  <defs
     id="defs2" />
  <sodipodi:namedview
     id="base"
     pagecolor="#ffffff"
     bordercolor="#666666"
     borderopacity="1.0"
     inkscape:pageopacity="0.0"
     inkscape:pageshadow="2"
     inkscape:zoom="0.98994949"
     inkscape:cx="-19.443821"
     inkscape:cy="416.54869"
     inkscape:document-units="mm"
     inkscape:current-layer="g879"
     inkscape:document-rotation="0"
     showgrid="false"
     fit-margin-top="0"
     fit-margin-left="0"
     fit-margin-right="0"
     fit-margin-bottom="0"
     inkscape:window-width="1267"
     inkscape:window-height="1198"
     inkscape:window-x="130"
     inkscape:window-y="130"
     inkscape:window-maximized="0" />
  <metadata
     id="metadata5">
    <rdf:RDF>
      <cc:Work
         rdf:about="">
        <dc:format>image/svg+xml</dc:format>
        <dc:type
           rdf:resource="http://purl.org/dc/dcmitype/StillImage" />
        <dc:title></dc:title>
      </cc:Work>
    </rdf:RDF>
  </metadata>
  <g
     inkscape:label="Layer 1"
     inkscape:groupmode="layer"
     id="layer1"
     transform="translate(-65.115108,-61.894594)">
    <g
       id="g957"
       transform="matrix(0.26458333,0,0,0.26458333,18.444241,113.4051)">
      <g
         id="g879">
        <g
           id="g837"
           transform="translate(0,146)">
          <path
             style="fill:#bdc3c7"
             d="m 194.259,282.492 c -1.095,0 -2.198,-0.194 -3.275,-0.618 -11.352,-4.449 -17.161,-22.422 -13.497,-41.799 2.419,-12.835 15.245,-54.696 78.513,-54.696 63.258,0 76.085,41.86 78.521,54.687 3.663,19.377 -2.145,37.35 -13.506,41.807 -4.511,1.766 -9.657,-0.459 -11.441,-4.996 -1.783,-4.537 0.459,-9.657 4.996,-11.441 2.207,-1.624 5.711,-13.506 1.183,-27.657 -4.158,-12.977 -17.443,-34.745 -59.754,-34.745 -42.319,0 -55.614,21.778 -59.754,34.754 -4.529,14.151 -1.024,26.024 1.421,27.763 4.529,1.783 6.656,6.841 4.873,11.388 -1.359,3.46 -4.74,5.553 -8.28,5.553"
             id="path833" />
          <path
             style="fill:#bdc3c7"
             d="m 256,203.034 c -4.882,0 -8.828,-3.955 -8.828,-8.828 V 141.24 c 0,-4.873 3.946,-8.828 8.828,-8.828 4.882,0 8.828,3.955 8.828,8.828 v 52.966 c 0,4.874 -3.946,8.828 -8.828,8.828"
             id="path835" />
        </g>
        <path
           style="fill:#c03a2b;stroke-width:2.22953"
           d="m 211.862,-194.68538 v 438.79894 h 0.892 c 43.24599,-39.6221 43.24599,-39.6221 43.24599,-39.6221 0,0 0,0 43.24601,39.6221 h 0.892 v -438.79894 z"
           id="path849"
           sodipodi:nodetypes="cccccccc" />
        <path
           style="fill:#962b23"
           d="m 300.138,243.103 c 0,24.373 -19.765,44.138 -44.138,44.138 -24.373,0 -44.138,-19.765 -44.138,-44.138 0,-24.373 19.765,-44.137 44.138,-44.137 24.373,0 44.138,19.764 44.138,44.137"
           id="path847" />
      </g>
      <g
         id="g881" />
      <g
         id="g883" />
      <g
         id="g885" />
      <g
         id="g887" />
      <g
         id="g889" />
      <g
         id="g891" />
      <g
         id="g893" />
      <g
         id="g895" />
      <g
         id="g897" />
      <g
         id="g899" />
      <g
         id="g901" />
      <g
         id="g903" />
      <g
         id="g905" />
      <g
         id="g907" />
      <g
         id="g909" />
    </g>
  </g>
</svg>
