<?xml version="1.0" encoding="UTF-8"?><svg id="icona" xmlns="http://www.w3.org/2000/svg" width="370" height="370" viewBox="0 0 370 370"><defs><style>.cls-1{fill:#323e48;}</style></defs><path class="cls-1" d="m341.3,110.7c-2.2,0-4,1.8-4,4v194.9H32.7V79.6h123.8c2.2,0,4-1.8,4-4s-1.8-4-4-4H31.5c-3.7,0-6.7,3-6.7,6.7v232.5c0,3.7,3,6.7,6.7,6.7h307c3.7,0,6.7-3,6.7-6.7V114.7c0-2.2-1.8-4-4-4Z"/><path class="cls-1" d="m185,79.6h121.7c1.1,0,2.1.4,2.8,1.2l20.2,20.2c.8.8,1.8,1.2,2.8,1.2s2-.4,2.8-1.2c1.6-1.6,1.6-4.1,0-5.7l-20.2-20.2c-2.3-2.3-5.3-3.5-8.5-3.5h-121.7c-2.2,0-4,1.8-4,4s1.8,4,4,4Z"/><path class="cls-1" d="m294.4,102.2c2.2,0,4-1.8,4-4s-1.8-4-4-4H44.4c-2.2,0-4,1.8-4,4s1.8,4,4,4h250Z"/><path class="cls-1" d="m40.4,291.4c0,3.9,3.1,7,7,7h275.3c3.9,0,7-3.1,7-7V127c0-3.9-3.1-7-7-7H47.4c-3.9,0-7,3.1-7,7v164.4Zm8-163.4h273.3v162.4H48.4v-162.4Z"/><path class="cls-1" d="m200.6,165.4h-31.2c-2.2,0-4,1.8-4,4v62.5c0,2.2,1.8,4,4,4h31.2c2.2,0,4-1.8,4-4v-62.5c0-2.2-1.8-4-4-4Zm-4,62.5h-23.2v-54.5h23.2v54.5Z"/><path class="cls-1" d="m305,197.8l-11.1-11.1c-1.6-1.6-4.1-1.6-5.7,0-1.6,1.6-1.6,4.1,0,5.7l8.2,8.2-8.2,8.2c-1.6,1.6-1.6,4.1,0,5.7.8.8,1.8,1.2,2.8,1.2s2-.4,2.8-1.2l11-11c.8-.8,1.2-1.8,1.2-2.8s-.4-2-1.2-2.8Z"/><path class="cls-1" d="m288.8,200.6c0-2.2-1.8-4-4-4h0c-2.2,0-4,1.8-4,4s1.8,4,4,4,4-1.8,4-4Z"/><path class="cls-1" d="m224.7,196.6h0c-2.2,0-4,1.8-4,4s1.8,4,4,4,4-1.8,4-4-1.8-4-4-4Z"/><path class="cls-1" d="m272.7,196.6h0c-2.2,0-4,1.8-4,4s1.8,4,4,4,4-1.8,4-4-1.8-4-4-4Z"/><path class="cls-1" d="m260.7,196.6h0c-2.2,0-4,1.8-4,4s1.8,4,4,4,4-1.8,4-4-1.8-4-4-4Z"/><path class="cls-1" d="m236.7,196.6h0c-2.2,0-4,1.8-4,4s1.8,4,4,4,4-1.8,4-4-1.8-4-4-4Z"/><path class="cls-1" d="m248.7,196.6h0c-2.2,0-4,1.8-4,4s1.8,4,4,4,4-1.8,4-4-1.8-4-4-4Z"/><path class="cls-1" d="m212.7,196.6h0c-2.2,0-4,1.8-4,4s1.8,4,4,4,4-1.8,4-4-1.8-4-4-4Z"/><path class="cls-1" d="m146.9,189.2c-1.2-1.4-3.3-1.7-4.9-.8l-2.7,1.5c-.5-.7-1-1.4-1.5-2-.5-.7-1.1-1.3-1.6-1.9l2-2.3c.7-.8,1.1-1.8,1.1-2.9,0-1.1-.5-2.1-1.3-2.8-4.9-4.3-10.6-7.4-16.8-9.3,0,0,0,0,0,0-.1,0-.2,0-.3,0-.2,0-.3,0-.5,0,0,0,0,0,0,0-.5,0-1,0-1.4.2,0,0,0,0,0,0-.2,0-.5.2-.7.3,0,0,0,0,0,0-.2.1-.4.2-.6.4,0,0,0,0,0,0-.2.2-.3.3-.5.5,0,0,0,0,0,0-.3.4-.6.9-.7,1.4l-1.9,6.6c-.6,2.1.6,4.3,2.7,5,.4.1.8.2,1.1.2,1.7,0,3.3-1.1,3.8-2.9l.7-2.5c2.4,1,4.7,2.2,6.9,3.8l-1.8,2c-1.4,1.6-1.3,4.1.3,5.6,0,0,0,0,.1.1,1.2,1.1,2.4,2.3,3.5,3.7,1.1,1.3,2,2.8,2.9,4.3,1,1.8,3.3,2.5,5.1,1.7.1,0,.2-.1.4-.2l2.3-1.3c1,2.4,1.7,5,2.2,7.5l-2.7.2c-2.2.1-3.9,2-3.7,4.2,0,0,0,0,0,.1,0,1.7,0,3.4-.1,5-.2,1.7-.5,3.4-1,5-.6,2,.5,4.1,2.4,4.9.1,0,.2,0,.4.1l2.5.7c-1,2.4-2.3,4.7-3.8,6.9l-2-1.8c-1.6-1.4-4.1-1.3-5.6.3,0,0-.1.1-.1.2-1.1,1.2-2.3,2.4-3.7,3.5-1.3,1.1-2.8,2-4.3,2.9-1.8,1-2.5,3.3-1.7,5.2,0,.1.1.2.2.3l1.3,2.3c-2.4,1-5,1.7-7.5,2.2l-.2-2.7s0,0,0,0c-.2-2.2-2.1-3.8-4.3-3.6,0,0,0,0,0,0-1.6,0-3.2,0-4.8-.1l13.4-13.4c3-3,3.2-7.6.5-10.8l-14.1-16.8,6.6-26.8c.4-1.8,0-3.7-1.1-5.1s-2.9-2.3-4.7-2.3h-26.7c-3.3,0-6,2.7-6,6v28.5c0,2.2,1.8,4,4,4s4-1.8,4-4v-26.5h22.1l-6.5,26.3c-.3,1.2,0,2.6.8,3.5l15.4,18.3-26.2,26.2,1.4-3.8c.7-2.1-.3-4.4-2.4-5.1-2.1-.7-4.4.3-5.1,2.4l-7.3,20.5c-.6,1.8,0,3.7,1.6,4.7.7.4,1.4.6,2.1.6,1,0,2.1-.4,2.8-1.2l18.5-18.5c1.9.5,3.8.9,5.8,1.1.8,0,1.7.2,2.5.2l.2,3.1c0,1,.5,2,1.3,2.7.7.7,1.7,1.1,2.7,1.1s.2,0,.3,0c6.5-.4,12.7-2.2,18.5-5.4.3-.2.6-.4.8-.6,1.4-1.2,1.7-3.2.8-4.9l-1.5-2.7c.7-.5,1.4-1,2-1.5.7-.5,1.3-1.1,1.9-1.6l2.3,2.1c0,0,.2.1.2.2,1.7,1.3,4,1,5.4-.6,4.3-4.9,7.4-10.6,9.3-16.8,0-.3.1-.6.1-.8.1-1.9-1.1-3.6-2.9-4.1l-3-.9c.1-.8.3-1.7.4-2.5,0-.8.2-1.7.2-2.5l3.1-.2c1.1,0,2.1-.5,2.8-1.3.7-.8,1.1-1.8,1-2.9-.4-6.5-2.2-12.7-5.4-18.4-.2-.3-.3-.5-.6-.8Z"/><path class="cls-1" d="m84.6,230.5c-.7,2.1.3,4.4,2.4,5.1.4.2.9.2,1.3.2,1.6,0,3.2-1,3.8-2.7l3-8.4c1.4-4,.6-8.5-2.1-11.7l-6.5-7.8c-1.4-1.7-3.9-1.9-5.6-.5-1.7,1.4-1.9,3.9-.5,5.6l6.5,7.8c.9,1.1,1.2,2.6.7,3.9l-3,8.4Z"/></svg>