<?xml version="1.0" encoding="iso-8859-1"?>
<!-- Generator: Adobe Illustrator 19.0.0, SVG Export Plug-In . SVG Version: 6.00 Build 0)  -->
<svg version="1.1" id="Layer_1" xmlns="http://www.w3.org/2000/svg" xmlns:xlink="http://www.w3.org/1999/xlink" x="0px" y="0px"
	 viewBox="0 0 511.999 511.999" style="enable-background:new 0 0 511.999 511.999;" xml:space="preserve">
<g>
	<path style="fill:#CB8252;" d="M406.069,264.827c9.754,0,17.655,7.901,17.655,17.655v17.655h52.966V158.896
		c0-9.754-7.901-17.655-17.655-17.655H282.483c-9.754,0-17.655,7.901-17.655,17.655v105.931H406.069z"/>
	<path style="fill:#A0613F;" d="M194.207,229.517c9.754,0,17.655,7.901,17.655,17.655v35.31c0-9.754,7.901-17.655,17.655-17.655
		h35.31V158.896c0-9.754,7.901-17.655,17.655-17.655V70.62c0-9.754-7.901-17.655-17.655-17.655h-52.966h-70.621H88.276
		c-9.754,0-17.655,7.901-17.655,17.655v158.897h70.621H194.207z"/>
	<path style="fill:#723C24;" d="M423.724,459.034H211.862V282.482c0-9.754,7.901-17.655,17.655-17.655h176.552
		c9.754,0,17.655,7.901,17.655,17.655V459.034z"/>
	<path style="fill:#CB8252;" d="M194.207,229.517h-52.966H70.621H17.655C7.901,229.517,0,237.417,0,247.172v211.862h211.862V247.172
		C211.862,237.417,203.961,229.517,194.207,229.517"/>
	<g>
		<polygon style="fill:#F9EBB0;" points="308.965,423.724 379.585,423.724 379.585,370.758 308.965,370.758 		"/>
		<polygon style="fill:#F9EBB0;" points="335.447,229.517 406.068,229.517 406.068,176.551 335.447,176.551 		"/>
		<polygon style="fill:#F9EBB0;" points="52.965,353.103 158.896,353.103 158.896,282.482 52.965,282.482 		"/>
		<polygon style="fill:#F9EBB0;" points="123.585,176.551 229.516,176.551 229.516,105.931 123.585,105.931 		"/>
	</g>
	<polygon style="fill:#A0613F;" points="423.723,459.034 511.999,459.034 511.999,300.137 423.723,300.137 	"/>
</g>
<g>
</g>
<g>
</g>
<g>
</g>
<g>
</g>
<g>
</g>
<g>
</g>
<g>
</g>
<g>
</g>
<g>
</g>
<g>
</g>
<g>
</g>
<g>
</g>
<g>
</g>
<g>
</g>
<g>
</g>
</svg>
