<svg width="16" height="16" viewBox="0 0 16 16" fill="none" xmlns="http://www.w3.org/2000/svg">
<path fill-rule="evenodd" clip-rule="evenodd" d="M7.99153 2.00124L0.99353 14.0332L14.9985 14.0002L8.00753 2.00624L7.99953 2.00024C7.99553 2.00024 7.99153 2.00124 7.99153 2.00124" fill="#FFCC00"/>
<path fill-rule="evenodd" clip-rule="evenodd" d="M7.24999 9.886H8.74999V6.336H7.24999V9.886ZM7.24999 12.386H8.74999V10.886H7.24999V12.386ZM0.993992 14.033L7.99199 2.001C7.99199 2.001 7.99499 2 7.99999 2L8.00699 2.006L14.998 14L0.993992 14.033ZM15.87 13.531L8.87099 1.503C8.67999 1.167 8.33999 1 7.99999 1C7.65999 1 7.31999 1.167 7.12799 1.503L0.129992 13.531C-0.245008 14.188 0.236992 15 1.00099 15H14.998C15.764 15 16.245 14.188 15.87 13.531V13.531Z" fill="black"/>
</svg>
