<?xml version="1.0" encoding="UTF-8"?>
<svg width="16px" height="16px" viewBox="0 0 16 16" version="1.1" xmlns="http://www.w3.org/2000/svg" xmlns:xlink="http://www.w3.org/1999/xlink">
    <!-- Generator: Sketch 42 (36781) - http://www.bohemiancoding.com/sketch -->
    <title>16x16/Radiobutton_normal</title>
    <desc>Created with Sketch.</desc>
    <defs></defs>
    <g id="icons-16x16" stroke="none" stroke-width="1" fill="none" fill-rule="evenodd">
        <g id="16x16/Radiobutton_normal" fill="#7A7A7A">
            <path d="M8,16 C3.581722,16 0,12.418278 0,8 C0,3.581722 3.581722,0 8,0 C12.418278,0 16,3.581722 16,8 C16,12.418278 12.418278,16 8,16 Z M8,14 C11.3137085,14 14,11.3137085 14,8 C14,4.6862915 11.3137085,2 8,2 C4.6862915,2 2,4.6862915 2,8 C2,11.3137085 4.6862915,14 8,14 Z M8,12 C10.209139,12 12,10.209139 12,8 C12,5.790861 10.209139,4 8,4 C5.790861,4 4,5.790861 4,8 C4,10.209139 5.790861,12 8,12 Z" id="Radiobutton"></path>
        </g>
    </g>
</svg>