<?xml version="1.0" encoding="UTF-8" standalone="no"?>
<svg
   viewBox="0 0 500.3948 196.87396"
   version="1.1"
   id="svg28"
   sodipodi:docname="FTOptixLogo_cyan.svg"
   width="500.39481"
   height="196.87396"
   inkscape:version="1.2 (dc2aedaf03, 2022-05-15)"
   xmlns:inkscape="http://www.inkscape.org/namespaces/inkscape"
   xmlns:sodipodi="http://sodipodi.sourceforge.net/DTD/sodipodi-0.dtd"
   xmlns="http://www.w3.org/2000/svg"
   xmlns:svg="http://www.w3.org/2000/svg">
  <sodipodi:namedview
     id="namedview30"
     pagecolor="#ffffff"
     bordercolor="#000000"
     borderopacity="0.25"
     inkscape:showpageshadow="2"
     inkscape:pageopacity="0.0"
     inkscape:pagecheckerboard="0"
     inkscape:deskcolor="#d1d1d1"
     showgrid="false"
     inkscape:zoom="0.53204119"
     inkscape:cx="1107.9969"
     inkscape:cy="97.736794"
     inkscape:window-width="2560"
     inkscape:window-height="1377"
     inkscape:window-x="1912"
     inkscape:window-y="-8"
     inkscape:window-maximized="1"
     inkscape:current-layer="svg28" />
  <defs
     id="defs19">
    <style
       id="style17">.cls-1,.cls-3{fill:#00aeef;}.cls-2{fill:#2aace2;}.cls-3{font-size:104px;font-family:Barlow-Bold, Barlow;font-weight:700;letter-spacing:-0.05em;}</style>
  </defs>
  <g
     id="FT_Bug_-_CYAN"
     data-name="FT Bug - CYAN"
     transform="translate(-30.769888,-2.0999957)">
    <path
       class="cls-1"
       d="m 194.93,64.61 a 1.78,1.78 0 0 1 -1.87,1.88 h -17.44 a 0.65,0.65 0 0 0 -0.73,0.73 v 55.47 a 1.85,1.85 0 0 1 -0.52,1.36 1.87,1.87 0 0 1 -1.36,0.52 h -13.57 a 1.87,1.87 0 0 1 -1.36,-0.52 1.85,1.85 0 0 1 -0.52,-1.36 V 67.22 a 0.64,0.64 0 0 0 -0.73,-0.73 l -43.64,-0.1 a 0.64,0.64 0 0 0 -0.73,0.73 v 12.4 a 0.64,0.64 0 0 0 0.73,0.73 h 20.15 a 1.8,1.8 0 0 1 1.88,1.88 v 11 A 1.78,1.78 0 0 1 133.34,95 h -20.15 a 0.64,0.64 0 0 0 -0.73,0.73 v 27 a 1.78,1.78 0 0 1 -1.88,1.88 H 97 a 1.87,1.87 0 0 1 -1.36,-0.52 1.85,1.85 0 0 1 -0.52,-1.36 V 53.46 A 1.83,1.83 0 0 1 95.64,52.1 1.87,1.87 0 0 1 97,51.58 h 96.05 a 1.78,1.78 0 0 1 1.87,1.88 z M 218.4,45.61 181,8.27 A 21.14,21.14 0 0 0 166.06,2.1 H 114.83 A 21.12,21.12 0 0 0 99.91,8.27 L 62.49,45.64 a 17,17 0 0 0 -5,12 v 52.76 a 21.26,21.26 0 0 0 6.24,15 l 36.18,36.15 a 21.07,21.07 0 0 0 14.88,6.15 h 26.64 l 0.08,30 a 1.27,1.27 0 0 0 2.17,0.9 l 74.69,-74.4 a 17,17 0 0 0 5,-12 V 57.67 a 17,17 0 0 0 -5,-12"
       id="path21" />
    <path
       class="cls-2"
       d="M 53.67,128.36 A 23,23 0 0 1 46.94,112.12 V 55.19 a 18.4,18.4 0 0 1 5.38,-13 L 92.47,2.1 H 88.59 A 21.3,21.3 0 0 0 73.53,8.33 L 35.77,46.05 a 17.18,17.18 0 0 0 -5,12.14 v 53.24 A 21.44,21.44 0 0 0 37,126.61 l 36.52,36.48 a 21.23,21.23 0 0 0 15,6.22 H 95 a 23,23 0 0 1 -2.25,-1.94 z"
       id="path23" />
  </g>
  <g
     id="Optix"
     transform="translate(-30.769888,-2.0999957)">
    <text
       id="Optix_Cyan"
       class="cls-3"
       transform="translate(239.66,124.99)">Optix</text>
  </g>
</svg>
