<?xml version="1.0" encoding="UTF-8" standalone="no"?>
<svg
   xmlns:dc="http://purl.org/dc/elements/1.1/"
   xmlns:cc="http://creativecommons.org/ns#"
   xmlns:rdf="http://www.w3.org/1999/02/22-rdf-syntax-ns#"
   xmlns:svg="http://www.w3.org/2000/svg"
   xmlns="http://www.w3.org/2000/svg"
   xmlns:sodipodi="http://sodipodi.sourceforge.net/DTD/sodipodi-0.dtd"
   xmlns:inkscape="http://www.inkscape.org/namespaces/inkscape"
   width="19.438709mm"
   height="19.439775mm"
   viewBox="0 0 19.43871 19.439776"
   version="1.1"
   id="svg8"
   inkscape:version="1.0.1 (3bc2e813f5, 2020-09-07)"
   sodipodi:docname="IconUniqoInfoPopup.svg">
  <defs
     id="defs2">
    <clipPath
       clipPathUnits="userSpaceOnUse"
       id="clipPath26">
      <path
         d="M 0,85.039 H 85.039 V 0 H 0 Z"
         id="path24" />
    </clipPath>
    <clipPath
       clipPathUnits="userSpaceOnUse"
       id="clipPath26-3">
      <path
         d="M 0,85.039 H 85.039 V 0 H 0 Z"
         id="path24-7" />
    </clipPath>
    <clipPath
       clipPathUnits="userSpaceOnUse"
       id="clipPath26-0">
      <path
         d="M 0,85.039 H 85.039 V 0 H 0 Z"
         id="path24-78" />
    </clipPath>
  </defs>
  <sodipodi:namedview
     id="base"
     pagecolor="#ffffff"
     bordercolor="#666666"
     borderopacity="1.0"
     inkscape:pageopacity="0.0"
     inkscape:pageshadow="2"
     inkscape:zoom="1.1899596"
     inkscape:cx="-159.58634"
     inkscape:cy="99.53676"
     inkscape:document-units="mm"
     inkscape:current-layer="layer1"
     inkscape:document-rotation="0"
     showgrid="false"
     fit-margin-top="0"
     fit-margin-left="0"
     fit-margin-right="0"
     fit-margin-bottom="0"
     inkscape:window-width="1650"
     inkscape:window-height="1259"
     inkscape:window-x="425"
     inkscape:window-y="38"
     inkscape:window-maximized="0" />
  <metadata
     id="metadata5">
    <rdf:RDF>
      <cc:Work
         rdf:about="">
        <dc:format>image/svg+xml</dc:format>
        <dc:type
           rdf:resource="http://purl.org/dc/dcmitype/StillImage" />
        <dc:title></dc:title>
      </cc:Work>
    </rdf:RDF>
  </metadata>
  <g
     inkscape:label="Layer 1"
     inkscape:groupmode="layer"
     id="layer1"
     transform="translate(-86.964546,-187.29402)">
    <g
       style="clip-rule:evenodd;fill-rule:nonzero;image-rendering:optimizeQuality;shape-rendering:geometricPrecision;text-rendering:geometricPrecision"
       id="g1644"
       transform="matrix(0.00661458,0,0,0.00661458,59.92584,166.12546)" />
    <path
       style="fill:#e4e4e4;fill-opacity:1;stroke:#ffffff;stroke-width:0.0207489;paint-order:fill markers stroke"
       d="m 96.225904,206.70426 c -3.071502,-0.13961 -5.902566,-1.74512 -7.626157,-4.3248 -1.769485,-2.64839 -2.118205,-6.03729 -0.92555,-8.99461 1.210133,-3.00066 3.873553,-5.23246 7.018975,-5.88154 0.695959,-0.14362 1.249675,-0.19892 1.991886,-0.19892 0.746585,0 1.303279,0.056 1.998013,0.20074 3.353459,0.69897 6.122799,3.1685 7.212289,6.4315 0.80091,2.39872 0.62952,5.02941 -0.47572,7.30164 -1.45526,2.99186 -4.33387,5.03508 -7.629226,5.41518 -0.242667,0.028 -1.067751,0.0765 -1.177978,0.0692 -0.02282,-0.002 -0.196764,-0.01 -0.386532,-0.0185 z m 1.299477,-1.40101 c 2.432827,-0.23646 4.659639,-1.55777 6.046559,-3.58776 1.86388,-2.72812 1.94155,-6.31685 0.1973,-9.11629 -1.30229,-2.09011 -3.46333,-3.50233 -5.891128,-3.84975 -0.552629,-0.079 -1.392311,-0.1025 -1.929636,-0.0538 -2.532017,0.22946 -4.804714,1.57768 -6.208268,3.68289 -0.736807,1.10515 -1.178869,2.31321 -1.347679,3.68291 -0.02833,0.22993 -0.03707,0.45248 -0.03707,0.94407 0,0.68939 0.02264,0.96423 0.125578,1.52504 0.58666,3.19582 3.002881,5.76936 6.164002,6.56532 0.932572,0.23482 1.889286,0.30369 2.880352,0.20736 z"
       id="path1646" />
    <path
       style="fill:#e4e4e4;fill-opacity:1;stroke:#ffffff;stroke-width:0.0207489;paint-order:fill markers stroke"
       d="m 96.308014,194.08682 c -0.810684,-0.15373 -1.461197,-0.78383 -1.649495,-1.5977 -0.05486,-0.23707 -0.05001,-0.70576 0.0096,-0.92697 0.106591,-0.39569 0.302222,-0.72935 0.58914,-1.0048 0.285472,-0.27407 0.623757,-0.45307 1.022071,-0.54082 0.178732,-0.0393 0.597222,-0.0443 0.768417,-0.009 0.832289,0.17129 1.455052,0.76572 1.654372,1.57912 0.0514,0.20975 0.06131,0.64374 0.01919,0.84032 -0.174565,0.81454 -0.738421,1.41536 -1.528787,1.62898 -0.217389,0.0587 -0.656793,0.0741 -0.884471,0.031 z"
       id="path1648" />
    <path
       style="fill:#e4e4e4;fill-opacity:1;stroke:#ffffff;stroke-width:0.0207489;paint-order:fill markers stroke"
       d="m 94.184717,202.76954 v -0.68286 l 0.420679,-0.007 0.42068,-0.007 0.138445,-0.0681 c 0.166516,-0.082 0.28809,-0.21185 0.347784,-0.3714 0.04208,-0.11244 0.04249,-0.13898 0.037,-2.37879 l -0.0055,-2.26507 -0.04816,-0.0902 c -0.109891,-0.20592 -0.313476,-0.35539 -0.52762,-0.38735 l -0.09856,-0.0148 v -0.68301 -0.68302 l 1.467975,0.005 1.467978,0.005 0.117085,0.0575 c 0.129878,0.0637 0.259399,0.19205 0.332728,0.32946 l 0.04816,0.0902 0.01037,2.95715 0.01037,2.95716 0.06763,0.13736 c 0.07871,0.15989 0.191211,0.26963 0.355227,0.34652 0.111903,0.0525 0.133569,0.055 0.536763,0.0617 l 0.420175,0.007 v 0.68288 0.68285 h -2.759592 -2.759589 z"
       id="path1650" />
  </g>
</svg>
