<?xml version="1.0" encoding="UTF-8" standalone="no"?>
<svg
   xmlns:dc="http://purl.org/dc/elements/1.1/"
   xmlns:cc="http://creativecommons.org/ns#"
   xmlns:rdf="http://www.w3.org/1999/02/22-rdf-syntax-ns#"
   xmlns:svg="http://www.w3.org/2000/svg"
   xmlns="http://www.w3.org/2000/svg"
   xmlns:sodipodi="http://sodipodi.sourceforge.net/DTD/sodipodi-0.dtd"
   xmlns:inkscape="http://www.inkscape.org/namespaces/inkscape"
   width="239.64169mm"
   height="222.08838mm"
   viewBox="0 0 239.6417 222.08838"
   version="1.1"
   id="svg8"
   inkscape:version="1.0.1 (3bc2e813f5, 2020-09-07)"
   sodipodi:docname="ImageFileSelector.svg">
  <defs
     id="defs2" />
  <sodipodi:namedview
     id="base"
     pagecolor="#ffffff"
     bordercolor="#666666"
     borderopacity="1.0"
     inkscape:pageopacity="0.0"
     inkscape:pageshadow="2"
     inkscape:zoom="0.28224708"
     inkscape:cx="564.73769"
     inkscape:cy="685.65949"
     inkscape:document-units="mm"
     inkscape:current-layer="layer1"
     inkscape:document-rotation="0"
     showgrid="false"
     fit-margin-top="0"
     fit-margin-left="0"
     fit-margin-right="0"
     fit-margin-bottom="0"
     inkscape:window-width="1267"
     inkscape:window-height="1198"
     inkscape:window-x="567"
     inkscape:window-y="70"
     inkscape:window-maximized="0" />
  <metadata
     id="metadata5">
    <rdf:RDF>
      <cc:Work
         rdf:about="">
        <dc:format>image/svg+xml</dc:format>
        <dc:type
           rdf:resource="http://purl.org/dc/dcmitype/StillImage" />
        <dc:title></dc:title>
      </cc:Work>
    </rdf:RDF>
  </metadata>
  <g
     inkscape:label="Layer 1"
     inkscape:groupmode="layer"
     id="layer1"
     transform="translate(43.586847,33.247405)"
     style="display:inline">
    <g
       id="g87"
       transform="matrix(0.26458333,0,0,0.26458333,-42.60252,-32.261021)"
       style="opacity:1">
      <path
         style="color:#000000;font-style:normal;font-variant:normal;font-weight:normal;font-stretch:normal;font-size:medium;line-height:normal;font-family:sans-serif;font-variant-ligatures:normal;font-variant-position:normal;font-variant-caps:normal;font-variant-numeric:normal;font-variant-alternates:normal;font-variant-east-asian:normal;font-feature-settings:normal;font-variation-settings:normal;text-indent:0;text-align:start;text-decoration:none;text-decoration-line:none;text-decoration-style:solid;text-decoration-color:#000000;letter-spacing:normal;word-spacing:normal;text-transform:none;writing-mode:lr-tb;direction:ltr;text-orientation:mixed;dominant-baseline:auto;baseline-shift:baseline;text-anchor:start;white-space:normal;shape-padding:0;shape-margin:0;inline-size:0;clip-rule:nonzero;display:inline;overflow:visible;visibility:visible;isolation:auto;mix-blend-mode:normal;color-interpolation:sRGB;color-interpolation-filters:linearRGB;solid-color:#000000;solid-opacity:1;vector-effect:none;fill:#ec008c;fill-opacity:1;fill-rule:nonzero;stroke:none;stroke-width:13.3908;stroke-linecap:butt;stroke-linejoin:miter;stroke-miterlimit:4;stroke-dasharray:none;stroke-dashoffset:0;stroke-opacity:1.0;paint-order:fill markers stroke;color-rendering:auto;image-rendering:auto;shape-rendering:auto;text-rendering:auto;enable-background:accumulate;stop-color:#000000;stop-opacity:1;"
         d="M 57.912108,756.85566 C 48.168872,752.30887 34.254563,741.9967 26.991425,733.93975 1.4580522,705.6157 2.9956855,728.86391 2.9956855,371.13639 2.9956855,79.672818 3.5523516,47.633124 8.808773,36.556039 15.833117,21.753332 32.244934,8.7552657 49.054621,4.6815502 55.874886,3.0287044 123.63467,2.47355 199.63191,3.4478737 364.39283,5.5601931 347.5705,0.71194034 413.98311,65.224665 c 46.35888,45.032675 63.51505,56.131705 96.40677,62.369495 9.86494,1.87084 60.92364,3.40153 113.46381,3.40153 106.77613,0 111.88619,0.95196 129.57119,24.13784 8.10106,10.62089 9.73378,16.7029 10.80415,40.24585 l 1.26088,27.73418 H 734.99932 704.5087 V 207.48898 191.86439 L 600.87609,190.49578 C 504.02726,189.21676 495.73598,188.59803 474.21402,181.04377 440.22437,169.11332 420.29488,155.08149 375.01016,111.19691 352.60072,89.480338 330.78325,69.90471 326.5269,67.69551 321.17788,64.919177 279.32864,63.678789 191.00734,63.678789 H 63.226601 V 374.38273 685.08667 l 9.52035,9.93711 c 12.504363,13.05175 31.843549,13.63461 46.084249,1.38896 l 9.94081,-8.54819 1.7715,-194.28828 c 1.75537,-192.52009 1.84245,-194.4024 9.56818,-206.82375 4.28818,-6.89449 14.07134,-16.06199 21.74036,-20.37222 l 13.94368,-7.83679 H 479.2663 c 295.3205,0 303.83938,0.18814 317.20303,7.00578 22.80767,11.6356 35.52345,36.64655 35.56742,69.95842 l 0.0213,14.96179 -238.26641,0.98169 c -236.55518,0.97464 -238.3682,1.03671 -252.43839,8.64076 -18.39662,9.94221 -35.82909,27.31369 -45.45743,45.2984 -7.54297,14.08946 -7.70656,17.6067 -8.70116,187.08044 l -1.01365,172.72101 -105.2762,-0.0354 C 78.075498,765.12094 75.216822,764.92962 57.913596,756.85485 Z"
         id="path89" />
      <path
         style="color:#000000;font-style:normal;font-variant:normal;font-weight:normal;font-stretch:normal;font-size:medium;line-height:normal;font-family:sans-serif;font-variant-ligatures:normal;font-variant-position:normal;font-variant-caps:normal;font-variant-numeric:normal;font-variant-alternates:normal;font-variant-east-asian:normal;font-feature-settings:normal;font-variation-settings:normal;text-indent:0;text-align:start;text-decoration:none;text-decoration-line:none;text-decoration-style:solid;text-decoration-color:#000000;letter-spacing:normal;word-spacing:normal;text-transform:none;writing-mode:lr-tb;direction:ltr;text-orientation:mixed;dominant-baseline:auto;baseline-shift:baseline;text-anchor:start;white-space:normal;shape-padding:0;shape-margin:0;inline-size:0;clip-rule:nonzero;display:inline;overflow:visible;visibility:visible;isolation:auto;mix-blend-mode:normal;color-interpolation:sRGB;color-interpolation-filters:linearRGB;solid-color:#000000;solid-opacity:1;vector-effect:none;fill:#ec008c;fill-opacity:1;fill-rule:nonzero;stroke:none;stroke-width:13.3908;stroke-linecap:butt;stroke-linejoin:miter;stroke-miterlimit:4;stroke-dasharray:none;stroke-dashoffset:0;stroke-opacity:1.0;paint-order:fill markers stroke;color-rendering:auto;image-rendering:auto;shape-rendering:auto;text-rendering:auto;enable-background:accumulate;stop-color:#000000;stop-opacity:1;"
         d="M 145.02539 -3.6992188 C 127.85745 -3.7584428 112.02637 -3.7273038 98.347656 -3.6152344 C 84.668945 -3.503165 73.148693 -3.3091858 64.560547 -3.0371094 C 60.266474 -2.9010712 56.709331 -2.7476864 53.933594 -2.5683594 C 51.157856 -2.3890323 49.522518 -2.3215223 47.478516 -1.8261719 C 28.47 2.780415 10.864975 16.605086 2.7597656 33.685547 C -0.90108365 41.400213 -1.9653113 52.63518 -2.7636719 98.585938 C -3.5620325 144.53669 -3.6992188 225.40067 -3.6992188 371.13672 C -3.6992187 549.99089 -4.1098553 633.44348 -1.2617188 676.50586 C 0.16234953 698.03705 2.3496112 709.74398 6.4023438 718.4375 C 10.455076 727.13102 15.916853 731.65437 22.017578 738.42188 C 30.225783 747.52718 44.034961 757.7695 55.080078 762.92383 L 58.144531 764.35156 L 58.238281 764.30078 C 65.648825 767.56041 72.673503 769.74201 86.886719 770.70117 C 103.10447 771.79561 129.48356 771.83383 180.90234 771.85156 L 292.83789 771.88867 L 293.89062 592.50977 C 294.38791 507.77478 294.68421 464.47581 295.77734 440.97266 C 296.32391 429.22108 297.08825 422.46475 298.0332 418.17188 C 298.97816 413.879 299.96304 411.97983 301.79883 408.55078 C 310.68675 391.9491 327.45391 375.21481 344.53711 365.98242 C 348.0051 364.10819 349.51534 363.2183 354.69531 362.25195 C 359.87528 361.28561 368.60325 360.51622 384.36914 359.97656 C 415.90092 358.89725 475.54128 358.6338 593.81836 358.14648 L 838.76367 357.13672 L 838.73242 335.49805 C 838.68621 300.48676 824.88176 272.52876 799.51172 259.58594 C 795.9254 257.75633 791.50623 255.98826 783.6875 254.94141 C 775.86877 253.89455 764.19694 253.24847 743.75 252.79688 C 702.85613 251.89369 626.9273 251.84766 479.26562 251.84766 L 174.04297 251.84766 L 158.57227 260.54297 C 149.48851 265.64833 139.7202 274.70449 134.42578 283.2168 C 132.45727 286.38174 130.36952 290.06566 129.07617 295.75 C 127.78282 301.43434 127.0109 309.12178 126.40039 322.31836 C 125.17938 348.71152 124.72535 397.25477 123.84766 493.51562 L 122.10547 684.76758 L 114.46484 691.33594 C 102.57589 701.55931 87.769582 701.0261 77.582031 690.39258 L 69.921875 682.39648 L 69.921875 374.38281 L 69.921875 70.375 L 191.00781 70.375 C 235.13712 70.375 267.64408 70.684652 289.68359 71.337891 C 300.70335 71.66451 309.11684 72.079675 314.95703 72.568359 C 317.87713 72.812701 320.16186 73.080503 321.70898 73.333984 C 323.25611 73.587465 324.26846 74.066931 323.44336 73.638672 C 322.99484 73.405871 325.58295 75.126492 328.4707 77.523438 C 331.35846 79.920383 335.13859 83.210736 339.49023 87.115234 C 348.19353 94.924231 359.20465 105.20359 370.35156 116.00586 C 415.82907 160.07727 437.23018 175.15841 471.99609 187.36133 C 482.9567 191.20853 491.53945 193.51282 508.79883 194.80078 C 526.05821 196.08874 552.35096 196.55174 600.78711 197.19141 L 697.8125 198.47266 L 697.8125 207.48828 L 697.8125 229.80859 L 735 229.80859 L 772.49609 229.80859 L 770.91797 195.07617 C 770.37696 183.17653 769.72895 175.37616 767.92969 168.67383 C 766.13042 161.9715 763.04079 156.70026 758.74805 151.07227 C 749.74375 139.26721 741.36325 131.1567 723.27539 127.78711 C 705.18753 124.41752 677.26148 124.30078 623.85352 124.30078 C 597.64845 124.30078 571.79832 123.91866 551.31836 123.30469 C 530.8384 122.69072 514.82004 121.61933 511.63672 121.01562 C 495.69571 117.99247 484.36857 114.06674 470.87305 105.33594 C 457.37753 96.605131 441.72898 82.842145 418.64844 60.421875 C 402.11655 44.362922 390.71456 32.53517 379.93945 23.517578 C 369.16435 14.499986 358.79816 8.3221466 345.54297 4.5019531 C 319.03259 -3.1384338 282.03452 -2.1907384 199.7168 -3.2460938 C 180.69658 -3.4899427 162.19333 -3.6399947 145.02539 -3.6992188 z M 144.97852 9.6933594 C 162.10289 9.752421 180.56847 9.8992652 199.54688 10.142578 C 281.99007 11.199542 318.96214 10.777393 341.83398 17.369141 C 353.2699 20.665014 361.44767 25.503535 371.3457 33.787109 C 381.24373 42.070684 392.64394 53.829934 409.31836 70.027344 C 432.5967 92.639749 448.7044 106.9418 463.59961 116.57812 C 478.49482 126.21445 492.19186 130.95724 509.14258 134.17188 C 515.82419 135.43901 530.2673 136.07037 550.91797 136.68945 C 571.56863 137.30854 597.51841 137.69141 623.85352 137.69141 C 677.22168 137.69141 705.23981 138.04831 720.82227 140.95117 C 736.40472 143.85403 739.42085 147.81254 748.10156 159.19336 C 751.90988 164.18626 753.68614 167.26685 754.99609 172.14648 C 756.30605 177.02612 757.01166 184.04029 757.54102 195.68359 L 758.48242 216.41797 L 735 216.41797 L 711.20312 216.41797 L 711.20312 207.48828 L 711.20312 185.25586 L 600.96484 183.80078 C 552.55216 183.16143 526.27388 182.67504 509.79492 181.44531 C 493.31596 180.21559 486.993 178.43362 476.43164 174.72656 C 443.21826 163.06858 424.76185 150.08642 379.66992 106.38867 C 368.4074 95.474368 357.30353 85.108698 348.43164 77.148438 C 343.9957 73.168307 340.12385 69.792215 337.02344 67.21875 C 333.92302 64.645285 332.18803 63.089354 329.61133 61.751953 C 327.44897 60.629611 325.9834 60.464901 323.87305 60.119141 C 321.7627 59.77338 319.20972 59.486976 316.07422 59.224609 C 309.80322 58.699877 301.23142 58.283644 290.08008 57.953125 C 267.77739 57.292086 235.19981 56.982422 191.00781 56.982422 L 56.53125 56.982422 L 56.53125 374.38281 L 56.53125 687.77734 L 67.912109 699.65625 C 82.733285 715.12623 106.60482 715.75816 123.19727 701.49023 L 135.43945 690.96094 L 137.23828 493.63672 C 138.11596 397.37748 138.58454 348.72086 139.77734 322.9375 C 140.37374 310.04582 141.18212 302.89905 142.13281 298.7207 C 143.08351 294.54236 143.90252 293.33479 145.79688 290.28906 C 149.07882 285.01239 158.87853 275.7319 165.13281 272.2168 L 177.54883 265.23828 L 479.26562 265.23828 C 626.92445 265.23828 702.91652 265.2883 743.45312 266.18359 C 763.72143 266.63124 775.14431 267.30896 781.91016 268.21484 C 788.67601 269.12073 790.33027 269.93446 793.42578 271.51367 C 813.67108 281.84205 825.30007 303.90317 825.3418 335.51562 L 825.3418 335.51758 L 825.35352 343.80078 L 593.76367 344.75586 C 475.48557 345.24318 415.94318 345.49735 383.91211 346.59375 C 367.89658 347.14195 358.74784 347.87546 352.23828 349.08984 C 345.72872 350.30423 341.73703 352.27338 338.16992 354.20117 C 318.45989 364.8532 300.36095 382.86273 289.99219 402.23047 C 288.05649 405.84615 286.19334 409.66959 284.95508 415.29492 C 283.71682 420.92025 282.96387 428.27647 282.40234 440.34961 C 281.27929 464.49588 280.99731 507.69289 280.5 592.43164 L 279.52539 758.49414 L 180.90625 758.46094 C 129.49572 758.44321 103.03183 758.36862 87.787109 757.33984 C 72.542388 756.31107 69.286076 754.77331 60.744141 750.78711 L 60.722656 750.77734 C 52.279293 746.83144 38.27821 736.46041 31.964844 729.45703 C 25.298883 722.06251 21.379285 718.87186 18.539062 712.7793 C 15.69884 706.68673 13.482804 696.53625 12.099609 675.62305 C 9.3332194 633.79664 9.6914063 550.01007 9.6914062 371.13672 C 9.6914062 225.4092 9.8309222 144.52261 10.625 98.818359 C 11.419078 53.114106 13.26185 42.7882 14.857422 39.425781 C 20.800901 26.900828 36.020001 14.730297 50.630859 11.189453 C 50.291923 11.271592 52.264694 10.958514 54.796875 10.794922 C 57.329056 10.63133 60.779411 10.478918 64.984375 10.345703 C 73.394302 10.079273 84.843609 9.8869251 98.457031 9.7753906 C 112.07045 9.6638561 127.85414 9.6342978 144.97852 9.6933594 z "
         id="path91" />
    </g>
    <g
       id="g81"
       transform="matrix(0.26458333,0,0,0.26458333,-42.60252,-32.261021)"
       style="opacity:1">
      <path
         style="color:#000000;font-style:normal;font-variant:normal;font-weight:normal;font-stretch:normal;font-size:medium;line-height:normal;font-family:sans-serif;font-variant-ligatures:normal;font-variant-position:normal;font-variant-caps:normal;font-variant-numeric:normal;font-variant-alternates:normal;font-variant-east-asian:normal;font-feature-settings:normal;font-variation-settings:normal;text-indent:0;text-align:start;text-decoration:none;text-decoration-line:none;text-decoration-style:solid;text-decoration-color:#000000;letter-spacing:normal;word-spacing:normal;text-transform:none;writing-mode:lr-tb;direction:ltr;text-orientation:mixed;dominant-baseline:auto;baseline-shift:baseline;text-anchor:start;white-space:normal;shape-padding:0;shape-margin:0;inline-size:0;clip-rule:nonzero;display:inline;overflow:visible;visibility:visible;isolation:auto;mix-blend-mode:normal;color-interpolation:sRGB;color-interpolation-filters:linearRGB;solid-color:#000000;solid-opacity:1;vector-effect:none;fill:#ec008c;fill-opacity:1;fill-rule:nonzero;stroke:none;stroke-width:13.3908;stroke-linecap:butt;stroke-linejoin:miter;stroke-miterlimit:4;stroke-dasharray:none;stroke-dashoffset:0;stroke-opacity:1.0;paint-order:fill markers stroke;color-rendering:auto;image-rendering:auto;shape-rendering:auto;text-rendering:auto;enable-background:accumulate;stop-color:#000000;stop-opacity:1;"
         d="m 330.56168,820.26925 -8.69644,-8.69642 V 623.86369 c 0,-124.01087 1.27878,-191.09372 3.76839,-197.68301 5.12818,-13.57286 20.41749,-29.31193 34.205,-35.21121 9.30274,-3.98038 55.13479,-4.87814 249.03655,-4.87814 229.7368,0 238.09207,0.23287 251.36806,7.00578 16.72782,8.53389 26.80896,22.04123 31.97861,42.84689 2.65165,10.67176 3.56932,73.13249 2.86816,195.21669 l -1.03108,179.52394 -8.58932,9.14054 -8.58935,9.14054 H 608.06919 339.25812 Z M 832.05652,639.41548 V 510.09616 H 607.07633 382.09615 v 129.31932 129.31931 h 224.98018 224.98019 z"
         id="path83" />
      <path
         style="color:#000000;font-style:normal;font-variant:normal;font-weight:normal;font-stretch:normal;font-size:medium;line-height:normal;font-family:sans-serif;font-variant-ligatures:normal;font-variant-position:normal;font-variant-caps:normal;font-variant-numeric:normal;font-variant-alternates:normal;font-variant-east-asian:normal;font-feature-settings:normal;font-variation-settings:normal;text-indent:0;text-align:start;text-decoration:none;text-decoration-line:none;text-decoration-style:solid;text-decoration-color:#000000;letter-spacing:normal;word-spacing:normal;text-transform:none;writing-mode:lr-tb;direction:ltr;text-orientation:mixed;dominant-baseline:auto;baseline-shift:baseline;text-anchor:start;white-space:normal;shape-padding:0;shape-margin:0;inline-size:0;clip-rule:nonzero;display:inline;overflow:visible;visibility:visible;isolation:auto;mix-blend-mode:normal;color-interpolation:sRGB;color-interpolation-filters:linearRGB;solid-color:#000000;solid-opacity:1;vector-effect:none;fill:#ec008c;fill-opacity:1;fill-rule:nonzero;stroke:none;stroke-width:13.3908;stroke-linecap:butt;stroke-linejoin:miter;stroke-miterlimit:4;stroke-dasharray:none;stroke-dashoffset:0;stroke-opacity:1.0;paint-order:fill markers stroke;color-rendering:auto;image-rendering:auto;shape-rendering:auto;text-rendering:auto;enable-background:accumulate;stop-color:#000000;stop-opacity:1;"
         d="M 608.875 379.39648 C 511.91379 379.39648 451.97545 379.61951 415.00195 380.34375 C 396.5152 380.70587 383.78 381.19012 374.91016 381.85156 C 366.04031 382.51301 361.27509 383.07301 357.20508 384.81445 C 341.1037 391.70377 325.44955 407.72648 319.37109 423.81445 C 318.4296 426.30632 318.38758 427.91675 318.0957 430.80859 C 317.80383 433.70044 317.54693 437.42466 317.30859 442.06641 C 316.83192 451.34989 316.4373 464.27363 316.12109 480.86133 C 315.48868 514.03672 315.16992 561.83483 315.16992 623.86328 L 315.16992 814.3457 L 325.82812 825.00391 L 336.48438 835.66016 L 608.06836 835.66016 L 879.77539 835.66016 L 890.34961 824.41016 L 900.73828 813.35352 L 901.78516 631.19922 C 902.13587 570.13379 902.08192 523.96991 901.60742 491.67383 C 901.37017 475.52579 901.02843 462.85017 900.57422 453.45703 C 900.12001 444.06389 899.72845 438.39368 898.71875 434.33008 C 893.22142 412.20566 881.59053 396.47151 863.28516 387.13281 C 859.72675 385.31745 855.50677 383.59129 848.70508 382.5293 C 841.90339 381.46731 832.26059 380.81681 815.91797 380.36133 C 783.23273 379.45037 723.74566 379.39648 608.875 379.39648 z M 608.875 392.78711 C 723.74114 392.78711 783.29933 392.84934 815.54492 393.74805 C 831.66772 394.1974 840.96256 394.87321 846.64062 395.75977 C 852.31869 396.64632 854.12158 397.48946 857.20117 399.06055 C 872.35144 406.78963 880.88264 418.07169 885.72461 437.55859 C 886.04074 438.83087 886.7575 444.9687 887.19922 454.10352 C 887.64094 463.23833 887.98277 475.80946 888.21875 491.87109 C 888.69071 523.99437 888.74498 570.10428 888.39453 631.12305 L 887.37891 808.01562 L 880.58984 815.24023 L 873.98438 822.26953 L 608.06836 822.26953 L 342.03125 822.26953 L 335.29688 815.53516 L 328.56055 808.79883 L 328.56055 623.86328 C 328.56055 561.88086 328.88039 514.13326 329.50977 481.11719 C 329.82445 464.60915 330.21834 451.77508 330.68164 442.75195 C 330.91329 438.24039 331.16338 434.67474 331.41797 432.15234 C 331.67255 429.62995 332.21557 427.70233 331.89648 428.54688 C 336.07439 417.48913 350.99901 402.03424 362.47266 397.125 C 363.05401 396.87625 367.50676 395.83145 375.90625 395.20508 C 384.30574 394.57871 396.89185 394.09229 415.26367 393.73242 C 452.00732 393.01269 511.93445 392.78711 608.875 392.78711 z M 375.40039 503.40039 L 375.40039 639.41602 L 375.40039 775.42969 L 607.07617 775.42969 L 838.75195 775.42969 L 838.75195 639.41602 L 838.75195 503.40039 L 607.07617 503.40039 L 375.40039 503.40039 z M 388.79102 516.79102 L 607.07617 516.79102 L 825.36133 516.79102 L 825.36133 639.41602 L 825.36133 762.03906 L 607.07617 762.03906 L 388.79102 762.03906 L 388.79102 639.41602 L 388.79102 516.79102 z "
         id="path85" />
    </g>
  </g>
  <style
     type="text/css"
     id="style24">
	.st0{fill:#FFFFFF;}
	.st1{fill:none;stroke:#EC008C;stroke-width:3.676;stroke-linejoin:round;stroke-miterlimit:10;}
	.st2{fill:none;stroke:#EC008C;stroke-width:1.6293;stroke-linecap:round;stroke-linejoin:round;stroke-miterlimit:3;}
	.st3{fill:#E48FBC;stroke:#EC008C;stroke-width:1.6293;stroke-linecap:round;stroke-linejoin:round;stroke-miterlimit:3;}
	.st4{fill:#A91A70;stroke:#A91A70;stroke-width:0.7698;stroke-linecap:round;stroke-linejoin:round;stroke-miterlimit:3;}
</style>
</svg>
