<?xml version="1.0" encoding="UTF-8" standalone="no"?>
<svg
   xmlns:dc="http://purl.org/dc/elements/1.1/"
   xmlns:cc="http://creativecommons.org/ns#"
   xmlns:rdf="http://www.w3.org/1999/02/22-rdf-syntax-ns#"
   xmlns:svg="http://www.w3.org/2000/svg"
   xmlns="http://www.w3.org/2000/svg"
   xmlns:sodipodi="http://sodipodi.sourceforge.net/DTD/sodipodi-0.dtd"
   xmlns:inkscape="http://www.inkscape.org/namespaces/inkscape"
   width="39.895355mm"
   height="9.8028479mm"
   viewBox="0 0 39.895356 9.8028478"
   version="1.1"
   id="svg8"
   sodipodi:docname="IconAsemRA.svg"
   inkscape:version="1.0.1 (3bc2e813f5, 2020-09-07)">
  <defs
     id="defs2">
    <clipPath
       id="clipPath18"
       clipPathUnits="userSpaceOnUse">
      <path
         id="path16"
         d="M 0,841.89 H 595.276 V 0 H 0 Z" />
    </clipPath>
    <clipPath
       id="clipPath4212"
       clipPathUnits="userSpaceOnUse">
      <path
         id="path4210"
         d="M -5.00037,846.89 H 600.276 V -5.00034 H -5.00037 Z" />
    </clipPath>
    <clipPath
       id="clipPath4216"
       clipPathUnits="userSpaceOnUse">
      <path
         id="path4214"
         d="M 0,0 H 595.275 V 841.89 H 0 Z" />
    </clipPath>
    <clipPath
       id="clipPath6570"
       clipPathUnits="userSpaceOnUse">
      <path
         id="path6568"
         d="M 314.13,56.732 H 427.22 V 84.52 H 314.13 Z" />
    </clipPath>
    <clipPath
       id="clipPath6714"
       clipPathUnits="userSpaceOnUse">
      <path
         id="path6712"
         d="M 0,841.89 H 595.276 V 0 H 0 Z" />
    </clipPath>
  </defs>
  <sodipodi:namedview
     id="base"
     pagecolor="#ffffff"
     bordercolor="#666666"
     borderopacity="1.0"
     inkscape:pageopacity="0.0"
     inkscape:pageshadow="2"
     inkscape:zoom="6.5750973"
     inkscape:cx="81.226704"
     inkscape:cy="13.587964"
     inkscape:document-units="mm"
     inkscape:current-layer="g6566"
     inkscape:document-rotation="0"
     showgrid="false"
     fit-margin-top="0"
     fit-margin-left="0"
     fit-margin-right="0"
     fit-margin-bottom="0"
     inkscape:window-width="2560"
     inkscape:window-height="1377"
     inkscape:window-x="-8"
     inkscape:window-y="-8"
     inkscape:window-maximized="1" />
  <metadata
     id="metadata5">
    <rdf:RDF>
      <cc:Work
         rdf:about="">
        <dc:format>image/svg+xml</dc:format>
        <dc:type
           rdf:resource="http://purl.org/dc/dcmitype/StillImage" />
        <dc:title></dc:title>
      </cc:Work>
    </rdf:RDF>
  </metadata>
  <g
     inkscape:label="Layer 1"
     inkscape:groupmode="layer"
     id="layer1"
     transform="translate(-55.966441,-57.124676)">
    <g
       id="g4208"
       transform="matrix(0.35277777,0,0,-0.35277777,-31.351356,245.00502)"
       style="display:inline" />
    <g
       clip-path="url(#clipPath6570)"
       id="g6566"
       transform="matrix(0.35277777,0,0,-0.35277777,-54.85164,86.941453)">
      <g
         transform="translate(331.9006,74.3202)"
         id="g6572">
        <path
           id="path6574"
           style="fill:#ffffff;fill-opacity:1;fill-rule:nonzero;stroke:none"
           d="m 0,0 c 0,4.479 -3.633,8.109 -8.109,8.109 -4.48,0 -8.113,-3.63 -8.113,-8.109 0,-4.479 3.633,-8.108 8.113,-8.108 C -3.633,-8.108 0,-4.479 0,0" />
      </g>
      <g
         transform="translate(404.2343,78.5963)"
         id="g6576">
        <path
           id="path6578"
           style="fill:#424c53;fill-opacity:1;fill-rule:nonzero;stroke:none"
           d="m 0,0 c -1.997,0 -3.664,-1.466 -3.991,-3.636 h -66.746 c -0.353,5.233 -4.733,9.166 -9.79,9.166 -5.291,0 -9.578,-4.287 -9.578,-9.575 0,-5.293 4.287,-9.58 9.578,-9.58 5.054,0 9.423,3.906 9.79,8.866 H -3.99 c 0.336,-1.901 2.001,-3.342 3.99,-3.342 2.239,0 4.052,1.815 4.052,4.049 C 4.052,-1.816 2.239,0 0,0 m -78.112,-7.695 c 1.309,-0.692 2.797,-0.145 3.009,-0.08 0.414,0.128 0.914,0.4 0.914,0.4 v -1.254 c 0,0 -0.495,-0.867 -3.227,-0.773 -1.831,0.059 -2.948,1.528 -2.948,1.528 0,0 -0.047,-0.071 -0.35,-0.324 -0.246,-0.209 -1.042,-0.947 -1.798,-1.099 -0.946,-0.19 -3.856,-0.509 -4.254,2.275 -0.032,0.205 -0.095,0.956 0.149,1.461 0.249,0.502 0.943,1.875 4.114,2.061 0.465,0.031 1.321,0.039 1.321,0.039 0,0 0.155,0.686 0.002,1.29 -0.149,0.6 -0.723,1.535 -1.75,1.554 -1.321,0.02 -2.804,-0.682 -2.804,-0.682 v 1.256 c 0,0 1.382,0.872 2.942,0.836 2.265,-0.051 2.599,-1.509 2.629,-1.479 0.615,0.679 1.561,1.119 2.123,1.238 2.238,0.49 3.775,-0.792 3.944,-1.844 0.129,-0.797 0.037,-2.86 -2.082,-3.408 -1.3,-0.335 -3.145,-0.159 -3.145,-0.159 0,0 -0.48,-1.94 1.211,-2.836" />
      </g>
      <g
         transform="translate(328.2569,75.7519)"
         id="g6580">
        <path
           id="path6582"
           style="fill:#424c53;fill-opacity:1;fill-rule:nonzero;stroke:none"
           d="m 0,0 c 0.198,0.169 0.902,1.425 -0.275,1.944 -0.434,0.191 -1.506,0.312 -2.32,-0.337 -0.306,-0.248 -0.883,-1.073 -0.901,-2.175 0,0 0.847,-0.016 1.763,-0.016 0.745,0 1.352,0.255 1.733,0.584" />
      </g>
      <g
         transform="translate(321.0782,73.6554)"
         id="g6584">
        <path
           id="path6586"
           style="fill:#424c53;fill-opacity:1;fill-rule:nonzero;stroke:none"
           d="M 0,0 C -0.956,-0.144 -1.422,-0.49 -1.722,-0.862 -2.05,-1.264 -2.12,-2.516 -1.28,-2.857 -0.838,-3.04 0.226,-3.169 1.039,-2.518 1.347,-2.273 2.094,-1.817 1.93,0.023 1.924,0.116 1.045,0.154 0,0" />
      </g>
      <g
         transform="translate(387.3211,83.1607)"
         id="g6588">
        <path
           id="path6590"
           style="fill:#0499db;fill-opacity:1;fill-rule:nonzero;stroke:none"
           d="m 0,0 c -0.311,0.445 -0.719,1.301 -1.542,1.338 h -5.457 c -1.412,0.04 -1.762,-1.11 -1.956,-2.1 -0.147,-0.746 -2.098,-16.545 -2.098,-16.545 -0.025,-0.183 0.11,-0.328 0.295,-0.328 h 4.549 c 0.182,0 0.348,0.145 0.373,0.328 0,0 1.091,8.842 1.091,9.107 0,0.263 0.453,4.442 0.552,4.949 0.071,0.354 0.181,0.6 0.902,0.59 h 0.867 c 0.275,-0.023 0.268,-0.243 0.268,-0.435 v -10.536 c 0,-0.181 0.197,-0.332 0.38,-0.332 h 3.843 c 0.182,0 0.379,0.151 0.381,0.332 v 10.536 c 10e-4,0.192 -0.012,0.412 0.265,0.435 h 0.866 c 0.721,0.01 0.833,-0.236 0.901,-0.59 0.1,-0.507 0.555,-4.686 0.555,-4.949 0,-0.265 1.09,-9.107 1.09,-9.107 0.022,-0.183 0.188,-0.328 0.37,-0.328 h 4.554 c 0.181,0 0.317,0.145 0.296,0.328 0,0 -1.954,15.799 -2.101,16.545 -0.191,0.99 -0.543,2.14 -1.951,2.1 H 1.833 C 1.098,1.305 0.81,0.788 0.288,0 0.213,-0.117 0.135,-0.188 0,0" />
      </g>
      <g
         transform="translate(375.3937,84.4996)"
         id="g6592">
        <path
           id="path6594"
           style="fill:#0499db;fill-opacity:1;fill-rule:nonzero;stroke:none"
           d="M 0,0 C 0.181,-0.005 0.333,-0.091 0.333,-0.273 V -3.585 C 0.333,-3.772 0.181,-3.919 0,-3.919 h -5.336 c -0.184,0 -0.335,-0.15 -0.335,-0.337 V -6.34 c 0,-0.188 0.151,-0.336 0.335,-0.336 H 0 c 0.181,0 0.333,-0.148 0.333,-0.331 v -3.399 c 0,-0.181 -0.152,-0.333 -0.333,-0.333 h -5.336 c -0.184,0 -0.335,-0.149 -0.335,-0.333 v -3.655 c 0,-0.184 0.151,-0.335 0.335,-0.335 H 0 c 0.181,0 0.333,-0.149 0.333,-0.333 v -3.247 c 0,-0.181 -0.152,-0.333 -0.333,-0.335 0,0 -7.768,-0.043 -9.346,0.002 -1.136,0.035 -1.49,0.959 -1.421,1.898 0.035,0.463 -0.04,14.252 0,15.966 0.012,0.374 0.343,1.047 1.614,1.111 z" />
      </g>
      <g
         transform="translate(362.6512,84.4996)"
         id="g6596">
        <path
           id="path6598"
           style="fill:#0499db;fill-opacity:1;fill-rule:nonzero;stroke:none"
           d="M 0,0 C 0.181,-0.005 0.334,-0.186 0.334,-0.368 V -3.529 C 0.334,-3.71 0.181,-3.908 0,-3.908 h -5.139 c -0.367,0 -0.671,-0.16 -0.863,-0.688 -0.148,-0.417 -0.367,-0.908 -0.393,-1.406 -0.019,-0.338 0.056,-0.546 0.758,-0.585 2.377,-0.119 3.284,0.129 4.835,-0.137 1.341,-0.234 2.639,-1.586 2.169,-3.545 -0.299,-1.252 -1.719,-5.575 -2.071,-6.643 -0.44,-1.337 -1.674,-2.097 -2.706,-2.063 -0.767,0.021 -8.19,0 -8.19,0 -0.177,0 -0.329,0.152 -0.329,0.333 v 3.411 c 0,0.183 0.152,0.338 0.329,0.338 h 4.086 c 1.809,0.062 2.193,0.06 2.688,1.333 0.392,1.012 0.607,1.949 0.607,1.949 0.168,0.707 -0.155,0.931 -0.338,0.93 0,0 -2.687,-0.03 -4.554,0.073 -1.234,0.069 -2.348,1.071 -2.631,1.815 -0.201,0.534 -0.114,1.133 -0.052,1.734 0.062,0.604 1.371,4.947 1.74,5.631 0.399,0.737 1.17,1.36 2.569,1.428 C -6.407,0.046 0,0 0,0" />
      </g>
      <g
         transform="translate(349.5164,84.0134)"
         id="g6600">
        <path
           id="path6602"
           style="fill:#0499db;fill-opacity:1;fill-rule:nonzero;stroke:none"
           d="m 0,0 c -0.007,0.263 -0.072,0.472 -0.424,0.486 h -7.094 c -0.597,-0.072 -1.678,-0.391 -2.347,-1.529 -0.665,-1.137 -6.097,-17.131 -6.097,-17.131 -0.058,-0.174 0.044,-0.313 0.228,-0.313 h 4.692 c 0.183,0 0.378,0.139 0.437,0.313 l 1.671,5.019 c 0.057,0.175 0.253,0.319 0.436,0.319 h 3.73 c 0.181,0 0.338,-0.156 0.343,-0.339 l 0.124,-4.981 c 0.002,-0.181 0.157,-0.331 0.338,-0.331 h 4.161 c 0.185,0 0.33,0.15 0.323,0.331 z m -4.692,-8.824 h -2.683 c 0,0 1.269,4.374 1.602,4.979 0.336,0.6 1.001,0.471 1.07,0 0.066,-0.473 0.011,-4.979 0.011,-4.979" />
      </g>
      <g
         transform="translate(333.943,57.918)"
         id="g6604">
        <path
           id="path6606"
           style="fill:#696667;fill-opacity:1;fill-rule:nonzero;stroke:none"
           d="M 0,0 0.02,-0.008 H 1.493 L 1.515,0 1.517,0.019 0.773,2.35 0.757,2.362 0.74,2.35 -0.002,0.019 0,0 m 1.865,-1.077 -0.229,0.719 -0.022,0.017 h -1.708 l -0.023,-0.017 -0.229,-0.719 -0.068,-0.047 h -0.308 l -0.047,0.063 1.262,3.892 0.07,0.045 H 0.951 L 1.019,2.831 2.288,-1.061 2.293,-1.082 2.242,-1.124 H 1.933 Z" />
      </g>
      <g
         transform="translate(338.733,60.0738)"
         id="g6608">
        <path
           id="path6610"
           style="fill:#696667;fill-opacity:1;fill-rule:nonzero;stroke:none"
           d="m 0,0 v -0.976 l 0.03,-0.029 h 0.747 c 0.16,0 0.291,0.048 0.391,0.143 0.101,0.096 0.153,0.22 0.153,0.371 0,0.153 -0.052,0.278 -0.153,0.374 C 1.068,-0.019 0.937,0.03 0.777,0.03 H 0.03 L 0,0 M 1.309,-3.227 0.595,-1.645 0.56,-1.622 H 0.03 L 0,-1.651 v -1.56 L -0.019,-3.26 -0.068,-3.279 h -0.669 l -0.048,0.019 -0.019,0.049 v 3.863 l 0.019,0.049 0.048,0.019 H 0.897 C 1.141,0.72 1.355,0.67 1.54,0.572 1.725,0.472 1.868,0.331 1.968,0.149 2.069,-0.033 2.12,-0.246 2.12,-0.485 2.12,-0.744 2.055,-0.965 1.926,-1.151 1.796,-1.335 1.615,-1.466 1.384,-1.542 L 1.366,-1.582 2.143,-3.199 2.155,-3.233 2.092,-3.279 H 1.388 l -0.079,0.052" />
      </g>
      <g
         transform="translate(343.3668,57.6234)"
         id="g6612">
        <path
           id="path6614"
           style="fill:#696667;fill-opacity:1;fill-rule:nonzero;stroke:none"
           d="m 0,0 c 0.13,0.133 0.194,0.31 0.194,0.532 v 1.256 c 0,0.221 -0.064,0.399 -0.192,0.534 -0.127,0.136 -0.298,0.203 -0.511,0.203 -0.21,0 -0.378,-0.067 -0.505,-0.203 C -1.142,2.187 -1.206,2.009 -1.206,1.788 V 0.532 c 0,-0.222 0.064,-0.399 0.192,-0.532 0.127,-0.133 0.295,-0.2 0.505,-0.2 0.21,0 0.379,0.067 0.509,0.2 m -1.294,-0.708 c -0.228,0.122 -0.403,0.292 -0.529,0.511 -0.126,0.22 -0.189,0.471 -0.189,0.756 v 1.224 c 0,0.281 0.063,0.531 0.189,0.748 0.126,0.216 0.301,0.385 0.529,0.506 0.226,0.119 0.488,0.18 0.785,0.18 0.3,0 0.565,-0.061 0.791,-0.18 C 0.509,2.916 0.685,2.747 0.812,2.531 0.937,2.314 0.999,2.064 0.999,1.783 V 0.559 C 0.999,0.274 0.937,0.021 0.812,-0.2 0.685,-0.421 0.509,-0.591 0.282,-0.712 c -0.226,-0.12 -0.491,-0.179 -0.791,-0.179 -0.297,0 -0.559,0.062 -0.785,0.183" />
      </g>
      <g
         transform="translate(345.6059,56.9237)"
         id="g6616">
        <path
           id="path6618"
           style="fill:#696667;fill-opacity:1;fill-rule:nonzero;stroke:none"
           d="M 0,0 C -0.225,0.116 -0.398,0.279 -0.52,0.489 -0.642,0.697 -0.703,0.94 -0.703,1.213 v 1.321 c 0,0.274 0.061,0.516 0.183,0.726 0.122,0.208 0.295,0.37 0.52,0.485 0.224,0.114 0.486,0.171 0.783,0.171 0.292,0 0.552,-0.055 0.773,-0.162 C 1.779,3.645 1.953,3.491 2.076,3.291 2.2,3.09 2.262,2.859 2.262,2.597 L 2.193,2.534 1.526,2.494 H 1.515 L 1.456,2.556 C 1.456,2.758 1.394,2.92 1.272,3.041 1.148,3.164 0.984,3.225 0.783,3.225 0.577,3.225 0.412,3.164 0.288,3.041 0.164,2.92 0.103,2.758 0.103,2.556 V 1.18 C 0.103,0.982 0.164,0.822 0.288,0.7 0.412,0.578 0.577,0.517 0.783,0.517 c 0.201,0 0.365,0.061 0.489,0.183 0.122,0.122 0.184,0.282 0.184,0.48 l 0.07,0.063 0.667,-0.03 0.049,-0.016 0.02,-0.04 C 2.262,0.894 2.2,0.661 2.076,0.46 1.953,0.257 1.779,0.102 1.556,-0.008 1.335,-0.119 1.075,-0.174 0.783,-0.174 0.486,-0.174 0.224,-0.116 0,0" />
      </g>
      <g
         transform="translate(348.4764,56.815)"
         id="g6620">
        <path
           id="path6622"
           style="fill:#696667;fill-opacity:1;fill-rule:nonzero;stroke:none"
           d="M 0,0 -0.02,0.049 V 3.91 L 0,3.959 0.049,3.979 H 0.717 L 0.765,3.959 0.785,3.91 V 2.311 L 0.797,2.291 0.82,2.3 2.139,3.939 2.225,3.979 H 2.98 L 3.037,3.953 3.025,3.894 1.751,2.266 1.746,2.225 3.094,0.061 3.105,0.02 3.049,-0.019 H 2.293 L 2.214,0.026 1.197,1.671 1.18,1.683 1.157,1.671 0.797,1.22 0.785,1.186 V 0.049 L 0.765,0 0.717,-0.019 H 0.049 Z" />
      </g>
      <g
         transform="translate(352.8383,56.8522)"
         id="g6624">
        <path
           id="path6626"
           style="fill:#696667;fill-opacity:1;fill-rule:nonzero;stroke:none"
           d="m 0,0 -1.012,3.867 -0.005,0.023 0.064,0.051 h 0.707 L -0.172,3.885 0.372,1.56 0.389,1.536 0.406,1.56 0.931,3.879 1.006,3.941 H 1.697 L 1.777,3.885 2.348,1.56 2.366,1.54 2.382,1.56 2.908,3.879 2.983,3.941 H 3.656 L 3.72,3.867 2.782,0 2.702,-0.057 H 2.022 L 1.947,0 1.366,2.474 1.349,2.497 1.331,2.474 0.788,0.006 0.714,-0.057 H 0.08 Z" />
      </g>
      <g
         transform="translate(359.7651,60.1229)"
         id="g6628">
        <path
           id="path6630"
           style="fill:#696667;fill-opacity:1;fill-rule:nonzero;stroke:none"
           d="m 0,0 -0.049,-0.019 h -1.873 l -0.029,-0.03 v -0.884 l 0.029,-0.03 h 1.228 l 0.048,-0.019 0.02,-0.049 v -0.554 l -0.02,-0.049 -0.048,-0.019 h -1.228 l -0.029,-0.03 v -0.925 l 0.029,-0.028 h 1.873 L 0,-2.657 0.02,-2.705 V -3.26 L 0,-3.308 -0.049,-3.328 h -2.64 l -0.047,0.02 -0.021,0.048 v 3.863 l 0.021,0.049 0.047,0.019 h 2.64 L 0,0.652 0.02,0.603 V 0.049 Z" />
      </g>
      <g
         transform="translate(360.3652,56.815)"
         id="g6632">
        <path
           id="path6634"
           style="fill:#696667;fill-opacity:1;fill-rule:nonzero;stroke:none"
           d="M 0,0 -0.02,0.049 V 3.91 L 0,3.959 0.049,3.979 H 0.717 L 0.765,3.959 0.785,3.91 V 0.701 L 0.814,0.671 H 2.682 L 2.73,0.652 2.751,0.603 V 0.049 L 2.73,0 2.682,-0.019 H 0.049 Z" />
      </g>
      <g
         transform="translate(363.6327,56.815)"
         id="g6636">
        <path
           id="path6638"
           style="fill:#696667;fill-opacity:1;fill-rule:nonzero;stroke:none"
           d="M 0,0 -0.019,0.049 V 3.91 L 0,3.959 0.049,3.979 H 0.717 L 0.766,3.959 0.785,3.91 V 0.701 L 0.814,0.671 H 2.682 L 2.73,0.652 2.751,0.603 V 0.049 L 2.73,0 2.682,-0.019 H 0.049 Z" />
      </g>
      <g
         transform="translate(369.0859,58.058)"
         id="g6640">
        <path
           id="path6642"
           style="fill:#696667;fill-opacity:1;fill-rule:nonzero;stroke:none"
           d="M 0,0 H 1.006 L 1.029,0.033 0.514,1.73 0.497,1.751 0.479,1.73 -0.023,0.033 0,0 m 1.405,-1.206 -0.17,0.56 -0.029,0.023 H -0.2 l -0.029,-0.023 -0.166,-0.56 -0.073,-0.056 h -0.726 l -0.051,0.019 -0.006,0.061 1.234,3.861 0.074,0.057 H 0.953 L 1.029,2.679 2.262,-1.182 2.268,-1.211 2.205,-1.262 H 1.48 Z" />
      </g>
      <g
         transform="translate(372.4535,56.9206)"
         id="g6644">
        <path
           id="path6646"
           style="fill:#696667;fill-opacity:1;fill-rule:nonzero;stroke:none"
           d="M 0,0 C -0.223,0.114 -0.397,0.275 -0.52,0.483 -0.644,0.691 -0.706,0.93 -0.706,1.2 v 2.605 l 0.021,0.048 0.047,0.02 H 0.031 L 0.08,3.853 0.1,3.805 V 1.194 C 0.1,0.992 0.161,0.829 0.286,0.706 0.41,0.582 0.572,0.521 0.773,0.521 c 0.203,0 0.365,0.061 0.489,0.185 0.124,0.123 0.186,0.286 0.186,0.488 v 2.611 l 0.02,0.048 0.049,0.02 H 2.186 L 2.233,3.853 2.254,3.805 V 1.2 C 2.254,0.93 2.192,0.691 2.069,0.483 1.944,0.275 1.771,0.114 1.548,0 1.325,-0.114 1.068,-0.172 0.773,-0.172 0.48,-0.172 0.223,-0.114 0,0" />
      </g>
      <g
         transform="translate(378.1779,60.7743)"
         id="g6648">
        <path
           id="path6650"
           style="fill:#696667;fill-opacity:1;fill-rule:nonzero;stroke:none"
           d="M 0,0 0.019,-0.049 V -0.608 L 0,-0.657 -0.049,-0.677 H -1.071 L -1.099,-0.706 V -3.91 l -0.021,-0.049 -0.049,-0.02 h -0.668 l -0.048,0.02 -0.021,0.049 v 3.204 l -0.027,0.029 h -0.994 l -0.049,0.02 -0.02,0.049 v 0.559 L -2.976,0 -2.927,0.019 h 2.878 z" />
      </g>
      <g
         transform="translate(380.4823,57.6234)"
         id="g6652">
        <path
           id="path6654"
           style="fill:#696667;fill-opacity:1;fill-rule:nonzero;stroke:none"
           d="m 0,0 c 0.13,0.133 0.195,0.31 0.195,0.532 v 1.256 c 0,0.221 -0.064,0.399 -0.191,0.534 -0.128,0.136 -0.3,0.203 -0.512,0.203 -0.209,0 -0.377,-0.067 -0.505,-0.203 C -1.141,2.187 -1.205,2.009 -1.205,1.788 V 0.532 c 0,-0.222 0.064,-0.399 0.192,-0.532 0.128,-0.133 0.296,-0.2 0.505,-0.2 0.209,0 0.379,0.067 0.508,0.2 m -1.293,-0.708 c -0.228,0.122 -0.403,0.292 -0.529,0.511 -0.125,0.22 -0.189,0.471 -0.189,0.756 v 1.224 c 0,0.281 0.064,0.531 0.189,0.748 0.126,0.216 0.301,0.385 0.529,0.506 0.226,0.119 0.489,0.18 0.785,0.18 0.301,0 0.565,-0.061 0.792,-0.18 C 0.51,2.916 0.686,2.747 0.812,2.531 0.937,2.314 1,2.064 1,1.783 V 0.559 C 1,0.274 0.937,0.021 0.812,-0.2 0.686,-0.421 0.51,-0.591 0.284,-0.712 c -0.227,-0.12 -0.491,-0.179 -0.792,-0.179 -0.296,0 -0.559,0.062 -0.785,0.183" />
      </g>
      <g
         transform="translate(384.7503,60.7941)"
         id="g6656">
        <path
           id="path6658"
           style="fill:#696667;fill-opacity:1;fill-rule:nonzero;stroke:none"
           d="m 0,0 h 0.669 l 0.048,-0.019 0.02,-0.049 V -3.931 L 0.717,-3.979 0.669,-3.998 H 0 l -0.049,0.019 -0.019,0.048 v 2.52 l -0.012,0.023 -0.023,-0.017 -0.605,-0.949 -0.08,-0.045 h -0.337 l -0.081,0.045 -0.606,0.949 -0.021,0.014 -0.012,-0.026 v -2.514 l -0.02,-0.048 -0.049,-0.019 h -0.669 l -0.047,0.019 -0.021,0.048 v 3.863 L -2.63,-0.019 -2.583,0 h 0.669 l 0.081,-0.046 0.856,-1.331 h 0.034 l 0.863,1.331 z" />
      </g>
      <g
         transform="translate(387.2468,58.058)"
         id="g6660">
        <path
           id="path6662"
           style="fill:#696667;fill-opacity:1;fill-rule:nonzero;stroke:none"
           d="M 0,0 H 1.006 L 1.029,0.033 0.514,1.73 0.497,1.751 0.479,1.73 -0.023,0.033 0,0 m 1.405,-1.206 -0.17,0.56 -0.029,0.023 H -0.2 l -0.029,-0.023 -0.166,-0.56 -0.073,-0.056 h -0.726 l -0.051,0.019 -0.006,0.061 1.234,3.861 0.074,0.057 H 0.953 L 1.029,2.679 2.262,-1.182 2.268,-1.211 2.205,-1.262 H 1.48 Z" />
      </g>
      <g
         transform="translate(392.3343,60.7743)"
         id="g6664">
        <path
           id="path6666"
           style="fill:#696667;fill-opacity:1;fill-rule:nonzero;stroke:none"
           d="M 0,0 0.019,-0.049 V -0.608 L 0,-0.657 -0.049,-0.677 H -1.071 L -1.1,-0.706 V -3.91 l -0.02,-0.049 -0.049,-0.02 h -0.668 l -0.048,0.02 -0.021,0.049 v 3.204 l -0.028,0.029 h -0.993 l -0.049,0.02 -0.02,0.049 v 0.559 L -2.976,0 -2.927,0.019 h 2.878 z" />
      </g>
      <g
         transform="translate(392.8882,56.815)"
         id="g6668">
        <path
           id="path6670"
           style="fill:#696667;fill-opacity:1;fill-rule:nonzero;stroke:none"
           d="M 0,0 -0.019,0.049 V 3.91 L 0,3.959 0.049,3.979 H 0.717 L 0.766,3.959 0.785,3.91 V 0.049 L 0.766,0 0.717,-0.019 H 0.049 Z" />
      </g>
      <g
         transform="translate(396.301,57.6234)"
         id="g6672">
        <path
           id="path6674"
           style="fill:#696667;fill-opacity:1;fill-rule:nonzero;stroke:none"
           d="m 0,0 c 0.13,0.133 0.195,0.31 0.195,0.532 v 1.256 c 0,0.221 -0.064,0.399 -0.191,0.534 -0.128,0.136 -0.3,0.203 -0.512,0.203 -0.209,0 -0.378,-0.067 -0.505,-0.203 C -1.141,2.187 -1.205,2.009 -1.205,1.788 V 0.532 c 0,-0.222 0.064,-0.399 0.192,-0.532 0.127,-0.133 0.296,-0.2 0.505,-0.2 0.209,0 0.379,0.067 0.508,0.2 m -1.293,-0.708 c -0.228,0.122 -0.403,0.292 -0.529,0.511 -0.125,0.22 -0.189,0.471 -0.189,0.756 v 1.224 c 0,0.281 0.064,0.531 0.189,0.748 0.126,0.216 0.301,0.385 0.529,0.506 0.226,0.119 0.489,0.18 0.785,0.18 0.301,0 0.565,-0.061 0.792,-0.18 C 0.51,2.916 0.686,2.747 0.812,2.531 0.937,2.314 1,2.064 1,1.783 V 0.559 C 1,0.274 0.937,0.021 0.812,-0.2 0.686,-0.421 0.51,-0.591 0.284,-0.712 c -0.227,-0.12 -0.491,-0.179 -0.792,-0.179 -0.296,0 -0.559,0.062 -0.785,0.183" />
      </g>
      <g
         transform="translate(400.2349,60.7743)"
         id="g6676">
        <path
           id="path6678"
           style="fill:#696667;fill-opacity:1;fill-rule:nonzero;stroke:none"
           d="M 0,0 0.049,0.019 H 0.717 L 0.766,0 0.785,-0.049 V -3.91 L 0.766,-3.959 0.717,-3.979 H 0.072 l -0.08,0.045 -1.481,2.445 -0.022,0.015 -0.011,-0.025 0.011,-2.411 -0.02,-0.049 -0.049,-0.02 h -0.669 l -0.048,0.02 -0.02,0.049 v 3.861 L -2.297,0 -2.249,0.019 h 0.647 l 0.08,-0.045 1.473,-2.434 0.023,-0.014 0.012,0.026 -0.006,2.399 z" />
      </g>
      <g
         transform="translate(403.5627,56.9008)"
         id="g6680">
        <path
           id="path6682"
           style="fill:#696667;fill-opacity:1;fill-rule:nonzero;stroke:none"
           d="M 0,0 C -0.203,0.105 -0.359,0.254 -0.472,0.446 -0.584,0.639 -0.64,0.86 -0.64,1.111 v 1.571 c 0,0.249 0.056,0.467 0.168,0.657 0.113,0.191 0.269,0.338 0.472,0.444 0.203,0.103 0.436,0.156 0.703,0.156 0.266,0 0.5,-0.051 0.702,-0.154 C 1.608,3.681 1.764,3.537 1.877,3.35 1.989,3.164 2.045,2.949 2.045,2.705 L 2.027,2.66 1.988,2.642 1.697,2.626 1.64,2.677 V 2.693 C 1.64,2.964 1.554,3.18 1.382,3.342 1.211,3.504 0.984,3.585 0.703,3.585 0.421,3.585 0.194,3.503 0.023,3.339 -0.149,3.175 -0.234,2.96 -0.234,2.693 V 1.094 c 0,-0.267 0.085,-0.483 0.257,-0.646 0.171,-0.163 0.398,-0.245 0.68,-0.245 0.281,0 0.508,0.081 0.679,0.243 C 1.554,0.608 1.64,0.824 1.64,1.094 V 1.106 L 1.697,1.157 1.988,1.139 2.045,1.089 C 2.045,0.84 1.989,0.622 1.877,0.435 1.764,0.245 1.608,0.1 1.405,-0.002 1.203,-0.106 0.969,-0.157 0.703,-0.157 0.436,-0.157 0.203,-0.105 0,0" />
      </g>
      <g
         transform="translate(408.4475,57.3603)"
         id="g6684">
        <path
           id="path6686"
           style="fill:#696667;fill-opacity:1;fill-rule:nonzero;stroke:none"
           d="M 0,0 C 0.175,0.175 0.262,0.408 0.262,0.697 V 2.16 C 0.262,2.449 0.175,2.683 0,2.86 -0.175,3.037 -0.408,3.125 -0.697,3.125 -0.983,3.125 -1.213,3.037 -1.388,2.86 -1.564,2.683 -1.652,2.449 -1.652,2.16 V 0.697 c 0,-0.289 0.088,-0.522 0.264,-0.697 0.175,-0.175 0.405,-0.262 0.691,-0.262 0.289,0 0.522,0.087 0.697,0.262 m -1.411,-0.445 c -0.206,0.111 -0.365,0.266 -0.478,0.465 -0.112,0.2 -0.168,0.432 -0.168,0.695 v 1.44 c 0,0.262 0.056,0.493 0.168,0.693 0.113,0.201 0.272,0.356 0.478,0.466 0.205,0.11 0.443,0.166 0.714,0.166 0.27,0 0.509,-0.056 0.716,-0.166 C 0.226,3.204 0.387,3.049 0.501,2.848 0.611,2.648 0.667,2.417 0.667,2.155 V 0.715 C 0.667,0.452 0.611,0.22 0.501,0.02 0.387,-0.179 0.226,-0.334 0.019,-0.445 c -0.207,-0.11 -0.446,-0.166 -0.716,-0.166 -0.271,0 -0.509,0.056 -0.714,0.166" />
      </g>
      <g
         transform="translate(412.7317,60.7941)"
         id="g6688">
        <path
           id="path6690"
           style="fill:#696667;fill-opacity:1;fill-rule:nonzero;stroke:none"
           d="M 0,0 H 0.297 L 0.354,-0.057 V -3.941 L 0.297,-3.998 H 0.006 l -0.057,0.057 v 3.176 l -0.012,0.023 -0.017,-0.012 -0.932,-1.429 -0.068,-0.04 h -0.148 l -0.069,0.035 -0.93,1.417 -0.018,0.011 -0.011,-0.023 v -3.158 l -0.058,-0.057 h -0.291 l -0.057,0.057 v 3.884 L -2.605,0 h 0.298 l 0.068,-0.035 1.073,-1.628 0.018,-0.006 0.017,0.006 1.063,1.624 z" />
      </g>
      <g
         transform="translate(416.1765,59.1232)"
         id="g6692">
        <path
           id="path6694"
           style="fill:#696667;fill-opacity:1;fill-rule:nonzero;stroke:none"
           d="M 0,0 C 0.141,0.139 0.212,0.323 0.212,0.552 0.212,0.784 0.141,0.97 0,1.111 -0.141,1.251 -0.324,1.322 -0.548,1.322 H -1.634 L -1.657,1.3 v -1.486 l 0.023,-0.023 h 1.086 c 0.224,0 0.407,0.07 0.548,0.209 M 0.306,1.368 C 0.51,1.162 0.611,0.891 0.611,0.557 0.611,0.225 0.508,-0.041 0.3,-0.243 0.093,-0.445 -0.181,-0.546 -0.52,-0.546 h -1.114 l -0.023,-0.022 v -1.704 l -0.057,-0.057 h -0.291 l -0.057,0.057 V 1.62 l 0.057,0.057 h 1.502 c 0.335,0 0.606,-0.104 0.809,-0.309" />
      </g>
      <g
         transform="translate(417.8416,57.918)"
         id="g6696">
        <path
           id="path6698"
           style="fill:#696667;fill-opacity:1;fill-rule:nonzero;stroke:none"
           d="M 0,0 0.02,-0.008 H 1.493 L 1.515,0 1.517,0.019 0.773,2.35 0.757,2.362 0.74,2.35 -0.002,0.019 0,0 m 1.865,-1.077 -0.229,0.719 -0.021,0.017 h -1.709 l -0.023,-0.017 -0.229,-0.719 -0.068,-0.047 h -0.308 l -0.046,0.063 1.263,3.892 0.068,0.045 H 0.951 L 1.019,2.831 2.288,-1.061 2.293,-1.082 2.242,-1.124 H 1.933 Z" />
      </g>
      <g
         transform="translate(423.3121,60.7941)"
         id="g6700">
        <path
           id="path6702"
           style="fill:#696667;fill-opacity:1;fill-rule:nonzero;stroke:none"
           d="M 0,0 H 0.292 L 0.348,-0.057 V -3.941 L 0.292,-3.998 H 0.005 l -0.068,0.039 -1.948,3.171 -0.017,0.015 -0.011,-0.022 0.005,-3.146 -0.056,-0.057 h -0.292 l -0.058,0.057 v 3.884 L -2.382,0 h 0.286 l 0.068,-0.039 1.948,-3.172 0.017,-0.014 0.012,0.02 -0.006,3.148 z" />
      </g>
      <g
         transform="translate(425.6142,56.858)"
         id="g6704">
        <path
           id="path6706"
           style="fill:#696667;fill-opacity:1;fill-rule:nonzero;stroke:none"
           d="m 0,0 v 1.691 l -0.006,0.028 -1.188,2.148 -0.012,0.035 0.051,0.035 h 0.309 L -0.777,3.896 0.182,2.154 0.199,2.149 0.217,2.154 1.182,3.896 1.251,3.937 H 1.56 L 1.605,3.916 1.599,3.867 0.411,1.719 0.406,1.691 V 0 L 0.348,-0.057 H 0.057 Z" />
      </g>
    </g>
  </g>
</svg>
