<svg id="Layer_1" data-name="Layer 1" xmlns="http://www.w3.org/2000/svg" viewBox="0 0 420 188"><defs><style>.cls-1{fill:#3b3b3b;}</style></defs><path class="cls-1" d="M49.86,52,83.92,26.72a.63.63,0,0,0-.38-1.13H55.62A12.21,12.21,0,0,0,47,29.16L29.21,46.94a12.22,12.22,0,0,0-3.58,8.64V80.73a12.22,12.22,0,0,0,3.58,8.63L47,107.14a12.22,12.22,0,0,0,8.63,3.58H79.81a.63.63,0,0,0,.27-1.2L32,86.86a5.74,5.74,0,0,1-3.29-5.19V69.61a4,4,0,0,1,1.61-3.19l6.92-5.13V52Z"/><polygon class="cls-1" points="82.98 61.69 79.7 70.64 86.14 70.64 82.98 61.69"/><path class="cls-1" d="M55.34,62c0-2.86-2-3.27-4-3.27H47.18v6.74h4C53.28,65.51,55.34,65.24,55.34,62Z"/><path class="cls-1" d="M107.66,47.42,91.11,30.86a2.73,2.73,0,0,0-3.48-.31L55.77,52c6,.38,9.68,2.82,9.68,8.4,0,4.87-2.62,7.9-7.06,8.42v.09a7,7,0,0,1,4.45,2.62,4,4,0,0,1,.73,1.54l2.52,7.62L76.92,53.58A2.5,2.5,0,0,1,79.25,52h9.52l12.65,31.68H93.59a4.17,4.17,0,0,1-3.75-2.51h0L88.62,77.7H77.13l-2.23,6H57.73a1.9,1.9,0,0,1-1.86-1.6L53,73.78c-.4-1.42-1.81-1.65-3.2-1.65H47V83.68H37.26V64.48l-5.84,3.93A2,2,0,0,0,30.57,70V82.26a2,2,0,0,0,1.19,1.81l55.12,23.07a2.71,2.71,0,0,0,3-.56l17.77-17.69a10.62,10.62,0,0,0,3.11-7.51V54.91A10.58,10.58,0,0,0,107.66,47.42Z"/><path class="cls-1" d="M222.87,79.21c-8.27,0-13.21,4.34-13.21,11.61s4.94,11.57,13.21,11.57,13.24-4.33,13.24-11.57S231.16,79.21,222.87,79.21Zm0,16.75c-2.44,0-4.07-2.08-4.07-5.18s1.63-5.23,4.07-5.23,4.06,2,4.06,5.23S225.38,96,222.87,96Z"/><path class="cls-1" d="M327.18,98.64a3.2,3.2,0,0,0,3.18,3.22h6.19V79.77h-9.37Z"/><rect class="cls-1" x="327.18" y="72.52" width="9.37" height="4.57"/><path class="cls-1" d="M353.49,79.21c-8.27,0-13.21,4.34-13.21,11.61s4.94,11.57,13.21,11.57,13.24-4.33,13.24-11.57S361.78,79.21,353.49,79.21Zm0,16.75c-2.44,0-4.07-2.08-4.07-5.18s1.63-5.23,4.07-5.23,4.06,2,4.06,5.23S356,96,353.49,96Z"/><path class="cls-1" d="M178.39,44.15c-8.26,0-13.2,4.34-13.2,11.61s4.94,11.57,13.2,11.57S191.64,63,191.64,55.76,186.69,44.15,178.39,44.15Zm0,16.76c-2.43,0-4.06-2.09-4.06-5.19s1.63-5.22,4.06-5.22,4.07,2,4.07,5.22S180.9,60.91,178.39,60.91Z"/><path class="cls-1" d="M309.23,61.15c-1,0-5.2.24-8.9.24s-5.13-.39-5.89-2.84h15a.7.7,0,0,0,.71-.7V56.13c0-7.61-4-11.88-11.76-12C289.75,44,285.7,48.57,285.7,55.4c0,7.5,4,12,13.38,12,6.74,0,9.79-2.74,10.38-5.9C309.48,61.35,309.34,61.15,309.23,61.15ZM298.42,49.27c2.49,0,3.61,2,3.61,4.58h-7.7C294.33,51.29,295.2,49.27,298.42,49.27Z"/><path class="cls-1" d="M322.72,37.47h-6.1a3.2,3.2,0,0,0-3.18,3.22V66.81h9.28Z"/><path class="cls-1" d="M204.93,67.17a34,34,0,0,0,9.3-.74.81.81,0,0,0,.65-.8v-5.4s-1.71.19-5.79.19c-3.53,0-5.72-1.82-5.72-4.76s2.06-4.79,5.38-4.79a33.51,33.51,0,0,1,6.13.47V45.88a.82.82,0,0,0-.64-.8,36.76,36.76,0,0,0-8.81-.93c-6.87.41-11.15,4.43-11.15,11.55C194.28,62.46,198.31,66.56,204.93,67.17Z"/><path class="cls-1" d="M297.21,79.69v2.86a7.22,7.22,0,0,0-6.42-3.39c-7,0-10.94,4.33-10.94,11.58v.08c0,7.24,3.95,11.57,10.94,11.57A7.2,7.2,0,0,0,297.21,99v.49a2.36,2.36,0,0,0,2.35,2.37h6.49V79.69h-8.84ZM293.14,96c-2.43,0-4.06-2.09-4.06-5.19s1.63-5.19,4.06-5.19,4.07,2,4.07,5.19S295.65,96,293.14,96Z"/><path class="cls-1" d="M275.69,44.72l-2.61,14.46-2.93-14.46H259.6l-2.92,14.46-2.61-14.46h-8.79l-9.14-.08a4.05,4.05,0,0,0-3.44,2.17l-5.2,7.56v-17h-5.66a3.21,3.21,0,0,0-3.18,3.23V66.74h8.84v-11l6.07,8.84A4,4,0,0,0,237,66.74l9.16.07L237.2,55l8.08-10.27,5.28,22.08h9.86a2.26,2.26,0,0,0,2.21-1.91l1.89-13.09h.72l1.89,13.09a2.26,2.26,0,0,0,2.2,1.91h9.87l5.28-22.09Z"/><path class="cls-1" d="M180.6,89.33c0,3.78-1.21,5.71-3.6,5.71-1.49,0-3-.5-3-4.14V79.77h-8.84V92.38c0,6.35,3.17,9.85,8.92,9.85a9.75,9.75,0,0,0,7.21-2.92v.17a2.36,2.36,0,0,0,2.34,2.38h5.82V79.77H180.6Z"/><path class="cls-1" d="M268.73,79.24A9.3,9.3,0,0,0,261.16,83a8.12,8.12,0,0,0-7.24-3.73,9.32,9.32,0,0,0-6.87,2.91V79.77H239v22.09h8.75V91.22c0-2.86,1.3-4.71,3.31-4.71,1.43,0,2.75.49,2.75,4v11.33h8.79V91.22c0-2.9,1.25-4.71,3.26-4.71,1.43,0,2.76.49,2.76,4v11.33h8.75V89C277.35,82.72,274.29,79.24,268.73,79.24Z"/><path class="cls-1" d="M385,79.2a9.71,9.71,0,0,0-7.21,3V79.77H369.6v22.09h8.84V91.22c0-2.93,1.41-4.83,3.6-4.83,1.49,0,3,.5,3,4.14v11.33h8.8V89C393.84,82.7,390.69,79.2,385,79.2Z"/><path class="cls-1" d="M318.63,72.52h-8.84V98.64a3.2,3.2,0,0,0,3.18,3.22h5.66V86.28H324V79.77h-5.34Z"/><path class="cls-1" d="M336.43,37.47h-6.09a3.21,3.21,0,0,0-3.19,3.22V66.81h9.28Z"/><path class="cls-1" d="M143.92,72.52A2.34,2.34,0,0,0,141.76,74l-11.13,27.88h9.26L142,96.32H152.6l1.13,3.21h0a3.87,3.87,0,0,0,3.47,2.32h7.25L152.73,72.52Zm.42,17.26,3-8.29,2.92,8.29Z"/><path class="cls-1" d="M202.8,72.53h-9.37V98.65a3.21,3.21,0,0,0,3.18,3.23h6.19V86.29h5.34V79.78H202.8Z"/><path class="cls-1" d="M160.91,55.51a6.47,6.47,0,0,0-4.12-2.43V53c4.11-.49,6.55-3.3,6.55-7.8,0-5.65-4-7.84-10.58-7.84H136.92V66.76h9.36V56.06h2.58c1.28,0,2.59.21,3,1.52l2.64,7.69a1.77,1.77,0,0,0,1.72,1.49h8.66l-3.24-9.82A3.8,3.8,0,0,0,160.91,55.51Zm-10.8-5.58h-3.7V43.69h3.84c1.91,0,3.72.38,3.72,3C154,49.68,152.06,49.93,150.11,49.93Z"/><g id="EHP_1-line_-_Black" data-name="EHP 1-line - Black"><g id="EHP_1-line_-_Black-2" data-name="EHP 1-line - Black"><path class="cls-1" d="M46.22,145.31A5.72,5.72,0,0,0,42.15,144a5.84,5.84,0,0,0-3.61,1.13,5.47,5.47,0,0,0-2,3,6.9,6.9,0,0,0-.21,1.38c0,.51-.05,1.18-.05,2a11.78,11.78,0,0,0,.53,4,5.18,5.18,0,0,0,2,2.67,6.11,6.11,0,0,0,3.45,1,6.74,6.74,0,0,0,3.34-.8,5.15,5.15,0,0,0,2.17-2.19.28.28,0,0,0-.11-.4l-1.13-.67c-.16-.1-.29-.06-.41.11a3.8,3.8,0,0,1-1.45,1.57,4.12,4.12,0,0,1-2.15.55,4.48,4.48,0,0,1-2.67-.75,3.47,3.47,0,0,1-1.36-2.06,12.59,12.59,0,0,1-.18-2.06.11.11,0,0,1,.12-.12h9.37a.25.25,0,0,0,.29-.29v-.93a14.46,14.46,0,0,0-.11-2A6.17,6.17,0,0,0,46.22,145.31ZM46,150.59H38.44a.11.11,0,0,1-.12-.12,9.1,9.1,0,0,1,.24-2,3.43,3.43,0,0,1,1.23-2,3.74,3.74,0,0,1,2.36-.74,3.87,3.87,0,0,1,2.46.77,3.65,3.65,0,0,1,1.29,2.08,12.77,12.77,0,0,1,.17,1.85C46.07,150.55,46,150.59,46,150.59Z"/><path class="cls-1" d="M62,144.55c.07-.09.09-.18.05-.24a.24.24,0,0,0-.23-.11H60.12a.39.39,0,0,0-.35.18L56,149.86a.15.15,0,0,1-.18,0L52,144.38a.39.39,0,0,0-.35-.18H50.11c-.18,0-.26.07-.26.21a.17.17,0,0,0,0,.14l4.85,6.91a.14.14,0,0,1,0,.17l-4.85,6.91c-.07.08-.09.16,0,.23a.27.27,0,0,0,.25.12h1.65a.4.4,0,0,0,.35-.17l3.83-5.49a.1.1,0,0,1,.09-.06s.06,0,.08.06l3.78,5.49a.38.38,0,0,0,.34.17h1.6a.24.24,0,0,0,.18-.06.21.21,0,0,0,.05-.11.3.3,0,0,0-.05-.18l-4.85-6.91a.25.25,0,0,1,0-.17Z"/><path class="cls-1" d="M74.27,145A5.47,5.47,0,0,0,70.86,144a4.71,4.71,0,0,0-2.11.47,4.42,4.42,0,0,0-1.58,1.3s-.07.06-.1,0,0,0,0-.08V144.5a.26.26,0,0,0-.29-.3H65.26c-.2,0-.29.1-.29.3v19.73a.25.25,0,0,0,.29.29h1.48a.26.26,0,0,0,.29-.29v-6.82s0-.06,0-.07.06,0,.1,0a4.28,4.28,0,0,0,1.6,1.29,4.84,4.84,0,0,0,2.09.45,5.47,5.47,0,0,0,3.46-1.06,5.4,5.4,0,0,0,1.91-2.91,13.48,13.48,0,0,0,.37-3.6,12.77,12.77,0,0,0-.43-3.69A5.33,5.33,0,0,0,74.27,145Zm.08,8.75a5.12,5.12,0,0,1-.48,1.43,3.22,3.22,0,0,1-1.23,1.54,3.48,3.48,0,0,1-2,.58,3.16,3.16,0,0,1-1.9-.59,3.32,3.32,0,0,1-1.14-1.58,4.85,4.85,0,0,1-.41-1.41,15.49,15.49,0,0,1-.12-2.19,15.23,15.23,0,0,1,.12-2.18,5,5,0,0,1,.38-1.36,3.61,3.61,0,0,1,1.16-1.63,3.1,3.1,0,0,1,1.94-.61,3.67,3.67,0,0,1,2.11.61A3.17,3.17,0,0,1,74,148a5,5,0,0,1,.41,1.37,16.73,16.73,0,0,1,.11,2.14A11.6,11.6,0,0,1,74.35,153.77Z"/><path class="cls-1" d="M85.42,144a6.61,6.61,0,0,0-3.77,1,3.79,3.79,0,0,0-1.74,2.64c0,.12,0,.19.26.23l1.57.2a.31.31,0,0,0,.35-.26,2.24,2.24,0,0,1,1.07-1.49,4.25,4.25,0,0,1,2.26-.54,3.42,3.42,0,0,1,2.57.86,3.22,3.22,0,0,1,.83,2.33v1.11c0,.07,0,.11-.12.11H85.34a6.82,6.82,0,0,0-4.4,1.27,4.16,4.16,0,0,0-1.58,3.43,3.74,3.74,0,0,0,1.39,3.2,5.64,5.64,0,0,0,3.46,1,7.13,7.13,0,0,0,2.58-.45,4.52,4.52,0,0,0,1.88-1.32s.08,0,.11,0a.1.1,0,0,1,0,.09v1.19a.26.26,0,0,0,.29.29h1.48a.26.26,0,0,0,.29-.29v-9.75a4.62,4.62,0,0,0-1.42-3.54A5.68,5.68,0,0,0,85.42,144Zm3.4,10.22a2.68,2.68,0,0,1-1.25,2.31,5.1,5.1,0,0,1-3,.85,3.83,3.83,0,0,1-2.31-.65,2.25,2.25,0,0,1-.88-1.93,2.49,2.49,0,0,1,1.16-2.18,5.43,5.43,0,0,1,3.08-.78h3c.08,0,.12,0,.12.11Z"/><path class="cls-1" d="M100.83,144a4.46,4.46,0,0,0-3.91,1.8s0,0-.08,0a.1.1,0,0,1,0-.09V144.5a.26.26,0,0,0-.29-.3H95a.26.26,0,0,0-.29.3v14.1a.26.26,0,0,0,.29.29h1.48a.26.26,0,0,0,.29-.29v-9.23a3.4,3.4,0,0,1,3.57-3.57,3.32,3.32,0,0,1,2.51,1,3.6,3.6,0,0,1,1,2.61v9.17a.26.26,0,0,0,.29.29h1.48a.25.25,0,0,0,.29-.29V149a4.89,4.89,0,0,0-1.38-3.65A5,5,0,0,0,100.83,144Z"/><path class="cls-1" d="M120.63,138.57h-1.48c-.2,0-.29.1-.29.3v6.82a.08.08,0,0,1,0,.07s-.06,0-.1,0a4.28,4.28,0,0,0-1.6-1.29A4.81,4.81,0,0,0,115,144a5.58,5.58,0,0,0-3.45,1.06,5.32,5.32,0,0,0-1.91,2.92,13.4,13.4,0,0,0-.35,3.6,13.05,13.05,0,0,0,.4,3.68,5.4,5.4,0,0,0,1.9,2.85,5.53,5.53,0,0,0,3.41,1,4.7,4.7,0,0,0,2.11-.46,4.45,4.45,0,0,0,1.58-1.31s.07,0,.1,0a.07.07,0,0,1,0,.07v1.22a.25.25,0,0,0,.29.29h1.48a.26.26,0,0,0,.29-.29V138.87A.26.26,0,0,0,120.63,138.57Zm-1.92,15.15a5,5,0,0,1-.38,1.37,3.53,3.53,0,0,1-1.16,1.62,3,3,0,0,1-1.94.61,3.62,3.62,0,0,1-2.11-.61,3.1,3.1,0,0,1-1.23-1.65,5.18,5.18,0,0,1-.41-1.38,16.44,16.44,0,0,1-.11-2.13,11.6,11.6,0,0,1,.16-2.22,4.73,4.73,0,0,1,.51-1.44,3.29,3.29,0,0,1,1.21-1.54,3.52,3.52,0,0,1,2-.58,3.08,3.08,0,0,1,1.9.6A3.23,3.23,0,0,1,118.3,148a4.67,4.67,0,0,1,.41,1.41,15.49,15.49,0,0,1,.12,2.19A15.08,15.08,0,0,1,118.71,153.72Z"/><path class="cls-1" d="M126.55,138.28a1.66,1.66,0,0,0-1.17.45,1.72,1.72,0,0,0,0,2.34,1.63,1.63,0,0,0,2.79-1.16,1.57,1.57,0,0,0-.46-1.18A1.65,1.65,0,0,0,126.55,138.28Z"/><rect class="cls-1" x="125.44" y="144.18" width="2.06" height="14.68" rx="0.29"/><path class="cls-1" d="M138.21,144a4.49,4.49,0,0,0-3.92,1.8s0,0-.07,0a.1.1,0,0,1,0-.09V144.5a.26.26,0,0,0-.29-.3h-1.48c-.2,0-.29.1-.29.3v14.1a.25.25,0,0,0,.29.29h1.48a.26.26,0,0,0,.29-.29v-9.23a3.38,3.38,0,0,1,3.57-3.57,3.32,3.32,0,0,1,2.51,1,3.6,3.6,0,0,1,1,2.61v9.17a.26.26,0,0,0,.29.29H143a.26.26,0,0,0,.29-.29V149a4.89,4.89,0,0,0-1.38-3.65A5,5,0,0,0,138.21,144Z"/><path class="cls-1" d="M158.15,144.2h-1.48a.26.26,0,0,0-.29.3v1.13a.08.08,0,0,1,0,.08s-.06,0-.1,0a4.64,4.64,0,0,0-3.91-1.72A5.22,5.22,0,0,0,149,145a5.45,5.45,0,0,0-1.89,2.8,6.16,6.16,0,0,0-.3,1.57c0,.58-.08,1.3-.08,2.15a13.62,13.62,0,0,0,.35,3.54,4.88,4.88,0,0,0,2,2.87,5.72,5.72,0,0,0,3.35,1,4.5,4.5,0,0,0,3.8-1.74s.08-.06.1-.05a.08.08,0,0,1,0,.07v1.08a4.22,4.22,0,0,1-1.22,3.35,5.89,5.89,0,0,1-3.92,1.06l-.78,0a.23.23,0,0,0-.2,0,.27.27,0,0,0-.09.22l-.06,1.34a.29.29,0,0,0,.29.32l1,0a8,8,0,0,0,5.15-1.5,5.79,5.79,0,0,0,1.87-4.76V144.5A.26.26,0,0,0,158.15,144.2Zm-1.8,9.18a7.08,7.08,0,0,1-.12,1.07,3.35,3.35,0,0,1-1.14,2,3.49,3.49,0,0,1-2.34.79,3.59,3.59,0,0,1-2.36-.8,3.68,3.68,0,0,1-1.27-2,10.08,10.08,0,0,1-.29-2.93,10.66,10.66,0,0,1,.29-2.9,4.1,4.1,0,0,1,1.32-2,3.46,3.46,0,0,1,2.31-.79,3.37,3.37,0,0,1,3.45,2.82,4.51,4.51,0,0,1,.15.94c0,.34,0,1,0,2Q156.38,152.74,156.35,153.38Z"/><path class="cls-1" d="M174.75,143.74a4,4,0,0,0-3.54,1.68.06.06,0,0,1-.09,0,.11.11,0,0,1-.06-.11v-6.42a.31.31,0,0,0-.1-.24.34.34,0,0,0-.25-.11h-3.39a.34.34,0,0,0-.25.11.31.31,0,0,0-.1.24v19.62a.34.34,0,0,0,.35.35h3.39a.34.34,0,0,0,.35-.35v-8.68a2.68,2.68,0,0,1,.66-1.88,2.4,2.4,0,0,1,3.45,0,2.72,2.72,0,0,1,.65,1.88v8.68a.37.37,0,0,0,.1.25.33.33,0,0,0,.25.1h3.4a.33.33,0,0,0,.24-.1.33.33,0,0,0,.1-.25V149a5.22,5.22,0,0,0-1.42-3.86A5.08,5.08,0,0,0,174.75,143.74Z"/><path class="cls-1" d="M194.86,144h-3.4a.37.37,0,0,0-.24.1.33.33,0,0,0-.1.25v9.14a2.6,2.6,0,0,1-.79,1.56,2.31,2.31,0,0,1-1.62.59,2.15,2.15,0,0,1-1.73-.73,2.75,2.75,0,0,1-.62-1.88v-8.68a.34.34,0,0,0-.11-.25.35.35,0,0,0-.24-.1h-3.37a.33.33,0,0,0-.24.1.34.34,0,0,0-.11.25V154a4.89,4.89,0,0,0,1.43,3.75,5.05,5.05,0,0,0,3.62,1.33,4.18,4.18,0,0,0,3.6-1.56c0-.06.08-.09.12-.08a.09.09,0,0,1,.06.1v1a.33.33,0,0,0,.1.25.33.33,0,0,0,.24.1h3.4a.33.33,0,0,0,.25-.1.37.37,0,0,0,.1-.25V144.32a.34.34,0,0,0-.35-.35Z"/><path class="cls-1" d="M214.33,143.74a5.09,5.09,0,0,0-2.45.58,4.22,4.22,0,0,0-1.73,1.77c-.07.12-.14.12-.2,0a4.12,4.12,0,0,0-1.67-1.74,5.05,5.05,0,0,0-2.54-.61,4.12,4.12,0,0,0-3.68,1.77q-.06.09-.12.06a.12.12,0,0,1-.06-.12v-1.13a.33.33,0,0,0-.1-.25.37.37,0,0,0-.25-.1h-3.39a.37.37,0,0,0-.25.1.33.33,0,0,0-.1.25v14.22a.34.34,0,0,0,.35.35h3.39a.34.34,0,0,0,.35-.35v-9.2a2.37,2.37,0,0,1,.74-1.54,2.32,2.32,0,0,1,1.56-.55,2.14,2.14,0,0,1,1.65.71,2.74,2.74,0,0,1,.64,1.88v8.7a.34.34,0,0,0,.35.35h3.36a.34.34,0,0,0,.35-.35v-8.73a2.61,2.61,0,0,1,.64-1.86,2.12,2.12,0,0,1,1.65-.7,2,2,0,0,1,1.63.7,2.79,2.79,0,0,1,.61,1.89v8.7a.34.34,0,0,0,.35.35h3.39a.34.34,0,0,0,.35-.35v-9.6a5.41,5.41,0,0,0-1.28-3.84A4.64,4.64,0,0,0,214.33,143.74Z"/><path class="cls-1" d="M230.9,144.39a8.32,8.32,0,0,0-3.36-.65,8.75,8.75,0,0,0-3.15.55,5.68,5.68,0,0,0-2.27,1.54,3.88,3.88,0,0,0-1,2.21c0,.13.09.22.32.26l3.51.46a.33.33,0,0,0,.38-.29,1.51,1.51,0,0,1,.77-.9,3.16,3.16,0,0,1,1.49-.32,2.45,2.45,0,0,1,1.74.54,1.93,1.93,0,0,1,.58,1.49v.64c0,.1,0,.15-.14.15h-3a7.12,7.12,0,0,0-4.47,1.23,4.18,4.18,0,0,0-1.57,3.47,3.9,3.9,0,0,0,1.4,3.25,5.73,5.73,0,0,0,3.65,1.1,4.62,4.62,0,0,0,3.92-1.59q.06-.09.12-.06s.05.06.05.11v1a.34.34,0,0,0,.11.25.31.31,0,0,0,.24.1h3.4a.33.33,0,0,0,.25-.1.37.37,0,0,0,.1-.25V148.7a4.16,4.16,0,0,0-.83-2.52A5.54,5.54,0,0,0,230.9,144.39Zm-1,9.3a2.08,2.08,0,0,1-.87,1.72,3.38,3.38,0,0,1-2.11.66,2.25,2.25,0,0,1-1.48-.45,1.48,1.48,0,0,1-.55-1.23,1.57,1.57,0,0,1,.73-1.39,3.68,3.68,0,0,1,2.05-.49h2.09c.1,0,.14,0,.14.14Z"/><path class="cls-1" d="M244.25,143.74a4.07,4.07,0,0,0-3.54,1.68.06.06,0,0,1-.09,0,.13.13,0,0,1-.05-.11v-1a.34.34,0,0,0-.35-.35h-3.4a.35.35,0,0,0-.24.1.33.33,0,0,0-.1.25v14.22a.33.33,0,0,0,.1.25.31.31,0,0,0,.24.1h3.4a.33.33,0,0,0,.25-.1.37.37,0,0,0,.1-.25v-8.68a2.67,2.67,0,0,1,.65-1.88,2.4,2.4,0,0,1,3.45,0,2.68,2.68,0,0,1,.66,1.88v8.68a.33.33,0,0,0,.1.25.33.33,0,0,0,.24.1h3.4a.33.33,0,0,0,.25-.1.37.37,0,0,0,.1-.25V149a5.26,5.26,0,0,0-1.42-3.86A5.11,5.11,0,0,0,244.25,143.74Z"/><path class="cls-1" d="M268.5,144.86a5.53,5.53,0,0,0-3.47-1.12,4,4,0,0,0-3.37,1.6.1.1,0,0,1-.11,0s-.06,0-.06-.1v-1a.33.33,0,0,0-.1-.25.37.37,0,0,0-.25-.1h-3.39a.37.37,0,0,0-.25.1.33.33,0,0,0-.1.25v19.62a.33.33,0,0,0,.1.25.37.37,0,0,0,.25.1h3.39a.37.37,0,0,0,.25-.1.33.33,0,0,0,.1-.25v-6.21a.12.12,0,0,1,.06-.12s.08,0,.11.06a3.94,3.94,0,0,0,3.26,1.45,5.68,5.68,0,0,0,3.55-1.09,6.13,6.13,0,0,0,2.1-2.94,11.2,11.2,0,0,0,.56-3.63,10.39,10.39,0,0,0-.53-3.48A6,6,0,0,0,268.5,144.86Zm-2.34,9.62a2.29,2.29,0,0,1-2,1.13,2.14,2.14,0,0,1-2-1.16,5.9,5.9,0,0,1-.64-3,5.81,5.81,0,0,1,.61-2.93,2.14,2.14,0,0,1,2-1.25,2.27,2.27,0,0,1,2.15,1.25,5.84,5.84,0,0,1,.61,2.9A5.62,5.62,0,0,1,266.16,154.48Z"/><path class="cls-1" d="M283.92,145a6.73,6.73,0,0,0-4.06-1.21,7.13,7.13,0,0,0-4.18,1.22,6.24,6.24,0,0,0-2.41,3.37,10.77,10.77,0,0,0-.4,3.07,10.33,10.33,0,0,0,.4,3,6.4,6.4,0,0,0,2.38,3.48,7.42,7.42,0,0,0,8.35,0,6.47,6.47,0,0,0,2.36-3.55,10.29,10.29,0,0,0,.41-2.94,9.91,9.91,0,0,0-.47-3A6.35,6.35,0,0,0,283.92,145Zm-1.51,8.48a3.24,3.24,0,0,1-1,1.6,2.39,2.39,0,0,1-1.63.58,2.48,2.48,0,0,1-1.67-.58,3.2,3.2,0,0,1-1-1.6,8.15,8.15,0,0,1-.2-2,6.77,6.77,0,0,1,.23-2.06,3.11,3.11,0,0,1,.94-1.54,2.5,2.5,0,0,1,1.64-.55,2.53,2.53,0,0,1,1.63.55,3.23,3.23,0,0,1,1,1.54,7.62,7.62,0,0,1,.24,2.06A8.07,8.07,0,0,1,282.41,153.43Z"/><path class="cls-1" d="M300,151.75a9.47,9.47,0,0,0-3.25-1.57c-.31-.09-.6-.18-.87-.24l-.72-.19a10,10,0,0,1-2-.61.92.92,0,0,1-.6-.87,1.07,1.07,0,0,1,.61-1,3.17,3.17,0,0,1,1.57-.35,3.1,3.1,0,0,1,1.73.44,1.28,1.28,0,0,1,.65,1.07.34.34,0,0,0,.35.35h3.1a.34.34,0,0,0,.35-.35,4.12,4.12,0,0,0-.77-2.44,5,5,0,0,0-2.16-1.67,8.34,8.34,0,0,0-3.25-.59,7.19,7.19,0,0,0-4.43,1.26,4.06,4.06,0,0,0-1.67,3.41,3.29,3.29,0,0,0,1.11,2.67,9.22,9.22,0,0,0,3,1.57,18.78,18.78,0,0,0,2.14.67,8.27,8.27,0,0,1,1.72.55.82.82,0,0,1,.52.78,1.12,1.12,0,0,1-.61,1,2.85,2.85,0,0,1-1.6.4,3.27,3.27,0,0,1-1.78-.45,1.31,1.31,0,0,1-.71-1.09v0a.37.37,0,0,0-.1-.25.33.33,0,0,0-.25-.1h-3.22a.34.34,0,0,0-.35.35v.29a3.45,3.45,0,0,0,.8,2.23,5.16,5.16,0,0,0,2.25,1.54,9.45,9.45,0,0,0,3.39.55,7.76,7.76,0,0,0,4.57-1.2,3.86,3.86,0,0,0,1.7-3.35A3.38,3.38,0,0,0,300,151.75Z"/><path class="cls-1" d="M313.93,151.75a9.47,9.47,0,0,0-3.25-1.57c-.31-.09-.6-.18-.87-.24l-.72-.19a10,10,0,0,1-2-.61.92.92,0,0,1-.6-.87,1.07,1.07,0,0,1,.61-1,3.17,3.17,0,0,1,1.57-.35,3.1,3.1,0,0,1,1.73.44,1.28,1.28,0,0,1,.65,1.07.34.34,0,0,0,.35.35h3.1a.34.34,0,0,0,.35-.35,4.12,4.12,0,0,0-.77-2.44,5,5,0,0,0-2.16-1.67,8.34,8.34,0,0,0-3.25-.59,7.19,7.19,0,0,0-4.43,1.26,4.06,4.06,0,0,0-1.67,3.41,3.29,3.29,0,0,0,1.11,2.67,9.22,9.22,0,0,0,3,1.57,18.78,18.78,0,0,0,2.14.67,8.27,8.27,0,0,1,1.72.55.82.82,0,0,1,.52.78,1.12,1.12,0,0,1-.61,1,2.85,2.85,0,0,1-1.6.4,3.27,3.27,0,0,1-1.78-.45,1.31,1.31,0,0,1-.71-1.09v0a.37.37,0,0,0-.1-.25.33.33,0,0,0-.25-.1h-3.22a.34.34,0,0,0-.35.35v.29a3.45,3.45,0,0,0,.8,2.23,5.16,5.16,0,0,0,2.25,1.54,9.45,9.45,0,0,0,3.39.55,7.76,7.76,0,0,0,4.57-1.2,3.86,3.86,0,0,0,1.7-3.35A3.38,3.38,0,0,0,313.93,151.75Z"/><path class="cls-1" d="M319.24,137.7a2.33,2.33,0,0,0-1.64,3.94,2.26,2.26,0,0,0,1.64.65,2.24,2.24,0,0,0,2.3-2.29,2.19,2.19,0,0,0-2.3-2.3Z"/><path class="cls-1" d="M320.9,143.94h-3.4a.3.3,0,0,0-.24.11.32.32,0,0,0-.11.24v14.25a.34.34,0,0,0,.11.25.3.3,0,0,0,.24.1h3.4a.31.31,0,0,0,.24-.1.33.33,0,0,0,.1-.25V144.29a.31.31,0,0,0-.1-.24A.32.32,0,0,0,320.9,143.94Z"/><path class="cls-1" d="M335.1,144.83a5.68,5.68,0,0,0-3.55-1.09,3.82,3.82,0,0,0-3.22,1.45q-.06.09-.12.06a.12.12,0,0,1-.06-.12v-6.21a.31.31,0,0,0-.1-.24.34.34,0,0,0-.25-.11h-3.39a.34.34,0,0,0-.25.11.31.31,0,0,0-.1.24v19.62a.34.34,0,0,0,.35.35h3.39a.34.34,0,0,0,.35-.35v-1a.09.09,0,0,1,.06-.1.13.13,0,0,1,.12.05,4,4,0,0,0,3.33,1.59,5.54,5.54,0,0,0,3.47-1.13,6.31,6.31,0,0,0,2.13-3.11,11.21,11.21,0,0,0,.5-3.51,10.73,10.73,0,0,0-.55-3.6A6.26,6.26,0,0,0,335.1,144.83Zm-2.19,9.53a2.28,2.28,0,0,1-2.12,1.25,2.21,2.21,0,0,1-2-1.25,5.83,5.83,0,0,1-.58-2.93,6.1,6.1,0,0,1,.64-3.05,2.13,2.13,0,0,1,1.94-1.13,2.27,2.27,0,0,1,2.06,1.13,5.64,5.64,0,0,1,.7,3.08A5.92,5.92,0,0,1,332.91,154.36Z"/><path class="cls-1" d="M342.2,137.7a2.19,2.19,0,0,0-2.3,2.3,2.24,2.24,0,0,0,2.3,2.29,2.22,2.22,0,0,0,2.29-2.29,2.19,2.19,0,0,0-2.29-2.3Z"/><path class="cls-1" d="M343.85,143.94h-3.39a.34.34,0,0,0-.25.11.31.31,0,0,0-.1.24v14.25a.34.34,0,0,0,.35.35h3.39a.34.34,0,0,0,.35-.35V144.29a.31.31,0,0,0-.1-.24A.34.34,0,0,0,343.85,143.94Z"/><path class="cls-1" d="M350.7,138.57h-3.39a.34.34,0,0,0-.25.11.31.31,0,0,0-.1.24v19.62a.34.34,0,0,0,.35.35h3.39a.33.33,0,0,0,.25-.1.37.37,0,0,0,.1-.25V138.92a.35.35,0,0,0-.1-.24A.34.34,0,0,0,350.7,138.57Z"/><path class="cls-1" d="M357.46,143.94h-3.39a.34.34,0,0,0-.25.11.31.31,0,0,0-.1.24v14.25a.34.34,0,0,0,.35.35h3.39a.34.34,0,0,0,.35-.35V144.29a.31.31,0,0,0-.1-.24A.34.34,0,0,0,357.46,143.94Z"/><path class="cls-1" d="M355.81,137.7a2.19,2.19,0,0,0-2.3,2.3,2.24,2.24,0,0,0,2.3,2.29,2.3,2.3,0,1,0,0-4.59Z"/><path class="cls-1" d="M368.78,144H366a.12.12,0,0,1-.14-.14v-3.46a.37.37,0,0,0-.1-.24.33.33,0,0,0-.25-.1h-3.25a.33.33,0,0,0-.25.1.33.33,0,0,0-.1.24v3.46a.12.12,0,0,1-.14.14H360.1a.34.34,0,0,0-.35.35v2.58a.37.37,0,0,0,.1.25.33.33,0,0,0,.25.1h1.66c.09,0,.14.05.14.15v7.77a3.43,3.43,0,0,0,1.22,3,6.53,6.53,0,0,0,3.6.8q.52,0,1.74-.06a.37.37,0,0,0,.35-.38v-2.76a.37.37,0,0,0-.1-.24.33.33,0,0,0-.25-.1h-1a1.56,1.56,0,0,1-1.26-.47,2.17,2.17,0,0,1-.39-1.42V147.4c0-.1,0-.15.14-.15h2.79a.33.33,0,0,0,.25-.1.37.37,0,0,0,.1-.25v-2.58a.34.34,0,0,0-.35-.35Z"/><path class="cls-1" d="M383.49,143.94H380a.37.37,0,0,0-.4.29l-2.44,9.41c0,.05-.05.08-.09.08s-.07,0-.09-.08l-2.43-9.41a.39.39,0,0,0-.41-.29h-3.63c-.21,0-.32.09-.32.26a.33.33,0,0,0,0,.15l4.76,14.45a.27.27,0,0,1,0,.18,3.44,3.44,0,0,1-.65,1.45,2.12,2.12,0,0,1-1.13.67,10,10,0,0,1-1.93.2.34.34,0,0,0-.35.35v2.67a.45.45,0,0,0,.06.24c0,.07.08.1.14.1h.2a11.74,11.74,0,0,0,3.86-.49,4.35,4.35,0,0,0,2.12-1.55,12.55,12.55,0,0,0,1.48-3.18l5-15.09a.33.33,0,0,0,0-.3A.28.28,0,0,0,383.49,143.94Z"/><path class="cls-1" d="M389.15,138.45a3.17,3.17,0,0,1,1.14,1.13,3.13,3.13,0,0,1,.41,1.56,3.19,3.19,0,0,1-.41,1.59,3.12,3.12,0,0,1-1.14,1.14,3.19,3.19,0,0,1-1.59.41,3.25,3.25,0,0,1-1.59-.41,3,3,0,0,1-1.14-1.14,3.1,3.1,0,0,1-.42-1.59,3,3,0,0,1,.42-1.56,3.28,3.28,0,0,1,1.15-1.13,3.27,3.27,0,0,1,3.17,0Zm-.3,4.9a2.39,2.39,0,0,0,.92-.92,2.49,2.49,0,0,0,.34-1.29,2.41,2.41,0,0,0-.34-1.26,2.44,2.44,0,0,0-.92-.91,2.49,2.49,0,0,0-1.29-.34,2.54,2.54,0,0,0-2.2,1.25,2.41,2.41,0,0,0-.34,1.26,2.49,2.49,0,0,0,.34,1.29,2.39,2.39,0,0,0,.92.92,2.45,2.45,0,0,0,1.28.34A2.49,2.49,0,0,0,388.85,143.35Zm-.39-2.32a.56.56,0,0,1-.3.27c-.05,0-.06.07-.05.1l.42,1v.06c0,.09-.05.13-.14.13h-.21a.17.17,0,0,1-.18-.13l-.4-1a.06.06,0,0,0-.06,0h-.26a.05.05,0,0,0-.06.06v1a.14.14,0,0,1-.16.16h-.18a.14.14,0,0,1-.16-.16V139.9a.14.14,0,0,1,.16-.16h.85a.78.78,0,0,1,.6.24.81.81,0,0,1,.23.6A.84.84,0,0,1,388.46,141Zm-1.23-.8V141c0,.05,0,.07.06.07h.37a.38.38,0,0,0,.3-.12.42.42,0,0,0-.3-.73h-.37A.05.05,0,0,0,387.23,140.23Z"/></g></g></svg>