<?xml version="1.0" encoding="utf-8"?>
<!-- Generator: Adobe Illustrator 23.0.4, SVG Export Plug-In . SVG Version: 6.00 Build 0)  -->
<svg version="1.1" id="Layer_1" xmlns="http://www.w3.org/2000/svg" xmlns:xlink="http://www.w3.org/1999/xlink" x="0px" y="0px"
	 viewBox="0 0 1714.9 396" style="enable-background:new 0 0 1714.9 396;" xml:space="preserve">
<style type="text/css">
	.st0{fill:#CD163F;}
	.st1{fill:url(#SVGID_1_);}
</style>
<g>
	<path class="st0" d="M918.5,249.6c-38.5,0-61.5,20.2-61.5,54.1c0,33.7,23,53.9,61.5,53.9c38.6,0,61.7-20.1,61.7-53.9
		C980.2,269.8,957.1,249.6,918.5,249.6L918.5,249.6z M918.5,327.6c-11.3,0-18.9-9.7-18.9-24.2c0-14.6,7.6-24.3,18.9-24.3
		c11.5,0,18.9,9.6,18.9,24.3C937.4,318.4,930.2,327.6,918.5,327.6L918.5,327.6z M1404.4,340.1c0,8.3,6.6,15,14.8,15h28.8V252.2
		h-43.6V340.1L1404.4,340.1z M1404.4,218.4h43.6v21.3h-43.6V218.4z M1526.9,249.6c-38.5,0-61.5,20.2-61.5,54.1
		c0,33.7,23,53.9,61.5,53.9c38.6,0,61.7-20.1,61.7-53.9C1588.6,269.8,1565.5,249.6,1526.9,249.6L1526.9,249.6z M1526.9,327.6
		c-11.3,0-18.9-9.7-18.9-24.2c0-14.6,7.6-24.3,18.9-24.3c11.5,0,18.9,9.6,18.9,24.3C1545.9,318.4,1538.6,327.6,1526.9,327.6
		L1526.9,327.6z M711.3,86.3c-38.5,0-61.5,20.2-61.5,54.1c0,33.7,23,53.9,61.5,53.9c38.6,0,61.7-20.1,61.7-53.9
		C773,106.5,750,86.3,711.3,86.3L711.3,86.3z M711.3,164.4c-11.3,0-18.9-9.7-18.9-24.2c0-14.6,7.6-24.3,18.9-24.3
		c11.5,0,18.9,9.6,18.9,24.3C730.3,155.1,723,164.4,711.3,164.4z M1320.7,165.5c-4.7,0.1-24.2,1.1-41.4,1.1
		c-17.7,0-23.9-1.8-27.4-13.2h69.8c1.8,0,3.3-1.5,3.3-3.3v-8c0-35.4-18.8-55.3-54.8-55.8c-40.2-0.5-59,20.6-59,52.4
		c0,34.9,18.4,55.8,62.3,55.8c31.4,0,45.6-12.8,48.4-27.5C1321.9,166.4,1321.3,165.5,1320.7,165.5L1320.7,165.5z M1270.4,110.2
		c11.6,0,16.8,9.5,16.8,21.3h-35.8C1251.4,119.6,1255.4,110.2,1270.4,110.2L1270.4,110.2z M1383.6,55.2h-28.4
		c-8.2,0-14.8,6.7-14.8,15v121.6h43.2V55.2L1383.6,55.2z M834.9,193.5c17,1.6,36.1-1.9,43.4-3.4c1.8-0.4,3-1.9,3-3.8v-25.1
		c0,0-8,0.9-27,0.9c-16.4,0-26.7-8.5-26.7-22.2c0-13.8,9.6-22.3,25.1-22.3c17.9,0,28.5,2.2,28.5,2.2V94.4c0-1.8-1.2-3.4-3-3.8
		c-7.2-1.6-26.1-5.2-41-4.3c-32,1.9-51.9,20.6-51.9,53.8C785.3,171.6,804.1,190.7,834.9,193.5L834.9,193.5z M1264.8,251.8v13.3
		c-6.2-9.5-15.7-15.8-29.9-15.8c-32.6,0-51,20.2-51,53.9v0.4c0,33.7,18.4,53.9,51,53.9c14.3,0,23.7-6.3,29.9-15.8v2.3
		c0,6.1,4.9,11.1,10.9,11.1h30.2V251.8H1264.8L1264.8,251.8z M1245.8,327.6c-11.3,0-18.9-9.7-18.9-24.2c0-14.4,7.6-24.2,18.9-24.2
		c11.7,0,18.9,9.3,18.9,24.2C1264.8,318.3,1257.5,327.6,1245.8,327.6z M1164.6,88.9l-12.2,67.3l-13.6-67.3h-49.1l-13.6,67.3
		l-12.2-67.3h-40.9l0,0l-42.6-0.3c-6.4,0-12.6,3.9-16,10.1l-24.2,35.2V54.8h-26.4c-8.2,0-14.8,6.7-14.8,15v121.6h41.2v-51.2
		l28.2,41.1c3.4,6.2,9.6,10.1,16,10.1l42.7,0.3l-41.7-55l37.6-47.8l24.6,102.8h46c5.1,0,9.4-3.7,10.3-8.9l8.8-61h3.4l8.8,61
		c0.9,5.1,5.2,8.9,10.3,8.9h46l24.6-102.9L1164.6,88.9L1164.6,88.9z M721.6,296.7c0,17.6-5.6,26.6-16.8,26.6c-6.9,0-14-2.3-14-19.3
		v-51.8h-41.2v58.7c0,29.6,14.8,45.8,41.6,45.8c13.5,0,25.1-4.8,33.6-13.6v0.8c0,6.1,4.9,11.1,10.9,11.1h27.1V252.2h-41.2
		L721.6,296.7L721.6,296.7z M1132.1,249.8c-14.3,0-26.7,6.1-35.3,17.4c-7.1-11.2-18.8-17.4-33.7-17.4c-12.5,0-23.7,4.8-32,13.5
		v-11.1h-37.6v102.9h40.8v-49.6c0-13.3,6-21.9,15.4-21.9c6.7,0,12.8,2.3,12.8,18.7v52.8h41v-49.6c0-13.5,5.8-21.9,15.2-21.9
		c6.7,0,12.8,2.3,12.8,18.7v52.8h40.8v-59.7C1172.3,266,1158,249.8,1132.1,249.8z M1673.5,249.6c-13.5,0-25.1,4.8-33.6,13.7v-11.1
		h-38v102.9h41.2v-49.6c0-13.6,6.6-22.5,16.8-22.5c6.9,0,14,2.3,14,19.3v52.8h41v-59.7C1714.9,265.8,1700.2,249.6,1673.5,249.6
		L1673.5,249.6z M1364.5,218.4h-41.2v121.6c0,8.3,6.6,15,14.8,15h26.4v-72.6h24.9v-30.3h-24.9V218.4L1364.5,218.4z M1447.5,55.2
		h-28.4c-8.2,0-14.8,6.7-14.8,15v121.6h43.2V55.2L1447.5,55.2z M550.8,218.4c-4.4,0-8.4,2.7-10,6.8l-51.9,129.9H532l9.6-25.8h49.6
		l5.3,14.9v0c2.9,6.5,9.3,10.8,16.2,10.8h33.8l-54.6-136.7L550.8,218.4L550.8,218.4z M552.7,298.8l14.2-38.6l13.6,38.6H552.7z
		 M825,218.5h-43.7v121.6c0,8.3,6.6,15,14.8,15H825v-72.6h24.9v-30.3H825V218.5L825,218.5z M629.9,139.2
		c-4.4-5.6-10.3-9.7-19.2-11.3v-0.4c19.1-2.3,30.5-15.3,30.5-36.3c0-26.3-18.8-36.5-49.3-36.5h-73.8v136.9h43.6v-49.8h12
		c6,0,12.1,1,13.8,7.1l12.3,35.8c0.7,4,4.1,6.9,8,6.9h40.3l-15.1-45.7C632.5,143.4,631.4,141.2,629.9,139.2L629.9,139.2z
		 M579.6,113.2h-17.2V84.2h17.9c8.9,0,17.4,1.8,17.4,14.1C597.6,112,588.7,113.2,579.6,113.2L579.6,113.2z"/>
</g>
<linearGradient id="SVGID_1_" gradientUnits="userSpaceOnUse" x1="67.4071" y1="32.8513" x2="275.36" y2="393.0351" gradientTransform="matrix(1 0 0 -1 0 396)">
	<stop  offset="0.28" style="stop-color:#CD163F"/>
	<stop  offset="0.9" style="stop-color:#F58025"/>
</linearGradient>
<path class="st1" d="M112.7,122.7L271.2,5.3c2.3-1.7,1.1-5.3-1.7-5.3H139.5C124.5,0,110,6,99.4,16.6L16.6,99.3
	C6,110,0,124.4,0,139.5v117c0,15.1,6,29.5,16.6,40.2l82.7,82.7C110,390,124.5,396,139.5,396H252c3.1,0,4.1-4.2,1.2-5.6L29.7,285
	c-9.3-4.4-15.3-13.8-15.3-24.1v-56.1c0-5.9,2.8-11.4,7.5-14.9l32.2-23.9v-43.4H112.7z"/>
<path class="st0" d="M266.8,167.9l-15.3,41.6h29.9L266.8,167.9z M138.2,169.6c0-13.3-9.1-15.2-18.7-15.2h-19.3v31.4h18.6
	C128.6,185.7,138.2,184.4,138.2,169.6L138.2,169.6z"/>
<path class="st0" d="M381.6,101.6l-77-77c-4.3-4.3-11.1-4.9-16.2-1.4l-148.2,99.8c28.1,1.8,45.1,13.1,45.1,39.1
	c0,22.6-12.2,36.7-32.9,39.2v0.4c9.6,1.8,16,6.2,20.7,12.2c1.7,2.1,2.8,4.6,3.4,7.1l11.7,35.5l50.4-126.2c1.8-4.4,6.1-7.3,10.8-7.3
	h44.3l58.9,147.4h-36.4c-7.4,0-14.3-4.7-17.4-11.7v0l-5.7-16.1h-53.5l-10.4,27.8h-79.9c-4.3,0-7.9-3.1-8.6-7.5l-13.3-38.6
	c-1.8-6.6-8.4-7.7-14.9-7.7H99.6v53.7H54.1v-89.4l-27.2,18.3c-2.5,1.7-3.9,4.5-3.9,7.5v56.9c0,3.7,2.2,7,5.5,8.4L285,379.4
	c4.8,2.1,10.3,1,14-2.6l82.6-82.3c9.3-9.2,14.5-21.8,14.5-34.9V136.4C396.1,123.3,390.9,110.8,381.6,101.6L381.6,101.6z"/>
</svg>
