<?xml version="1.0" encoding="utf-8"?>
<!-- Generator: Adobe Illustrator 27.5.0, SVG Export Plug-In . SVG Version: 6.00 Build 0)  -->
<svg version="1.1" id="FT_Hub" xmlns="http://www.w3.org/2000/svg" xmlns:xlink="http://www.w3.org/1999/xlink" x="0px" y="0px"
	 viewBox="0 0 303.6 170" style="enable-background:new 0 0 303.6 170;" xml:space="preserve">
<style type="text/css">
	.st0{fill:#FFFFFF;}
</style>
<path class="st0" d="M253.7,60.3c0,0-0.1-0.1-0.1-0.2v-0.7c0-0.1,0-0.1,0.1-0.2c0-0.1,0.1-0.1,0.2-0.1h5.1c0.1,0,0.1,0,0.2,0.1
	c0,0,0.1,0.1,0.1,0.2v0.7c0,0.1-0.1,0.2-0.2,0.2c0,0,0,0,0,0h-1.8c-0.1,0-0.1,0-0.1,0.1c0,0,0,0,0,0v5.8c0,0.1-0.1,0.2-0.2,0.2
	c0,0,0,0,0,0H256c-0.1,0-0.2-0.1-0.2-0.2c0,0,0,0,0,0v-5.8c0-0.1,0-0.1-0.1-0.1c0,0,0,0,0,0h-1.7C253.8,60.4,253.7,60.4,253.7,60.3z
	 M265.3,59.2h0.9c0.1,0,0.1,0,0.2,0.1c0,0,0.1,0.1,0.1,0.2v6.9c0,0.1-0.1,0.2-0.2,0.2c0,0,0,0,0,0h-0.9c-0.1,0-0.1,0-0.2-0.1
	c-0.1,0-0.1-0.1-0.1-0.2v-4.8c0,0,0-0.1,0-0.1s0,0-0.1,0l-1.1,1.6c-0.1,0.1-0.2,0.2-0.3,0.2h-0.2c-0.1,0-0.2-0.1-0.3-0.2l-1.1-1.6
	c0,0,0,0-0.1,0s0,0,0,0.1v4.8c0,0.1,0,0.1-0.1,0.2c0,0-0.1,0.1-0.2,0.1h-0.9c-0.1,0-0.1,0-0.2-0.1c-0.1,0-0.1-0.1-0.1-0.2v-6.9
	c0-0.1,0-0.1,0.1-0.2c0-0.1,0.1-0.1,0.2-0.1h0.9c0.1,0,0.2,0.1,0.3,0.2l1.5,2.2c0,0,0.1,0,0.1,0c0,0,0.1,0,0.1,0l1.5-2.2
	C265.1,59.3,265.2,59.2,265.3,59.2z"/>
<path class="st0" d="M115.6,65.8c0,0.5-0.4,0.9-0.9,0.9c0,0,0,0-0.1,0h-8.6c-0.2,0-0.3,0.1-0.4,0.3c0,0,0,0.1,0,0.1v27.3
	c0,0.2-0.1,0.5-0.3,0.7c-0.2,0.2-0.4,0.3-0.7,0.2h-6.7c-0.2,0-0.5-0.1-0.7-0.2c-0.2-0.2-0.3-0.4-0.3-0.7V67.1c0-0.2-0.1-0.3-0.3-0.4
	c0,0-0.1,0-0.1,0H75.4c-0.2,0-0.3,0.1-0.4,0.3c0,0,0,0,0,0v6.1c0,0.2,0.1,0.3,0.3,0.4c0,0,0.1,0,0.1,0h9.9c0.2,0,0.5,0.1,0.7,0.3
	c0.2,0.2,0.3,0.4,0.2,0.7v5.4c0,0.5-0.3,0.9-0.8,0.9c0,0-0.1,0-0.1,0h-9.9c-0.2,0-0.3,0.1-0.4,0.3c0,0,0,0.1,0,0.1v13.3
	c0,0.5-0.4,0.9-0.8,0.9c0,0-0.1,0-0.1,0h-6.7c-0.2,0-0.5-0.1-0.7-0.2c-0.2-0.2-0.3-0.4-0.3-0.7V60.3c0-0.2,0.1-0.5,0.3-0.7
	c0.2-0.2,0.4-0.3,0.7-0.2h47.3c0.2,0,0.5,0.1,0.7,0.2c0.2,0.2,0.3,0.4,0.3,0.7L115.6,65.8z M127.2,56.5L108.8,38c-2-1.9-4.6-3-7.3-3
	H76.2c-2.8,0-5.4,1.1-7.3,3L50.4,56.5c-1.6,1.6-2.5,3.7-2.5,5.9v26c0,2.8,1.1,5.4,3.1,7.4l17.8,17.8c2,1.9,4.6,3,7.3,3h13.1v14.8
	c0,0.3,0.3,0.6,0.6,0.6c0.2,0,0.3-0.1,0.4-0.2l36.8-36.7c1.6-1.6,2.5-3.7,2.5-5.9V62.4C129.6,60.2,128.7,58,127.2,56.5"/>
<path class="st0" d="M38,95.8l18.4,18.4c1.6,1.6,3.7,2.5,5.9,2.5h3.2c-0.4-0.3-0.8-0.6-1.1-0.9L45.3,96.6c-2-2-3.2-4.8-3.2-7.6V62.7
	c0-2.9,1.1-5.6,3.2-7.6l19.1-19.2c0.3-0.3,0.7-0.6,1.1-0.9h-3.2c-2.2,0-4.4,0.9-5.9,2.5L38,55.9c-1.9,2-3,4.6-3,7.3v25.2
	C35,91.2,36.1,93.8,38,95.8z"/>
<g>
	<path class="st0" d="M147.1,93.5c-2-1.1-3.5-2.6-4.6-4.5c-1.1-1.9-1.7-4.1-1.7-6.6V71.7c0-2.5,0.6-4.7,1.7-6.6
		c1.1-1.9,2.6-3.4,4.6-4.4c2-1,4.3-1.6,6.9-1.6c2.6,0,4.9,0.5,6.9,1.6s3.5,2.5,4.6,4.4c1.1,1.9,1.7,4.1,1.7,6.6v10.7
		c0,2.5-0.5,4.7-1.7,6.7c-1.1,1.9-2.6,3.4-4.6,4.5c-2,1.1-4.3,1.6-6.9,1.6C151.4,95.1,149.1,94.6,147.1,93.5z M158.4,87.3
		c1.1-1.2,1.7-2.7,1.7-4.7v-11c0-1.9-0.6-3.5-1.7-4.7c-1.1-1.2-2.6-1.8-4.5-1.8c-1.8,0-3.3,0.6-4.4,1.8c-1.1,1.2-1.7,2.7-1.7,4.7v11
		c0,1.9,0.6,3.5,1.7,4.7c1.1,1.2,2.6,1.8,4.4,1.8C155.8,89.1,157.3,88.5,158.4,87.3z"/>
	<path class="st0" d="M195.1,81.8c0,2.3-0.3,4.4-1,6.2c-0.8,2.1-2,3.8-3.6,5.1s-3.7,1.9-6.1,1.9c-2.4,0-4.3-0.8-5.6-2.5
		c-0.1-0.1-0.1-0.1-0.2-0.1c-0.1,0-0.1,0.1-0.1,0.2v10.7c0,0.2-0.1,0.3-0.2,0.4c-0.1,0.1-0.3,0.2-0.4,0.2h-5.8
		c-0.2,0-0.3-0.1-0.4-0.2c-0.1-0.1-0.2-0.3-0.2-0.4V69.5c0-0.2,0.1-0.3,0.2-0.4c0.1-0.1,0.3-0.2,0.4-0.2h5.8c0.2,0,0.3,0.1,0.4,0.2
		c0.1,0.1,0.2,0.3,0.2,0.4v1.6c0,0.1,0,0.2,0.1,0.2c0.1,0,0.1,0,0.2-0.1c1.4-1.8,3.3-2.8,5.8-2.8c2.3,0,4.3,0.6,6,1.9
		c1.7,1.3,2.9,3.1,3.6,5.4C194.8,77.5,195.1,79.5,195.1,81.8z M187.8,81.7c0-2.1-0.4-3.8-1.1-5c-0.8-1.4-2-2.1-3.7-2.1
		c-1.5,0-2.7,0.7-3.5,2.1c-0.7,1.2-1,2.9-1,5.1c0,2.2,0.4,4,1.1,5.2c0.8,1.3,1.9,2,3.4,2s2.7-0.6,3.5-1.9
		C187.4,85.7,187.8,83.9,187.8,81.7z"/>
	<path class="st0" d="M213.4,74.3c-0.1,0.1-0.3,0.2-0.4,0.2h-4.8c-0.2,0-0.2,0.1-0.2,0.2v10.6c0,1.1,0.2,1.9,0.7,2.5
		s1.2,0.8,2.2,0.8h1.7c0.2,0,0.3,0.1,0.4,0.2c0.1,0.1,0.2,0.3,0.2,0.4V94c0,0.4-0.2,0.6-0.6,0.6c-1.4,0.1-2.4,0.1-3,0.1
		c-2.8,0-4.8-0.5-6.2-1.4c-1.4-0.9-2.1-2.6-2.1-5.2V74.8c0-0.2-0.1-0.2-0.2-0.2H198c-0.2,0-0.3-0.1-0.4-0.2
		c-0.1-0.1-0.2-0.3-0.2-0.4v-4.4c0-0.2,0.1-0.3,0.2-0.4c0.1-0.1,0.3-0.2,0.4-0.2h2.9c0.2,0,0.2-0.1,0.2-0.2v-6
		c0-0.2,0.1-0.3,0.2-0.4c0.1-0.1,0.3-0.2,0.4-0.2h5.6c0.2,0,0.3,0.1,0.4,0.2c0.1,0.1,0.2,0.3,0.2,0.4v6c0,0.2,0.1,0.2,0.2,0.2h4.8
		c0.2,0,0.3,0.1,0.4,0.2c0.1,0.1,0.2,0.3,0.2,0.4v4.4C213.6,74.1,213.5,74.2,213.4,74.3z"/>
	<path class="st0" d="M218,64.8c-0.8-0.8-1.1-1.7-1.1-2.8c0-1.2,0.4-2.1,1.1-2.9c0.7-0.7,1.7-1.1,2.9-1.1c1.2,0,2.1,0.4,2.8,1.1
		c0.7,0.7,1.1,1.7,1.1,2.9c0,1.1-0.4,2.1-1.1,2.8s-1.7,1.1-2.8,1.1C219.7,66,218.7,65.6,218,64.8z M217.4,94.4
		c-0.1-0.1-0.2-0.3-0.2-0.4V69.4c0-0.2,0.1-0.3,0.2-0.4c0.1-0.1,0.3-0.2,0.4-0.2h5.8c0.2,0,0.3,0.1,0.4,0.2c0.1,0.1,0.2,0.3,0.2,0.4
		V94c0,0.2-0.1,0.3-0.2,0.4c-0.1,0.1-0.3,0.2-0.4,0.2h-5.8C217.6,94.6,217.5,94.5,217.4,94.4z"/>
	<path class="st0" d="M227.4,94.3c-0.1-0.2-0.1-0.3,0.1-0.5l8-12c0.1-0.1,0.1-0.2,0-0.3l-8-12c-0.1-0.1-0.1-0.2-0.1-0.3
		c0-0.3,0.2-0.4,0.5-0.4h6.2c0.3,0,0.5,0.1,0.7,0.4l4.5,6.8c0.1,0.2,0.2,0.2,0.4,0l4.5-6.8c0.2-0.3,0.4-0.4,0.7-0.4h6.7
		c0.2,0,0.4,0.1,0.5,0.2c0.1,0.1,0,0.3-0.1,0.5l-8,12c0,0.1,0,0.2,0,0.3l8,12c0.1,0.1,0.1,0.2,0.1,0.3c0,0.3-0.2,0.4-0.5,0.4h-6.3
		c-0.3,0-0.5-0.1-0.7-0.4l-4.5-6.8c-0.1-0.2-0.2-0.2-0.3,0l-4.5,6.8c-0.2,0.3-0.4,0.4-0.7,0.4h-6.7
		C227.7,94.6,227.5,94.5,227.4,94.3z"/>
</g>
</svg>
