<svg version="1.2" baseProfile="tiny" id="EdgeSVG_tcmFv" x="0px" y="0px" width="101.44px" height="58.583px" viewBox="0 0 101.44 58.583" xmlns:xlink="http://www.w3.org/1999/xlink" xmlns="http://www.w3.org/2000/svg">
  <linearGradient id="SVGID_1_" gradientUnits="userSpaceOnUse" x1="0" y1="29.2915" x2="101.4399" y2="29.2915">
    <stop offset="0" style="stop-color:#000000;stop-opacity:0.5"/>
    <stop offset="1" style="stop-color:#000000;stop-opacity:0.5"/>
  </linearGradient>
  <path fill="url(#SVGID_1_)" d="M2.72,58.583c-1.5,0-2.72-1.22-2.72-2.72V2.72C0,1.22,1.22,0,2.72,0h96c1.5,0,2.72,1.22,2.72,2.72&#xD;&#xA;&#x9;v53.143c0,1.5-1.22,2.72-2.72,2.72H2.72z"/>
  <path fill="#EC1C2E" d="M100.72,55.863c0,1.1-0.9,2-2,2h-96c-1.1,0-2-0.9-2-2V2.72c0-1.1,0.9-2,2-2h96c1.1,0,2,0.9,2,2V55.863z"/>
  <path fill="#FDD900" d="M39.296,28.983l0.687-2.143l-1.813-1.428h2.308l0.687-2.143l0.686,2.143h2.308l-1.813,1.428l0.687,2.143&#xD;&#xA;&#x9;l-1.868-1.291L39.296,28.983z M16.419,23.759l6.282,4.341l-2.31-7.205l6.097-4.803h-7.762l-2.307-7.207l-2.309,7.207H6.349&#xD;&#xA;&#x9;l6.096,4.803l-2.309,7.205L16.419,23.759z M41.819,16.539l2.237,0.391l-1.521-1.658l1.049-2.056l-2.096,0.966l-1.52-1.659&#xD;&#xA;&#x9;l0.273,2.233l-2.096,0.966l2.245,0.538l0.273,2.233L41.819,16.539z M33.417,10l1.067,2.005l0.373-2.219l2.266-0.436l-2.05-1.06&#xD;&#xA;&#x9;l0.375-2.219L33.854,7.66L31.803,6.6l0.955,2.101l-1.594,1.588L33.417,10z M33.417,35.019l1.067,2.005l0.373-2.219l2.266-0.436&#xD;&#xA;&#x9;l-2.05-1.06l0.375-2.219l-1.594,1.588l-2.051-1.06l0.955,2.101l-1.594,1.588L33.417,35.019z"/>
</svg>