<svg width="16" height="16" viewBox="0 0 16 16" fill="none" xmlns="http://www.w3.org/2000/svg">
<g clip-path="url(#clip0_201_25)">
<path fill-rule="evenodd" clip-rule="evenodd" d="M8.04992 6.345C7.63192 6.345 7.23692 6.515 6.93892 6.823C6.30792 7.472 6.30792 8.529 6.93792 9.178C7.53492 9.793 8.56592 9.793 9.16092 9.178H9.16192C9.79192 8.529 9.79192 7.472 9.16192 6.823C8.86292 6.515 8.46792 6.345 8.04992 6.345ZM8.04992 11.156C7.22192 11.156 6.44492 10.824 5.86192 10.223C4.67192 8.997 4.67192 7.003 5.86192 5.778C7.02792 4.576 9.07092 4.576 10.2379 5.778C11.4279 7.003 11.4279 8.997 10.2379 10.223C9.65491 10.824 8.87792 11.156 8.04992 11.156ZM6.86292 14.25H9.28492L9.57092 12.237L9.93892 12.065C10.2039 11.942 10.4529 11.794 10.6799 11.629L11.0139 11.385L12.9789 12.165L14.1759 10.134L12.4749 8.793L12.5089 8.391C12.5309 8.128 12.5309 7.872 12.5089 7.61L12.4749 7.207L14.1759 5.866L12.9789 3.835L11.0159 4.615L10.6819 4.372C10.4389 4.196 10.1829 4.046 9.92192 3.927L9.55592 3.759L9.23692 1.75H6.81492L6.52892 3.765L6.15892 3.937C5.89992 4.057 5.64992 4.203 5.41792 4.372L5.08392 4.615L3.12092 3.835L1.92392 5.866L3.62592 7.207L3.59092 7.611C3.56792 7.873 3.56792 8.127 3.59092 8.39L3.62592 8.793L1.92392 10.134L3.12092 12.165L5.08492 11.385L5.41992 11.628C5.66092 11.804 5.91592 11.954 6.17792 12.074L6.54392 12.241L6.86292 14.25ZM9.62492 15.75H6.52892C5.97992 15.75 5.51992 15.36 5.43492 14.822L5.18592 13.253C5.08492 13.199 4.98492 13.14 4.88592 13.077L3.36692 13.682C2.86492 13.882 2.27792 13.685 2.00192 13.219L0.451915 10.591C0.173915 10.119 0.289915 9.51 0.720915 9.172L2.07392 8.106C2.07292 8.035 2.07292 7.965 2.07392 7.895L0.718915 6.826C0.289915 6.491 0.173915 5.881 0.450915 5.41L1.99992 2.783C2.27892 2.316 2.86892 2.118 3.36992 2.321L4.88692 2.922C4.97492 2.867 5.06492 2.815 5.15492 2.765L5.37792 1.197C5.45592 0.657 5.92692 0.25 6.47492 0.25H9.57092C10.1199 0.25 10.5799 0.641 10.6649 1.179L10.9139 2.747C11.0149 2.802 11.1139 2.861 11.2129 2.922L12.7339 2.319C13.2309 2.118 13.8209 2.316 14.0979 2.782L15.6479 5.409C15.9259 5.881 15.8099 6.491 15.3789 6.828L14.0249 7.896C14.0269 7.965 14.0269 8.035 14.0249 8.105L15.3809 9.174C15.8099 9.51 15.9259 10.119 15.6489 10.59L14.0999 13.217C13.8209 13.685 13.2329 13.883 12.7299 13.68L11.2129 13.077C11.1249 13.132 11.0359 13.185 10.9449 13.236L10.7219 14.804C10.6439 15.344 10.1729 15.75 9.62492 15.75Z" fill="black"/>
</g>
<defs>
<clipPath id="clip0_201_25">
<rect width="16" height="16" fill="white"/>
</clipPath>
</defs>
</svg>
