<svg width="12" height="12" viewBox="0 0 12 12" fill="none" xmlns="http://www.w3.org/2000/svg">
<g clip-path="url(#clip0_557_33)">
<path d="M10.78 4.93C10.56 4.88 10.34 4.84 10.11 4.81C10.02 4.55 9.91001 4.3 9.79001 4.04C9.89001 3.91 9.98001 3.77 10.07 3.64L10.14 3.53C10.41 3.14 10.37 2.73 10.04 2.39L9.64001 1.99C9.30001 1.65 8.89001 1.62 8.49001 1.89L8.39001 1.96C8.25001 2.05 8.12001 2.15 7.98001 2.25C7.73001 2.14 7.47001 2.03 7.21001 1.93L7.11001 1.35C7.03001 0.860002 6.71001 0.580002 6.13001 0.580002H5.65001C5.20001 0.580002 4.89001 0.850002 4.80001 1.28C4.76001 1.5 4.72001 1.71 4.68001 1.93C4.42001 2.02 4.17001 2.13 3.91001 2.25C3.79001 2.16 3.66001 2.07 3.54001 1.99L3.41001 1.9C3.01001 1.62 2.60001 1.66 2.25001 2L1.86001 2.39C1.53001 2.73 1.49001 3.14 1.78001 3.56C1.89001 3.72 2.00001 3.88 2.11001 4.04C2.00001 4.29 1.89001 4.55 1.79001 4.81C1.64001 4.83 1.49001 4.86 1.34001 4.89L1.20001 4.92C0.720012 5 0.450012 5.33 0.450012 5.81V6.37C0.450012 6.83 0.710012 7.15 1.16001 7.24C1.37001 7.28 1.58001 7.32 1.80001 7.35C1.90001 7.61 2.00001 7.86 2.12001 8.12C2.00001 8.29 1.88001 8.46 1.76001 8.63C1.49001 9.02 1.53001 9.43 1.85001 9.76C1.99001 9.9 2.12001 10.04 2.27001 10.18C2.60001 10.5 3.01001 10.54 3.39001 10.28C3.56001 10.16 3.74001 10.04 3.91001 9.92C4.16001 10.03 4.42001 10.14 4.68001 10.24L4.78001 10.83C4.86001 11.32 5.19001 11.59 5.69001 11.59H6.69001V10.59H5.76001L5.66001 10C5.62001 9.77 5.50001 9.47 5.09001 9.32C4.82001 9.22 4.55001 9.11 4.28001 8.99C3.88001 8.81 3.58001 8.93 3.40001 9.07C3.24001 9.18 3.08001 9.3 2.91001 9.41C2.82001 9.32 2.74001 9.24 2.64001 9.14C2.75001 8.98 2.86001 8.82 2.98001 8.66C3.12001 8.47 3.24001 8.17 3.06001 7.76C2.94001 7.5 2.83001 7.23 2.73001 6.97C2.58001 6.55 2.26001 6.42 2.03001 6.39C1.84001 6.36 1.66001 6.33 1.46001 6.29V5.91L1.53001 5.9C1.70001 5.87 1.87001 5.84 2.04001 5.81C2.27001 5.77 2.58001 5.64 2.73001 5.23C2.83001 4.96 2.94001 4.69 3.06001 4.42C3.24001 4.02 3.12001 3.72 2.98001 3.54C2.87001 3.39 2.77001 3.24 2.64001 3.05L2.91001 2.78L2.97001 2.82C3.10001 2.91 3.24001 3 3.37001 3.1C3.57001 3.25 3.89001 3.38 4.30001 3.18C4.55001 3.06 4.81001 2.96 5.07001 2.86C5.50001 2.71 5.63001 2.39 5.67001 2.15C5.70001 1.96 5.73001 1.78 5.77001 1.59H6.14001L6.24001 2.18C6.28001 2.4 6.40001 2.7 6.80001 2.85C7.08001 2.95 7.35001 3.07 7.62001 3.19C8.02001 3.37 8.32001 3.24 8.50001 3.11C8.65001 3 8.80001 2.9 8.95001 2.79L8.98001 2.77L9.25001 3.04L9.23001 3.07C9.13001 3.22 9.03001 3.36 8.92001 3.51C8.78001 3.7 8.65001 4.01 8.84001 4.42C8.96001 4.68 9.07001 4.94 9.16001 5.2C9.32001 5.63 9.63001 5.76 9.87001 5.79C10.06 5.82 10.25 5.85 10.43 5.89C10.43 6.06 10.43 6.22 10.43 6.39V6.89L11.42 6.91V6.41C11.43 6.19 11.43 5.98 11.42 5.76C11.42 5.34 11.15 5.02 10.74 4.94L10.78 4.93Z" fill="black"/>
<path d="M9.06001 7.35C8.73001 7.02 8.60001 6.67 8.63001 6.23C8.66001 5.81 8.58001 5.39 8.40001 4.97C7.97001 4.02 6.96001 3.38 5.92001 3.44L5.48001 4.15L5.76001 4.54L6.22001 5.01C6.46001 5.25 6.45001 5.52 6.22001 5.76C6.04001 5.94 5.87001 6.11 5.68001 6.28C5.45001 6.5 5.18001 6.5 4.95001 6.28L4.21001 5.54L3.37001 5.87C3.34001 6.31 3.40001 6.7 3.56001 7.08C4.00001 8.11 4.94001 8.72 6.07001 8.69C6.46001 8.67 6.75001 8.76 6.99001 8.94C7.05001 8.98 7.10001 9.03 7.15001 9.08C7.73001 9.67 8.31001 10.27 8.89001 10.87L9.24001 11.23L9.96001 10.54L9.61001 10.18C9.03001 9.58 8.45001 8.98 7.87001 8.39C7.79001 8.31 7.70001 8.23 7.61001 8.16C7.19001 7.83 6.67001 7.68 6.05001 7.7C5.69001 7.71 5.36001 7.62 5.08001 7.43C5.52001 7.5 5.99001 7.36 6.36001 7.01C6.55001 6.83 6.73001 6.65 6.91001 6.47C7.28001 6.1 7.43001 5.64 7.37001 5.2C7.41001 5.26 7.44001 5.32 7.47001 5.39C7.59001 5.65 7.64001 5.91 7.62001 6.16C7.56001 6.89 7.81001 7.54 8.34001 8.07C8.73001 8.46 9.10001 8.85 9.48001 9.24L10.34 10.13L11.06 9.43L10.2 8.55C9.82001 8.15 9.43001 7.76 9.04001 7.37L9.06001 7.35Z" fill="black"/>
</g>
<defs>
<clipPath id="clip0_557_33">
<rect width="12" height="12" fill="white"/>
</clipPath>
</defs>
</svg>
