<svg width="12" height="12" viewBox="0 0 12 12" fill="none" xmlns="http://www.w3.org/2000/svg">
<g id="Favorites-md" clip-path="url(#clip0_37_12)">
<path id="Vector" fill-rule="evenodd" clip-rule="evenodd" d="M5.99982 0.300003C5.88657 0.300003 5.77257 0.358503 5.71407 0.477003L4.03257 3.88425L0.272066 4.431C0.0118161 4.46925 -0.0924339 4.7895 0.0965661 4.97325L2.81757 7.626L2.17482 11.3708C2.13957 11.5763 2.30307 11.7435 2.48832 11.7435C2.53782 11.7435 2.58807 11.7315 2.63682 11.7068L5.99982 9.93825L9.36282 11.7068C9.41157 11.7315 9.46182 11.7435 9.51132 11.7435C9.69657 11.7435 9.86006 11.5763 9.82481 11.3708L9.18207 7.626L11.9031 4.97325C12.0921 4.7895 11.9878 4.46925 11.7276 4.431L7.96707 3.88425L6.28557 0.477003C6.22707 0.358503 6.11307 0.300003 5.99982 0.300003ZM5.99982 2.59575L6.89607 4.41225L7.17432 4.97475L9.80006 5.3565L7.89957 7.209L8.34882 9.82425L5.99982 8.58975L3.65082 9.82425L4.10007 7.209L2.19957 5.3565L4.82532 4.97475L5.10357 4.41225L5.99982 2.59575Z" fill="#007DB7"/>
</g>
<defs>
<clipPath id="clip0_37_12">
<rect width="12" height="12" fill="white"/>
</clipPath>
</defs>
</svg>
