<svg width="16" height="16" viewBox="0 0 16 16" fill="none" xmlns="http://www.w3.org/2000/svg">
<path fill-rule="evenodd" clip-rule="evenodd" d="M14 4.20789V12.6672C14 13.9501 12.9371 15 11.6371 15H7.32216C6.68464 15 6.08248 14.7488 5.6384 14.3068L1 9.65117C1 9.65117 1.74464 8.93384 1.76752 8.92178C1.89752 8.81127 2.05768 8.75199 2.23448 8.75199C2.36448 8.75199 2.48304 8.78715 2.58912 8.84543C2.61304 8.85145 5.13712 10.2811 5.13712 10.2811V3.33283C5.13712 2.84858 5.53232 2.45777 6.02216 2.45777C6.51304 2.45777 6.90928 2.84858 6.90928 3.33283V7.41679H7.5V1.87506C7.5 1.39081 7.89624 1 8.38712 1C8.87696 1 9.27216 1.39081 9.27216 1.87506V7.41679H9.86288V2.45777C9.86288 1.97352 10.2591 1.58271 10.75 1.58271C11.2409 1.58271 11.6371 1.97352 11.6371 2.45777V7.41679H12.2278V4.20789C12.2278 3.72365 12.623 3.33283 13.1129 3.33283C13.6038 3.33283 14 3.72365 14 4.20789Z" fill="black"/>
<path fill-rule="evenodd" clip-rule="evenodd" d="M14 4.20789V12.6672C14 13.9501 12.9371 15 11.6371 15H7.32216C6.68464 15 6.08248 14.7488 5.6384 14.3068L1 9.65117C1 9.65117 1.74464 8.93384 1.76752 8.92178C1.89752 8.81127 2.05768 8.75199 2.23448 8.75199C2.36448 8.75199 2.48304 8.78715 2.58912 8.84543C2.61304 8.85145 5.13712 10.2811 5.13712 10.2811V3.33283C5.13712 2.84858 5.53232 2.45777 6.02216 2.45777C6.51304 2.45777 6.90928 2.84858 6.90928 3.33283V7.41679H7.5V1.87506C7.5 1.39081 7.89624 1 8.38712 1C8.87696 1 9.27216 1.39081 9.27216 1.87506V7.41679H9.86288V2.45777C9.86288 1.97352 10.2591 1.58271 10.75 1.58271C11.2409 1.58271 11.6371 1.97352 11.6371 2.45777V7.41679H12.2278V4.20789C12.2278 3.72365 12.623 3.33283 13.1129 3.33283C13.6038 3.33283 14 3.72365 14 4.20789Z" fill="black"/>
</svg>
