<svg width="16" height="16" viewBox="0 0 16 16" fill="none" xmlns="http://www.w3.org/2000/svg">
<g id="Warning-md">
<path id="Bottom Color" fill-rule="evenodd" clip-rule="evenodd" d="M7.99141 1.14433L0.993408 14.8952L14.9984 14.8575L8.00741 1.15005L7.99941 1.14319C7.99541 1.14319 7.99141 1.14433 7.99141 1.14433" fill="#FFCC00"/>
<path id="Top Color" fill-rule="evenodd" clip-rule="evenodd" d="M7.24988 10.1555H8.74988V6.09835H7.24988V10.1555ZM7.24988 13.0126H8.74988V11.2983H7.24988V13.0126ZM0.993896 14.8949L7.9919 1.144C7.9919 1.144 7.9949 1.14286 7.9999 1.14286L8.0069 1.14971L14.9979 14.8571L0.993896 14.8949ZM15.8699 14.3211L8.87087 0.574857C8.67987 0.190857 8.33987 0 7.99987 0C7.65987 0 7.31987 0.190857 7.12787 0.574857L0.12987 14.3211C-0.24513 15.072 0.23687 16 1.00087 16H14.9979C15.7639 16 16.2449 15.072 15.8699 14.3211V14.3211Z" fill="black"/>
</g>
</svg>
