<?xml version="1.0" encoding="UTF-8"?>
<svg width="209px" height="209px" viewBox="0 0 209 209" version="1.1" xmlns="http://www.w3.org/2000/svg" xmlns:xlink="http://www.w3.org/1999/xlink">
    <!-- Generator: Sketch 43.2 (39069) - http://www.bohemiancoding.com/sketch -->
    <title>A2_Fan-01</title>
    <desc>Created with Sketch.</desc>
    <defs>
        <linearGradient x1="50%" y1="0%" x2="50%" y2="100%" id="linearGradient-1">
            <stop stop-color="#DDDDDD" offset="0%"></stop>
            <stop stop-color="#BDBDBD" offset="100%"></stop>
        </linearGradient>
    </defs>
    <g id="Proposte" stroke="none" stroke-width="1" fill="#FDFDFD" fill-rule="evenodd">
        <g id="General_Fans" transform="translate(-275.000000, -788.000000)">
            <g id="A2_Fan-01" transform="translate(275.000000, 788.000000)">
                <path d="M71.3526471,97.6928899 C71.3526471,97.6928899 54.3587435,96.9308757 43.227219,89.717573 C29.4886248,80.4389996 37.6981113,66.2197518 37.6981113,66.2197518 C37.6981113,66.2197518 46.1047818,51.6589715 58.6292322,56.7333146 C67.0846673,61.3380291 62.9071504,67.1454612 78.7815408,81.3106703 C80.6398924,83.3395349 87.3724474,92.2120701 87.3724474,92.2120701 C87.3724474,92.2120701 84.8965786,97.0863842 83.9912539,98.068469 C83.0859292,99.0505537 71.3526471,97.6928899 71.3526471,97.6928899 Z M89.1225785,76.1809532 C89.1225785,76.1809532 79.0201647,62.4946585 77.6206584,49.3043608 C76.1854867,32.7882723 92.4023151,30.2197791 92.4023151,30.2197791 C92.4023151,30.2197791 109.008656,27.5895931 112.947043,40.5163068 C114.689685,49.9852547 107.547466,50.3934498 106.529109,71.6446231 C106.121883,74.3656394 103.463562,85.1814846 103.463562,85.1814846 C103.463562,85.1814846 98.1173942,86.3248785 96.7844317,86.239355 C95.4514692,86.1538316 89.1225785,76.1809532 89.1225785,76.1809532 Z M116.844484,76.3903443 C116.844484,76.3903443 121.409765,60.0034092 130.942239,50.7798251 C143.073514,39.480575 155.081591,50.6782877 155.081591,50.6782877 C155.081591,50.6782877 167.37809,62.1449586 159.616414,73.2069294 C153.227659,80.4098169 148.508808,75.0329814 131.135691,87.3140336 C128.740788,88.6683605 118.58116,93.2324743 118.58116,93.2324743 C118.58116,93.2324743 114.388723,89.7235798 113.635463,88.6205375 C112.882203,87.5174952 116.844484,76.3903443 116.844484,76.3903443 Z M133.917119,98.4910213 C133.917119,98.4910213 149.525183,91.7262781 162.692235,93.3298125 C179.107861,95.6467357 177.962531,112.025713 177.962531,112.025713 C177.962531,112.025713 176.789692,128.798097 163.308345,129.727666 C153.690076,129.295595 154.898993,122.244606 134.421566,116.471875 C131.861895,115.462992 121.921251,110.439768 121.921251,110.439768 C121.921251,110.439768 122.009789,104.973414 122.392971,103.693854 C122.776154,102.414293 133.917119,98.4910213 133.917119,98.4910213 Z M127.556655,125.489018 C127.556655,125.489018 142.496629,133.623549 149.339473,144.986562 C157.620181,159.348691 144.008235,168.530065 144.008235,168.530065 C144.008235,168.530065 130.069344,177.931966 121.036888,167.880818 C115.455768,160.03551 121.756306,156.647127 113.698117,136.956647 C112.917237,134.318468 110.75552,123.392528 110.75552,123.392528 C110.75552,123.392528 115.117575,120.096873 116.361793,119.611049 C117.606011,119.125226 127.556655,125.489018 127.556655,125.489018 Z M102.171797,137.247486 C102.171797,137.247486 105.252109,153.977253 100.727731,166.446117 C94.7774783,181.919817 79.0759362,177.119373 79.0759362,177.119373 C79.0759362,177.119373 62.9972584,172.203628 65.1241581,158.8587 C67.708795,149.584142 74.3071198,152.348201 84.5383147,133.694192 C86.0971414,131.427074 93.2277788,122.871188 93.2277788,122.871188 C93.2277788,122.871188 98.5341139,124.187118 99.6946816,124.848319 C100.855249,125.509519 102.171797,137.247486 102.171797,137.247486 Z M77.2043071,125.061538 C77.2043071,125.061538 65.9175008,137.78873 53.3064164,141.900071 C37.4496331,146.737769 31.5655993,131.409337 31.5655993,131.409337 C31.5655993,131.409337 25.5402368,115.712731 37.3656342,109.172792 C46.2653472,105.499526 48.149573,112.400802 69.1480856,108.978538 C71.8943081,108.811134 83.0264971,109.162623 83.0264971,109.162623 C83.0264971,109.162623 85.256436,114.15424 85.4499199,115.475855 C85.6434038,116.797471 77.2043071,125.061538 77.2043071,125.061538 Z" id="Fan-01-Copy"></path>
            </g>
        </g>
    </g>
</svg>