<svg version="1.2" baseProfile="tiny" viewBox="0 0 240.987 173.732" xmlns:xlink="http://www.w3.org/1999/xlink" xmlns="http://www.w3.org/2000/svg">
<path style="fill:#ffffff;" d="M205.9668,79.4581L205.9668,112.9136C205.9668,113.6902,205.3282,114.3278,204.5522,114.3278L204.5907,114.3278L203.1761,118.6833L196.5803,118.6833L196.5803,114.3278L196.5418,114.3278L196.5418,137.3351C196.5418,138.8918,195.8549,141.2354,195.0187,142.5454L189.5821,151.0548C188.7434,152.3647,186.7866,153.4366,185.2322,153.4366L171.6864,153.4366L171.6864,157.9085L170.1561,157.9085L170.1561,158.2247L170.1561,161.0496L170.1561,172.733L53.7256,172.733L53.7256,172.733L53.7256,162.8598L48.9469,162.8598L48.9469,164.7935L43.7199,164.7935L43.7199,162.8598L38.6929,162.8598L38.6929,161.9182L5.2415,160.5023C2.9087,160.5023,1.0001,158.5965,1.0001,156.2615L1.0001,36.1102C1.0001,33.7787,2.9087,31.8694,5.2415,31.8694L14.5677,31.4768L14.5677,27.6008L15.0545,27.6008L15.0545,25.7453L15.4858,25.7453L15.4858,25.3961L20.6719,25.3961L20.6719,25.7453L21.1032,25.7453L21.1032,27.6008L21.59,27.6008L21.59,31.1797L38.6929,30.4552L38.6929,29.5136L43.7199,29.5136L43.7199,27.7068L48.9469,27.7068L48.9469,29.5136L53.7281,29.5136L53.7281,31.3221L106.7042,31.3221L108.1501,24.0515C108.3381,23.2975,109.1237,22.679,109.9021,22.679L122.0961,22.679C122.872,22.679,123.6601,23.2975,123.848,24.0515L125.294,31.3221L168.7391,31.3221L170.1561,34.1505L170.1561,34.1488L171.6864,34.1488L171.6864,38.9386L177.0049,38.9386L177.0049,34.941L177.4917,34.941L177.4917,33.0873L177.9231,33.0873L177.9231,32.7398L183.1116,32.7398L183.1116,33.0873L183.5429,33.0873L183.5429,34.941L184.0297,34.941L184.0297,38.9386L185.2298,38.9386C186.7866,38.9386,188.7434,40.0105,189.5821,41.3204L195.0187,49.8281C195.8549,51.1398,196.5394,53.4834,196.5394,55.0383L196.5394,78.0456L196.6044,78.0456L196.6044,73.6884L203.2002,73.6884L204.6148,78.0456L204.5498,78.0456C205.3306,78.0439,205.9668,78.6815,205.9668,79.4581M105.627,11.3742C105.627,5.648,110.2684,1.0007,115.9991,1.0007C121.725,1.0007,126.3712,5.648,126.3712,11.3742C126.3712,15.3753,124.1059,18.843,120.7875,20.5716L120.7875,22.6772L111.3143,22.6772L111.3143,20.6185C107.9453,18.9073,105.627,15.417,105.627,11.3742M108.9406,11.3742C108.9406,13.6241,110.0082,15.6029,111.6445,16.8902C112.3361,15.6081,114.0471,14.7012,116.0521,14.7012C118.0258,14.7012,119.7175,15.5855,120.426,16.8346C122.0238,15.5438,123.06,13.5858,123.06,11.3742C123.06,7.4757,119.9007,4.3138,115.9991,4.3138C112.0999,4.3138,108.9406,7.4757,108.9406,11.3742M238.1265,90.021L206.9861,90.021C206.9861,93.4001,206.9861,98.4974,206.9861,101.6402L238.1265,101.6402C239.1483,101.6402,239.9869,100.8028,239.9869,99.7812L239.9869,91.8799C239.9869,90.8566,239.1507,90.021,238.1265,90.021Z"/>
</svg>