<svg version="1.2" baseProfile="tiny" id="EdgeSVG_Wk85N" x="0px" y="0px" width="240.987px" height="173.732px" viewBox="0 0 240.987 173.732" xmlns:xlink="http://www.w3.org/1999/xlink" xmlns="http://www.w3.org/2000/svg">
  <linearGradient id="SVGID_1_" gradientUnits="userSpaceOnUse" x1="0" y1="86.8662" x2="240.9868" y2="86.8662">
    <stop offset="0" style="stop-color:#000000;stop-opacity:0.5"/>
    <stop offset="1" style="stop-color:#000000;stop-opacity:0.5"/>
  </linearGradient>
  <path fill="url(#SVGID_1_)" d="M238.127,89.021h-31.161v-9.563c0-1.033-0.655-1.91-1.57-2.254l-1.467-4.518h-6.387v-17.65&#xD;&#xA;&#x9;&#x9;c0-1.75-0.738-4.275-1.68-5.749l-5.437-8.508c-1.02-1.594-3.3-2.843-5.192-2.843h-0.202v-3.997h-0.487v-1.854h-0.431v-0.348h-7.188&#xD;&#xA;&#x9;&#x9;v0.348h-0.431v1.854h-0.487v3.997h-3.319v-4.789h-1.915l-1.417-2.826h-43.242l-1.296-6.511c-0.294-1.196-1.491-2.133-2.723-2.133&#xD;&#xA;&#x9;&#x9;h-0.309V21.13c3.449-2.045,5.583-5.715,5.583-9.756C127.37,5.103,122.269,0,116,0c-6.271,0-11.374,5.103-11.374,11.374&#xD;&#xA;&#x9;&#x9;c0,4.085,2.174,7.775,5.688,9.809v0.495h-0.413c-1.231,0-2.427,0.937-2.732,2.178l-1.284,6.466H54.729v-1.809h-4.783v-1.807h-7.225&#xD;&#xA;&#x9;&#x9;v1.807h-5.027v0.984l-15.103,0.639V26.6h-0.487v-1.854h-0.431v-0.349h-7.188v0.349h-0.431V26.6h-0.487v3.918L5.241,30.87&#xD;&#xA;&#x9;&#x9;C2.351,30.87,0,33.221,0,36.111v120.15c0,2.89,2.35,5.24,5.197,5.24c0,0,25.16,1.064,32.497,1.374v0.983h5.027v1.934h7.225v-1.934&#xD;&#xA;&#x9;&#x9;h2.78v9.874h118.431V162.05v-3.142h1.531v-4.472h12.546c1.891,0,4.171-1.249,5.192-2.845l5.436-8.507&#xD;&#xA;&#x9;&#x9;c0.942-1.474,1.68-3.999,1.68-5.749v-17.651h6.361l1.464-4.509c0.929-0.336,1.599-1.219,1.599-2.263V102.64h31.161&#xD;&#xA;&#x9;&#x9;c1.577,0,2.859-1.282,2.859-2.859v-7.901C240.987,90.303,239.705,89.021,238.127,89.021z M116,5.314c3.341,0,6.06,2.719,6.06,6.06&#xD;&#xA;&#x9;&#x9;c0,1.482-0.558,2.887-1.544,3.987c-1.068-1.03-2.696-1.659-4.465-1.659c-1.807,0-3.457,0.651-4.521,1.712&#xD;&#xA;&#x9;&#x9;c-1.016-1.107-1.591-2.531-1.591-4.04C109.94,8.033,112.659,5.314,116,5.314z"/>
</svg>